/* XPM */
static char *result[] = {
/* columns rows colors chars-per-pixel */
"64 64 246 2 ",
"   c #3A3F71",
".  c #2B4D73",
"X  c #3A4272",
"o  c #354875",
"O  c #3A4A76",
"+  c #3C4D79",
"@  c #2C5176",
"#  c #2D5679",
"$  c #2E5B7D",
"%  c #32557D",
"&  c #3C547D",
"*  c #325B7E",
"=  c #30617F",
"-  c #444D7B",
";  c #345482",
":  c #345C82",
">  c #3B5B82",
",  c #2E6384",
"<  c #346384",
"1  c #3A6486",
"2  c #346A87",
"3  c #376688",
"4  c #3B648A",
"5  c #356C8A",
"6  c #3A6C8B",
"7  c #28708D",
"8  c #36738E",
"9  c #3A738E",
"0  c #3E6891",
"q  c #3B7591",
"w  c #367994",
"e  c #3B7B94",
"r  c #486A8E",
"t  c #447394",
"y  c #427A95",
"u  c #487999",
"i  c #557C99",
"p  c #61699D",
"a  c #4B7BA2",
"s  c #3B849B",
"d  c #39869A",
"f  c #328A9E",
"g  c #2B8CA3",
"h  c #288BA6",
"j  c #348BA3",
"k  c #3C8CA3",
"l  c #2896AA",
"z  c #3D92A5",
"x  c #3696AA",
"c  c #3C93AA",
"v  c #269DB1",
"b  c #399CB1",
"n  c #1DACB7",
"m  c #1FADB9",
"M  c #1EB0B9",
"N  c #25A5B5",
"B  c #2AA3B5",
"V  c #23AAB7",
"C  c #23ADBA",
"Z  c #29AAB9",
"A  c #35A3B7",
"S  c #38ADB7",
"D  c #26B1BC",
"F  c #2BB3BD",
"G  c #2DB8BF",
"H  c #45859B",
"J  c #4A839B",
"K  c #55839C",
"L  c #4989A5",
"P  c #5589A5",
"I  c #449AAC",
"U  c #5895AC",
"Y  c #4E9AB2",
"T  c #678DA6",
"R  c #669BAD",
"E  c #689EB5",
"W  c #779DB3",
"Q  c #45A7B7",
"!  c #46ADB9",
"~  c #56A7B9",
"^  c #65A9BA",
"/  c #79A8BB",
"(  c #6FB1BC",
")  c #2AB6C5",
"_  c #37B9C3",
"`  c #439EC7",
"'  c #4AA6C6",
"]  c #57AAC7",
"[  c #46B7C4",
"{  c #56B9C4",
"}  c #4DA8D5",
"|  c #56B1D5",
" . c #79ADC3",
".. c #6DB9D0",
"X. c #439EE2",
"o. c #4BAAE7",
"O. c #52ADE7",
"+. c #59B5E9",
"@. c #5EBBEC",
"#. c #66BBE6",
"$. c #63BCED",
"%. c #69BEED",
"&. c #71BDED",
"*. c #19CBD8",
"=. c #31C8D1",
"-. c #04D2E7",
";. c #0AD5E7",
":. c #02D3E9",
">. c #0CD6E9",
",. c #15D6E7",
"<. c #14DCEA",
"1. c #1CDDEA",
"2. c #2DDBE6",
"3. c #24DCE9",
"4. c #34DCE5",
"5. c #02E6E6",
"6. c #0CE5E5",
"7. c #01E8E6",
"8. c #03E6E8",
"9. c #0BE4E8",
"0. c #13E6E6",
"q. c #1BE5E4",
"w. c #13E5E9",
"e. c #1BE4E9",
"r. c #1CE8E8",
"t. c #22E5E6",
"y. c #29E6E5",
"u. c #24E4EA",
"i. c #2BE5EA",
"p. c #23E9E9",
"a. c #2CEAEA",
"s. c #38E6E5",
"d. c #34E4EB",
"f. c #3BE6EA",
"g. c #34E9EC",
"h. c #3BEAEC",
"j. c #3FE7F1",
"k. c #4BC8CE",
"l. c #45CAD2",
"z. c #4CD1D8",
"x. c #59D7DC",
"c. c #73D2D8",
"v. c #54DDE2",
"b. c #65C1EE",
"n. c #6FC5EA",
"m. c #6CC3EE",
"M. c #78C4E6",
"N. c #73C5ED",
"B. c #74C9EE",
"V. c #7BCBEE",
"C. c #64DEE1",
"Z. c #7CD5EB",
"A. c #6BC6F1",
"S. c #6CC4F1",
"D. c #73C6F1",
"F. c #78C6F0",
"G. c #75CAF1",
"H. c #7CCCF1",
"J. c #45E5EA",
"K. c #43EBEC",
"L. c #4CECEC",
"P. c #4CEEEE",
"I. c #58E5E5",
"U. c #54ECEC",
"Y. c #5AEDED",
"T. c #54F1EF",
"R. c #5CF1EF",
"E. c #5AEDF0",
"W. c #5BF1F1",
"Q. c #67E7E9",
"!. c #76E9EA",
"~. c #68F1EF",
"^. c #78F2EE",
"/. c #66EEF1",
"(. c #62F1F1",
"). c #6CF3F2",
"_. c #74F5F1",
"`. c #7BF5F2",
"'. c #8A9BBB",
"]. c #8BA4BC",
"[. c #87AAC6",
"{. c #87B7C9",
"}. c #95BBCC",
"|. c #96BCD2",
" X c #8ACDD8",
".X c #99CADA",
"XX c #A7C8D9",
"oX c #B4CDDF",
"OX c #82CEEF",
"+X c #8ACEED",
"@X c #87D2EE",
"#X c #94D2E9",
"$X c #82CEF1",
"%X c #84D1F2",
"&X c #8BD4F3",
"*X c #8FD8F3",
"=X c #93D6F3",
"-X c #95D9F4",
";X c #9CDBF4",
":X c #9CDAF5",
">X c #A7D7E9",
",X c #B0D7EA",
"<X c #B5DAE9",
"1X c #A3DEF5",
"2X c #AADEF5",
"3X c #87E8E8",
"4X c #98E2E7",
"5X c #89F1EF",
"6X c #83F4F1",
"7X c #8AF1F1",
"8X c #8CF5F2",
"9X c #84F8F2",
"0X c #8CF9F3",
"qX c #99F6F5",
"wX c #B0E5EC",
"eX c #A5E1F5",
"rX c #ACE2F5",
"tX c #A5E9F5",
"yX c #ACECF4",
"uX c #ABE2F8",
"iX c #B3E4F6",
"pX c #BBE6F6",
"aX c #B3EBF5",
"sX c #BCEAF6",
"dX c #B4E5F8",
"fX c #BBE6F8",
"gX c #B0EDF8",
"hX c #BDE9F9",
"jX c #A4F3F5",
"kX c #ABF3F4",
"lX c #A4F4F8",
"zX c #A9F5F9",
"xX c #B4F2F5",
"cX c #BAF2F5",
"vX c #B9F7F7",
"bX c #C4E0EE",
"nX c #C2E6F5",
"mX c #C4EAF6",
"MX c #CBEBF6",
"NX c #C1E7F8",
"BX c #C4EAF9",
"VX c #CBECF9",
"CX c #D1EEF9",
"ZX c #C7F9F8",
"AX c #D5FAF9",
"SX c #E2FDFA",
/* pixels */
"B.G.H.A.b.b.A.b.A.V.Z.H.H.H.H.%XH.H.H.G.H.B.H.Z.H.H.G.H.%X%XG.H.H.%X*X:X=X=X=X=X-X-X-X*X%X-X=X=X;X=X=X-X-X+X&X$X%X%X$X$X*X*X$X%X",
"D.A.m.S.A.H.H.H.%X&X%X&X%XH.H.H.%X&X%XH.&XtX-X&X=X*X&X&X-X-X%X%X=X;X;X1X1X1X1X>X2XuX1X2X;XuXuXuXuX1X1X1XeX1X1X=X*X&X$X*X-XH.G.$X",
"D.b.G.N.%X*X&X&X*X-X;X-X-X;X:X1X;X-X;X%X;XuX;X;X;X;X:X;XrXeX;X;XeXuXrX1XuXrXuXrXfXfXdXrXdXdXdXaXdXdX2X2X1XeXeX;X-X=X-X=XH.$.S.D.",
"A.m.S.G.H.*X*X-X-X;X-X;X;X:X;XuXuX-X1XgXrXuXaX;XeX2XuXeXeXuX:X X>XrXaXiXpXNXdXhXBXBXhXsXBXBXpXhXpXpXdXiXuXeXeXeX1X&X:X-XV.m.S.%.",
"G.G.B.H.H.%X*X-X;X1X;X-X-XeXuXeX;XeXeX;XuXiXrXuXuXeX1XeXrX.XR  .( ].>XsXNXNXNXBXBXmXpXBXBXmXBXVXMXmXNXhXsXeXrXrXrX-XuXeX%XB.b.b.",
"N.G.G.&X%X&X;X;X*X-XuX1XtXeXuX;X-XuX1X-XrXaXiXrXsXdXeX>X/ E R 9 9 y J .XmXVXVXVXVXZXBXBXcXVXVXVXmXmXVXBXNXfXdXdXpXeXuX;X*XN.S.S.",
"S.G.%XH.&X;XeXuXuXuX1X1XeXuXgX1X1X1X;X;XeXdXdXrXdXdXiX/ e y 2 9 e 9 5 J XXVXVXCXVXCXVXVXBXCXVXVXVXVXVXBXNXNXBXBXhXrXrXrX-X%XG.B.",
"D.G.*XH.&X;X;XeXuX2X1XeXuX1X1XeXuX1XeXeXuXuXdXdXfXdXoXL 5 2 q 5 2 y 9 L / VXBXVXVXVXhXhXVXVXVXBXNXBXBXNXNXsXhXBXNXaXuXuXeX=X$XH.",
"H.&X-X@X%X$XeXrXdX2X2XiXfXdX2X1X;X1X-XeXuXrXdXfXpXmXXXK 2 , , , < 2 y H / BXBXBXsXsXBXfXBXBXVXBXhXVXBXhXVXnXiXfXBXhXuXrXeX@X*X&X",
"*X-X-X-X;X%X1XrXdXdXdXdXhXpXdXdX1X;X;X1XuXpXdXfXpXsXXXJ 5 $ $ 2 , = 6 J K XXhXVXhXmXBXhXsXmXhXhXhXBXBXNXNXpXhXhXVXBXiXfX1X-X%X&X",
"&X;X;XuXrXdXeXeXdXpXpXhXfXdXiXiXiX:X-XrXdXaXpXnXsXhX}.J 9 # $ $ # * = H 6 K .XpXVXVXhXBXMXMXmXsXpXNXNXNXfXdXVXnXmXpXdXdXuX-X@X&X",
"&X1XrXrXdXdXdXiXNXNXVXhXiXfXfXiXiX2X:X2XiXpXdXdXmX.XU y 8 # @ @ @ @ $ y < 9 K ,XBXBXhXhXMXmXMXnXpXkXhXNXpXpXVXmXVXhXiXpXeX;XH.&X",
"%X;XuXuXdXiXdXpXhXfXNXhXiXpXpXiX2XiX2X2XfXfX1X>X{.U 1 r q = . . . @ 6 6 # * 6 ]..X.XhXBXmX}.<XsXhXhXkXzXBXBXmXpXVXpXrXhXrX1X:X#X",
"H.;XeXuXdXpXdXdXpXhXBXNXfXaXaXiX2X2X1XhXNXNXiXT P u ..J 1 9 @ . . $ 9 # t U < t e K ,XBXVX/ R wXmXmXpXjXqXcXVXVXmXNXnXNXdX1X1X*X",
"%XeXrXrXdXhXhXfXNXNXfXhXjXyXpXiXiX1X1XuXfX,XXX& u ~ q U P 2 1 . @ 9 $ u U J U 6 5 y / NXmX[.f / nXVXNXNXlXzXCXCXCXVXVXVXBXpX2X:X",
"*X1XrXrXdXfXfXfXBXhXfXyXyXdXfXiX{..X2X1X>XP P r U q J P = = U 2 2 * . u P 9 y P 1 3 J <XmX( z H pXVXVXMXVXqXaXmXCXMXVXCXmXpXrX:X",
"=X;X1XiXpXhXmXNXBXBXgXkXhXfXnX>X/ >X2X>XK J y u 9 J t @ ^ 3X0Xc.( 3X^ $ # t y 9 K = = ]. X/ d H <XVXNXVXCXxXkXmXCXVXVXMXmXNXdXrX",
"@X=X;XiXdXpXVXBXVXsXqXhXNXhXpX]. .,XiXW y q y q y $ J 3X0X0X0X0X0X0X0X Xr . # 6 e H = * z d d H <XVXxXVXVXmXxXVXVXBXVXVXVXBXpXiX",
"%X-XuXpXfXsXBXVXsXqXsXBXBXNXpXP  .<X}.y 9 q q < # ( 0X0X0X0X0X`._.9X0X0X5XU . . 2 9 y = = I 9 d >XmXmXxXCXVXkXBXVXMXVXMXBXVXNXiX",
"%X;XrXpXhXsXNXpXlXlXVXVXmXVXbXK [.T t 8 9 9 # : c.0X0X9X0X).a.6.7.p.^.9X9X9Xc.* @ = H = $ d s d >XhXmXlXVXVXxXcXCXMXMXVXmXNXpXiX",
"D.&X1XsXhXsXNXdXqXcXCXBXMXCX<XK i * 9 9 6 # 6 3X9X9X9X_.s.q.t.q.6.7.0.q.P.9X9X!.J . = e 6 9 9 d }.pXpXaXVXmXcXxXCXCXMXMXVXhXrX2X",
"S.H.:X1XuXdXhXgXqXmXVXVXnXMX<XK t 9 9 9 * y 3X6X9X~.t.s.jXAXAXAXvX5XK.6.6.R.9X9X5XU . 2 9 t 2 d R pXhXnXNXVXsXxXVXVXVXBXNXpXfX2X",
"S.H.=X2XuXiXsXdXlXhXmXsXpXnXoXK P 9 9 = 1 !.`.`.~.q.Q.ZXAXSXxXqXZXvXvXkXs.q.R.`.6X6XU @ 6 = 6 d R NXpXpXaXMXsXxXVXMXVXhXdXiX2X2X",
"S.$X-X1XeXrXdXsXzXBXmXiXhXbXXXi u $ 1 $ ~ 9X_.(.s.jXjXvXjX8X).E.~.`.`.jXZX~.6.K.^.`.^.5 @ = 9 d R nXpXpXiXmXkXmXMXVXNXpXdXiX2XrX",
"b.H.-X1XeXdXiXaXkXfXyXdXsXnX}.i K t * s k.9X(.s.kX8XZX8X`./.,.:.;.t.Y.^.qXAXI.5.T._._.^ @ 2 9 d E iXrXwXpXsXsXNXmXfXdXpXrX1X1X1X",
"A.H.;X;XeXtX2XuXtXfXyXwXVXpXW r t 9 w I ! ~.s.Q.vX_.qX5X_.,.:.:.-.-.,.L.^.vXZXt.0.~._.C.= = 9 d {.nXpXiXpXsXmXhXhXpXdXiXrX;X=X;X",
"G.%X-X=X;X1X-XuXtXeXiXiXpXMXW * q q e I ! T.q.qX5X_.^._.J.:.:.-.3.Q.3X^.^.kXAX^.6.P.^.C.e = 9 9 W <XaXhXwXmXmXcXpXBXiX1XrXrX:X1X",
"S.D.&X*X-XeX;XuXyXyXrXyXwXnXW < q q w x C.L.q.vX^._._.~.,.:.;.L.5X8XjXAXAXAXSXkX0.g.).{ 9 = = 9 = oXyXyXaXBXmXsXmXmXaXdXiXdX1X:X",
"S.m.-X*X-X;X:X;XrXtX2XrXyXpX|.1 6 q d Q C.R.q.cX^.~.).W.;.;.f._.^.~.~.5XAXSXSXjXr.p.~.s 9 5 $ e d .XqXpXsXhXmXBXBXiXaXhXiXiXeX1X",
"+.S.%X&X;X1X&X:X1XtXtX2XjXsXnXT < 6 d Q k.R.q.ZX^.~.f.<.<.,.(./.~.~.~.^.ZXSXSXvXp.r./.k 5 * 2 9 e c.kXBXpXaXsXmXNXsXpXiX;XrX1XrX",
"%.%.G.%X-X;X*X=X;XeXtXyXiXjXzX..* * s c ! T.q.AXqXK.-.-.1.d./.~.(.^.5X~.^.jXAXvXa.r.R.C.H 5 9 9 e c.aXdXjXgXhXVXVXfXiX;X;XeX;X1X",
"$.N.m.V.&X;X-X*X-XwXrXyXyXgXqX( : : L c ! T.q.5XkXz.>.-.2.W.(.(.Q.6X5XR.J.~.5XjXa.p.R.R.Q 2 6 9 5  XiXrXuXhXNXBXhXdXeXeX-X;X1X;X",
"B.H.G.V.H.-X-X-X;XiXdXpXaXzXqXE u 5 s c ! U.q.).!.4.,.1.E.W.W.(.R.Y.E.J.1.E.).7Xr.a.W.R.b 2 @ = = >XaXwXdXdXsXpXfXuX;X*X-X=X-X$X",
"m.A.H.@X&X1X;XrXuXpXpXhXBXmXqX~ e q e z A L.t.E.W.3.1.j.Y.Y.W.R.U.d.1.;.:.d.E.4.r.h.R.Y.z d z $ r pXpXdXwXpXpXpXdXeXeX-X*X-X;XV.",
"A.A.G.%X*X:X;X1XrXmXpXhXBXmXcXU y H L z b s.a.h.E.4.1.f.Y.E.U.P.d.E.).v.;.:.:.3.w.P.U.z.d 8 z k }.nXpXpXrXdXrXNXpXuX;X1X-X;X-XB.",
"B.N.S.G.$XeXrXiXuXiXBXmXMXMXMXP e y e k x t.a.y.P.J.3.>.u.L.T.J.U.Q.Y.7X/.:.>.u.p.P.U.[ e 9 ! f XXmXnXpXdXaXkXfXpXrXeXeXeXeX-XH.",
"D.V.$X%XH.;XiX1XrXwXpXsXBXmXpXK 5 3 q k c J.u.r.P.K.i.:.:.j.P.J.U.P.L.E.qX,.>.e.h.L.L.s w e c d ,XsXNXdXjXqXyXfXNXpX2X1XeX1X-X%X",
"B.$X=X;X&X#XeXuXrXaXpXhXVXBX<XK : : q e c [ y.r.P.P.j.:.:.3.L.K.d.K.L.L.7X2.1.u.P.P.[ 5 q s s d >XgXdXlXqXqXiXdXBXdXuX1XeX:X*XG.",
"S.%X%X&X-X1XrXiXiXjXpXmXMXxXpXi 5 : 6 w I j 4.8.h.P.K.>.:.;.h.K.j.d.K.L.6X3.u.j.J.z.2 6 q 5 e w .XkXuXtXuXrXiXfXhXdXiX1XrX=XG.N.",
"$.N.H.&X1XrXiXyXdXaXzXjXmXyXwXi 9 6 < 6 k I _ w.6.U.L.3.:.e.K.K.h.3.J.L./.e.a.K.J.7 : q < < w w ^ gXyXyXuXeXpXVXpXiX2X;X-X+XV.H.",
"%.+.H.=X1X2XdXdXdXaXyXgXcXxX<Xi q q = 6 e I x s.w.r.~.h.-.3.h.h.K.1.h.U.J.y.h.J.f : 5 5 s e 5 w U rXtXtXiXiX2XpXnXrXiX:X@X&X$XH.",
"$.m.=X1XiXiXpXdXdXpXBXcXsXkXwXr q 9 3 > 9 I b f.h.t.6Xs.>.<.j.h.h.,.d.Y.u.p.h.h.b < 3 k d s q 8 ~ qXkXyXdXpXfXfXfX2XrX:X*X*X+XB.",
"$.F.:X;X1X2XiXiXiXrXiXMXkXkX4Xr q q 1 * 5 L _ f.g.s.~.h.;.<.h.j.3.,.h.L.w.w.g.g.4.7 8 I 9 e e 8 .XpXdXiXiXiXiX1X1X2X1X;X=XH.F.S.",
"%.N.*X=X1X1X1XiXrXrXiXpXmXxXjXu 6 9 < 5 w I =.d.u.K.U.s.-.>.u.u.>.i.J.U.9.8.e.g.j.j w s 8 s 9 e <XpXpXjXwXrX1X2X2X1X1X1X*XH.D.S.",
"$X$XOX&X=X:X2X2XuXiXdXaXmXVXZX[.& 5 6 9 w x 4.i.6.K.L.g.:.<.:.:.u.f.8X8Xu.9.0.g.d.v 8 c s s 9 r 2XwXpXaX2XiXrXrXrX1XuX1X&XOXB.b.",
"F.G.OX#X:X:X:X:X<XiXiXhXxXMXmX}.X o + 1 e x 4.e.7.s.J.a.,.<.:.<.a.s.8X!.h.u.w.a.i.b 3 k z 5 < H C.4XiXdXiXiXiXiXdX1X=X-X$XB.b.$.",
"+X+X=X:X1X:X1X:XiXpXiXmXmXMXMX].O O X X 6 g 2.9.8.g.J.a.<.<.:.u.i.a.i.K.d.u.e.i.a.) ; : * < H x.c.!.!.4XiX1X2XiX2X2X1X:X-X%Xb.b.",
"$XH.&X2X#X=X1X2XrXhXmXmXmXCXXXr X O O X t z 2.8.8.u.L.u.u.<.>.u.u.u.i.s.i.r.r.i.g.) 0 : 1 u ~ ! 4XwX4XpXdX2XeXrXiX2XtX;X=XH.$.@.",
"+X=X:X=X=X=X1XiXpXnXNXBXVXVXp - - -     4 j *.9.8.0./.q.u.<.e.e.u.u.i.s.e.w.u.y.g.v a : ; t : Q ..mXaXMXNXiXrX2XiX2XeXeX-X@XA.m.",
"=X:X1X+X+X=X:X2XpXnXhXVXCXbXr X >       r e *.8.8.7.).0.u.e.w.1.u.e.s.u.e.e.w.p.g.v a 4 0 a a a ( mXhXmXBXfXpXiXfXuXuX2X;X&Xm.S.",
"=X+X:X$X$X=X1X1XpXNXBXVXMXbX- - -       > s ) 8.8.5.L.y.9.e.r.r.r.i.d.w.e.w.8.u.i.v u 0 t 0 0 5 ( <XhXpXmXpXpXpXNXdXiXuX;X&XD.b.",
"=X&X&X=X%.&.1X1X<XfXVXhXnXoX- -         > e ) 9.5.7.0.I.0.6.9.r.e.t.e.w.9.8.8.g.4.) 0 0 0 ; ; 0 ! .XpXsXnXpXpXdXpXfXiX1X-X&Xm.+.",
"&XOX$XH.&.$X=X:X2XdXNXbXnXXX- O   ;     > w ) 1.6.7.8.y.s.5.6.6.<.w.9.8.8.8.9.K.d.v : a : : ; 0 H ..BXXXR iXpXrXrX2XuX1X;X%XH.S.",
"$X&.&.N.N.H.V.&X:X2X[.|.'.'.- X   ;   ; > : ) 0.w.7.8.8.q.y.y.6.6.5.7.8.8.8.r.K.K.l ; a ; : ; 0 2 ( ].: H >XhXrXuX1XrXeX=XB.m.m.",
"+X%XF.OXD.m.$XOX+X#Xp p - - O O     O O X : *.,.9.9.8.8.7.K.3Xy.8.7.8.8.8.8.u.j.T.) , t : 0 0 : * I 3 E 2 XXwX1XrX2XeX1X&XB.$.b.",
"$XH.$X$X&.H.*X=X$XOX> -   X O O   X + X   o h *.*.9.5.8.7.0.I.6.7.7.8.7.8.9.i.d.P.j : : t ; : ; = 9 * < 2 ^ -XrXrX2XrX1X&XB.@.@.",
"OXB.V.F.OX@X&X@X+X+X- y U t X - + +   o @ o @ ; # n 6.7.5.6.6.0.6.6.6.5.5.;.T.2.A : % : t a y t 4 % % ; # T iXrX1X;XeX-XH.H.$.O.",
"F.%.&XOXG.N.&X+X[.T n._ C ) S 5 O @ g N C N C C n S C.c. X4X4X4X4XwXcX4Xc.C.H $ % * % < : ; ; ; ; : 7 N B f K #X1X-X-X-XH.B.@.o.",
"F.&.$XV.m.+.H.M.` [ m m m M D D g N C D ) D D Z M D Z V C D D D F F S _ F G G A b c L e w w 5 5 2 , $ 7 l m v d #X;XtXeX*XZ.O.o.",
"m.#.H.B.H.N.%XZ.7Xz.l.l.z.l.) D m m D F l.k.x.!.!.!.Q.C.x.C.x.[ ! Q Q Q I I b c b x x x j g g g g g f f g h g V S @X;X;XA.G.b.O.",
"%.$.N.G.F.+X| G l.z.) m n ) x.I.z.=.) D D ) G V n n n n V V l.V l g g f g g j x b x l l v v v v l h g g g h N n n [ &X*XA.B.+.o.",
"m.@.b.%.%.#.z l v V Z Z C C V D _ l.z.x.x.C.Q.Q.C.v.C.C.C.C.`.!.Q.Q.C.Q.C.C.x.l._ ) M m M C C V m C g g B N V V V Z | b.$.@.O.O.",
"@.+.b.$.%.N.OX..| ] ' Q A A A N A N V V V V n V C Z C F F F F F F Z Z V n n V V C C N N V N B B b b b Y ~ ' | ..| n.$.m.$.+.O.o.",
"@.@.%.@.$.%.F.F.F.&.N.&.&.%.#.+.} } } } } } } } ' ' Q ' ' ' ' ' ] ] ' ' ' ` ` ' ' ] #...c.M.&.n.V.G.H.+X=X%XH.G.m.m.D.b.$.#.o.X."
};
