/* XPM */
static char *result[] = {
/* columns rows colors chars-per-pixel */
"64 64 231 2 ",
"   c #8B491F",
".  c #8D4C23",
"X  c #914F28",
"o  c #8F512A",
"O  c #93552B",
"+  c #93542C",
"@  c #8D5434",
"#  c #8D563A",
"$  c #8D583C",
"%  c #945731",
"&  c #965A32",
"*  c #995C33",
"=  c #965D3B",
"-  c #9C633B",
";  c #9A6738",
":  c #997130",
">  c #A16E3F",
",  c #BA7537",
"<  c #C37C31",
"1  c #8D5C44",
"2  c #86594A",
"3  c #8C5E4B",
"4  c #8C5F50",
"5  c #8B634E",
"6  c #99664B",
"7  c #957D4F",
"8  c #8D6251",
"9  c #926452",
"0  c #956856",
"q  c #9C6C54",
"w  c #956B5A",
"e  c #9A6D5C",
"r  c #997455",
"t  c #9B725E",
"y  c #A56B47",
"u  c #AB6D45",
"i  c #A67448",
"p  c #AE724C",
"a  c #AE7C4B",
"s  c #B87B47",
"d  c #B2744C",
"f  c #A16E56",
"g  c #A57153",
"h  c #AB7453",
"j  c #A6775B",
"k  c #AD7A5C",
"l  c #B57B55",
"z  c #B77C56",
"x  c #BB7D53",
"c  c #B47D5B",
"v  c #9E6F61",
"b  c #9E7262",
"n  c #9E7866",
"m  c #A37563",
"M  c #A57A64",
"N  c #AA7D64",
"B  c #A67D69",
"V  c #B07F62",
"C  c #C17E4C",
"Z  c #A98A39",
"A  c #AFB239",
"S  c #D4852B",
"D  c #CA843A",
"F  c #D78C32",
"G  c #DB9234",
"H  c #DB943C",
"J  c #E39936",
"K  c #E59C3B",
"L  c #E89C38",
"P  c #EDA23C",
"I  c #F2A63D",
"U  c #F6AA3E",
"Y  c #F9AC3E",
"T  c #BACC3B",
"R  c #BCD637",
"E  c #BDD63B",
"W  c #BFD83D",
"Q  c #C0D93F",
"!  c #9E8F50",
"~  c #A38D58",
"^  c #BE8155",
"/  c #B5845C",
"(  c #BC835B",
")  c #B5B644",
"_  c #B1AB51",
"`  c #A78466",
"'  c #AD8165",
"]  c #AD826A",
"[  c #B38364",
"{  c #BB8C65",
"}  c #B1856B",
"|  c #B58A6D",
" . c #BA8D6D",
".. c #BC936E",
"X. c #AA8575",
"o. c #B58C72",
"O. c #BC9374",
"+. c #BD9579",
"@. c #BCB364",
"#. c #D99949",
"$. c #C18256",
"%. c #C5855A",
"&. c #C5895D",
"*. c #C9895C",
"=. c #CA915B",
"-. c #D2965C",
";. c #E39B42",
":. c #DBA95A",
">. c #CFB65D",
",. c #EEA648",
"<. c #F5A941",
"1. c #E7A555",
"2. c #E8B75E",
"3. c #C48C62",
"4. c #C98E62",
"5. c #C18D6D",
"6. c #CD9364",
"7. c #C4946A",
"8. c #CC996C",
"9. c #D29562",
"0. c #D59965",
"q. c #D89C67",
"w. c #D49D6B",
"e. c #C29572",
"r. c #C69A75",
"t. c #CB9D72",
"y. c #C39C7B",
"u. c #CA9E7B",
"i. c #D39F73",
"p. c #CAAF65",
"a. c #D5A16C",
"s. c #DAA36D",
"d. c #DAAB68",
"f. c #DBB766",
"g. c #CEA37A",
"h. c #CAA479",
"j. c #D4A374",
"k. c #DBA573",
"l. c #DCAA75",
"z. c #D1A57A",
"x. c #DAA77A",
"c. c #D7A97B",
"v. c #DBAC79",
"b. c #CBB576",
"n. c #D8B67A",
"m. c #DCB27D",
"M. c #E2A962",
"N. c #E6B863",
"B. c #E1AB76",
"V. c #E3AE79",
"C. c #E4B176",
"Z. c #E5B17B",
"A. c #E8B77D",
"S. c #BDCD43",
"D. c #BBC749",
"F. c #BED244",
"G. c #BFD149",
"H. c #BDC856",
"J. c #C2D447",
"K. c #C3DB44",
"L. c #C2D44B",
"P. c #C6DD4B",
"I. c #C8DE4E",
"U. c #C5D454",
"Y. c #C7DA53",
"T. c #C9DF51",
"R. c #C9D558",
"E. c #CBDC5B",
"W. c #CAE04F",
"Q. c #CCE054",
"!. c #CEE259",
"~. c #D0E357",
"^. c #D1E35B",
"/. c #C8C965",
"(. c #D3C961",
"). c #CAD467",
"_. c #CCDA62",
"`. c #D0DB66",
"'. c #C9CD75",
"]. c #D6C879",
"[. c #CCD276",
"{. c #D6D779",
"}. c #E3C36C",
"|. c #E2C674",
" X c #D5E562",
".X c #D6E16D",
"XX c #DCE37A",
"oX c #BA9986",
"OX c #C59E82",
"+X c #C9A485",
"@X c #CEA982",
"#X c #D4AB83",
"$X c #D9AE86",
"%X c #D7B786",
"&X c #DAB285",
"*X c #C8AB98",
"=X c #D6AD92",
"-X c #C9BE90",
";X c #CBB39E",
":X c #D5BC97",
">X c #E2B582",
",X c #E4BB84",
"<X c #ECBE82",
"1X c #E3BC8C",
"2X c #E9BF89",
"3X c #E0BE91",
"4X c #CEB4A4",
"5X c #CFBAA3",
"6X c #D1B7A7",
"7X c #D0BAA3",
"8X c #D1B7A8",
"9X c #D1B8A9",
"0X c #CDC885",
"qX c #D9C584",
"wX c #D8C589",
"eX c #DEDB83",
"rX c #CEC691",
"tX c #D0C396",
"yX c #E4C787",
"uX c #EEC183",
"iX c #EBC38A",
"pX c #EECA8C",
"aX c #F0C385",
"sX c #F1C789",
"dX c #F1CA8A",
"fX c #E4D586",
"gX c #EBCA95",
"hX c #F1CD94",
"jX c #ECD593",
"kX c #F1D49B",
"lX c #DFE283",
/* pixels */
"P.P.P.Q.P.P.P.T.T.T.W.Q.Q.Q.Q.Q.Q.Q.Q.Q.!.!.W.W.Q.I.I.I.W.W.K.K.W.K.P.T.P.P.P.!.~.~.^.~.^.^.^.~.T.!.T.T.Q.!.Q.Q.T.T.W.P.P.P.P.P.",
"P.P.W.P.P.P.P.W.T.W.Y.Q.Q.!.Q.Q.Q.Q.Q.Q.Q.Q.Q.Q.I.P.K.K.Q W.W K.K.K.W.P.P.P.W.Q.Q.W.T.Q.Q.T.T.Q.T.Q.Q.Q.T.T.T.T.P.P.P.P.P.P.P.P.",
"P.Q.Q.T.Q.T.Q.W.T.T.T.Q.Q.W.Y.W.W.Q.Q.Q.Q.Q.Q.P.K.P.K.K.Q Q W W.W.P.Q.P.P.P.K.K.K.P.P.K.P.P.P.P.K.K.P.P.P.P.P.P.W.P.P.P.P.P.P.P.",
"Q.Q.P.P.Q.P.P.P.I.T.Q.Q.W.W.W.G.W.W.G.W.Q.Q.Q.G.P.P.K.K.W W.Q W.K.W.W.W.P.P.P.K.K.K.P.K.P.I.I.I.P.K.P.K.K.K.P.T.W.P.P.P.I.P.P.P.",
"Q.P.Q.P.P.W.W.P.Q.Q.Q.Q.W.P.P.P.W.W.W.W.^.^.!.W.T.I.P.K.K.!.{.fXeX].@./.P.W.P.P.P.K.P.W.T.T.P.P.P.K.K.K.K.K.P.!.~.T.T.T.~.T.I.P.",
"!.Q.P.P.K.K.P.P.T.P.P.T.W.Q.Q.Q.!.!.!.!. X X X XT.T.P._.'.kXdXdXdXy.} } p.R.P.K.K.K.K.P.P.T.P.P.P.K.K.K.Q K.T.~.~.T.~.I.I.P.I.P.",
"^.Q.P.P.P.W.P.Q.T.P.T.Q.Q.Q.Q.Q.Q.Q.~.^. X^. X X.XeXgXuX,X:XsXdXdXy.} B 8.Z.n.(.Y.P.P.P.T.P.P.T.K.K.K.K.K.P.T.Q.T.T.I.I.I.I.P.I.",
"!.Q.P.T.P.P.K.P.P.P.T.Q.Q.!.Q.Q.Q.Q.^. X^. XlXjXfXyXuXuXuXg.dXdXdX+.] M 8.l.l.6.A.{.L.P.T.P.T.T.P.P.P.P.K.P.P.T.T.T.I.I.I.W.P.K.",
"!.W.I.Q.P.W.P.P.P.I.T.Q.Q.Q.!.Q.Q.!.^.^. X{.hXhXuXuXuXuX<XO.h.h.y.| B t y.g.j.s.w.c.! ) T.T.T.Q.P.P.K.K.K.K.T.T.~.T.T.T.I.T.I.P.",
"!.Q.P.W.Q.Q.Q.Q.P.I.T.Q.Q.!.Q.Q.Q.^. XXXjX,Xm.kXiXuXm.t. .B e j k N j q ] +.#X&XV.] 2 [ /.Y.P.T.T.Q.P.P.P.K.W.T.T.P.I.I.P.P.I.K.",
"Q.Q.T.W.Q.W.Q.T.T.P.T.Q.Q.Q.Q.T.Q.~.XXjXpXdX..gX@XO.' m 6 - p p *.4.z ( h p k | #Xw 5 8.z.b.U.T.P.Q.P.P.P.P.P.Q.T.T.T.T.P.P.P.K.",
"Q.Q.T.W.Q.T.P.T.P.P.T.Q.Q.T.T.T.Q.lXdXdXsXdXt.t M e f p ^ x *.*.V.V.k.B.B.j.^ u 6 6 { z.g.z.h.).T.W.P.P.P.P.Q.Q.T.T.~.T.P.P.K.K.",
"Q.W.W.G.P.P.W.P.P.P.Q.!.T.T.P.P.XXhXpXsXpX$X| N q y $.0.q.k.A.V.k.V.6.B.x.l.k.&.u * { z.z.z.z.#X/.W.P.P.P.T.P.Q.P.P.P.P.P.P.P.F.",
"W.Y.W.W.Q.P.W.P.P.K.K.P.T.T.W._.kXhXdXpXg.} V h x -.0.0.0.a.C.V.j.l.>XV.C.V.V.V.6.$.u / z.z.z.y.` U.I.P.P.T.P.!.Q.Q.Q.P.P.K.K.K.",
"W.W.W.F.P.P.Q.T.T.P.P.P.P.T.Q.eXpXhXgXh.] V 3.6.0.0.0.0.0.a.Z.A.A.Z.v.V.C.V.V.Z.&.&.$.d / #Xy.m b _ Q.W.T.T.T.Q.Q.T.Q.K.P.K.K.K.",
"Q.Q.W.W.P.Q.Q.Q.Q.P.P.P.P.T.T.qXdXiX+.' k $.w.0.0.0.q.l.C.,XdXsXdXm. .g.x.v.V.k.&.&.&.^ ^ p t b b @.Q.W.T.Q.Q.T.Q.P.P.P.K.P.K.K.",
"Q.Q.W.P.P.Q.!.!.Q.P.Q.P.P.Q.Q.E.].t.' g x 9.6.9.9.>X2XaX<Xv.iXpXiXz. .z.x.z.c.u.4.%.*.x $.( y j @. X XQ.Q.Q.!.Q.W.Y.W.Y.W.W.G.W.",
"^.!.!.W.Q.!.Q.!.Q.Q.Q.W.Q.Q.!.E. X+Xp l s.0.0.0.t.%XaX<X<X1Xr.pX,Xe.g.z.g.z.@Xz.@Xl d $.%.&.*.b.{..X XQ.Q.Q.Q.Q.W.Q.Q.Q.W.W.P.W.",
"!.!.!.W.Q.Q.!.Q.Q.T.Q.W.P.!..XfXgXe.( &.s.0.s.uXiX#XiX<XuX$Xb ' N [ O.+X#X$X$X$X} M { $.%.$.l.dX<X2XyXqX`.!.Y.W.Q.Q.Q.W.W.W.P.P.",
"Q.!.Q.W.Q.Q.Q.Q.Q.Q.Q.E.{.jXpXuX2XO.3.s.4.8.gXuXuXiX3X+XN q $ % . , D s c +.=X+XN 1XiXv.4.%.m.hXaXaX|.A.>Xn.{.R.W.Q.Q.Q.P.W.W.G.",
"Q.Q.Q.Q.Q.Q.Q.Q.!..XfXjXaXaX<X<XiXr.4.Z.l.iX&XuXiXh.v 6 @ .       , K J S s x j =XiX<XuXk.%.&XiXaX<X<XC.Z.V.&X..@.H.T.T.W.P.W.G.",
"~.~.E.~.!.Q.Q.lXjXhXhXsXuX<XaX2X@X| 3.A.aXdXiX%X] 3 @ . .     : A T >.-.K P F D c 1XiXZ.B.l.[ | r.$X2XV.Z.Z.#X} | X.H.T.W.W.W.W.",
"Q.T.T.Q.T.P.E.pXkXdXpXuXaX,Xu.o.k y a uXpXsXgXt 1 O . . % O A T R R E J.:.,.<.G S D &XV.Z.Z.t.w N } o.y.$X1X+.} } ~ T.T.P.P.W.W.",
"T.!.T.T.T.P.P.{.dXgX1X@XO.' c h p u a.dXaXpXM 1 . . + O ; T W Q Q R W R Q /.#.I L F < a.Z.Z.C.6.l q e m N } } ] } @.P.W.P.P.W.T.",
"!.T.T.T.I.T.T.T.b.o.` ` h y d C C 6.iXdXdX+.5 X X o * Z R W F.Q Q Q W E R R U.:.I L S D Z.k.a.{ %.%.c l g g g g ~ Q.W.W.I.T.W.I.",
"Q.!.Q.Q.T.I.T.I.P.+.a a d u *.9.B.x.2XsX,X9 o   O * Z R R W Q Q K.Q K.W E E R P.p.G L Y #.c.g.r.l %.$.*.%.%.$.- H.Q.Q.Q.P.I.I.P.",
"Q.Q.P.T.T.T.T.T.Q.b.p p x x B.Z.V.e.j.&X' # . X * : T E W W Q Q Q K.K.W Q W W K.R.1.K P ,.l.g.j.( %.%.%.$.$.s - Y.Q.Q.!.P.P.P.K.",
"P.Q.T.W.T.T.P.Q.Q.%X8.i.i.3.V.V.t.e.A.m.8 .   . % A F.F.W W W.Q K.K.K.K.K.K.K.K.P.f.P J U M.z.h.[ c z %.%.%.$.- U.!.!.W.W.P.P.P.",
"Q.Q.Q.Q.Q.W.Q.Q.Q.qXZ.Z.V.v.q.w.Z.A.Z.[ # . . . : F.W.W Q W W.W K.P.P.P.P.P.K.K.K.(.<.L I #.t.t. .h ( %.%.%.C - R.!.!.T.Q.Q.Q.Q.",
"!.!.Q.W.Q.W.W.Q.Q.qXC.C.Z.V.V.Z.|.iXA.f O O * * A W.W W Q Q Q F.P.P.P.P.T.P.K.K.K.R.#.G G H c.z. .q z $.%.%.%.6 R.^.~.~.Q.Q.Q.Q.",
"!.!.Q.Q.Q.G.W.Q.Q.qXZ.Z.V.Z.Z.C.<X<XZ.1 . . % + A F.K.R W.Q W.K.P.P.P.W.Q.P.P.K.K.T.N.Y <.Y 6...j 9 [ [ l c l > R.~.~.T.~.^.Q.Q.",
"Q.!.Q.Q.Q.W.Q.W.W.qXZ.V.Z.Z.V.Z.<XaXj.1 . O % & ) K.Q W.Q W.W.W.W.P.Q.P.T.P.P.K.K.Y.2.P I Y d.x.| 9 %.%.5.3.%.d R.~.~.Q.Q.^.~.Q.",
"~.!.Q.Q.Q.T.Q.T.T.wX$Xj.9.4.-.s.A.A.| # . O & & F.K.P.K.P.I.Q.P.P.W.P.P.P.K.K.K.P.I.N.P K U d.z.[ 1 l z c 3.%.d E.Q.T.~.Q.~.!.!.",
"~.~.T.Q.Q.P.Q.T.T.qXB.x.w.6.9.B.<X,X' #   X + & S.P.K.K.P.I.I.I.P.W.P.P.P.P.P.K.P.P.f.<.K U d.g.| 3 l l $.%.%.a L.P.P.T.T.Q.T.T.",
"E.T.Q.T.Q.P.Q.T.T.yXV.V.V.B.0.B.aXaX` # X O * * D.F.P.P.P.I.W.Q.Q.Q.T.T.T.Q.P.K.P.I.|.<.J U d.r. .4 z h $.$.l i L.K.K.P.P.T.P.I.",
"T.T.T.T.Q.!.Q.P.T.qXV.B.>XV.9.B.aXaXM %   + % & D.I.I.P.W.Q.Q.!.Q.Q.Q.Q.Q.P.Q.P.P.T.].G F G w.e. .9 g z %.%.$.7 G.Q K.K.I.P.I.I.",
"T.T.I.T.Q.!.!.T.T.%X3.8.8.4.$.B.aXaXt % * O O + D.I.P.P.I.T.Q.!.T.Q.Q.T.W.Q.T.P.P.!.|.<.Y P a.e. .9 0 x %.%.( r J.Q Q K.P.P.K.P.",
"I.I.I.T.!.Q.T.T.Y.%X&.&.%.%.*.q.C.A.0 @   O o & F.K.P.P.I.I.Q.Q.Q.P.T.P.P.P.P.T.P. X|.<.Y I a...[ 3 q j C %.( r J.K.K.P.P.P.P.P.",
"I.I.P.P.W.W.T.P.Q.wXz.v.k.4.*.q.A.hXt @   O O ; F.K.K.K.P.P.I.I.P.P.P.W.W.Q.P.P.P.!.|.U Y I 4...| 4 l 3.3.C c r S.Q K.P.K.K.P.P.",
"T.T.I.P.Q.W.W.Q.T.%Xk.k.k.4.*.B.aXgXt # o . % ; G.K.K.P.I.P.P.P.P.T.W.Q.P.Q.Q.T.P.P.}.U I G d.h.e.3 &.1.1.1.-.h E Q Q Q K.K.P.P.",
"T.~.T.P.Q.T.T.T.T.wX>XZ.Z.q.i.Z.aXsXt $ . . & * F.K.K.K.P.K.K.K.P.P.P.I.T.T.T.T.T.Q.>.H F , d.j. .q ,.U Y Y ,.s ) K.Q K.K.K.K.W.",
"~.T.T.T.T.P.T.P.T.%XZ.Z.Z.i.B.B.w.j.e $ . . & * F.F.K.K.K.Q K.P.K.P.P.I.W.W.T.T.G.W.}.<.U K v.h. .9 s C < s d > ) Q K.K.K.K.K.K.",
"!.!.Q.P.Q.P.P.P.T.n.B.B.V.0.B.q.v.gXe $ . . % & G.P.K.K.K.Q K.P.P.P.P.W.W.Q.Y.W.W.W.2.I U I v.r. .3 g d h d u > T R E Q Q K.K.K.",
"Q.Q.T.P.P.K.P.P.L.c.1.1.1.x 4.w.aXiXm $ . o + & G.K.K.K.P.P.P.P.P.I.I.I.P.W.W.W.P.W.N.U U P v.e. .9 y u p d p ; T R Q Q W.Q Q K.",
"I.P.P.P.P.K.P.P.R.,.I I ;.u ^ q.uXiXM $ . . + & Y.Q.Q.I.Q.I.I.Q.I.P.W.P.P.W.W.W.I.Y.}.U I I 7. .m 9 l p u y y ; E W W Q W W W Q ",
"T.P.P.K.P.P.W.P.Y.p.-.0.-.x %.s.uXuXB $ . X + ; Y.Q.Q.T.I.T.I.I.P.I.G.I.I.W.Y.Q.W.!.N.H I P z.f e q %.%.$.c x d S.K.K.K.W.W W.Q ",
"I.P.K.K.K.W.P.P.P.].0.-.9.%.%.w.uXaX' $ o % % ; Y.Q.Q.Q.Q.I.W.I.P.I.P.I.W.Y.W.W.Q.!.:.F G H c.e.N 9 p p g ( $.a G.K.K.W.Q W.W W ",
"I.I.P.P.P.P.Q.Q.Q.%X0.9.3.4.6.a.<XaXB 1 . % % & G.Q.!.Q.Q.Q.Q.W.P.K.P.P.I.W.W.Q.W.Q.N.<.Y H l...B e p p y l $.a J.K.W W.W.Q W W.",
"Q.Q.P.P.Q.Q.Q.~.^.wX1X$X@X+XOX| t.uX] 1 . + & = U.Q.T.Q.Q.Q.T.W.W.P.P.P.P.T.Y.T.P.E.2.J L D v.7.z.#Xy.} M f g a G.W.W.W.P.K.K.K.",
"Q.Q.T.P.Q.Q.~.T.qXiX1X] m v v v [ iXB 1 + % + * L.P.T.T.T.P.G.W.T.T.P.P.P.W.W.T.P.T.2.U <.H t.e.k.V.V.>Xo.8 3 5 F.W.P.W.K.F.K.K.",
"Q.Q.P.P.P.Q.E.[.pX%XB e e e e e e $XM 3 * + + & G.P.I.L.P.T.W.W.T.T.W.P.P.K.P.P.P.T.:.K P ;.k B x.Z.V.Z.i.M 4 8 D.F.W.P.P.K.K.W.",
"Q.Q.Q.Q.P.Q.{.iX1X] m t e v 0 v f #X} 3 % % % * D.P.I.W.W.W.W.G.W.P.Q.P.P.K.P.P.Q.E.N.I P D r.' V.<X<Xk.V.$Xv 4 7 G.W.P.P.W.W.W.",
"Q.Q.Q.P.T.`.iXiXX.v v v e v 0 v e u. .3 % + + * ) Q.Q.Q.Q.Q.Q.W.P.W.I.P.P.P.P.P.I.E.:.P <.;.t.] v.A.d.V.V.Z.u.0 2 _ W.W.K.W.W.W.",
"Q.!.T.I.E.iX,Xb 2 4 e v e 4 4 0 9 r.O.3 o * * - H._.E._.E.E._.Q.Y.U.Y.U.Y.T.E.E.E.`.2.L I K a.] c.uXB.B.V.Z.>XV w 5 G.K.K.W.P.P.",
"Q.Q.Q.Y.qX&X| 0 M N M v v 0 v 4 8 e.O.2 o 6 X.;X5X5X7X7X5X5X5X7X5X5X5X5X7X7X7X7X7X5Xx.#.,.K t.' a.A.C.l.j.j.0.t.w 5 ! G.P.K.F.K.",
"Q.Q.T.[.uX&XM m V M v v v 4 4 4 0 OXOXoXoX;X9X9X9X9X9X9X9X9X9X9X5X9X9X9X9X9X9X6X6X6X4X*Xi.=.r.B ..uXuXuXk.z.w.q.| w 5 H.P.W.W.W.",
"W._.'.rX%Xb t t m v n n X.X.oX*X4X8X8X9X9X9X5X9X8X8X8X6X8X8X8X8X9X8X9X9X9X9X9X6X6X6X8X8X8X4X;X*X+Xh.c.Z.w.$Xk.0.t.m e ! T.P.P.P.",
"Y.[.0X-X;X;X4X4X4X9X9X9X8X8X8X8X9X5X4X5X9X9X9X9X6X6X8X6X8X8X8X8X8X8X9X9X9X9X6X6X6X6X8X8X8X8X8X8X9X9X4X;X*XoXo.{ { m w n 4XrXY.P.",
"W.W.W.P.F.P.Y._.).'.).'.'.0X0XtXrXtXtX;X5X5X5X5X9X7X7X7X5X9X5X5X5X5X9X9X7X9X5X4X4X7X7X5X5X4X5X5X9X5X7X7X:XtXtXrX0X0X[.[._.L.K.K.",
"W.Q.W.P.K.F.K.K.P.P.F.K.F.I.W.Q.Q.Q.Q.Q.Q.Q.!.E.T.E._._.E.E.R.E._._._._._._._._._._._.E.R.E.E.E.E.E.E.!. X^.~.~.^.Q.T.W.P.K.K.K.",
"I.W.Q.P.K.K.K.K.K.K.K.K.F.Q W.W.Y.Q.W.Q.P.Y.W.T.T.T.T.Q.Q.Q.P.P.Q.!.Q.Q.T.T.Q.Q.Q.T.T.T.P.Q.T.P.Q.Q.Q.!.^.~.T.Q.Q.Q.Q.Q.Q.Q.P.P.",
"G.W.W.W.K.K.K.K.K.K.K.K.K.W.K.W.Q.W.Q.W.W.I.T.T.P.T.T.Q.Q.T.Q.Q.Q.!.Q.Q.Q.P.T.T.P.Q.T.P.K.P.P.Q.I.T.Q.!.~.!.T.Q.^.Q.T.Q.Q.Q.Q.Q.",
"W.W.Q.W.K.Q W W K.Q Q Q P.K.W.W.W.Q.Q.W.W.Q.P.W.I.I.T.Q.Q.P.P.P.T.T.Q.Q.T.P.P.T.T.P.P.P.K.K.K.P.P.P.Q.Q.Q.~.P.Q.^.Q.P.P.P.W.Q.Q.",
"W.K.W.G.K.K.Q K.K.K.K.W.K.Q W.F.W.W.Y.W.Y.T.I.Y.P.T.P.W.Q.P.P.P.P.Q.P.Q.Q.T.T.P.T.Q.P.K.K.K.P.K.K.P.~.Q.Q.!.Q.Q.^.Q.P.Q.P.Q.Q.P."
};
