/* XPM */
static char *_2996b64f6d545e69eca9c9dba4a2fbeXYmdfIfbjVf0eaob[] = {
/* columns rows colors chars-per-pixel */
"64 64 219 2 ",
"   c #06050D",
".  c #08070F",
"X  c #0A090F",
"o  c #0D0C14",
"O  c #0D0D16",
"+  c #100F17",
"@  c #100F18",
"#  c #0F1118",
"$  c #101017",
"%  c #12111A",
"&  c #18171E",
"*  c #161620",
"=  c #181721",
"-  c #1B1B24",
";  c #1D1E28",
":  c #201F27",
">  c #1F212A",
",  c #23232E",
"<  c #252532",
"1  c #272734",
"2  c #252A35",
"3  c #2A2B36",
"4  c #2A2D3A",
"5  c #312E3C",
"6  c #2C323D",
"7  c #32333E",
"8  c #2D3844",
"9  c #333543",
"0  c #393545",
"q  c #373A47",
"w  c #353E4A",
"e  c #413E4E",
"r  c #36404D",
"t  c #3B414D",
"y  c #3B4452",
"u  c #3D4B59",
"i  c #494555",
"p  c #474856",
"a  c #434E5B",
"s  c #524E5E",
"d  c #47525E",
"f  c #53505F",
"g  c #4A5462",
"h  c #485865",
"j  c #5A5968",
"k  c #625C70",
"l  c #4D606F",
"z  c #55626E",
"x  c #4D6372",
"c  c #556573",
"v  c #566977",
"b  c #5B6975",
"n  c #5C6E7D",
"m  c #58717F",
"M  c #656675",
"N  c #726B7E",
"B  c #64747F",
"V  c #4A6F88",
"C  c #566F83",
"Z  c #597787",
"A  c #776F83",
"S  c #627381",
"D  c #657C8B",
"F  c #6D7C8A",
"G  c #787A89",
"H  c #817A8C",
"J  c #67818E",
"K  c #74808F",
"L  c #6C8392",
"P  c #668798",
"I  c #788A97",
"U  c #748D9B",
"Y  c #67919E",
"T  c #7A909E",
"R  c #5F91A0",
"E  c #6799A8",
"W  c #7494A3",
"Q  c #7C93A2",
"!  c #7598A6",
"~  c #739CAB",
"^  c #7C9CAC",
"/  c #77A2AE",
"(  c #6FA3B7",
")  c #72A3B3",
"_  c #7DA6B3",
"`  c #7DAAB8",
"'  c #78AECA",
"]  c #439EE2",
"[  c #4BAAE7",
"{  c #54ACE7",
"}  c #55B2E7",
"|  c #55B2E9",
" . c #5AB5E9",
".. c #5EBAEC",
"X. c #62B6EA",
"o. c #63BCED",
"O. c #6ABDEC",
"+. c #71BEEB",
"@. c #66C1EE",
"#. c #6CC3EE",
"$. c #6FC8EE",
"%. c #73C4ED",
"&. c #79C5ED",
"*. c #74C9EE",
"=. c #7CCBEE",
"-. c #6BC6F1",
";. c #6CC4F1",
":. c #73C6F1",
">. c #78C6F0",
",. c #75CAF1",
"<. c #7CCCF1",
"1. c #7FD0F1",
"2. c #8A8595",
"3. c #928B9B",
"4. c #96919F",
"5. c #8599A6",
"6. c #829BAA",
"7. c #A197A9",
"8. c #82A2AD",
"9. c #89A6B5",
"0. c #85ACBB",
"q. c #8AADBB",
"w. c #91ABB9",
"e. c #86B1BE",
"r. c #8BB1BE",
"t. c #A6A3AE",
"y. c #8BAFC1",
"u. c #85B3C2",
"i. c #8BB5C3",
"p. c #8EB8C6",
"a. c #89B6CA",
"s. c #8CBBCB",
"d. c #92B5C4",
"f. c #98B6C6",
"g. c #93B9C6",
"h. c #94BDCC",
"j. c #9ABDCB",
"k. c #82BBD6",
"l. c #A1BDCD",
"z. c #BAB6C0",
"x. c #97C0CD",
"c. c #9CC1CD",
"v. c #95C2D2",
"b. c #9CC4D3",
"n. c #97C7DC",
"m. c #9DCADA",
"M. c #9FD0DF",
"N. c #A3C5D3",
"B. c #A3C9D6",
"V. c #ADC9D7",
"C. c #A3CDDC",
"Z. c #ABCDDC",
"A. c #B2CEDC",
"S. c #B8CFDA",
"D. c #A5D0DE",
"F. c #AAD1DE",
"G. c #B4D1DD",
"H. c #89C7E1",
"J. c #83CDEE",
"K. c #89CFED",
"L. c #96CDE5",
"P. c #9DCEE2",
"I. c #84D1EE",
"U. c #8CD2EE",
"Y. c #99D4EB",
"T. c #82CEF1",
"R. c #8BCFF0",
"E. c #84D1F2",
"W. c #8BD4F2",
"Q. c #8FD8F3",
"!. c #93D6F3",
"~. c #95D9F4",
"^. c #9CDBF4",
"/. c #9CDAF5",
"(. c #A3CFE1",
"). c #A5D3E4",
"_. c #ABD4E3",
"`. c #ADD8E7",
"'. c #A4D6EA",
"]. c #ABD6E9",
"[. c #A5D9EE",
"{. c #ACDAEC",
"}. c #B3D5E4",
"|. c #B3D9E6",
" X c #BAD9E5",
".X c #B3DCEB",
"XX c #BADEEC",
"oX c #A3DDF4",
"OX c #AADEF4",
"+X c #A3DFF9",
"@X c #B3DFF1",
"#X c #B5E0EF",
"$X c #BDE1EE",
"%X c #A5E0F5",
"&X c #A6E1F6",
"*X c #A9E1F6",
"=X c #ACE2F5",
"-X c #A6E1F8",
";X c #ACE2F8",
":X c #B4E3F6",
">X c #BBE5F5",
",X c #BEE8F7",
"<X c #B4E5F8",
"1X c #BBE6F8",
"2X c #BDE8F9",
"3X c #CBC9CF",
"4X c #D4D2D8",
"5X c #C5DEEB",
"6X c #C3E6F3",
"7X c #C8E4F0",
"8X c #C4E9F7",
"9X c #CAEAF6",
"0X c #C1E7F8",
"qX c #C4EAF9",
"wX c #CBECF9",
"eX c #D1EEFA",
"rX c #E9E7EA",
"tX c #F5F4F5",
"yX c #FCFCFC",
/* pixels */
"$.,.,.-.o.@.#.@.#.<.E.<.=.T.=.<.<.<.<.<.,.*.<.<.,.<.=.=.E.E.<.1.<.E.Q.^.~.!.~.~.~.^.!.Q.E.~.^.!.^.!.!.!.~.K.W.T.E.I.<.E.!.Q.T.W.",
":.:.#.;.:.<.<.,.E.W.W.W.T.<.<.T.E.E.E.1.W.&X~.W.!.!.W.E.!.!.E.E.!.^.^.oXoXoXoXoXOX=XoX&X^.=X=X&X=X=XoXoX=XoXoX~.W.W.T.W.!.<.,.<.",
"*.-.,.%.E.W.W.E.Q.!.~.^.^.~.~.^.^.^.^.E.^.*X^.^.^.^.^.^.=X=X^.oX&X;X;XoXOX;X=X;X1X1X<X=X<X<X<X<X<X<X=XOXOX&X=X^.!.!.~.!.<.o.#.,.",
":.#.;.,.E.!.Q.!.~.^.~.~.~.^.~.=X&X~.oX<X=X=X<X&X-XOX;X&X&X&X=X<X=X<X<X<X1XqX<X2XqXqX,X1XqXqX1X1X1X,X<X:X=XoXoX&XoXQ.^.~.=.%.#.O.",
"*.,.*.<.=.1.!.^.oXoX^.~.^.&X=XoX^.^.&X^.;X<X*X=X;XoXoXoX<X;X=X<X1XqX1X,XqXqXqX0XwX8X1X,XqXwX6XwXqX0XqX,X1XoX=X;X;X~.=X&XW.*.#.O.",
"$.,.,.W.E.W.~.^.W.~.;XoX^.=X<X^.^.;XoX~.;X<X<X=X:X<X=X=X<X1X=X&XqXwX6XwXwX>XwXwX9XwXqXqX,XqXl.}.0XwXwXqXqX1X<X<X<X&X=X^.W.%.$.#.",
";.,.E.,.W.^.oX;X;X=XoXoXoX;X<XoX&XoX^.^.&X<X;XU a {.<X,X1X<X<X<XwXwXwXqXXXq T 9XwXwXwX9XqX5XwXwXwXwXwXqXqXqXqXqX,X;X;X=X^.E.<.*.",
":.,.W.1.Q.~.oXoX=XOXoX&X;XoXoX&X=XoXoX&X=XOXn % J :X,XqX1X,X,X,XwXwXqX,X8XB % B 6XwXqXqXqX6XqXqXqXqXqXqXqX1X,XqXqX<X;X=X&XW.E.<.",
"E.W.~.W.E.<.&X;X:X;X;X:X1X;X;XoX^.L.^.&XoXv $ O _.qX8XqXqXwXwXwXwXwXqXqXqXf.O % S 1XqX_.j.l.$XqX,XqXqX,XqX0X<X1XqX,X;X=X&XQ.W.W.",
"W.~.!.~.^.I.oX=X:X<X<X<X,X,X<X;XoX^.^.oX~ & O O h _.9XqXqXwXwXwX9X9XwX8XN.w O + * 9.|.}.qXqXqX,X1XqXqX,XqX1X2X,XwXqX:X1XoX!.E.E.",
"W.^.^.&X;X<X&XoX<X1X1X2X1X<X<X<X:X^.~.n.; % @ O q }.8X8X8X8X8X0X8X9X8X,XC.4 O $ % < 9.N.Z.wX8X,X1XqXqX,X1X1XwX6X0X,X<X1X;X~.W.W.",
"W.&X=X;X<X1X<X<X,X0XqX,X:X1X2X).'.'.Y.x $ % % r _.1X,X,X6X6X6X>X6X6X>X,X>XN.6 % % % S ,X6XS.6XqX1XqXqXqX1X1XwXqXwX,X:X1X&X^.J.W.",
"E.^.=X;X<X:X<X1X,X1XqX,X<X2X,Xm.m.).v.- + % 2 n.:X#X$X>XXX>X$XXXXX$XXX#X$X>Xl.; % % 3 XXqX8XZ.2X2X,X0XqXqXqXqX,XwX1X;X1XOXoX^.~.",
"=.^.oX;X<X<X<X1X,X,XqX,X2X2X<X:X;XoXP % $ $ D [.[.{..X.X.XXX.X.X.X.X.X.X.X.X.Xh % @ % d.8XwX}.0XqX8X,X2XqX8XwXwX8XqX0X0X<XoX^.Q.",
"E.oX;X;X<X,X,X1X,XqX,X2X<X<X<X:X;XOXh % + O d.].'.).`.`.|.`.|.`.`.|.`.|. XB.N.D O @ % K 6X6XA.qX0XwXqXqXwXwXeXeX9XwXwXwXqX:XOX^.",
"W.oX;X:X<X1X1X1XqX,X1X2X<X<X1X<X:X;Xw % + & ).'.).)._._. X}.}.F._._._._.F.B.|.i.O + % h }.Z.>XqX0XwXwX9XwXwX,XqXeX9XwXwX8X1X;X^.",
"Q.^.oX<X1X2XqXqXqXqX,XqX,X1X6X,X:X{.t $ O * n.P.P.C._.F.G.F.F.C.C.Z.C._.F.j.).0.O + % c .X>X,X,X0XwX0XwXeX9XqX8XeXwXqXwX8XqX:X=X",
"E.~.oX:X1X1XwXqXwXqX1X,XqX2XqX6X>X{.n + O O W d.8.C.C.j.I c h h b U j.B.m.N.d.D O @ % 5.]..X.X=X,XwX8X9XeX8X8XwXwXqXwXwXwXwX,X<X",
"E.~.=X<X,X1XqXwXqXqXqX8X8X0X,X@X:X{.d.* + O 6 h.6.U y & % + % % @ % & a ^ N.0.- o + 3 B.].XX.X{.:X6XwXeXeXeX9XwX9X9XwXwX8XwXqX;X",
"E.~.:X,XqX1XqX1X:X6XwXwX8XwX9X>X{.`.).C % O O , , % $ $ + + + + + + % % % r ; O O % U _._.|..X.X.X>X6XwX9XwXwXwXeX9X9XwX8XqX1X:X",
":.W.oX1X,X1XqX1X1XwXwX9XqX9X>X.X.X].].C.c % O O O $ + + + $ $ $ % % + + + O O @ * L C.F.).`.`..X.X.X,X8XqX8XwXwXeXwXwX9XwX,X;XOX",
";.<.^.oX=X:X,X1X1XqXqXwXwX6X>XXX.X]._.(.j.S & O + @ + + + + + + + % + + + @ O 4 ^ N.B.C._.`.`.]..X.X:X6XqXwX9XwXwXwXwX8X6X1X<XOX",
"#.T.~.oX=X:X1X1X1XqXqXqX>X6X$X.X).P.(.b.9.N., % + O O + + + + + + + + + + + % d h.b.b.B.C._.`.).)..X@X>X,XwX9XwXwX9XwX,X<X:X;XOX",
"#.E.~.oX&X;X<X,X1XqXqX:X>X>XXX.X].P.m.d.d.b.< % % % % % % % + + + % % & & % $ y g.x.b.B.C.C.).).).{..X@X:XqXwXqXqXqXqX1X1X<X=X=X",
"@.<.~.oX&X<X:X<X1X1X;X1X>XXX.X].`.F.C.v.6.x.2 % - 1 4 3 : * % % % : 5 7 3 ; & y i.h.c.N.B.B.C.).).].[.OX:X0XqXqX0X1X<X<X;XoXoXoX",
"$.<.^.^.&X=X;X;X=X2X=X:X6X.X`._.).C.C.v.i.8.6 ; 5 j 2.M i 5 ; = 1 i G t.M 0 ; u e.g.h.c.B.C.C.C.`..X`.{.:XqXqX,X,X1X<X=X;X^.~.~.",
"<.E.^.!.^.oX~.;X;X&X:XOX.XXX|.)._.C.m.v.h.i.y e f 4XyXrX2.i < < s 3.tXyX4Xk 7 l ` i.g.c.c.N.C._._..X.X@X.X6XqXqXqXqX:X&X=X=X^.^.",
"$.*.E.W.~.oX^.=X<X;X;XOX{..X X_._.C.b.b.c.g.c 5 A tXyXyX4XA 9 0 A rXyXyXtX2.s m ` r.g.h.c.b.m.C.).].].{.@X,XqXwXwX0X<X<X<X<XoX^.",
"#.#.~.Q.~.^.^.oX;X=XOX[.[.`..X_.F.m.v.c.j.d.D 0 3.yXyXyXtX4.e i 7.yXyXyXtX3.i J _ r.i.h.j.b.B.C.(.].].{.>X1X,XqXqX<X1X,X<X<X&XoX",
" .O.I.W.oX^.W.~.&XoXoXoX]..X}._.F.m.v.h.p.u.W 0 H tXyXyXyX7.i i t.yXyXyXrXH e Y ) q.i.g.h.b.B.C.C.].`..X#X1X,XqX0X1X1X:X^.;XOXOX",
"O.O.=.E.~.^.W.!.^.oX^.[.{..X X}.F.B.b.h.p.u._ t j 4XyXyXrXH 0 0 G rXyXyXz.j y E ) q.r.g.h.b.B.C.)._.].].{.,XqXwXwX1X<X^.~.=X^.oX",
"o.%.#.=.E.^.~.Q.~.;XOXOX]..X}._.Z.B.b.h.p.u.0.L q N 3XrX4.s , , i 2.3Xt.k 0 Z E _ q.r.g.h.N.B.C.M._.).'.[.1XqXqX2X<X&X&X~.~.oX~.",
"*.<.,.*.<.^.!.~.~.:X:X.X.X.X}.D.C.N.b.s.i.e.q._ n 0 i s e < * & : 0 i s 0 m E E _ q.e.g.h.b.b.C.m.].].'.OX:X,X,X1X;X^.Q.~.!.~.E.",
"#.#.<.E.E.oX^.=X=X1X>X:XXX|.|.D.Z.B.b.s.i.r.r.8.! D 3 - * & + + + % % 4 C R E / _ q.r.i.j.b.B.C._._.`.`.[.:X1X1X1X&X&X!.!.~.~.=.",
"#.;.,.E.W.oX^.oX;X0X>X>XXXXX X}.Z.B.v.s.u.i.r.8.! ! 8 # o .         . x Y E ~ / _ q.i.g.c.b.m.C._.].`.[.[.:X>XqX1X=X^.oX~.^.!.%.",
"*.*.;.:.E.&X;X;X=X:XqX>XXXXX X_.F.C.b.s.i.i.e.0._ J O *         O @ O 2 Z Y ~ ) _ q.i.g.c.b.B.C._.}..X{.@X:X1X0X1X;X&X&XoX-X!.E.",
":.=.T.E.E.^.<XoX;X:X>X>X$X.X|.).F.C.b.h.s.u.` 0._ w & % + O O   O * , % x P ~ ) ` e.i.h.D g.C.F._.|..X.X:X:X<X1XqX1XOXoXoXoX~.E.",
"=.T.!.^.W.!.=XOX;X<X1X>X>XXX_._.D.C.C.v.h.i.i.q.l * , % O O O     O ; * > P P ) ` u.i.h.c.B.C.)._.].]..X@X,X:X:XqX<X;XoXoX^.Q.,.",
";.T.E.W.~.^.;X<X<X1X,X6X6X|.p T ).C.m.b.c.h.d.b % : * O O O         O @ % a l ) 0.u.a.h.v.m.Z.P.).'.'.{.OXOX:X0X,X<X:XoX&X~.,.*.",
"X.%.<.Q.oX;X<X<X<X<X,X6X6XZ.t 6._._.b.w.9.Q b * + % O O O . .     .   o O v W x u.u.s.h.v.n.m.v.v.m.'.OXoXoX1XwX,X:XoX^.^.U.=.<.",
"O. .<.!.oX;X<X1X<X1X2XqX6X5.}.|.}.|.d.B.9.Q h + O O o o O O O .   o o O % ; C v ~ a.u.^ D h 9 < , 2 g h.:X:XOX,X0X;X;X^.I.W.E.<.",
"X.$.!.&X:X<X1X:X<X1XqXwXwX6X$XXX|. Xj.U U q.* O O o o X O O O .     o O * & O O * - < 4 y c L c ^ q.n 4 y.1X<X1X<XOX=XoX!.Q.E.*.",
"X.,.^.^.;X=X:X:X;X:X:XwXwX6X6X$X.X`.8.b d.b O O O . . + + o O %       O O O O O O % u _ m.b.F B..X.X@Xd.w {.:XoXoXOX&X^.!.<.,.$.",
"#.%.W.!.oX^.OX:X:XOX<X,XwX9X6X$X.XZ.g Z.N.7 O O . X % , % . & + .       O O o + O O + & d L C..X>X:X:X<Xh.(.oXOXOXoXoX^.Q.<.%.O.",
"T.<.J.Q.~.^.OXOX;X:X1X2X9XwX9X>X.X6.U `.Z.3 . . O $ < ;   O - O O . .   O O % = O O O O O 6 B..X>X>X`.:X:X:X;X;X;XoX&XoXQ.<.*.@.",
"*.,.J.!.~.^.^.^.:X:X:X8XwXwX8X6X6X5.Q |.G.1 O O O ; - . o : % O O . O O o . $ ; - % @ @ O O g >X>X,Xn L ].;X<X<X<X^.~.~.T.*.O...",
"K.W.!.^.oX^.^.oX:X:X<XqXwX8X9X7X5XA.g V. X7 O O O O   . ; * % X o . o O + O   O - , - O O O % N.6X0X1X{.].oX;X:X=XoXoX^.~.E.#.@.",
"T.<.W.oX~.~.oXOX:X,X,XqX8XS.F F K F 5.d M ; O o       - - % $ X O o o O % * %   o O % + O O O n _.,X1X<X<X=X&X:X:XOX&X^.!.T.o...",
"T.!.^.!.!.!.oX:X>X6X2XqXwX7X9X9X9X6X6.4 O O O .   . * : % = O O O o . O O & ; %   O O O O O O S 5.9.`.qXqX:X=X;X:XOX&X&X~.E.:.O.",
"~.^.oXW.W.!.^.:X2X0X0XwXeXwXeXwXwX8X6Xd X O . . o * ; O & + O O O % , X % $ % % O   O % + O O O 3 T Q V.qX1X<X<X1X;X;X=X^.W.$.:.",
"!.U.^.W.T.W.oXoX:X0XqXqXwXeXeX9X9X9X9.@ X . o O & & O % & O O O @ O z h y % % & z % . j , O O o O $ c 9.8X1X,X1X,X<X:X=X^.W.;.@.",
"!.W.W.~.#.%.oXoX@X2XwX2X,X9X9XA.K t % O o o O % % O O % O O O O % o U a l.c % % F K O d b $ % O O O O 6.0X<X1X<X1X1X<XoX~.W.#.} ",
"!.J.T.<.%.<.!.~.:X1X1X1X|.I t & O O O O o o O + O O O O O O O % @ % 0.q C.h.- % 7 5X4 p 5.% % O O , + h 8X1X1X;X;X=X;XoX^.E.,.#.",
"<.&.%.%.%.<.=.W.^.a.P a ; % % + O O O O O + O O O O O O O O % % @ 2 j.8 .Xg.a # * S.p B 9.% % O O F % 6 XX,X,X;X=XoX=X=X~.*.#.#.",
"E.E.>.J.:.#.W.J.' ) v 2 z K T W Q h O $ % @ O O O o > @ O + % + O b N.q b.i.9 % & f.9 V.T @ % O - f.& 6 XXqX*X=X:XOX=XoXW.,.o.@.",
"T.=.J.T.#.<.W.!.( V u [.,X,X1XoXJ O % 6 Z u , w c 8.L % @ + + + - l.Q 6 U h.% $ , 0.r.,Xd @ O + B Z.- a 8X2X^.=X;X&XOXoXW.*.o...",
"T.:.<.&.T.W.W.W.k.4 n.<X:X<X;X:X2 O Z Y.n.i.W q.9.f.; % @ @ @ 3 L 6.9 D [.a % % D <X1Xj.& % @ c `.I & f.qX,X:X;XoX^.oX~.=.<.o.| ",
"=.O.W.J.<.%.W.W.Y J &X<X<X:X;XOX2 g oX=X^.^.^.P.oXD % % @ * S ].@X^ < 9.a 2 8 P ^.:X>Xp ; d q.:Xp.t 0.1X<X:X;X^.oX~.^.~.<.$. .[ ",
"*.#.T.*.#. .T.E.C H.-XoX~.-XoX^.x P OXoX^.!.W.~.oXy % q 0.U y w 9 4 y.:X'.L.Y.~.Q.^.b.a Z.,X1XoXY.[.=X;X<X<X^.!.^.~.oX&X!.=.{ { ",
"#.o.<.*.,.%.E.<.' R.T.W.Q.oX^.^.L.) &X~.W.<.W.Q.^.6 w ].;X:X:XC.h.'.OXoXoXoX!.Q.W.^.a.C ;X<X<X;X;X<X;XoX=X&X~.Q.~.!.^.^.*.<...{ ",
"O.o.*.,.%.W.T.=.W.&.O.=.W.!.~.~.~.~.~.I.*.;.T.T.~.h ! :X=X;X:XOXoX<XoX!.R.!.J.=.!.W.K.h L.&X+XoXoXOXoXoXoX+X~.~.~.I.W.!.;.*. .[ ",
";...@.O.O.*.=.W.T.T.J.%.%.W.W.<.E.<.%.;.;.#.=.%.T.( ' W.W.^.oXoX^.^.^.T.+.O.<.<.:.,.<.J.J.E.E.E.W.!.W.W.Q.J.W.W.E.<.o.@.....| { ",
"o. .@.X.-.*.E.E.=.&.=.+.O.O.:.#.O.X... .o.o.#...O.%.+.*.O.*.=.!.U.K.=.O.X.{ X.O.@.o.,.<.*.<.<.<.W.E.<.E.W.<.,.<.;.;.@.#.o. .{ [ ",
"X...#.X...O.:.=.%.+.%.O.O.O.O...| |  .X.| | o...X.O.O.%.o.O.:.&.T.T.%.O.o. .{ { O.@.=.1.E.E.<.*.I.<.=.E.~.E.<.<.;.#.:.#.o.o.{ ] "
};
