/* XPM */
static char *b16cb6b0692c43558168c2cab397bbd0StW3i0RWVqqlNKuj[] = {
/* columns rows colors chars-per-pixel */
"64 64 225 2 ",
"   c #06050D",
".  c #08070F",
"X  c #0A090F",
"o  c #0D0C14",
"O  c #0D0C15",
"+  c #100F17",
"@  c #100F18",
"#  c #0F1118",
"$  c #101017",
"%  c #12111A",
"&  c #18171E",
"*  c #161620",
"=  c #181621",
"-  c #1B1B24",
";  c #1D1E29",
":  c #201F27",
">  c #201E29",
",  c #1E222B",
"<  c #22232E",
"1  c #262632",
"2  c #282632",
"3  c #262A35",
"4  c #292B36",
"5  c #2B2E3A",
"6  c #312E3C",
"7  c #27323E",
"8  c #2D323D",
"9  c #33323D",
"0  c #2C3641",
"q  c #323542",
"w  c #393545",
"e  c #343945",
"r  c #343E4B",
"t  c #3A3A48",
"y  c #423E4D",
"u  c #3B414D",
"i  c #3C4551",
"p  c #394654",
"a  c #3A5165",
"s  c #474756",
"d  c #494555",
"f  c #4A4857",
"g  c #444D5A",
"h  c #524E5E",
"j  c #44505D",
"k  c #49525E",
"l  c #4A5361",
"z  c #495865",
"x  c #585968",
"c  c #625C70",
"v  c #4E616F",
"b  c #55626F",
"n  c #4C6A7F",
"m  c #546473",
"M  c #566875",
"N  c #5B6975",
"B  c #5B717E",
"V  c #636B7A",
"C  c #716B7E",
"Z  c #62717E",
"A  c #5A7686",
"S  c #776F83",
"D  c #627381",
"F  c #657887",
"G  c #637C8C",
"H  c #6C7E8C",
"J  c #797987",
"K  c #817A8C",
"L  c #6A828F",
"P  c #688493",
"I  c #6C8593",
"U  c #6E8C9B",
"Y  c #778794",
"T  c #708B97",
"R  c #738B9B",
"E  c #7B919E",
"W  c #5894BA",
"Q  c #6993A8",
"!  c #7494A3",
"~  c #7B94A4",
"^  c #7499A6",
"/  c #7B9DAB",
"(  c #6DA0AE",
")  c #79A2AD",
"_  c #7EA5B3",
"`  c #7CA8B8",
"'  c #58A7DF",
"]  c #70AAC6",
"[  c #439EE2",
"{  c #4BAAE7",
"}  c #53ACE7",
"|  c #55B2E7",
" . c #55B2E9",
".. c #5AB5E9",
"X. c #5EBAEC",
"o. c #62B5E8",
"O. c #63BCED",
"+. c #6ABEEC",
"@. c #71BFEE",
"#. c #66C1EE",
"$. c #6CC3EE",
"%. c #6FC8EE",
"&. c #73C5ED",
"*. c #7AC5EA",
"=. c #73C9EE",
"-. c #7CCBEE",
";. c #6BC6F1",
":. c #6CC4F1",
">. c #73C6F1",
",. c #78C6F0",
"<. c #75CAF1",
"1. c #7CCDF1",
"2. c #7FD0F1",
"3. c #8A8595",
"4. c #928B9B",
"5. c #81929D",
"6. c #96919F",
"7. c #8698A6",
"8. c #849DAB",
"9. c #9B94A5",
"0. c #A197A9",
"q. c #83A3AF",
"w. c #85A5B4",
"e. c #87A7B6",
"r. c #83AAB6",
"t. c #85ACBB",
"y. c #89ACBB",
"u. c #93A7B4",
"i. c #87B1BE",
"p. c #8BB2BE",
"a. c #9AB4BF",
"s. c #A6A3AE",
"d. c #84AEC4",
"f. c #85B3C3",
"g. c #8AB4C2",
"h. c #8DB7C8",
"j. c #8CBBCA",
"k. c #94B5C4",
"l. c #98B7C6",
"z. c #92B9C5",
"x. c #94BCCB",
"c. c #9ABDCA",
"v. c #86BCD5",
"b. c #96BFD2",
"n. c #A1BCCC",
"m. c #BAB6C0",
"M. c #96C0CE",
"N. c #9DC2CD",
"B. c #96C2D3",
"V. c #9CC4D2",
"C. c #9AC7DA",
"Z. c #95CADE",
"A. c #9DCADB",
"S. c #A3C1CD",
"D. c #A2C5D3",
"F. c #A2C9D6",
"G. c #AAC8D6",
"H. c #A3CDDC",
"J. c #AACDDC",
"K. c #B7CEDA",
"L. c #A5D0DE",
"P. c #AAD1DE",
"I. c #B1D0DE",
"U. c #83CDEF",
"Y. c #8ACFEF",
"T. c #94CDE4",
"R. c #9DCEE1",
"E. c #84D1EE",
"W. c #8CD2EE",
"Q. c #99D4EC",
"!. c #82CEF1",
"~. c #84D1F2",
"^. c #8BD4F2",
"/. c #8FD8F3",
"(. c #93D6F3",
"). c #95D9F4",
"_. c #9BD8F4",
"`. c #9CDBF4",
"'. c #A5CFE1",
"]. c #A4D2E3",
"[. c #ABD4E3",
"{. c #ACD8E7",
"}. c #A6D6E9",
"|. c #AAD6E8",
" X c #A5D9EE",
".X c #ACDAEC",
"XX c #B2D5E3",
"oX c #B4D9E6",
"OX c #B9DBE7",
"+X c #B3DCEB",
"@X c #BADEEC",
"#X c #A3DDF4",
"$X c #AADEF3",
"%X c #A5DFF9",
"&X c #B3DFF1",
"*X c #B9DEF0",
"=X c #B5E0EF",
"-X c #BDE1EE",
";X c #A5E0F5",
":X c #A6E1F6",
">X c #A9E1F6",
",X c #ACE2F6",
"<X c #A5E1F9",
"1X c #ACE2F8",
"2X c #B3E3F6",
"3X c #BBE5F5",
"4X c #BEE8F7",
"5X c #B4E5F8",
"6X c #BBE6F8",
"7X c #BDE8F9",
"8X c #CBC9CF",
"9X c #D4D2D8",
"0X c #C2DDEB",
"qX c #C3E2EE",
"wX c #C2E6F4",
"eX c #C4E9F7",
"rX c #CAEBF6",
"tX c #C1E7F8",
"yX c #C4EAF9",
"uX c #CBECF9",
"iX c #D1EDF9",
"pX c #D1F0FB",
"aX c #E9E7EA",
"sX c #F5F4F5",
"dX c #FCFCFC",
/* pixels */
"%.<.<.;.O.#.$.#.$.1.~.1.-.!.-.1.1.1.1.1.-.=.1.1.<.1.-.-.~.~.1.2.1.~./.`.(.(.(.(.(.`.(./.~.).).(._.(.(.(.`.U.^.!.~.E.1.~.(./.!.^.",
">.>.$.:.>.1.1.<.~.^.^.^.!.1.1.!.~.~.~.2.^.:X).^.(.(.^.~.(.(.~.~.(.`._.#X#X#X#X#X$X,X#X:X`.,X,X:X,X:X#X#X,X#X#X(.^.^.!.^.(.1.<.1.",
"=.;.<.&.~.^.^.~./.(.).`.`.).).`.`.`.`.~.`.>X`.`.`.`.`.`.,X,X`.#X:X1X1X#X$X1X,X1X6X6X5X,X5X6X6X5X5X6X,X$X$X:X,X_.(.(.).(.1.O.$.<.",
">.$.:.<.~.(./.(.).`.).).).`.).,X:X).#X5X,X,X5X:X<X$X1X:X:X:X,X5X,X5X5X5X6XyX6X7XyXyX7X6XyXyX3X6X3X4X5X2X,X#X#X:X#X/.`.).-.&.$.+.",
"=.<.=.1.-.2.(.`.#X#X`.).`.:X,X#X`.`.:X`.1X5X>X,X1X#X#X#X5X1X,X5X3XyX3X7XyXyXyXtXuXeX3X7XyXuXeXuXyXtXyX7X6X#X,X1X1X).:X:X^.=.$.+.",
"%.<.<.^.~.^.).`.^.).1X#X`.,X5X`.Z.h.#X).1X5X5X1X6X5X X,X6X6X,X:XyXuXwXuXuXyXuXwXrXuXyXyX7XyXuXuXtXuXuXyXyX3X6X6X6X:X,X`.^.&.%.$.",
":.<.~.<.^.`.#X1X1X,X#X#X#X1X5X#X:X#XT.`.:X5X5X1X2XR r {.6X5X5X5XuXuXuXyXuXuXqXk 5.rXuXrXuXuXuXuXuXuXuXyXyXyXyXyX7X1X1X,X`.~.1.=.",
">.<.^.2./.).#X#X,X$X#X:X1X#X#X:X,X#X_.#X,X5X5X2XB % Z tX3X7X7X7XuXuXyX4XyXuXyXI % Z 3XyXuXuXeXyXyXyXyX7X7X6X7XyXyX6X1X,X:X^.~.1.",
"~.^.).^.~.1.:X,X2X1X1X2X6X1X1X#X_.Q.d.f.A.5X6XA % O l.yXyXuXuXuXuXuXyXyXyXtXyXXXO $ Z 3XyXyXXXyX4XyXyX4XyXtX6X3XyX4X1X,X:X/.^.^.",
"^.).(.).).E.#X,X2X6X5X5X4X4X5X1X#X`.`.#XR.].e.* + O t S.yXuXuXuXrXrXuXeXuXyX[.z O O & 8.tXyXyX7X3XyXyX4XyX3X7X4XuXyX2X3X#X(.~.~.",
"^.`.`.:X1X5X:X#X5X3X3X7X6X5X6X2X5X`.(.C.b.e.1 % $ O 5 J.eXeXeXeXeXrXeX4X4XyX{.e O @ % ; I.uXeX4X3XyXyX7X3X6XuXwXtX4X6X6X1X).^.^.",
"^.:X,X1X6X6X6X5X7XtXyX4X2X6X7X2X1X$Xv. X5XD # % % 5 D.4XwXwXwX3XwXwX3X4X3X3X4XXXu $ % $ M wXqX+X[.yXyXyX3X3XuXyXuX4X1X6X>X`.U.^.",
"~.`.,X1X5X2X6X3X4X3XyX7X6X7X7X1X$XA.#X1X{.4 % % ; c.-X3X@X3X-X@X@X-X@X=X-X3X3X3X[.5 % + ; J.oX[.J.4XtXyXyXyXyX4XuX3X1X6X$X#X`.(.",
"-.`.#X1X5X6X6X3X4X7XyX7X7X7X5X2X1XC.#X3Xk.% @ % z .X+X+X+X@X+X+X+X+X+X+X+X+X+X.X=XH $ $ % E wXwXyXeX4X7XyXeXuXuXeXyXtXtX5X#X`./.",
"~.#X1X1X6X4X7X6X7XyX7X7X6X5X5X2X1XC. X$XH % @ O F B.V.{.oX{.oX{.{.oX{.oXoXoX+X|.+Xl.O + % z yXyXtXuXyXyXuXuXiXiXuXuXuXuXyX2X$X`.",
"^.#X1X2X5X3X3X6XyX7X3X7X6X5X6X5X2X$XB.T.l % + O g.].D.J.oXXXXXP.[.[.[.[.oXXXoX}.+XXX* + % t 4XyXtXuXuXrXuXuX4XyXiXuXuXuXeX6X1X`.",
"/.`.#X5X6X6XyXyXyXyX7XyX7X3XwX4X2X$X XQ.v % + O g.H.c.P.XXP.P.J.J.J.J.P.[.[.].A.].[.* O $ i 4X4XtXuXtXuXiXrXyXeXpXuXyXuXeXyX2X,X",
"^.).#X2X6X3XuXyXuXyX3X4XyX7XyXwX3X.X.X}.~ % @ O A z.D.H.J.S.E N l k m R x.H.H.e.l.~ O O + Z +X,X4XuXeXuXiXeXeXuXuXyXuXuXuXuX4X,X",
"~.).,X5X6X6XyXuXyXyXyXeXyXyX4X&X2X+X|.}.V.4 + O - y.V./ g * % @ % % + @ & i U / x.0 O + = c.+X.X2XwXuXiXiXiXrXuXuXrXuXuXeXuXyX1X",
"~.`.1X4XyX6XyX6X2XwXuXuXeXuXrX3X.X{.[.[.[.E % + O - u % % % + + + + + + $ $ % < , O O % Z oX+X+X+X3XwXuXrXuXuXuXiXrXuXuXeXyX3X2X",
">.^.#X6X7X6XyX3X3XuXuXrXyXrX3X+X+X{.[.[.[.J.I = @ O O + + + % % % % % + + + $ O O O % m J.{.{.+X+X+X4XwXyXeXuXuXiXuXuXrXuX7X1X$X",
":.1.`.#X,X2X4X6X3XyXyXuXuXwX3X@X+X[.[.'.J.F.F.8.8 O @ + + + % + + + + + + + + + O & D c.[.{.{.|.+X+X2XwXyXuXrXuXuXuXuXeX4X3X6X$X",
"$.!.).#X,X2X6X6X6XyXyXyX3XwX-X+X}.R.'.A.H.F.D.N.k % + + + + + + + + + + + O O + % , V.e.V.[.{.].}.+X&X3X4XuXrXuXuXrXuX7X6X2X1X$X",
"$.~.).#X:X1X6X4X3XyXyX2X3X3X@X+X[.R.A.C.F.V.c.x.i $ % & & % % + + + % % % % % % % 1 V.k.l.J.].].]..X+X&X2XyXuXyXyXyXyX3X6X5X,X,X",
"#.1.).#X:X6X2X6X3X3X1X3X3X@X+X[.{.P.H.B.B.M.x.g.p & ; 4 9 6 > % % % = : 4 5 2 = % 3 N.8.F.H.J.].}.|. X$X2XtXyXyXtX6X6X6X1X#X#X#X",
"%.1.`.`.:X,X1X1X,X7X,X2XwX+X{.[.].H.H.B.B.x.h.f.j ; t V s.J d 2 = ; 6 d V 3.x 6 ; 8 e.k.F.J.H.H.{.+X{..X2XyXyX7X7X3X6X,X1X`.(.(.",
"1.~._.(.`.#X).1X1X:X2X$X&X@XoX].[.H.C.B.x.x.g.i.v 9 c 9XdXsX4.d 1 1 d 3.aXdX9Xh y i z.N.N.V.H.[.[.+X+X+X+XwXyXyX7XyX2X:X,X,X`.`.",
"%.=.~.^.).#X`.,X5X1X1X$X.X+XoX[.[.H.V.V.N.z.g.t.D h 3.sXdXdXaXS w q S 9XdXdXsXJ 6 m z.x.N.B.A.J.].[.[.{.,X4XyXuXuXtX6X6X6X5X#X`.",
"$.$.)./.).`.`.#X1X,X$X X X{.+X[.P.A.B.N.c.z.i.r.I d 4.sXdXdXdX9.d y 9.sXdXdXdX4.w G g.x.x.V.F.H.'.[.{..X3X3X7XyXyX6X6X7X5X5X:X#X",
"..+.E.^.`.`.^.).:X#X#X#X|.+XXX[.P.A.B.x.z.f.t.r.! d K aXdXdXdXs.d d 0.dXdXdXsXK w ~ i.z.x.V.F.H.H.[.{.+X=X3X4XyXtX6X6X2X`.1X$X$X",
"+.+.-.~.).`.^.(.`.#X`. X.X+XoXXXP.F.V.x.z.i.t.r.) s x m.dXdXaXJ t w K aXdXdX9Xc u r.p.z.x.V.F.H.].[.|.|..X4XyXuXuX6X5X`.).,X`.#X",
"O.&.$.-.~.`.)./.).1X$X$X|.+XXX[.J.F.V.x.z.g.t._ ) P t c s.8X3.f < < h 6.aX8XC t P t.i.z.x.D.F.J.R.[.].}. X3XyXyX7X5X:X:X).).#X).",
"=.1.<.=.1.`.(.).).2X2X+X+X+XXXL.J.D.V.j.g.i.t._ _ ) B w f d w ; & = 1 y h d w n _ t.i.z.x.V.V.H.A.[.[.}.$X2X7X4X6X1X`./.).(.).~.",
"$.$.1.~.~.#X`.,X,X3X3X2X@XoXoXL.J.F.V.j.g.i.p.r.q.) ^ A 5 % % O + % & = - 3 A ^ / t.i.z.c.V.F.H.[.[.{.{. X2X3X3X3X:X:X(.(.).).-.",
"$.:.<.~.^.#X`.#X1XtX3X3X@X@XOXXXJ.F.B.j.f.g.i.y._ ) ^ ! M .         . O # 0 ! ! / y.g.z.N.V.A.H.[.[.{. X X2X3XyX3X,X`.#X)._.(.&.",
"=.=.:.>.~.:X1X1X,X2XyX3X@X@XoX[.P.H.V.j.g.g.i.r._ ) ! L 3 O @ O         * O G ( _ t.g.z.N.V.F.J.[.XX+X.X&X2X3XtX3X1X:X:X#X<X(.~.",
">.-.!.~.~.`.5X#X1X2X3X3X-X+XoX].P.J.z.G j.f.` t.r.^ U M % < = O   O O + % & r ( ` i.g.x.M.V.H.P.[.oX+X+X2X2X6X3XyX6X$X#X#X#X).~.",
"-.!.(._.^.(.,X$X1X6X3X3X3X@XoX[.L.H.F.M.x.g.g.i.t.U P < & ; O     O O O % < * z ` f.g.x.V.F.H.].].'.|.+X2X4X2X2XyX6X1X`.#X`./.<.",
":.!.~.^.(.`.1X5X6X3X7XwXwX-X@X[.].H.A.V.N.x.z.p.y.v g % % O         O O O = > % m f.f.x.B.A.J.R.R p R..X$X$X2X7X4X6X2X#X:X(.<.=.",
"O.&.1./.#X1X6X5X5X6X4XwXwX@XI.G.F.L.H.J.D.N.c.k.M ^ M O O . .     . . O O O % + = m R _ _ B.H.].^ r A.$X#X#X3XuX4X2X#X`.`.W.-.1.",
"+...1.(.#X1X5X6X5X3X7XyXS.l 4 < 1 e z L e.k.c.q.N A , & O o o   . o o o O O O O + z ! _ B.g.A.].}.H.! $X2X2X$X4XtX1X1X`.E.^.~.1.",
"o.%.(.:X2X5X6X6X5X6XyXl.5 Z a.8.N Y M i 5 1 - * O O & = O o     . o o O O O O O O & ` I R x.].].|.+X$X$X2X3X5X6X5X$X,X#X(./.~.=.",
"O.<.)._.%X,X2X2X1X1X.Xu n.wXwX@XG.H C.H.e.s % O O O O O O       % o O + + O . O O O M g.m e.[.{.+X+X2X2X5X2X2X#X#X$X:X_.(.1.<.%.",
"$.&.^.(.#X`.$X2X1X$X].c.uXrXwX-X+X[.I k & + O O + o O O       . + & . % < % X . O O 8 M.A.l F.+X3X2X2X5X6X5X#X$X$X#X#X`./.1.&.+.",
"!.1.U./.(.`.,X$X1X2X3X7XwXqXrX3X+XD.8 O O O o O = % O O   . . o O - O   ; 1 $ o . . 4 C.[.E 8.+X3X2X6X6X2X2X1X1X1X#X:X#X/.1.=.#.",
"=.<.U.(._.`.`.`.2X2X2X@XY V eXwXwXk O O @ @ % - ; $ . O O O . o O % > O . - ; O O O 1 J.@X5.7.3X3X3X7X3X2X1X5X6X5X`.).).!.=.+.X.",
"Y.^.(._.#X`.`.#X2X2X3X@XwXrXrXrXG.% O O O - < - O   O + O O . O O % = ; .   O O O O 8 XXG.l I.@X@X4X3X6X6X#X1X2X,X#X#X`.).~.$.#.",
"!.1.^.#X(.(.#X$X2X4XtXyXeXiXuXXXZ O O O + % O o   % = % O O O O O $ % - -       O O ; N g 7.H H F H H.6X6X,X:X2X2X$X:X`.(.!.O.X.",
"!.(.`.(.(.(.#X2X3XwX7XyXuX0Xu.7.D O O O + O O   % ; & O O . O O O O & $ : = .     o O o 5 8.3XwXwXyX+XyXyX2X,X1X2X$X:X:X).~.>.+.",
"(.`.#X^.^.(.`.2X7XtXtXuXK.7.5.5 O O + + % o   O % % $ % X < % O O O + & O ; = o   . o X k wXeXyXyXeX7XyXyX6X6X6X3X1X,X:X`.^.%.>.",
"(.W._.^.!.^.#X#X2XyXyXyXu.N $ O O O O ; x . % b & % % i z b O @ O O O % % O & & O O . X @ u.rXuXwXuX4X3XeX6X4X3X7X6X2X,X`.^.:.#.",
"(.^.^.(.$.&.#X#X2X7XuX3X/ O O O O % $ m j O Y H % % m n.g R O % O O o O % O O % % O O O O % u Y J.wX4X4XtX6X3X5X3X6X6X#X).^.$.| ",
"(.U.!.1.&.1.(.(.2X3X3X3Xl + < O O % % ~ g 5 0X9 % ; n.XXe y.% % % O O O O O O O + O O O O O O O % u Y oXyX3X6X1X1X,X1X#X`.~.<.$.",
"1.,.&.&.&.1.-.^.`.#X#X.X8 % H O O % % u.D s G.= # k n.@Xq D.3 + % % O O O O O O O O + O O O O O + @ % ; g R V.1X,X#X,X,X).=.$.$.",
"~.~.,.U.>.$.^.U.^.(.$X+X7 & l.= O % @ R G.q c.& % e l.G.e D.N O + % + O @ , O O O O @ % $ O z ! ~ E I b 3 Z r.b.2X$X,X#X^.<.O.#.",
"!.-.U.!.$.1.^.(.!.!.`.$Xg - F.B + O @ j 2Xd.y.< $ % V.~ 8 ~ D.- + + + + % P / m r < g F 8 % O I 3XwXyXyXwXl A t.1X:X$X#X^.=.O.X.",
"!.>.1.,.!.^.^.^.(.).#X5Xg.* I |.m @ % & f.1X,XH # % l *XG q 7.R 3 % % @ % ; d.` y.~ l.J.+XG @ 3 2X7X3XyXyX{.5 C.#X_.#X).-.1.O. .",
"-.+.^.U.1.&.^.^.`._.:X5X1Xe.i z.>Xr.j ; p _.`.$XU r 4 j e.1 8.&X|.A * % @ @ A _.T.2X4X7XtX2Xl 3 $X5X1X6X5X2XT U `.)._.).1.%...{ ",
"=.$.!.=.$...!.~.^.(.1X#X).:XQ.Q.,X#X$XZ.p v.^.).#X#X+X3X2Xk.5 q r p U t.q @ p (./.`.5X6X7X7XI v `.,X1X1X6X5XT.A `.).#X:X(.-.} } ",
"$.O.1.=.<.&.~.1.^.Y.!.^./.#X_._.#X#X,X).n ] ^./.`.#X#X5X1X2X+XD.B.#X$X#XQ.r 7 ^.^.`.#X:X1X6Xe.].1X5X1X#X,X:X`.] ).(.`.`.=.1.X.} ",
"+.O.=.<.&.^.!.-.^.*.@.-.^.(.).).(.(.).*.a +.!.U.).).#X2X1X1X2X$X#X5X#X(.Y.Q a -./.^./.).#X:X#X#X#X$X#X#X#X%X).).).E.^.(.:.=...{ ",
":.X.#.+.+.=.-.^.!.!.U.&.&.^.^.1.~.1.&.$.$.$.-.&.!.^.(.(.^.`.#X#X`.`.`.!.@.W W 1.>.>.1.^.~.~.~.~.^.(.^.^./.U.^.^.~.1.O.#.X.X. .} ",
"O...#.O.;.=.!.~.-.,.-.&.+.+.>.$.+.O.X.X.O.O.$.X.+.>.=.=.+.=.-.(.W.Y.-.+.o.' o.+.#.O.<.1.=.1.1.1.^.~.1.~.^.1.<.1.:.:.#.$.O...} { ",
"O.X.$.O.X.+.>.,.&.@.&.+.+.+.+.X. . ...O. . .O.X.o.+.+.&.O.+.>.*.!.!.@.+.O...} | +.#.-.2.~.~.1.=.E.-.-.~.(.~.1.1.:.$.>.$.O.O.} [ "
};
