/* XPM */
static char *result[] = {
/* columns rows colors chars-per-pixel */
"64 64 200 2 ",
"   c #731F3C",
".  c #472735",
"X  c #53263A",
"o  c #52563D",
"O  c #323957",
"+  c #2D3D62",
"@  c #5A2F4C",
"#  c #6C2947",
"$  c #234B68",
"%  c #214D72",
"&  c #28567C",
"*  c #386D7F",
"=  c #46685A",
"-  c #666B4D",
";  c #6C7249",
":  c #767C50",
">  c #4F4C6C",
",  c #634E7A",
"<  c #48797D",
"1  c #537E75",
"2  c #812848",
"3  c #902F56",
"4  c #863359",
"5  c #95355D",
"6  c #8E3A6B",
"7  c #B62E61",
"8  c #A73564",
"9  c #B8386C",
"0  c #C2437C",
"q  c #7A853F",
"w  c #7B8546",
"e  c #7A8B55",
"r  c #7EA15F",
"t  c #598777",
"y  c #6B916C",
"u  c #7A9E68",
"i  c #6D8F7A",
"p  c #6B9276",
"a  c #769976",
"s  c #7BAB78",
"d  c #BCD637",
"f  c #B6D23B",
"g  c #BDD63B",
"h  c #BFD83D",
"j  c #C0D93F",
"k  c #8A9647",
"l  c #869254",
"z  c #8C9552",
"x  c #97A544",
"c  c #87A95F",
"v  c #97AE51",
"b  c #99B65D",
"n  c #A6B748",
"m  c #A3BD5A",
"M  c #B0BD58",
"N  c #85A767",
"B  c #97B968",
"V  c #8BAA70",
"C  c #8FAF71",
"Z  c #A1BD65",
"A  c #ACC347",
"S  c #B8CD47",
"D  c #B4C949",
"F  c #BBD546",
"G  c #BCD34B",
"H  c #A9C556",
"J  c #B3CD54",
"K  c #B5C858",
"L  c #B3CA5C",
"P  c #B6D157",
"I  c #BCD553",
"U  c #BAD459",
"Y  c #9BC06F",
"T  c #AAC967",
"R  c #B9D467",
"E  c #A2C671",
"W  c #C3DB44",
"Q  c #C1D74C",
"!  c #C6DC4B",
"~  c #C8DE4E",
"^  c #C5DB53",
"/  c #CADF51",
"(  c #C6DB58",
")  c #CAE04F",
"_  c #CCE054",
"`  c #CEE259",
"'  c #D0E257",
"]  c #D1E35B",
"[  c #C0D661",
"{  c #D6E662",
"}  c #D9E867",
"|  c #1D5586",
" . c #1D5B8F",
".. c #1E5D91",
"X. c #275B88",
"o. c #235D8D",
"O. c #225E91",
"+. c #1F6196",
"@. c #2C6589",
"#. c #2A618C",
"$. c #356888",
"%. c #3D6F8A",
"&. c #3C7083",
"*. c #39718A",
"=. c #236295",
"-. c #2A6292",
";. c #23659B",
":. c #29679A",
">. c #23689D",
",. c #29699D",
"<. c #356691",
"1. c #346D98",
"2. c #3C7494",
"3. c #397896",
"4. c #3A729D",
"5. c #256CA3",
"6. c #2A6DA2",
"7. c #2771A7",
"8. c #2B72A5",
"9. c #2772A8",
"0. c #2A75AB",
"q. c #2C7AAE",
"w. c #3876A4",
"e. c #3076AB",
"r. c #337BAD",
"t. c #2E7DB2",
"y. c #337DB2",
"u. c #5D5C8B",
"i. c #675488",
"p. c #7C5C96",
"a. c #426E83",
"s. c #487786",
"d. c #587B85",
"f. c #476A94",
"g. c #487A99",
"h. c #6F7389",
"j. c #9D629C",
"k. c #C54B86",
"l. c #C95794",
"z. c #D168A3",
"x. c #3F87AF",
"c. c #3382B6",
"v. c #3B83B4",
"b. c #3385BB",
"n. c #3A86BA",
"m. c #368ABD",
"M. c #3B8BBC",
"N. c #4C838C",
"B. c #588988",
"V. c #45849B",
"C. c #518C9C",
"Z. c #5A9496",
"A. c #648780",
"S. c #679D8E",
"D. c #649B92",
"F. c #7AAD85",
"G. c #67A495",
"H. c #74AD93",
"J. c #4183A1",
"K. c #5498AB",
"L. c #448AB2",
"P. c #438CBE",
"I. c #4A93B8",
"U. c #5096B2",
"Y. c #669BB0",
"T. c #68A6A8",
"R. c #75B1B2",
"E. c #378BC1",
"W. c #388EC2",
"Q. c #3C92C5",
"!. c #3E96C9",
"~. c #4293C5",
"^. c #4C97C6",
"/. c #439BCC",
"(. c #4A9BCD",
"). c #5799C4",
"_. c #449ED1",
"`. c #679DC5",
"'. c #5AA5C9",
"]. c #46A1D2",
"[. c #4AA2D3",
"{. c #58AAD8",
"}. c #5BAADB",
"|. c #68A4C6",
" X c #78A7CB",
".X c #60ADDC",
"XX c #66B6E2",
"oX c #81AE83",
"OX c #83B58B",
"+X c #83B695",
"@X c #91ADCC",
"#X c #96B3D3",
"$X c #ADB7D0",
"%X c #B4BCD4",
"&X c #AFC1DB",
"*X c #BBC1D6",
"=X c #C2C9DE",
"-X c #C5CEE3",
";X c #C9D2E6",
":X c #D1DAEE",
/* pixels */
"! ! ! _ ! ! ! ! ) / / _ _ _ ( _ ` _ _ _ ` ` ^ ) _ ~ ~ ~ ! ! W W ) W ! ! ! ! ) ` ' ' ] ] ' ] ] ' / ` / / ` ` _ _ ! _ _ ! ! ! ! ! ",
"! ! _ ! ) ! ! / / / / _ _ ` _ _ / ` ` / _ _ _ _ ) ~ W F ) W W W ! W _ ! ! ! ! _ ` _ / _ _ / ' / / _ _ _ / / / / ! ! ! ! ! ! ! ! ",
"! _ _ ! _ / / / / / / _ _ ) ) ) / / / / _ _ _ W W ! W W j j W ! ! ) ) ! ) ! ! W ! W ! W ! ~ ! ! W ! ! ! ! ! ! ! ) ! ! ! ! ! ! ! ",
"/ _ ! ) _ ! ! ! / / _ / _ ~ ) F ! ~ ! / _ _ ) ~ ! ! W W W W W W ) W ) / ! ! W W W W W ! W ~ ~ ~ ! W W W W W ! / _ W ! ! ) ! ! ! ",
"_ / ) ! ! / ) ) ) ) _ _ ^ ) ! ! / / / / ` ] ` / ! _ W W F W W W W ! ! ! ! ! ! ! W ! W ) ! _ ! ! ! W W W W W ! ` _ ~ / _ ' ` ! ! ",
"` _ ) ! ! W ! ! ^ ) ^ ) ) _ ) _ / ` ` ] ] } { ] _ ! ~ W W W W W j W W j ! ! W W W W W ! ) / ! ! W W W j j W / ` ' ` _ / ! ! ! ! ",
"] ` ! ! ! ! _ _ ) ~ ) ) ` _ _ _ / ' ] ] ] { { ] _ / ! ! ! W W h W S k x n S ! ~ ! ! ! ! ! ! ! / W W ! W W ! / / / / ~ ! ) ) ! / ",
"` / ! ! ! W W W ! ! ^ _ _ _ _ ` ` / ] { ] ] } ] / ~ ~ ! ! W W W j x D ; x n D ! ! ! ! ! / _ ! _ ! ~ ! ! W ! / / _ / / ! ! _ ! W ",
"_ _ ~ _ ~ ) ~ ! ~ ) ( ) _ _ ` _ / ` ] { ] ' ] / ! ! ! ) W ! ! W W S ; q Q ! ! ! ! ! W ! _ / ! ` ! ! W W W W / / _ / / / / / ! ! ",
"` ) ~ ) _ _ _ _ ~ ) _ _ ` _ / _ / ] ] { ' / ` / ! ! ! ! W ! ! W j W x o n ! W ! ! ! W W ! / ! / / ` ! ! ! W ) / / ! / ! ~ ! ! W ",
"_ _ ) _ _ ^ / / ^ ) ) / _ _ / _ ` ' ' ' ' ` _ / ! ! ! ! ! ! ! W W j j q o D ! W W W j W W W ! / ! _ ! ! ! ! ! / / ! / ! ! ! ! ! ",
"_ _ ) ) _ ! ) ! ! ! ) ) _ / / / ) _ / _ / ] / / ! ! ` ! ! ! / ! W W j j k - S W W W j j h W ! _ / ) ! ! ! ! _ _ / ` ` / ) ! W W ",
"_ ) ) ~ ! ! ) ! / ! _ ` / / / ! ! ! / _ _ ' ` _ _ / ' ! ! / _ ! ~ ~ W W W k ; G W W j h W ! ! _ _ ! ! ! W / ! _ ! ! / ! ! ! ! W ",
") ^ ) F _ ! ) ! ! W W ! ! / ! ! ! ! ! ~ / ' ` _ / / ' ! ! / / ! ! ~ W j W W k - S W W j W ! ! ! / ! ! _ / / / ` ` / / ^ W W W W ",
"/ ~ ) ! ! ! ` ! ! ! ! ! ! / / ! ! ! ! / ] ] ` ` ` ! _ ! ! ! ! ! W W W W j W W x ; S W W W W ! ! _ _ _ _ ! / ! ` ` ! ! W ! W W W ",
"_ _ ) ~ ! _ ` _ / / ! ! ! / ) / / ! ! ` ] ] ' ` _ _ / ! W ! ! W W W W W j j W W n - A W W ! W ! _ ` ` ! / _ ` / _ ! / W ! W W ! ",
"_ _ / ! ! / ' ] ` ! ! ! ! _ _ / / _ _ ' ] ' ` _ ] / / ~ ~ ! W W W W W j j j j j W n - M / / ~ ~ ' ] ] ` / ` _ _ ) ^ / ~ ~ ^ ~ ~ ",
"` ` ' / ` ` ` ' ` / _ _ ) ` _ _ ` ` _ ` ` ` _ / / R T / ! I I Q j j j j j j j W ) W n - M ] / / ] { ] _ _ _ ` _ _ _ _ _ ) ) ! ! ",
"` ] _ ! / / ` / ` / _ / ! _ _ _ / ` / _ ] ( ' E R.L.v.OXs U.U.D.S j j j j j j j W W W D ; Z ] ^ ' ] ] ] / _ / _ _ _ _ _ ) ! ! ! ",
"` ` / _ / ] / / / ` / ! ) _ / / _ ! ! _ ] ( D.M.}.(.c.r.~.}..X^.S.j j j j j j j ! j W W ( : v ! ! _ ] ` ! _ _ ! ) ) ) _ / ! ! ! ",
"` / _ _ ` ` _ _ ` / / ! ! ) _ _ ' ' ' / Z 4.e.n.(.}.y.v.(.}.{./.x.A d g d d j j j j W W ! ^ w z ! / R [ _ _ _ ! ) ) / _ / / / ! ",
"` ` _ ` ] _ _ ` _ _ ! ! ! _ ! _ ] / / C 1.5.6.c.M.v.6.r.y.n.n.q.6.v d d d d j j j j j W ! W G w e G.^.R.! ~ _ ! _ _ / / / ! ) ! ",
"/ ` _ _ _ _ ! / ! ! W W W ! ! _ ! ! Z ,.,.6.,.,.=.=.=.o.8.q.c.c.& = A d d d j j j j j ) W ! W H (.y.w.y.oXT _ ` / _ ) ) ! ! / ~ ",
"/ ` ! _ ! _ ! ! ! ! W W W ! / ! ! ! i ,.,.y.6.O.+.5.% #.$ r./.{.*./.J.s d j j j j j j W ! W W F.P.~.~.4.n.'.U ` ) ) ! ! ! ) ) ^ ",
"/ / / / ) ) ^ F ) ~ ! ! W ! _ ) ! ! N w.5.O. ...5.9.X.t.c.$ ^.XXI.{.[./.G.d d h g j j W j j h G.y.:.r.n.e.L.K / _ / / ! ~ / ) ~ ",
"` ` ) _ ) _ ) ) ) ) ! ~ ! _ _ Y Z.U.y.1.O. . ...5.5.O.y.m.m.M.].!.^.#X X!.G.f h g j j W j j J N.6.:.O.=.;.w.+X/ ^ _ _ _ ! / ~ ! ",
") _ / ! ) ) ) ( ! ) W ) ! ! _ Z.6.e.e.O. . ...O.5.0.0.c.I.#X X~./.$.%X:X|.!.H.g d j W W J H.'.v.;.,.-.-.O.y.oX( _ _ _ ` ! ! ! W ",
"/ _ / ) _ I ) _ _ ) ! ^ ) ! _ T w.,.:.o.......O.5.0.y.b.@X-X:X X].& h.:X&X!.!.Y ) F P +X.XXX[.v.6.,.,.,.a.1 l ~ ) ` ` ) _ ! ! ! ",
"/ _ ) ) _ ) ) _ _ / ) ! ! ! ) / L S.%.-.O. . ...5.q.c.b.@X-X;X$X'.).%X;X-X^.c.I.P F OXXX.X~.y.6.,.s.N C ( ^ l l ( ] ' / _ _ _ ) ",
"` ` ` ) _ ) ) _ _ ) ! W ! ! ! ) / ! a <. . . . .5.0.t.b.Y.-X%XO @X/.$X=X=X|.c.c.C L K./.n.e.;.6.g.K _ _ / ] / z z ] ' ' _ ` _ _ ",
"` ] ` _ _ ) ) ) ^ ~ ! ! ! ! ) _ ! / a <.o... . .;.t.c.b.E.%X=X> Y.[.`.*X*X|./.x.P.).P.e.e.;.6.g.T ` _ ) / / / / K ' ' / ' ] _ _ ",
"_ _ _ _ _ I ) ) ) ) ) ! ! W ! ! ! / V f.O.O. . .5.!./.m.E.`.%X%X@X[.(.|. X/./.m.W.b.;.O.,.6.4.C / _ ` _ / / / / ' ' _ ` / ' ' ` ",
"' ' / ` ' / ' / _ _ ~ ! ! W W ! ! ! Z f.<.o...o...O.;.q.E.W.Y.@X`._.[.[._._./.M.Q.7. .a.s.w.a ] ] ' ' _ / / ! _ ] _ / ' ` ' / ] ",
"/ ] / / / ! / / ~ _ ) ! W W ! ~ ~ ~ G d.f.O. . .| |  .5.t.E.Q.!._._._.[.v.e.M.M.Q.c.t L / T ^ ' ( ' _ _ _ ~ ~ _ _ ! ! _ / _ / / ",
"_ ' / / / / / / ~ ~ ~ ~ ! W ! ~ / ] / C f.<.o. ... .| O.t.E.E.P.i.u.f.> & 6.Q.!.Q.m.T _ ] ' ^ _ / ] / / W W W ! W W W ! ! ~ ~ ! ",
"/ / / / ' ' / / ~ ~ ) ! ! ! ~ ) _ ' / / i f.O... . . .| & 6.w.@ 3 2   #  .Q./.Q.Q.W.C ` } ] ~ / / / ~ ! W W j j W j W W / ~ ! ~ ",
"/ / ~ / ' ' / / / ' / ~ ! ! ! ~ _ _ _ / ( A.<.o. ..... .+ . . . 3 2   @ ,./.!.Q.W.E.G.` } ] _ _ ] / ! ! W W j W W j W ! ! ! W ! ",
"^ ~ ~ / ` ' / ~ ~ / / ~ ! W ! _ _ / / ~ ! J s.o..... . . .+ X # 5 3 5 4 ,.Q.Q.Q.W.m.C.` { ` ! _ / / ! W W W j j W j W W ! ! ! ! ",
"~ ~ ! ! ' ~ ! / ~ ~ / / ! W ! ! ! ~ ~ ~ ! ! N y.t... . . . ., 7 9 l.l.z.j.~.W.W.m.b.x.( ` ` ! ! ^ ~ ! W ! W j j W j W W ! W ! ! ",
"/ / ~ ~ / / / / ~ / / ~ W W ! W W ! ! ! ! G G._.0... . . . .;.f.6 9 l.l.l.p.E.E.b.b.V.I ` ` ) W ! W W W W W j j j j j W j W ! ! ",
"/ / / ! / / ! / ! ! / ! ! W ! W W ! P K.K.H.(.q.+... . . . ...q.w.8 9 k.0 6 W.E.b.b.4.K _ ! W ) ! W W ! ! ! W W j j W W W W W W ",
"/ ] / ~ / / ! / ! ! ! ! W ! ! ! W Q B.e.8.].q.=. .o.o... . ...7.t.u.8 7 9 6 b.b.b.t.4.J W W W W ) ! ! _ ' _ W W j j j W W W W ! ",
"] ] / ~ / ! ! / ! ! ! G ! ! ! W W V ;.8.Q.5.+.#.<.X. ... ... .5.0.t.4.i.i.e.b.t.t.q.3.S W W W ! ) ! ! ` ` ! W j d d j j W j W ! ",
"/ / / ~ ! W ! ! ! W W Z.E ^ B ! T ^.r.b.;.o.s.N u o. . . . . .;.0.0.e.t.t.t.t.t.q.0.*.I ! W W ` / ! ! _ ) W W h d d j j W j j W ",
"~ ~ ! ! ! W ! ! _ B I s R.U T.R Y.~.6.o.X.@.m ! B o. . ... . .>.7.7.9.0.0.q.9.9.0.5.*./ ! ! ! / ` ! ! _ ! ! ! W j j W W W j j j ",
"~ ! ! W ! ! ! ! ! N.T.E C.D.D.'.n.,.,.:.#.B.^ / b o.=. .>.+. .>.5.5.5.5.9.9.5.5.7.>.d./ / ! ! _ ` ! ! / ! W ) W j W W W W W W W ",
"~ ! W W ! ! ~ / / m N.J.4.w.e.0.5.1.B.C L ! ! ! b O.0.=.5.;. .;.;.;.;.5.5.5.;.;.5.+.p / / ! W ! ! ! ! / ! W ) W W W ! ! W W j W ",
"/ ~ ! ! ! / ! ' / ! / P P B 1.5.;.V / / ! ! ! ! N ;.t.>.0.-...;.;.O.O.5.;.>...O.+.+.B / ` / ! ! / ! ! ! W W ! ! W W W ) W j j ) ",
"_ ) ! ! / _ / ` ` ! _ ! ! ^ s.6.3.U ) _ ) ! W ) y >.c.,.8.a.O.;.=.*.t +.=.=.&.*. .#.( / _ _ / ! ! / ! / ~ ~ ^ ~ ! ! ) ) ! ) j W ",
"_ _ ! / _ _ ` ` ` _ / ! ! P 3.V.Y / ) ) ! ! ) W &.0.B.2.t s...O...t t +.#.*.t s. .t / / / _ ! ! / ! ! _ _ / ) ) F ! ! ! ! F W W ",
"_ _ / ! ) _ _ _ ` _ / ! ^ B 3.U ) ) ~ ) ! ! W b =.2.H &.b $.o.@. .N a  .@.y u s.#.m / / ! / ! ! ! ! ! _ ` ` / / W W ! ) W W W ) ",
"_ ` _ ~ ) ` ( ` ` / ! ! ! P t ( ) ^ ~ _ ! W W < *.H b H a o.$.u * ^ u  .t r D s.t F / _ ! / / ! ! ! _ ] { ` _ / ) W ! ! ) ) ) ! ",
"` ` ` ! _ ` ` _ _ _ / / ! / / / ) ) ) ) ! ! r t P ) / U %.@.Z y H ) p o.c ! G &.L _ _ _ / _ ! ! _ ! ` { { ] _ _ W W ! ! ! ! _ ) ",
"_ ` ` ! ) ) _ / / _ / / _ _ ` _ ) ^ ^ ) ) W J ( _ ) ( N < L _ G W W t * S / H H ) _ ` ` _ _ _ / _ _ ` ` { ] _ / ! W ! ! ! ! W ! ",
"! _ _ ! ! ) ) _ ` ` / / _ ` _ / ) ) ) _ ) ! ~ ) _ _ / b ^ / / ! ! W &.v W ) / / _ _ ` _ ` ! / _ _ _ ` { } { ` _ ! W W ! W W W ! ",
"_ _ ! ! ! ! _ / / _ / / _ / ` ` _ _ _ _ ) ! ) ) _ _ _ / / ! ! W ! v u W ! ! / _ _ _ _ _ ` _ ! _ ` ] ] { } { _ _ ! ) _ ! / _ ! ! ",
") ) ) W W ! ! ! / _ ! _ _ ' ] ` _ _ _ _ _ _ ) ) ) _ _ ` ) / ! ! ! Q ! ! ! ! ) _ / ' ' / / / ! _ ` ] ] ] } ] _ _ _ _ _ ) ! ! ! ! ",
"! ) W h W W ) ) ~ _ ) _ _ ] ] ] ` _ _ _ _ _ _ _ _ _ _ _ _ _ _ _ ! ! ! ! ! _ _ ` ` ` / / ! / ) _ _ _ ' ] { ] ! ~ ) _ / ! ~ W ! ! ",
"_ / ) ) W ! W ! ! ! ! ! ! _ _ ] ` _ _ _ ) _ _ _ ) _ ( _ / / / _ / / / ! ! / _ ! _ / _ _ ! ! ! / _ ` ' ' ] ] _ _ _ _ ) ! W F W W ",
"/ ) _ W F W j ) W W F W W ! ! ` _ _ _ _ _ ( ^ ) ) ! / _ / / / ! _ / _ _ / _ _ _ / / / ! ! ! _ ! _ _ ` ] ] ] _ ` ` ! / ) ! ! W W ",
"! ! / ! W W W W W W W W j W ! _ / / _ / ! / ) ! / / / _ _ _ ! ! ` ` ` _ _ _ _ _ _ _ / ! ! _ / ! ! _ _ ` ] ' / ` ` _ ` _ ] _ ! ! ",
"! _ _ ! W W W j ) W j W W W ! ! / / / / / ~ / ^ ~ ! / _ / / / _ _ _ _ _ _ / ! ! ! / / ! W ! ! ~ ! _ _ ` ' ` ! ` ] ` ! / _ _ _ ` ",
"! _ _ ! W h g h j W W W W ! ) ! ) _ / / / _ ~ ~ ~ ~ / _ _ / ! ! / / / ) _ ! / / ! / ! ! W ! W ~ W ! / ` _ ' ! _ ] ! ! ! ! ) ) _ ",
"W ! ! ! ! W W h W W W W ! W ! ! ) ) ^ / / / ~ ~ ^ ~ ~ ) _ ! ! ! ! / ) _ _ ! / ! / _ ! W W W ! W W ! ' ' ` ' _ ` ] _ ! _ ) _ ) ! "
};
