/* XPM */
static char *_9819dc230f7417bed4ed37af7455e41iQqlHAPvDQpkcJmm[] = {
/* columns rows colors chars-per-pixel */
"64 64 209 2 ",
"   c #721F3D",
".  c #4C2836",
"X  c #71203B",
"o  c #4A4C3F",
"O  c #6E763D",
"+  c #1D3C54",
"@  c #2B3C5C",
"#  c #333857",
"$  c #4C385E",
"%  c #772643",
"&  c #6C304B",
"*  c #463962",
"=  c #284B6F",
"-  c #2C5274",
";  c #275879",
":  c #595B4A",
">  c #5A6A58",
",  c #64694D",
"<  c #6D7348",
"1  c #747A4E",
"2  c #737954",
"3  c #5A5977",
"4  c #6D4572",
"5  c #48787C",
"6  c #8C3157",
"7  c #913258",
"8  c #A13565",
"9  c #A73866",
"0  c #B3346A",
"q  c #B7366A",
"w  c #A8406E",
"e  c #C04179",
"r  c #778B53",
"t  c #5B8675",
"y  c #618C6D",
"u  c #6E976D",
"i  c #799C6A",
"p  c #638C77",
"a  c #6D9772",
"s  c #769877",
"d  c #7EA366",
"f  c #7DA26B",
"g  c #7AA476",
"h  c #828F3B",
"j  c #BAD438",
"k  c #BDD63B",
"l  c #BFD83D",
"z  c #C0D73F",
"x  c #C0D93F",
"c  c #889448",
"v  c #8A9351",
"b  c #99A847",
"n  c #9EA859",
"m  c #9AB85B",
"M  c #AABA49",
"N  c #A1AD54",
"B  c #A4B554",
"V  c #829F6F",
"C  c #81A566",
"Z  c #89AA65",
"A  c #91AD6D",
"S  c #8DB368",
"D  c #96B867",
"F  c #88AF74",
"G  c #8CB577",
"H  c #A2B771",
"J  c #98C058",
"K  c #ACC447",
"L  c #B3C94C",
"P  c #BBD547",
"I  c #BFD841",
"U  c #BDD34B",
"Y  c #A6C35A",
"T  c #ACC75C",
"R  c #AECC5A",
"E  c #B6CB53",
"W  c #BDD453",
"Q  c #BDD55A",
"!  c #9CC468",
"~  c #9CC273",
"^  c #A7C865",
"/  c #BAD261",
"(  c #C3DB44",
")  c #C6DC4B",
"_  c #C8DE4E",
"`  c #C2D557",
"'  c #C4DA53",
"]  c #C9DF50",
"[  c #C9DE52",
"{  c #CADF52",
"}  c #CCDE5A",
"|  c #CAE04F",
" . c #CAE051",
".. c #CBE057",
"X. c #CCE054",
"o. c #CCE156",
"O. c #CEE259",
"+. c #D0E257",
"@. c #D1E35B",
"#. c #D2E45E",
"$. c #CDDE63",
"%. c #D6E662",
"&. c #D9E867",
"*. c #1C5689",
"=. c #1D5B8F",
"-. c #1E5C91",
";. c #225D8E",
":. c #285E8D",
">. c #215E92",
",. c #1F6094",
"<. c #2C638B",
"1. c #29638D",
"2. c #366988",
"3. c #34698A",
"4. c #3D7289",
"5. c #236295",
"6. c #296492",
"7. c #23659A",
"8. c #2A6799",
"9. c #26699E",
"0. c #296A9D",
"q. c #346591",
"w. c #386B93",
"e. c #346D9C",
"r. c #3A7699",
"t. c #256CA3",
"y. c #2A6DA3",
"u. c #3D6FA4",
"i. c #2770A6",
"p. c #2C72A5",
"a. c #2A75AA",
"s. c #2C79AE",
"d. c #3176A7",
"f. c #337AAE",
"g. c #2E7CB2",
"h. c #327EB3",
"j. c #555C85",
"k. c #675A8D",
"l. c #536D8E",
"z. c #457787",
"x. c #466993",
"c. c #4A6EA2",
"v. c #4A71A6",
"b. c #8E67A0",
"n. c #C95390",
"m. c #D06CA7",
"M. c #3581AF",
"N. c #3381B5",
"B. c #3A85B6",
"V. c #3285BA",
"C. c #3A86BB",
"Z. c #3589BC",
"A. c #3B8ABC",
"S. c #4E858C",
"D. c #5B8786",
"F. c #5D948E",
"G. c #40809F",
"H. c #58959A",
"J. c #688D81",
"K. c #659988",
"L. c #629C97",
"P. c #78A98A",
"I. c #72AA9A",
"U. c #4587A7",
"Y. c #4A91AF",
"T. c #5898A4",
"R. c #428CB7",
"E. c #4D94B2",
"W. c #4494BD",
"Q. c #5498B9",
"!. c #769CBF",
"~. c #58A2B5",
"^. c #68A8B3",
"/. c #378BC1",
"(. c #3A8DC1",
"). c #3C92C5",
"_. c #3F96C8",
"`. c #4494C5",
"'. c #419ACB",
"]. c #4998C9",
"[. c #589DC9",
"{. c #459ED1",
"}. c #4E9ED0",
"|. c #509ED1",
" X c #689DC4",
".X c #54A2C7",
"XX c #45A1D2",
"oX c #49A2D2",
"OX c #57A8D7",
"+X c #5CAADB",
"@X c #5BB1DD",
"#X c #62A2CB",
"$X c #68ADC9",
"%X c #7BA4C6",
"&X c #7BA9D0",
"*X c #66B7E3",
"=X c #88B786",
"-X c #989EB4",
";X c #96C188",
":X c #A0C680",
">X c #90ACC9",
",X c #9BB8D6",
"<X c #ABB9D2",
"1X c #B6BED5",
"2X c #BAC3DB",
"3X c #C3C9DE",
"4X c #C5CCE1",
"5X c #C8D2E7",
"6X c #D0D9ED",
/* pixels */
") ) _ _ ) ) ) ) ] ] ]  .o...] ..o.o.o...o.O.]  . ._ _ ) _ ) ) ( ( ( _ _ ) ) _ O.O.@.#.@.@.#.#.O...o...] o.o.o. .] ] _ ) ) ) ) ) ",
") ) _ ) _ _ ) _ ] ] ] ..o.o. .o...o.o. .o.o.....] ) ( ( ) ( ( ( ) ) _ ) ) ) _ o.o.] ] o.o.] ..o.]  . . .]  .] ] _ _ ) ) ) ) ) ) ",
"_  . .]  .] ] _ _ ] ] o.o.] _ ] ]  ...] ] o. .) ) ) ( ( ( ( ( ) ) ) ] ] _ ) ( ( ( ) ) ( ( ) ) ) ( ( ) ) ) ) ) _ _ ) ) ) ) _ ) ) ",
"] ] _ _ ] _ _ ) ]  ..... .) ) ) ) ) ) ] .. . .) ) ) ( ( ( ( ( ) ) ) ] ] ) ) ( ( ( ( ) ) ) _ _ _ ) ( ( ( ( ( ) ] _ ) ) _ _ ) ) ) ",
"] ] _ ) ) _ _ _  ...o. .] ) ) ) ) ] _ ] O.@.o.] ) _ ) ( ( ( ( ( ( ) ) ] _ ) ) ) ) ( ( _ _  .) ) ) ( ( ( ( ( _ o.o. .] ] o.] _ ) ",
"o.o._ ) ( ( ) ) _ ) _ ]  .o.] o.o.O.o.O.#.%.%.#.] _ ) ( ( ( ( ( ( ( ( ) ) ( ( ( ( ( ( ) _ ] _ ) ) ( ( ( x ( _ o.o.o. .) _ _ ) ) ",
"@.o.) ) ) _ ] ] _ ) ] o.o.o.o.o.o.o.+.@.#.%.%.O. .] U M M K ( x ( ( ( ) _ ) ) ) ) ) ) ) _ ) _ _ ( ( ) ( ( ) ] o.o.] _ _ ] _ ) _ ",
"O.o.) _ ) ( ( ( ) ) _  .o.o...o.o.] O.%.@.#.&.O.) M h O L b ( ( ( ) ) ) ) _ ) ) ) ) ) ) _ _ _ ..) ) ) ) ( ) ] ]  . ._ ) _  .) ( ",
"o.o.)  ._ _ ) ) ) ] ]  .o.o.o.o. .O.#.%.+.@.#.o.U ) ) c b c ) ( ( ( ) ( ) _ ) ) ) ) ( )  .] ) o.) ) ( ( ( ( ] ]  .] ] ] _ ] _ ( ",
"O. ._ ] ..o.o. .)  . .] o.o.]  .o.@.#.#.o.o.o.] ) ) ) < < U ) ( ( ( ( ( ) ) ( ( ) ) ( ( ) ) ) ] ]  .) ) ) (  .] ] _ ) _ ) _ _ ( ",
".. .] o...] ] ] ] )  .] ..o. . .o.O.@.o.o.o.o.] ) ) b o K ) ) ( ( ( ( x ( ( ( ( ( ( ( ( ( ( ) _ ) ] ) ) ) ) _ ] ] _ _ _ ) ) ) ( ",
".. .]  ..._ _ _ ) ) ] o.o. .] _  . .] ] o.O.o.] ) N : M ) _ ] ) ) ( ( z x ( ( ( ( ( ( x ( ( )  .] | ) ) ) )  .o.o. .o..._ ) ) x ",
" . .) ) _ ) _ ) ) _ ] o.] ] _ ) ) ) ]  ...@.o.] B : E _ ) _ ..( ) ) ( ( ( ( ( ( ( ( ( ( ( ) )  . ._ ) ) ( ] ) o._ ) _ ) ) ) ) ( ",
" .] ) ) _ _ _ ) ) ( ( ) _ ] _ ) ) ) _ _ ] @.o.B , L ] ) ) _ ] ) ) ) ( ( ( ( ( ( ( ( ( ( ( ) ) _ ] _ ) _ ) ] _ o.o.] ] ) ) ( ) ( ",
"] _ _ ) ) ) o._ _ ) ) _ ) ] ] _ ) ) ) ] @.#.N < E ]  .) ) _ ) ) ) ( ( ( ( ( ( ) ) ) ( ( ( ( ( )  .o.o.] )  .] ..o.] _ ( ) ( ( ( ",
"o.o.] ) _ ] o.o.] ) ) ) ) _ ] ] ] ) _ o.O.n 1 } ]  . .) ) ) ( ( ( ( ( ( ( x ( ( ( ( ( ( ) ) ) ( o.O.o.] ] o...]  .) _ ) ) ( ( ( ",
"o.] ] ) ) ] o.@.o._ ] ] _ _  .] ] ....} v 1 ' o.o.o...) ) ) ( ( ( ( ( x k k x ( ( ( ( ( ] .._ ) @.#.#.] ] ..o.o. .) _ _ _ ) ) ) ",
"@.@.o.] o.o.O.@.o. .]  . .o.o.o.+.o.] v v } o.] O.#.O._ _ ) ) ( I I ( ( P P I ( ) ) ) _ o.@.] _ #.%.#.] ] ..o. . ...o... . .) ) ",
"O.@.o._ ] ..o.o.o.] ] _ _ ..o... .' r v } @.o.] @.#.o.) ) ( ( G T.T.g ^ R.U.I.^ ) ( ( ) o.#.o._ @.#.@.O.] ..] ]  .o.o. ._ ) ) ) ",
"o.o. . . .o.] o.o.o.] ) _ ] ] ] ' 2 b ] @.@.o. .o.]  .) _ ) D `.+X+X`.M.N.`.+XW.F.L ( (  .@.o.) _ o.@.O.]  . ._  . .]  ._ _ _ ) ",
"o.o...o.o.o.o.o.o.] ] ) Q Q ] W 2 N  .o.@.@.o. .]  .) ) ) ( H.`.OX+X}.C.f.OXOXA.f.r.m ( _ ] _ ) _  .o.O._ ]  ._  . .] ] _ _ _ ) ",
"o.o.o.o.O. .o.o.]  ._ ^ $XE.D , B o.] @.O.o.) ( ( ( l I ( K r.f.C.(.C.h.p.B.A.N.y.0.0.d ) ) ( | _ _ o.@.) _  .]  .o.] ] ] ]  .) ",
"o.o.] ....] ] ] _ ' ~ F.A.y.].I.) _ ) _ _ ) ( ( ( k k j j r + h.g.s.a.5.>.8.5.0.0.0.0.0.S ( ( ( ( ( ) _ ) )  .o.]  ._ ] ) ) ] _ ",
"] o.] ] ] _ _ _ ) ~ |.d.f.].B.W.W ) ( ( ( ( ( x ( k j J S.`.; @XoXZ.; ; = t.5.>.y.h.0.0.J.) ( ( ( ( ( ( ) _ ] .. . .) _ ) _  ._ ",
"....] ]  .] ) ) ) S C.f.C.p.8.A.T ) ( ( ( ( ( l ( I S W.oX@XU.*X@X= p.g.6.t.t.-.=.>.0.r.g I I I ( ( ( ) ) )  .] ] ] _ _ _ ]  .) ",
"o.o. . .]  ._ ] ' Q.8.5.>.5.0.p.F U ( ( l ( ( x ( D ).[.,X#X'.'.'.N.Z.N.p.0.t.5.-.=.>.e.N.Y.H.D ( ( x ) ) _ o.] ]  .o.o.) ] _ ) ",
" .o.] _ _ ] ] ] ' U.p.5.5.8.0.y.|.^.G ) ( ( ( ( ! W.].4X6Xj.'.'..X,X XV.s.a.t.7.=.=.=.;.y.s.p.F.( ( ( _ ] ..O... ...o.o.) _ ) ) ",
"]  .] _ ] _ _  .W > t w.0.8.0.y.A.+X*X^.~ ) ] P Q.'.%X6X1X@ {.#X5X5X<XV.N.s.i.5.=.-.=.;.6.0.r.Y ( ( (  . .]  .] ] o.O.] _ ) ) ) ",
"] o. . ... .] W < M ) R S f e.9.p.C.}.*X+XP ) P.N.(.,X5X4X!.oX,X4X5X<XV.N.s.t.5.=.=.=.6.4.K.R ) ) ) ) ) ]  .o.o.o.@.o...o.o.]  .",
"o.#.o. .] _ ' 1 L ] ) ) ) ) A e.0.y.h.(.`.F R W.a.'.1X3X2X[.#X3 -X4X>XZ.N.s.t.-.=.-.=.q.s ) ] o.o..... .o.o.@.O.@.@.o.o.o.o.o. .",
"o.#.o. .] ) ) L ] _ _ ) ) ) ) s e.9.y.a.p.oXE.A.`.'.<X1X>XoX&X3 1X2XQ.Z.V.N.t.-.=.-.;.w.s ] @.@.@.o.o.] ] ]  .o.o.@.o.o.+.@.o.o.",
"o.o.] o..._  .] ] _ _ ) ) ) ) W D.e.0.8.=.a.A.C.'.'.[. XoXoX X1X1X%XZ.Z.'.).s.-.=.=.:.x.V _ +.#.@.o.o.]  . . . .O.O.o.o.o.@.@.o.",
"o.o.] o.o.] o.]  . ._ ) ( ( ( ) E S.z.p q.>.(.C.'.{.oXoXoXoX].%X X(.Z.g.9.=.=.=.=.;.q.x.D ] o.O.@.@.o.] ] ] ] ..O.o.] o.o.O.o.o.",
"o.o.]  ..._ ] ] ]  .] ) ( ( ( ) _ W U ] H r.)._.B.y.0.`.XXXX{.'.)./.V.i.=.*.*.=.=.;.x.l.Q o.] o.o.o.o.o. ._ _  .] ) _  .] o.] ] ",
"] o. .] o._  .] _ ) ] ) ) ) ) _ o.o. .@.%.L.)._.'.A.=.$ j.3 4 c.).Z.g.>.*.=.=.=.;.q.x.A @.o.] ] ] o. .] ) ( ( ) ) ( ( ) _ ] _ ) ",
"o...] ] o.o.o.] _ ]  ._ ) ) _ _ o.@.] o.$.B.(.)._.'.a.$   % 7 & - q.= ; =.=.=.=.;.x.s } %.@. .] ...._ ) ( ( ( ( ( x ( ( _ _ _ ) ",
"] ] _ ] o.O.o. . ...] _ ) ) _ _ o.o. . .^ V.(.).)._.Z.* X % 7 . . . @ -.=.=.-.;.q.J.} @.%.#.] o.o...) ( ( ( x ( ( x ( ) ) ) ) ) ",
"_ _ ) ] o.o.] ] _ ] ] _ ) ( ) ] ] ..] _ S V./.(.).).B.4 w 9 9 6 % # *.-.=.-.7.6.z./ O.O.%.@.] o...] ) ( ( ( ( ( ( ( ( ) ( ( ) ) ",
") _ ) )  . ._ ] ] ]  ._ ( ( ) ) ) _ ] ) g V.Z./.(.).b.m.n.n.q 0 4 =.=.=.-.-.s.(.g ] ] o.O.+._ ) ) _ ( ( ( ( l ( ( ( ( ( ( ( ( ) ",
"]  ._ )  ._  .] ] ] ] ) ( ( ) ( ( ) ) ) a N.Z././.v.n.n.n.q 8 x.t.-.=.=.=.-.t.)..XR Q / O...) ( ) ( ( ( ( ( l l l x ( ( ( ( ) ) ",
"] ..] _ ] _ _ ] _ ) ) ) ( ( ) ( ( ( ) ( a g.V.Z.Z.k.q e q 9 c.g.7.=.=.=.=.=.-.y.'.~.G.R.~ _ ( ( ) ( ( ) _ ) ( ( l x ( ( ( ( ( ( ",
"o.o.] _ ] ) _ ] _ ) ) ) ) ( ) ) ( ) _ ( u s.h.V.V.c.9 0 9 k.g.s.-.=.=.=.;.:.;.-.9._.C.8.r.L ( ( _ ) _ ] @. .( ( l l ( ( ( ( ( ( ",
"o.o. .) ] _ ) _ ) ) ) ) ) ) ) ) ( ) ) ) u a.g.g.g.h.v.x.u.g.s.i.-.=.=.-.-.;.4.3.>.5.N.N.8.L.P ) ] ) Q ^ o._ ( ( j j k ( ( ( ( ) ",
"o... .) ) ( ) ) ) ( ( ( ) _ ) ) ) _ ] _ i t.s.s.g.g.g.s.s.a.a.t.-.=.-.-.=.;.a E V <.>.t.d.OX=X] P.U ;XL._ ) ( ( l k l ( ( x x ( ",
" .] _ ( ) ( ) _ _ ( ( ) ) _ ] ] ] ] ] ] Z 7.i.a.t.a.a.a.a.t.t.t.-.=.-.=.=.;.i ] Q 3.:.;.9.f..X:XL.^ Q.S ^ F ) ( l x x ( ( x x x ",
"] ) ( ( ) _ ) ) ) ) ) _ ) _ ] _ ) _  . .m >.t.t.7.t.t.t.t.7.t.t.-.-.t.-.7.>.i ] ] D D.r.0.0.d.].T.E.U.I.U.a ) ( ( ( ( ( ) ( ( ( ",
"_ ) ( ( ) _ ) ] ] ) ) _ ) _ _ _ ) ] ] ] W ;.7.7.>.t.t.t.9.,.7.9.-.5.a.5.s.5.u ]  .o.@.` A z.9.y.y.r.D.D.C ) ) ) ( ( ( ) ) ( ( ( ",
"] _ ) ) ) _ ] o...)  .) ) ] _ ) ) ] ] _ _ 5 5.5.<.7.5.7.5.3.5.7.,.<.p.8.g.9.t ]  ...@.+.o.^ 0.0.r.E ) ) ) ( _ ) ( ( ( ) ) ( ( ( ",
" . .) _ ] o.] O.o.]  .) _ _ ] ) )  . .] ] Z =.5.t 5.5.5.<.p 5.5.>.3.z.0.r.a.4.' _ ] o.] ..] F.y.S.' ) _ ) ) ] _ ) ) _ ] ) ( ( ( ",
".. ._ _ ] o.o.o.O.] _ ) ) ) _ ) _ ] _ ] ) E <.1.i 1.t -.3.S ;.-.-.<.i 8.f d.6.Y ) _ ] ] _  .W g e.T )  . . .]  .) ) _ ) ) ( ( ( ",
"o.o._ ) _ o.o.o.o...] ) ) ) _ _ ]  ._ _ ) ) y 1.m 5 d =.3.W 3.z.<.>.s f C C 8.u ) _ ] ] ) ] _ W r.D )  .O.o.] ] ( ( ) ) ) ( ( ) ",
"..o. ._ _ o.] o.o.] _ _ _ ) _ ] ] ] )  .) ) L 3.m m Y ;.3.' m 5 d ;.z.W K ( C 3.T ] ]  ._ ] ] ) D ) ] #.%.O...] ) ( ) ) ) | _ ) ",
"o.o.o.) _ O.O.o... .] _ _ ] ] ] ] ] _  .) ) ) m d ] ' z.3.Q ] m U C 1.Z ) ( ) Y i ' o...] ] _ ) _ ) @.#.%.@...o.( ( ) ) ) ) ] ] ",
"..O...) _ ] ..] ] ....]  ...o.o._ _ _ ] ) ) ) ] ` ] ..S <.T  .) ( ) m t U _ ) ] ..o.o.o... . .]  .] O.#.%.@...] ) ( ) ) ) ) ) ) ",
"] o.] ) ) ] ] o.o.o...] o.o.o.] ] ] ] o._ _ ) ] o.....] u Z ] ) ) ) ) ( ) ] ] ] o.o.@.o.o.] ]  .o. .@.#.&.#.o.] ) ( ) ) ( ( ( ) ",
"] o.] ) ) _  ._ ]  .] ]  .o.o.o. .o...o.] _ _ ] ..] o.o.' B ) ) ( ( ( ( ) _ _ ] ..o.o.] o. .]  .O.#.#.%.&.%.o. .) _ _ ] _ ] ) ) ",
"] ] _ ( ( ) ) ) ] o.] ] o.@.@.O.o.o.o.o.o._  .] ] ] o.o. .] ] ) ) ) ) ( ) ) ] ..o.o.+.] ] ] _ ] o.#.@.#.&.#. . .]  .]  ._ ) ) ) ",
") ) ) ( ( ) _ _ ) o._ ] o.@.@.#.o.o.o.o...] o.o. .o. .o. . .] .._ ] _ ) _  .o.o.o.o. .] ] ] _  .o...o.@.#.O.] ] ]  .) _ ) ( ) ) ",
"] ]  .) ( ) ) ) ) _ ( ) ) ] o.@.O.o.o.o... ...] ]  .....] ] ]  ._ ] ] ) ) ]  .]  .] ] _ ) ) ) _  .o.+.@.#.@.o... .] ] _ ) ( ( ( ",
"]  . .( ( ( ( ( ( ) ( ( ( ) ] o. . .......] ] ] _ ] ] o.] ) ) ) ] ]  .o.]  .o.] ] ] ] _ ) ) _ _  ...o.o.#.@.o.o.@.] ] _ ) ) ( ( ",
"_ ] ] ( ( ( ( ( ( ( ( ( ( ( ) ] ] ]  .] _ _ ] ] ) ] ]  . . .) ] o.O.o... .]  . .] ] ] _ )  ._ ) ] ..o.@.#.@.] o.O.] o.o.O.o.) _ ",
") ] ..) ( ( ( ( ( ( ( ( ( ) ) _ ] ] ] ] ] ) ] ] ) _ ] ....] ]  .o.o.o.o. .] ] ] _ ] ] ) ( ) ) _ ) _ o.o.@.O._ o.#.o.] _  ...o.o.",
") ] .._ ( l k l ( ( ( ( ( ) ) _ ]  .] ] ] ] ] ] _ ) ] ...._ ) _ _ ] ]  ._ _ ) _ _ ] _ ) ( ( ) _ ( _ o.o.o.+._ ..@.] ) ) _ ] o.o.",
"( ( ) ) ) ( ( ( ( ( ( ) ) ( ) ) _  ._ ] ] ] ) ) ] ) _  . .) ( ) ] ] ] o. ._ _ _ ]  .) ( ( ( ( ( ( _ o.o.o.@.] o.#.] _ ] _  . ._ "
};
