/* XPM */
static char *result[] = {
/* columns rows colors chars-per-pixel */
"64 64 18 1 ",
"  c #BCD636",
". c #BDD63A",
"X c #BFD83D",
"o c #C0D73F",
"O c #C0D93F",
"+ c #C3DB44",
"@ c #C6DD4B",
"# c #C8DE4E",
"$ c #CADF51",
"% c #CAE04F",
"& c #CCE054",
"* c #CEE259",
"= c #D0E257",
"- c #D1E35B",
"; c #D5E662",
": c #D8E663",
"> c #D9E867",
", c #DBEA6A",
/* pixels */
"@@@&#@@@$$$&&*$&**$$**#&%@###@@+++##@##**=-==---&*&$*&&&$$#@@@@@",
"@@@###@#$$$&&&&&$$*$**$&$@++++++@##@@+#&&&$&=$&&$$&&$$$&###@@@+@",
"@&&&&$$##$$&&$#$$$$$$&&@@@++O+++@@%$@@++@+@+@@#@@+@@+@@$##@@@##@",
"&&@@####$$$&&@@@$@$$*&%@@#+++++@@@%$@@@@+++@@@@@@+@+++@$#+@#@@@@",
"&@#@@##%&&&&$@@@$$$$*=$$@#@++++++@#@$@#@@@+%$$@@@+++O@$&&$$&&$$@",
"*&#@++@@$@@$$&$&*-$-;:,;$#@@+o+++++@@++O+O+@@$@@@o++X+$$==&@$@@@",
"-*@#@@$&$@$$&**&*$-$;;;$$$$@@++X+++@#@#@@@@@$@##++@++@$&$$&@&@@@",
"*&###+@+@@$&&&&&*$*:=*,-$@@@@++++@+@####@@@@$##&@@@+@@#$&$#@@&@@",
"&&@$##@@@$$$&**&$*-;==;$@@@@++@+++@+#%@@@%+@$$#&##++++$$$$$$$$@@",
"*&#$$*&$@$&$*&$&*--;=$=$@#@@@@#+O++++%+++@++@#@$#$#@@+$$$$@@@$$+",
"&&$$&$&$$@$$&&&$$====*&$@@#@@@@++OOOO++++++++@@$@$@@@@$$$@$$@##+",
"&&$$&#@$@@$&&$$$$$$$$-$$@@$#@#$@+++OOO%+++OXO+@%$#@@@@$&$&=$#@@X",
"$$#@$@@@@@&*$$@@@@$$&-=&$$&@@$$@@@++%O%X++XX++@%&##@+$@*$@$@+@@o",
"$$@@&@$@@@+@$$@@@@##$=*&$$=@@#$@@@++%OOO+++++%#%$#@#$$$$$$$@@+@+",
"$##@@@*@@$@@@$$$@@$$-;*&&@$@@#@#@@+OX+%%%+++++@@&$$$$$$$&$#++++O",
"&&$#@&&&&@@@@@$$$@$&=*=-&&&@@@++++++XOXO++X++@+@&**$$*$$$##@@@+@",
"&&%@#&***#$###$$&&&*****&&&@@@@OO+OXXXXX++++$&$@---&$&*&&####@@@",
"***%&&**&$$$&&*&*&&&**&&*;*$#@@+++O+XX++@@@%&-&@-;-&$&&&&$&&&%@#",
"***%$&*&*$$##&&&&&$&***%**&@+@+OXXX++X+++++@&-&%----$&$$&&&&$@@@",
"**&%&&$*&&$##$$$$$#&**&&*$%@#@+OXOXXXXX++++@&=&@@&=-$%%#$&$&@##@",
"$$&&&&&&&&$@#$$&&&&&*-&&$&#@@++X  X   X+++++#$$@%&&&&%$$%&$$$@$@",
"***&*&&*&$#@@$$$**%***@%++XOX.XX   X..+XOOO+@+@#$@*-#@&$&&$&$$&@",
"*$$&&%$&##++O@##%%%@%%+O+.  . XX  X   X.XO++@@++++@@@#&&$&$$@@$@",
"$*$$###@@@+++@$#@@+++++XO.   XXXXXX    XXO+++@+O++++@##&#&@@@@&$",
"*$$$$$###+#++$&$@@OO+++OOO.  O++XO X   XXXOOOOOO+OO@##&$#&$%@$&@",
"*&&&$$#$###$+#$$@@@+OO+O+OOXXXOXOO%XX  X..++X+Oo+OO@##&$$&&&@$@@",
"&&$@##$$##+$##$$$@@+++++OOOXXX+O+XXXOOXXO++@O+@oX++##$*&$&&&@#@@",
"@&$$$#$&$###$#$$%@%%+@$++++OOX+++%++++++@++@+++++++&$$$$$&*&%@+@",
"&&&&&$$&$$##@@$#$@#@@+@++O+O+X+O+@#+%@+++++@@+@#@#@#$$=&$-=$&&&&",
"**&$&#$$$$#++##$#@##+++@+++X+X+++@##%@++++@@@@$$&&&$&*-*--=*&*&&",
"&**&$##$$#@+#+$$$$$&#+++O++X++@+####&#@@+@$*$$=--$&$$$$$===$**&&",
"*&$*&$$$$$$#+#@#@$&*$++++O+X+%&@@####%+++@@=$$*;-*&$$$*$*-&&&***",
"$*$&&$&$&&##+@+@@@%&*%++++@+@#$#@#@#@+++@@@$$$----$=&&#&&&$&&=**",
"**$&&@&&#&$@@++@###*;%+OO#++##$$#%##@+@++#$$**$=$--$&@@&&#@$$&$$",
"$$&$&#&@@@#@+@@#&&$*>&+++#++##$$&&$$$$@+@#&*-$$$$$$$@+++@++@@$@#",
"$*$$&&&#@&&@@@#%&*%&>*+++###$$$*&$&&$$$@$$$*:-$$$$#@++O+OX+@$@@#",
"$$$$&*&&&&$$@@@%&&&$*#+++#@@#$$*$$$$&##@@***>-&&-$@@+++O+O+@@@+@",
"$$$$*&&#@&&@@+@$&&$##@++@@+@#$$*$#$###@$#***>*%&$$@+++Xo+++++@@@",
"@$@@&#@$@$&@@+@@@#$##+O+++++@#####%##&$#@&&&**@@$@@+++X+O++++@@@",
"$$$@&#&$$$$$++@++@#++@+@@++@$@+@@#&@$&####%&&&%+#@++@+XXOOO+++@@",
"$$$#$#$$$###+++@+@@@+++++X+@@X+@@@@@@&#&@@&@%$@+@++@#@++XO++++++",
"*$$#$##$$++##+@@+@@+++O++X+++++@+@@@&#&#@@#@++++@@&&&&++.XO+++++",
"**&@$@@##+#++#@++@@@+++@#X++++++@#$#&&$#@@@+++O#$@@&&%+O  .++O+@",
"*$&@@@+@#+++@$@@@@%%#@+@#+#++#@#@#######@@&%@+@&$@@&@@+XX.OO+O++",
"$$#+@+@##+@#@#$$$$$$#@@$&$$$$#$$@@@@#$#&&#&&@@@$*@$&@@++OOO++OOO",
"$@++@@@@#@+$$#$#@$$$$#$#$$&&#$$$@#@@$@$$&&*&#$@$&@@@@+%+O++@++++",
"#@++@@@$$@#@#@####$$%#@@$$&&$$$$@@@#$$$#&&**$@+#@@@&@+%++++@+OO+",
"$#@@@@$*$#$##$#@#$$###@@$$*&&$$$#+@@#$$&#&***$@@$@@@@+@@+++@%+O%",
"$&@$$&$**$$@###@##$$$#@@#&$$&$@$&@@@@$$$#$&$&$#@$@#@@@$#@@#$@@++",
"$&##$&***$#@@@###$###@@@@##$$$$@@@@@@@$$##$$$$@@@$@$&$$&+@##@O++",
"*&#@$&*&&&$#@@##$$##++@@@@#@@$$@&$&#@@@@##$$#$$#@@@&*$$$++@@@@@+",
"$&$#$*$&*$$##@#$#$#&@@@+@@@#@$$@&@@#@+@#$#$$#$$#@#$;>*&$@@@@@%%@",
"**&##**&&&$$#$$$$##$@@@@$$$&$&$@@#@@@+@$$&&&$$$@$@*;:*&$++##@@%%",
"&*&#%&&$$&$$$$*&#$$$@@@$$$&*&$$@+@@@@$@$$&**&&&@&&*-:**$@++@@@@@",
"$&&@@#$&**&$&&&$$$&&@#$&$&&&$$$@@@@+@@$$*$*&&$$&&&-;>**$#+@+@++@",
"#&$@@#&#$$$$$*&*$&&&$#@$&&&&$$@@@+++@$$$$&&$&&@&*--;,>*&##$$@$@@",
"#&%++@@@$&$$$*-*&&&&&$&$$$&*&$$@@@@+@@$&&==$$$$&*-*;,-&&$&$&@#@@",
"@@+++@@%$&#$&**;*&&&&&&&&&$&$$$&@@$@@&&&*&$$$$@$&*&=;*$$$%@#@+@@",
"%$%@+++%@#+@#$$*****&$&$$&&&$$$$$$$@@$&&&$$&@#@$&&==-=&$$#$#@O+@",
"$&&++++X+@++O$$*&&$$&$$$$$$&$$#@$$&&$&&$$$$@@@@$&&&*;===*&%#@@+O",
"@##@+++%+++++O#$$$&$$#$$#$$$$&@$&*&&&&&&&$$$@&$@$$&*--$&*$&&*&#$",
"@&&@+++X@+X@+@@$$$$$#@$###$&$$&&&*&&&@@$@$$@+@@@#$$*==$&*&$#%$&$",
"#$&#+X.X++OO+@@#$$$$$$$#$@$&&$#@$$@&&@$@@$@@+@@@@@&=&-$&-&#@#$&&",
"@+@@@++X++@+@++@#$$$$$#@$@#%&@+@$$&&&@$$$&@+++@++$$=&&$&-$###&##"
};
