/* XPM */
static char *result[] = {
/* columns rows colors chars-per-pixel */
"64 64 67 1 ",
"  c #439EE2",
". c #43A0E3",
"X c #4DABE6",
"o c #4EAEE9",
"O c #52A6E6",
"+ c #51ABE6",
"@ c #5BAEE8",
"# c #55B2E7",
"$ c #55B2E9",
"% c #5AB5E9",
"& c #5EBAEC",
"* c #62B6EA",
"= c #63BCED",
"- c #6ABDEC",
"; c #71BFEE",
": c #66C1EE",
"> c #6CC3EE",
", c #6FC8EE",
"< c #73C5ED",
"1 c #79C5ED",
"2 c #74C9EE",
"3 c #7CCBEE",
"4 c #66C3F1",
"5 c #6CC4F1",
"6 c #6FC9F1",
"7 c #73C6F1",
"8 c #78C6F0",
"9 c #75CAF1",
"0 c #7CCCF1",
"q c #7FD0F1",
"w c #83CDEF",
"e c #89CFEF",
"r c #84D1EE",
"t c #8CD2EE",
"y c #93D7EF",
"u c #82CEF1",
"i c #8DCFF0",
"p c #84D1F2",
"a c #8BD4F2",
"s c #8FD8F3",
"d c #93D6F3",
"f c #99D7F2",
"g c #95D9F4",
"h c #9CDBF4",
"j c #9FDCF8",
"k c #A3DEF5",
"l c #AADFF5",
"z c #A3DFF9",
"x c #A5E0F5",
"c c #ACE1F6",
"v c #A6E1F8",
"b c #ACE2F8",
"n c #B4E4F6",
"m c #BBE6F6",
"M c #BDE8F7",
"N c #B4E5F8",
"B c #BBE6F8",
"V c #BEE8F9",
"C c #C1E7F7",
"Z c #C4E9F7",
"A c #CAEBF7",
"S c #C1E7F8",
"D c #C4EAF9",
"F c #CBECF9",
"G c #D0EEF7",
"H c #D2EDFA",
"J c #D1F0FB",
/* pixels */
",995:45:49qq0q90qqq699qq2q22rpqqqpshyyddgggsrggggggggtrupr0udsup",
"775660q9paspqq0ppaqqaxssggsaggqqshhvhxkkbvxxxvvxbxhxxxkgsausd09q",
"249<psapsghgghgzhhhqxbxggkkhbvhhxccxccvnMVNbnNNNnncxxxxhdsdd0=>9",
"7:59qssghhhghhhxvgxNvxbxvxvkxvvNNNNbBZnBMFMMDDMMMMnnckxxzskg0<4-",
"799qqqshkxhskvvxkhxhcNxccxvxbncnMVNVZDDZAMMVVDMJAMDVMxbccgxxp2:4",
"<99apaghsgvxhvbkgvxgcNncMNbcNMccDJMJADAAAFMFVMJDZFDADNNNNxbxa2>>",
"58p9ahkbbxkkkcnvxkhkxnNcNnNMMNNNFJDDFFFJJFFFFJJJAFFDDVDDDcccgu89",
"99aqahkkcbkxckkxxxxxcbBNmnMDnMMMDFDVDFDDFJMMMFDFMDDMVMVDZNcvxsp0",
"qagta0xbcnbcBbnkhkhxxnNNMVFDVDJDJADDDVJFVMVVFVJVDDDBACnBZMbcxssr",
"sggghrkvnnNnMMnbhhhkbNNMMMADDJFJFFFDFVVVMVJVVVMVBADBDmBBDDnNkgar",
"phhxbnxxNMMBBNBnnhfcnmMMMMDDFFDFFGFMVJVMVJVVFFDVBDDCBNFBAMNBbgpa",
"avccNNnnVZDMnmmnncfbnnNNDMVDDJFDFJMDVVVDDFVVDGFDmDDCBBAZDVcVxhqa",
"phxbNnNBBBDBnBCnlnklMNxkMMZDDFDFVDDVJDDVVDVDJDVMBBCCDDZBDBbBchky",
"qhxbNNNMBCDBBBBcbkkBZZMnbBVDDDFDVFVDVDVNVDVDFFGDCDBCZAAAZDZCnxht",
"akccNMBBBZBSNNNnbllbNBMNcnVDDDDDDDVFFDVNVDVVVFDVCADDAAHJGAFAAnch",
"rkcnnBBBDVmSnnBNnnvkllbnnNVDJFFDVFVDJVFVFVFDVDVDCAAAFJCZGFFGCBbk",
"shknNBZDDCVDBNCBNnlllllnnnDAFADDDDDDDDDlBVDDVDDMDFDAHADZJAAAADnx",
"agknNMAZADBBDBCCBnBnnclncBCCHFJFJDDVBZBBBDDDBVBnVADAHZZAADAFADMn",
"rgbNBBDDDDDZZDBmBmnnmmmCBDZAAADAAJADVDBNNCACNDDnBDFHHHAAFAFFADDc",
"rgnBVMDBnZFFZAFDmBnBmBCCBZZFJADDAFFDBMBnMZBZMADBBBDAAFFHHFFFZZBn",
"7akNVMZMVAJADFCBBmBBZZAFFFFFGFDDAFDDMVBnMDZZBDBBBnBCAAFFHHFAAVbl",
"53hcbnBBNDDFFAADCBmBCCDAHHAFJFDDDDDVNBMDDDZZCACBBCmCCAAHFFFZVBBl",
">0gxxnBBBDDCmFACncBmCAAFFHFFFFABMcNBVDDDZDBDVDZnnCmCBAAFFFAMnbcl",
"5pgxxcNNBDDnBAAVBnnBDDDAAAFDAADBNcvBVMMDADDDZBDnnBBnNZADAAMmBnlc",
":9hhxnnMMNcMDDMBDCDnVDDDCFAASDDBBMBnMmnnDDAFFDBNBncbNDZDZMnMcxkx",
"60hjxxxbxMbnDMMBBBDBBBBBCFFAFDDVDZBmnnmcBDADFDBNMZMnMDDVMNNcbhgd",
"0phshkhvccmnBAZMZMBBCDDDDHFFFDBDZnNBnMMNNDAJDDVDBZMMnZDDZDnxclkh",
"52usgxhbncbcnDZDDBCDHFFFFHJFFFBVBnnBBAMnBDDDDDMVBBmNnDDFDZnNnNkh",
">>gsgkjhbcbcNMDVDMBAFFDDAFFJHFADBBZBDDNnVDDDDDDBNBMmVMDDDnMMnnxx",
"&:pphjphxxvbnCAVAVBSDVDDDAAJFHFNNcnMZVnccADADDDDnBBCMVMDZMNchccl",
"-=0pghsdhxxcBZAAADDDCVSDFFFAJGADZccMcNxcNAAFZDDVZMBnNVVFDMnhhxfx",
"=<>3ahgsgcccnZZDDDCBDSDDADJAFGFBnBBcnDxxDFDDFFDDNMncbMDDVnxxghkf",
"20920hdghnNBBCDMDMZBZDDDFHFHDADBMZBnnmllAACDDABCNCNnnNVBBvhagggp",
"55qrpxhcvBBVDDABDDZNBDFJHHHHHZCAFZBnnlnCZFADAADBDBMBlBBBBvxysggq",
">59pskhkcCBCDAFADCMcnVAJFAFFHABAZCZmBBBVDFAAFDDBVZBNlNmCmxhkggg2",
"7257ukbnbnDDAFADDAZBNVDAADFHADCDZFBnBZBBCDCZFDDDZZBBBnBCmccxxvgp",
"73qaphnkvnnZDDDBDADBBnnVDDADDDDDDACBBCBbNZZDZZDDDDZBBBmmZBxkhkgp",
"2pggryvlnnMCFDDDBCDBVMVAFDDDDDBBAACBmBnlnBBZDZBZBBNBBBcnZmvkxks2",
">upafhcnnBCZFFFCBBBBDDAFFDDDDDCDADAMCAmlnNcBBBZNNBbnclnmMNnkxd8<",
"=>qakcnBNNMZFDDFZDBFFAJFFDDDDVBDADZZDCBcmnNNbnMNnncblkBAmnkhjt33",
"-%8ghbnBBnSFADADAFDDAAAFHSFFSSSDDDBBBBmnnNNNNNNNNnnbnmlmCbbheap3",
"=>gvnnNnnBDFFFAAAFMDDVDDASFFSFDASBBCZBnNnncNBBBnBBncnmnmmlcktsa<",
"=3fhklnnncnZFAFFDMMMDDFDFAASFFFCZBBBCNnmnnNMnNVBZBBnncnkklkfg087",
"<-ddkkknnlnmFHFADDZDAFFDHSASFFBCDDBBBbBCnMMMBBDDZBnBBnkklkkks0<4",
"u0wadfllcnnCAFFDBCDZDDADHSAHSASSABBCBnDCcBDVBDDBZBBBnncnclvkar2:",
"11wdfkfjnnnAFAAFFAAFJJJFAHHAHASBBBmmmmnCMDDZFFFDZVBBncbnNhhgu24&",
"iadhkfjkcnBDFDAHFAAFHHJFHHSHASmmnZmDCDcBMMDDAFFAZZBnnlcclkkggp::",
"w0ikfyklnBBACHFDAFFHHJJJHHCAHSBCBCCCDCDSBDFDCFZBBMMnnlxnnlxhgq=&",
"udfdddknmCSDFHAAAHAFHHHHHHAASSSnBSSSCnmCDCAACZSSCDBZCnnlnlxxfr6:",
"dfkitdfcCCSAHHHHHSSHHHHHHHAHHSSSSASAZCSAFAAFFADAZCBAZBNnmbbkha,7",
"difaudkknCZAAHHAHAASAHHHHHAHSSSnSSASASZAHAFFHFAACABBABBBCnccht54",
"daid-;kknmFmSAHASAmnSFHHHCCCSSmBnSCCSCCSHFAHAAAZDZZBCnBNBBncgs:#",
"d300;wddlmmBSFADACACAHFFHHSASmBnmmnmnnCSHHHHHADCADDDDmmblvvkha95",
"81<<<u3afkkBFFDADZmZDCZZAHSASSSCmmmnmnnSHHHZACmmCDADDmBcckcxg7<>",
"ip807>aeifkBCFSnNDBcCNBnCSSSSSACnCCnnlnBCCCZCBnnCDDFDSllnlxka9&:",
"u3uu>8aduejnBBBzcNnlnNnMnmmnnSSSnCmnnlkbnnmDBMBBBDDAABkkclcka,=&",
"u<010iaaddjnbNbnBnkkkbcNnmBCNmDBmCCnllflbNBBMNnbMBBZDMbblfxg33:#",
"3-aw0>iaghlnnnbbckkckhxvkbBBcBCBnnnmllffhnMMZnnncccMNnckxgggq,$X",
"1>u34&0pddvkgxkklllkfgagklBBnnmBnflllfjfshNNBDBlhvccNnkahhkxg2#o",
">=0<8<i0aiuatjhhkkvgt3rsgkknbnBBllllzzdiagxxcNNvcncxbxhsgggk,q&o",
"-=<97au0d;;1addgdfhr97uughzNllnllnkiifi8sasgkxzkxvhkkzgggras52%X",
">&4=-<0iuww1<paup0<:5:87utddijkkffkw;*u8620aqppptdataraap0=:&&##",
"&&:=-9uew;3;-;5:==&&=:=&-<<1-1wdiew;*@*;::90,qq0sp3ppq9q56:>&%X.",
"&&:**-8w;;;-<-==$$$=$$=&*--<*-;1we;*-@O@=:qqpp82p03rdaq95>6>:=+ "
};
