/* XPM */
static char *result[] = {
/* columns rows colors chars-per-pixel */
"64 64 202 2 ",
"   c #050704",
".  c #070905",
"X  c #0D0D04",
"o  c #0C0E0C",
"O  c #0D110E",
"+  c #0F1311",
"@  c #161816",
"#  c #221D04",
"$  c #252518",
"%  c #313736",
"&  c #423705",
"*  c #6B2D12",
"=  c #752E13",
"-  c #782F14",
";  c #753213",
":  c #7A3413",
">  c #763911",
",  c #7A3A11",
"<  c #7E430F",
"1  c #784310",
"2  c #746105",
"3  c #394345",
"4  c #47565A",
"5  c #813B11",
"6  c #81460F",
"7  c #844D0E",
"8  c #8E5A0C",
"9  c #844911",
"0  c #9A680C",
"q  c #937E05",
"w  c #A06209",
"e  c #A3750A",
"r  c #A67B09",
"t  c #D35909",
"y  c #D37209",
"u  c #C4513F",
"i  c #887972",
"p  c #C65947",
"a  c #75826C",
"s  c #998509",
"d  c #AC8309",
"f  c #B38809",
"g  c #BA9706",
"h  c #BAA939",
"j  c #C79204",
"k  c #C29B05",
"l  c #CA971B",
"z  c #CAA904",
"x  c #D3AD05",
"c  c #D4B606",
"v  c #DAB703",
"b  c #DCBA03",
"n  c #C5AB1C",
"m  c #CEB311",
"M  c #D5BA16",
"N  c #E2BE02",
"B  c #CEB926",
"V  c #C8B639",
"C  c #DFC209",
"Z  c #DEC61A",
"A  c #E3C203",
"S  c #E9C701",
"D  c #ECCB02",
"F  c #E3C60B",
"G  c #E6CA0C",
"H  c #ECCE0A",
"J  c #F2CE01",
"K  c #EED109",
"L  c #F4D402",
"P  c #F8D701",
"I  c #F7D900",
"U  c #FEDB00",
"Y  c #F2D309",
"T  c #E4C914",
"R  c #E9D018",
"E  c #DCC628",
"W  c #D8C536",
"Q  c #E2CA23",
"!  c #E2CE32",
"~  c #B4AF4E",
"^  c #8A817B",
"/  c #B58079",
"(  c #BABC69",
")  c #B4BC79",
"_  c #C9BF4A",
"`  c #C2867F",
"'  c #C0BF70",
"]  c #BBC177",
"[  c #CEC14A",
"{  c #D3C643",
"}  c #D1C24D",
"|  c #D4C94B",
" . c #CBC252",
".. c #C1C15A",
"X. c #D3C954",
"o. c #C5C365",
"O. c #C3C36C",
"+. c #D2CE6B",
"@. c #C2C372",
"#. c #CBCE7C",
"$. c #697F84",
"%. c #439EE2",
"&. c #4BAAE7",
"*. c #55ABE7",
"=. c #53AEE8",
"-. c #55B2E7",
";. c #55B2E9",
":. c #5AB5E9",
">. c #5EBAEC",
",. c #62B6EA",
"<. c #63BCED",
"1. c #6ABDEC",
"2. c #71BFEE",
"3. c #66C1EE",
"4. c #6CC3EE",
"5. c #6FC8EE",
"6. c #73C5ED",
"7. c #79C5ED",
"8. c #74C9EE",
"9. c #7CCBEE",
"0. c #6BC6F1",
"q. c #6CC4F1",
"w. c #73C6F1",
"e. c #78C6F0",
"r. c #75CAF1",
"t. c #7CCCF1",
"y. c #7FD0F1",
"u. c #9BAC99",
"i. c #849EA6",
"p. c #A8BCA7",
"a. c #BAC383",
"s. c #BDC68B",
"d. c #AFC49D",
"f. c #BCC796",
"g. c #B9CCAA",
"h. c #ADCABD",
"j. c #B4CBB2",
"k. c #BAD1BA",
"l. c #C7CA86",
"z. c #C4CB98",
"x. c #C1CEA6",
"c. c #C6D1AA",
"v. c #C1CFB7",
"b. c #C3D3B9",
"n. c #99B9C6",
"m. c #A4BCC3",
"M. c #9EC5C0",
"N. c #A9C8C8",
"B. c #B5CDC3",
"V. c #B8D3CB",
"C. c #A8CBD8",
"Z. c #BBCDD5",
"A. c #B8D8D8",
"S. c #83CDEF",
"D. c #89CFEF",
"F. c #84D1EE",
"G. c #8CD2EE",
"H. c #93D7EF",
"J. c #82CEF1",
"K. c #8DCFF0",
"L. c #84D1F2",
"P. c #8BD4F2",
"I. c #8FD8F3",
"U. c #93D6F3",
"Y. c #95D9F4",
"T. c #9CDBF4",
"R. c #9CDAF5",
"E. c #AAD8E6",
"W. c #ACDAEC",
"Q. c #B4D9E2",
"!. c #BBDDE5",
"~. c #B5DDEC",
"^. c #BADEE9",
"/. c #A3DEF5",
"(. c #AADFF5",
"). c #A3DFF9",
"_. c #B0DFF3",
"`. c #BAE1E9",
"'. c #A5E0F5",
"]. c #ACE1F6",
"[. c #A6E1F8",
"{. c #ACE2F8",
"}. c #B4E4F6",
"|. c #BBE6F6",
" X c #BDE8F7",
".X c #B4E5F8",
"XX c #BBE6F8",
"oX c #BDE8F9",
"OX c #CBD9CB",
"+X c #C3DDD7",
"@X c #C4DEE4",
"#X c #C3E3ED",
"$X c #C9E3E9",
"%X c #C2E6F6",
"&X c #C9E7F4",
"*X c #C4E9F7",
"=X c #CAEBF7",
"-X c #C1E7F8",
";X c #C4EAF9",
":X c #CBECF9",
">X c #D1EEFA",
",X c #D1F0FB",
/* pixels */
"5.r.r.0.3.0.0.3.0.r.y.y.y.y.t.t.y.t.y.r.r.r.y.y.r.y.9.r.L.y.y.y.y.L.I.T.H.H.U.U.Y.T.Y.I.F.Y.Y.Y.Y.Y.H.Y.Y.D.G.S.L.F.t.L.U.I.J.L.",
"w.w.q.q.0.t.y.r.L.P.L.P.y.t.t.L.F.P.y.y.I.'.I.I.Y.I.P.F.Y.Y.y.L.Y.Y.T.'.T./././.'.[.'.'./.[.].'.[.'./.'.'.'.).U.I.P.J.I.U.t.r.t.",
"5.0.r.6.L.I.P.L.I.I.Y.T.Y.T.Y.).'.Y.T.y.T.{.T.Y.Y.T./.T.].].Y.'.'.].{.'./.}.].}.oXoX.X.X]. X.X.X{.|.]./.'.'.{.Y.U.U.Y.Y.t.<.4.r.",
"w.4.q.r.y.I.I.Y.Y.).T.Y.T.T.T.'.'.Y.'..X].'..X'.[.[.].'.'.'.'..X{..X.X.X|.|..X|.*X;X X X;X;XXX XXX|.|.}.[./.'.'.).P.T.Y.r.5.5.1.",
"w.r.w.y.y.y.I.T./.'.T.H./.'.[.'.'.T.'.T.].].].'.].'.'.'..X].[..XXXoX XoX:X;X-X:X*X*X XoXoX:X:X:X;X*XoX X.X'.{.{.].Y.'.'.P.6.0.1.",
"5.r.t.P.L.P.Y.T.I.Y.[.'.T.[.]./.Y.[.'.Y.]. X}.'. X.X[.{..XXX].[.=X:X X,X;X;X:X:X:X:XoX;XoX;X:X;X*X=X=X:X-X X.X X.X].{.T.P.6.4.0.",
"q.r.L.r.P.T./.{.].'.T.'.'.].].[.'.'.'.T.'..X.X}..X.X.X X|..X.X X,X:X;X;X;X:X:X,X,X:X:X:X;X,X:X,X:X:X:X;X-XoX:XoX X}.{.{.T.J.r.6.",
"w.e.P.y.P.T././.].].'.'.{.'.'.'.[.'.T.'.[..X.X|. X.X X=X|. X X X;X:X;X X;X:X;X;X:X:XoX;X;X;X:X;XoX:X-XoXoX X X-X*X.X{.'.[.I.y.t.",
"y.P.Y.G.P.t.'.].{.}.}.}..X}.}./.T./.T.'.'.}..X.XXXoX*X;XoX,X,X;X:X:X;X;X;XoX;X;XoXoX;XoX;X;X;X;XoX:X;X X;X%X}..X*X X'.].[.I.G.P.",
"P.Y.Y.Y.T.F./.].}.}..X.X|.|..X(./.Y.T.'.'.|.XX.X XoX=X;X;X:X:X:X,X=X:X:X,X;X;X;X X;X;XoXoX-X;XoX|.:X;X-X;X|.-XXX;X;X}.XX'.Y.I.F.",
"P.T.T.[.].{.[.'..X|.|.|..X.X.X|..XT.H.{..X|.XXXX X X;X:X;X:X:X;X:X,X;X XoX;X XXX;X:XoX;X:X:X;XoX|.-X-X-X.XXX:X-X*X X.X.X{.Y.F.P.",
"P.).].'.|.XX}..XoX-X;X|.n.n.C.W.].].T.'.}..X.X|.;X X;X;X:X:X:X-X:X,X X;XoX X;X-X;X:XoXoX:X:X;XXX|.-X-X%X|.|.=X;X:X X{. X'.T.L.L.",
"L.T.[.{..X{..X X|.|.-Xi.+ + + @ ~ ) M.E.|.|././.oXXX*X:X-X:X:X:X X:X;XoX:X;X:XoXoX:XoX;X;X:X|.A.N.n.n.n.Q.;X;X%X:X X}.XX'./.T.H.",
"y.T.'.'..XXX|..X|.-X;X~.3   . X z I K W s.!.|.}.{. X XoX;X=X:X;X X;X;X X;X;X X.XoX;X`.j.] W Z H s + o . % -X:X:X*X-X|.-X.X'./.G.",
"F.'.].}..X XoXXXoX-XXX-X~.4 . . q U U U P Z ) ~.].}.oX-X;X^.j.z.s.z.j.`.;X=X X.XB...T I U I I U 2     + N.=X>X>X:X=X:X=X;X}.(.T.",
"G.'.].]..X|.XXoX-XoX|.-X.X_.$.O & P U U U U P E d.}.XXk. .G P U U U U H  .V.`._ Y U U U U U U P # . @ m.=X>X%X*X,X:X:X:X=X|.}.T.",
"Y.T./.}..XXX*X X;X-XoX-XoX.X%Xn.% g U U U U U U L ( ( K U U U U U U U U I K M U U U U U U U U q . % C.=X>X=X;X*X,X=X=X:X=XoX.X'.",
"P.Y./.{.XXXX:X=X:X-X|. X;XoX-X%X~.a F U U U U U I S U U U U U U U U U U U U I U U U U U U U c $ $.&X&X=X>X*X=X*X:X;X=X:X=X:X*X{.",
"F.Y.].|.oX.X*X:XoX-X*X*X:X XXX}.|.}.h._ K P U L D U U U U U U U U U U U U U U U U U U Y T [ u.E.XX-X:X>X>X>X=X=X=X=X>X:X*X:X-X].",
"y.Y..X|.;X X;X.X|. X:X:X*X:X:X*X|.|.}.|.V.s.' n U U U U U U U U U U U U U U U U c h g.B.!.*X*XXX|.-X-X=X=X:X:X>X>X=X:X=X*X*X|.}.",
"w.P.).|.oXXX XXX.X:X,X=X=X:X*X XXXXX|.XX-X;XA.Q U U U U U U U U U U U U U U U U U H V.*XXX-XoXoX|.|.%X-X=X=X:X:X>X>X:X=X=XoX}.(.",
"q.9.Y.'.{..XXXXX|.:X:X=X=X=X;X*X-XXX%X|.-X;Xc.P U U U U U U U U U U U U U U U U U U #.*X;X;X-X|.|.|.|.-X-X=X=X>X=X>X:X;XoXXX}.(.",
"4.L.T.'.{.]. X.X XoX;X-X|.=X=X*X|.].|.|. X=X+.U U U U U U U U U U U U U U U U U U U ..*XoX;X-X}.}.-XXX%XXX=X=X:X:X=X=XoX.X}.].(.",
"4.L.H.'.'.].|. XoX-X;XQ.`.@X#X%X|.}..XXX;X#X{ U U U U U U U U U U U U U U U U U U U X.*X-X-XoX}.}..X|..X}.;X:X;X;X=XoX|..X}.].(.",
"<.r.Y.'.'.}.}. X X.XE.B Q W | ] f.A.`.`.oX`.! U U U U U U U U U U U U U U U U U U U | &X:X%X%X|.}.|.].].|.oX;X;X*XoX}.|.].'././.",
"0.y.T.R.'.'.[.].'. XE.C U U U U P H W O.j.A.! U U U U U U U U U U U U U U U U U U U { #X:X:XXX}.oX*X|.}. X*X;X X X|.}.].{.T.U.Y.",
"r.L.Y.Y.T./.Y.{.].'.}.Z U U U U U U U U L E m K I U U U U U U U U U U U U U U U U U E $X;X-XoX;X|.;X X|..X*X;X;X-XoX.X'.].'.T./.",
"q.r.L.I.Y./.T.[.}.].].W U U U U U U U U U U U D b D U U U U U U U U U U U U U U U U x / %X-X XoXXXXX|..X|.oX:X:X:X*X.X|.}.|./.T.",
"5.4.Y.P.T.T.T./.].'.].[ I U U U U U U U U U U U U S v D U U U U U U U U U U U U U U y u %X;XoXoX.X|.|.XX;X X X;X*X}.XX X}..X'./.",
":.1.L.L.T.).P.T.'.'.'.( U U U U U U U U U U U U U U U A C U U U U U U U U U U U U U t p %X;X-XoX|.|.XX-X X X X;X X XXX].T.]./.].",
"1.1.r.L.Y.).P.Y.T.'.'.d.U U U U U U U U U U U U U U U U b D U U U U U U U U U U U U t ` %X*X;X X*X|.XX|..X X;X;X:XXX}.T.T.'.T./.",
"<.w.0.9.P.T.Y.P.Y.].].h.L U U U U U U U U U U U U U U U b U U U U U U U U U U U U U l Z.=X:X:X;X.X|..X].{.oXoX=XXX.X'.'.Y.T./.T.",
"8.t.r.8.t.T.Y.Y.T.{.|.Q.G U U U U U U U U U U U U U U L A U U U U U U U U U U U U P l.:X-X:XoXoX.X-X|..X}.}.oX|.XX{.T.P.Y.Y.Y.L.",
"4.0.L.F.L.'.T.].'.|.|.|.V K Y I P I U U U U U U U U U A L U U U U U U U U U U U U } #X-X;X:X-X X-XoXXX|.].XXXXXX|.'.'.Y.I.Y.T.9.",
"4.0.r.L.I./.T.T.].*X|. XA.k.b.c.f.s.#...{ E D I U U L b U U U U U U U U U U U U U Q +X;X:X*XoX X;XoX|..X(.XX|.-X|.].T.'.Y.Y.Y.5.",
"w.8.0.w.J.).].].].|.:X;X=X:X=X=X;X;X*X.X~.A.V C U U S S U U U U U U U U U U U U U U } *X:X:X-X;X*X-X X|..X|..X-X.X].'.'.'.[.I.L.",
"w.9.t.P.L.T..X(.'.].|.;X;X:X-X X;X;X;X|..XA.Z S U U z c b N S P U U U U U U U U U U P c. X*X;X;X;X;X X|.XX|..XXX-X|.].'.)./.Y.F.",
"8.L.Y.Y.P.P.(.(.].|.|.*X:X;X-XoX|.*X;XXX Xp.d L U D 6 : > > , 6 8 e g C U U U U U L U W  X=XoX X X X|.|.|.XX_..X;X}.{.T./.).P.8.",
"q.L.L.P.H.T.]..X{.|.oX*X:X:X;X*X|.|.XX*X;Xi 0 U U S 0 > = = - ; ; - ; > < d K I U c U Y A.|.*X.X.X.X.X{.].(.}.-X X|.]./.'.U.t.7.",
"<.6.9.P./.].|..X|.|. X*X=X;X:X:X;X;XXX=X-X1 e U U U U S g d k g g f r e e 8 2 c U b U U j.}. X.X.X{.]..X(./.|.=X|.].(.T.T.G.9.9.",
"1.;.t.U./.]..X|..XXXXX;X:X:X:X*X*X>X*X*X+XT c A L U U U U A K U U U U U U I I U U c I U j.|.}.}..X|.}.}.}.}.(.|.-X].].T.D.P.L.t.",
"<.6.U.]._..X.X}..XXX-X:X:X:X:X=X;X:X X*Xb.I U L A v v I U v U U U U U U U U U U U S D Y !.|..X|..XXX}.]..X|..X.XXX(.].).H.P.P.8.",
",.r.R.Y.(.]..X}._.}.}.=X:X:X:X:X;X*XXX.Xf.U U U U U z j N S U U U U U U U U U U U U c { }.|.oX-X-X X}.}..X}.].(./.(.(.Y.I.t.w.6.",
"4.6.P.Y.).R.(._.}.(..X|.:X:X>X*X;X;X*X:Xl.x d 8 7 > * , < > 7 8 e k b L U U U U U U A j.|.XXoX-X:X|.|.XX}.}.(.(.(./.(.T.I.t.w.1.",
"J.S.F.K.U.R.(.(.(.}.|.XX&X>X>X;X-X-X-X-X^ ; : : : ; ; ; * * : : : - = > 8 k J U U U U @.|.;X-XoX-XoX|.|.].}.].].]./.'.).P.F.8.3.",
"7.r.D.K.R.T.R.T._.}.}.*X>X=X;X:X:X:X:X:X^ , > < 9 7 1 1 = = * 5 , > > ; = = = r L U U T $X=X>X-X-XoXoX.X}.].}.}.|.T.Y.Y.J.r.3.>.",
"K.P.U.R./.R.R./.}.}..X-X:X;X;X>X:X;X:X:Xl.K P U U U U P k , e U P P L D C c z z L U U U x.>X=X&X*X*XXX|.}./.(.}.].(.(.T.Y.L.4.3.",
"J.9.K./.H.H./.(.}.%X-X=X%X>X>X-X&X:X:X>Xz.Y U U U U U U D 6 x U U U U U U P U U U U U U #.=X%X|.|.XXXX.X|.(.'.}.]./.'.R.I.y.<.>.",
"J.K.R.H.U.U./.~.|.%XXX:X:X:X>X=X&X:X;X>XOXH U U U U U U D w J U U U U U U U U U U U U U o.%X%X%X%X;X|.-X-X}.{.].].(.'.'.Y.F.5.3.",
"U.R.(.K.K.U.R.(.XX%X-X:X>X>X>X>X>X-X=X>X$XW U U U U U U U J U U U U U U U U U U U U U U l.=X=X;X*X*XoX;X*XXX|.|.|.].].'.T.P.q.w.",
"U.P.Y.K.J.U././.|.-X;X=X:X>X>X:X:X:X-X%X&Xz.Y P U U P U U U U U U U U U U U U U U U U P b.>X:X=X-X=XoX|.=XXX|.|.XX|.].].T.P.q.0.",
"K.P.K.U.1.2././._.XX=XXX-X:X:X&X&X>X|.|.:X@XX.U U U U U U U U U U U U U U U U U U U U } $X=X=X;X;X*XoX%X-X.X|..X|.XX|.).Y.P.4.-.",
"U.S.t.9.6.9.U.Y._.|.XXXX;X:X:X;X:X*X;X|.=X>X+X_ Y U U U U U U U U U U U U U U U U P m v.$X:X-X-X=X;X=X-X:X.XXX].(.].]./.T.L.t.q.",
"t.7.6.6.6.J.9.P.R././..X:X:X=X&X-X-X|.=X*X%X#X( b b S L L U U U U U U U U U U L S b K F h Z.|.oX-X;X=X-X-X|.oX].]./.].'.Y.8.4.4.",
"J.J.e.J.w.4.P.D.K.U.(.oX-X:XoX_.}.-XXX].%X|.`.] R H S A A v m } X.| | |  .n b D P P Y Q @.Q.|.}.-X;X-X:X=X-X].(.].(.'./.P.r.<.<.",
"J.9.J.J.2.r.P.U.J.J.T.{. XoXXX(.].|..X(.}.}.}.}.V.j.s.O.o.O.s.!.|.-X|..X{.N.a.( ] s.k.Q.|.|.|..X|.;X=X;X=XXXR.].].].].).P.8.>.>.",
"J.8.9.8.J.J.P.P.U.T./.{.}..X}.}.|.]./.'./.]..X|.}.XX|.XX|.|.%X-X|.XX|.|._.(.R.(.}.|.|.XX X|.].}.|.|.|.*X=X X].{./.Y.'.Y.9.t.>.-.",
"7.1.P.S.t.6.K.P.R.R.(.{.{.}.(.{.].)./.].T.T.T.].(.].|.|.].XX-XXX}.}.}.}.(.(.Y.R.Y..XXXoX X.X|..X].{.].|..X.X].T./.Y.T.Y.y.5.:.&.",
"e.6.J.9.1.:.J.J.P.U.{./.Y.{.(.R.(.(.(.(.T.Y.P.Y.T.]..XoX}.}.|.XX}./.(._./.T.R.U.I.T..X.XXXoX.X'.T.].]..X.X.X/.I.T.T.'.'.I.r.-.&.",
"4.<.t.w.t.w.J.t.P.K.J.P.P.T.T.T./.).'.U.G.9.F.I.T.).(..X].}..X-X(./.(./.(./.U.P.L.T.'.'.{.|..X{..X{.].'.'.[.T.P.Y.Y.T.T.8.y.>.=.",
"1.<.6.r.8.P.J.t.U.2.2.7.P.U.Y.Y.U.R.Y.S.8.q.J.t.U.T.).}.(.}.(.(.(.}.W.K.D.U.D.7.P.I.P.Y././.T.)./.'./.T.).(.Y.Y.Y.y.P.Y.0.8.:.&.",
"4.>.3.1.4.w.S.K.D.J.S.6.6.L.P.t.L.t.6.0.q.4.t.6.S.P.Y.P.K.R././.R.R.R.S.2.1.S.t.5.8.y.P.y.P.L.L.G.Y.P.G.P.F.P.P.F.9.<.3.>.>.-.-.",
"<.;.3.>.1.w.K.K.S.2.7.6.1.1.w.3.1.<.>.>.<.<.1.>.1.2.7.8.1.e.S.U.D.D.7.2.,.*.,.1.3.3.r.y.5.y.t.t.P.L.9.L.L.y.r.y.5.0.3.0.1.-.=.&.",
">.>.1.<.>.1.w.7.2.2.2.1.6.1.1.>.-.-.;.<.;.;.<.>.,.1.1.6.,.1.2.7.S.D.2.1.1.,.*.*.<.3.y.y.L.L.t.8.L.t.9.F.U.P.t.t.0.0.w.3.<.:.&.%."
};
