/* XPM */
static char *result[] = {
/* columns rows colors chars-per-pixel */
"64 64 214 2 ",
"   c #1E1C1D",
".  c #221E1D",
"X  c #332A1B",
"o  c #232323",
"O  c #272729",
"+  c #2E3133",
"@  c #771B1C",
"#  c #40361E",
"$  c #76311D",
"%  c #752525",
"&  c #574A29",
"*  c #705E28",
"=  c #565959",
"-  c #535E63",
";  c #596970",
":  c #79746E",
">  c #843C1A",
",  c #8B3E1D",
"<  c #87472B",
"1  c #88522A",
"2  c #8A4F31",
"3  c #A15F3A",
"4  c #97712E",
"5  c #B16E2F",
"6  c #D0522E",
"7  c #C65430",
"8  c #D05A32",
"9  c #E3542F",
"0  c #E45330",
"q  c #EC5432",
"w  c #F05232",
"e  c #CE7D31",
"r  c #A73E45",
"t  c #AC4F47",
"y  c #B77241",
"u  c #877B70",
"i  c #C9655A",
"p  c #D66A68",
"a  c #EB7477",
"s  c #EC7479",
"d  c #9A822E",
"f  c #9B8431",
"g  c #AF8D38",
"h  c #BB8639",
"j  c #BB9637",
"k  c #C98839",
"l  c #C7983B",
"z  c #D49C3B",
"x  c #CBAA3A",
"c  c #DEA33F",
"v  c #D5AB3A",
"b  c #CAB038",
"n  c #D4B33B",
"m  c #DBB53B",
"M  c #DBBA3C",
"N  c #E1A33F",
"B  c #E4AC3D",
"V  c #E3B33C",
"C  c #EAB43E",
"Z  c #E3BD3C",
"A  c #EDBA3D",
"S  c #F0BE3D",
"D  c #E6C33D",
"F  c #EBC33C",
"G  c #ECC83F",
"H  c #F4C43D",
"J  c #F4CD3D",
"K  c #FACD3D",
"L  c #F7D13E",
"P  c #FDD23D",
"I  c #B29052",
"U  c #B6A559",
"Y  c #958F6F",
"T  c #8C897D",
"R  c #BBA968",
"E  c #B8A574",
"W  c #B1AD77",
"Q  c #CB9747",
"!  c #D69C45",
"~  c #C6AC43",
"^  c #DEA242",
"/  c #DAA449",
"(  c #DBBD48",
")  c #CAA85D",
"_  c #D5A453",
"`  c #C9B758",
"'  c #D7BB59",
"]  c #E0A241",
"[  c #E1AD44",
"{  c #E5B844",
"}  c #C1A161",
"|  c #D0AE6F",
" . c #C9B966",
".. c #C7AB76",
"X. c #DBC14D",
"o. c #DBC359",
"O. c #EAC441",
"+. c #EDCA44",
"@. c #E8C74A",
"#. c #F6CB43",
"$. c #F4CD42",
"%. c #F6D042",
"&. c #FAD240",
"*. c #E4C953",
"=. c #E4C855",
"-. c #D7C364",
";. c #D4C36B",
":. c #CAC175",
">. c #D4C572",
",. c #6F8992",
"<. c #7FABBD",
"1. c #439EE2",
"2. c #4BAAE7",
"3. c #54ACE7",
"4. c #55B2E7",
"5. c #55B2E9",
"6. c #5AB5E9",
"7. c #5EBAEC",
"8. c #62B6EA",
"9. c #63BCED",
"0. c #6ABDEC",
"q. c #71BFEE",
"w. c #66C1EE",
"e. c #6CC3EE",
"r. c #6FC8EE",
"t. c #73C5ED",
"y. c #79C5ED",
"u. c #74C9EE",
"i. c #7CCBEE",
"p. c #6BC6F1",
"a. c #6CC4F1",
"s. c #73C6F1",
"d. c #78C6F0",
"f. c #75CAF1",
"g. c #7CCCF1",
"h. c #7FD0F1",
"j. c #968F8D",
"k. c #9A9C9C",
"l. c #B9AC84",
"z. c #B4B78A",
"x. c #AAAE96",
"c. c #B5B996",
"v. c #9BAAA7",
"b. c #AAB9A8",
"n. c #B7BAA6",
"m. c #A4B6BB",
"M. c #B6BDB5",
"N. c #C2BD83",
"B. c #C1B38A",
"V. c #C6BD99",
"C. c #BEC08A",
"Z. c #BAC498",
"A. c #B9C6AA",
"S. c #A4C1B2",
"D. c #B8C7B9",
"F. c #C7C488",
"G. c #D3CA80",
"H. c #C5C79B",
"J. c #C4CCA5",
"K. c #C3CCB5",
"L. c #C1D1BC",
"P. c #8CB2C1",
"I. c #98BBC9",
"U. c #A4BCC7",
"Y. c #95C2C7",
"T. c #A9C6C6",
"R. c #B7CCC8",
"E. c #BAD2C9",
"W. c #A8CAD1",
"Q. c #A9D2DC",
"!. c #B9D6D9",
"~. c #83CDEF",
"^. c #89CFEF",
"/. c #84D1EE",
"(. c #8BD1EE",
"). c #98D3E9",
"_. c #82CEF1",
"`. c #8DCFF0",
"'. c #84D1F2",
"]. c #8BD4F2",
"[. c #8FD8F3",
"{. c #93D6F3",
"}. c #95D9F4",
"|. c #9BD9F4",
" X c #9CDBF4",
".X c #AADAEA",
"XX c #B6DAE7",
"oX c #BCDCE3",
"OX c #A3DEF5",
"+X c #AADEF4",
"@X c #A3DFF9",
"#X c #BEE2E5",
"$X c #BBE2EC",
"%X c #A5E0F5",
"&X c #ACE2F6",
"*X c #A6E1F8",
"=X c #ACE2F8",
"-X c #B3E4F6",
";X c #BBE6F6",
":X c #BDE8F7",
">X c #B4E5F8",
",X c #BBE6F8",
"<X c #BDE8F9",
"1X c #C3D3C9",
"2X c #C4D9D7",
"3X c #C2DCE5",
"4X c #C5E2EB",
"5X c #C2E6F5",
"6X c #C4E9F7",
"7X c #CAEBF6",
"8X c #C1E7F8",
"9X c #C4EAF9",
"0X c #CBECF9",
"qX c #D1EDF9",
/* pixels */
"r.f.f.p.w.w.p.w.p.f.h.h.g.h.f.h.h.h.h.r.h.r.h.h.h.h.i.i.'.'.h.h.h.'.[. X}.{.{.{.}.}.}.[.].}.}.}.}.}.}.}.}.(.(._.'.'._.'.{.[.g.].",
"s.s.a.a.r.g.h.f.'.].[.'.h.g.g.'.'./.h.h.[.%X[.[.[.[.].'.}.}.h.h.}.}.}.%X X%XOXOX&X*X%X%X X%X*X%X&X%X X%X%XOXOX{.].]._.].{.g.f.g.",
"r.p.f.t.'.].].'.[.[. X X}. X}. X%X X Xh. X%X%X}.}. X X X&X*X X X%X&X&X%X&X&X&X&X:X<X>X=X>X:X-X:X-X-X*X+X&X%X%X X}.}.}.}.g.9.e.u.",
"s.e.a.f.'.[.[.}. X X X}. X X X=X%X}.%X=X&X%X=X*X%X%X=X%X%X*X%X>X-X>X>X>X;X6X-X:X:X0X:X:X9X9X:X>X:X:X-X-X=X X%X%X@X]. X}.i.t.p.0.",
"s.f.s.g.h.h.}.}.OX%X X}. X*X).; }. X*X%X%X>X%X%X=X%X%X%X=X-X&X>X:X9X<X<X6X9X9X9X9X9X:X<X6X9X7X0X7X6X9X<X,X%X=X&X&X}.%X%X'.u.p.9.",
"r.f.g.].'.]. X X[.}.*X%X X*XI.+ ,.%X%X}.&X:X>X&X<X>X&X&X,X,X&X*X9X0X:X0X7X9X0X0X0X0X:X0X<X9X9X0X9X9X7X9X9X-X>X-X;X*X*X%X].r.a.a.",
"a.f.'.f.]. X%X=X*X*X X%X%X&XP.O + ). X X%X>X>X&X>X,X-X,X,X-X-X>X0X0X9X9X0X0X0X0XqXqX9X0X9X0XqX0X0X0X0X9X9X9X9X9X:X&X=X=X X'.f.u.",
"s.d.].h.[.}. X%X&X+X%X%X&X X<.o . ,.%X%X%X>X<X>X,X-X<X9X,X:X<X<X0X0X9X<X9X0X9X0X0X0X<X9X0X0X9X0X6X9X9X<X<X,X:X9X6X;X=X%X%X]._.g.",
"h.].}.(.'._.*X*X-X-X&X-X,X-XP.o & ` ).%X%X-X>X>X:X<X0X<X<X0X0X0X0X0X0X9X9X9X0X9X<X:X9X<X6X6X9X9X<X0X9X;X9X6X-X,X6X:X&X&X%X(.[.].",
"[.}.}.}. X/.OX=X-X-X-X>X<X;XI.& G L S.%X&X-X>X:X:X:X0X<X0X0X0X0X0X0X0X9X9X9X<X0X:X:X9X$XT.U.<X<X;X9X9X9X9X;X;X;X9X9X&X,X%X}.'.'.",
"'. X X%X-X=X%X%X>X;X;X<X;X-XI.` L P  .%X$X-X:X:X:X:X0X0X0X0X0X0XqX0X0X:X:X9X:X;X#Xv.= + O ,.6X<X;X8X9X<X,X,X9X6X7X<X>X,X&X}./.[.",
"].*X&X&X-X,X-X-X8X8X9X<X-X;XXXo.L P *.W.-X:X>X-X:X:X<X0X<X0X9X9X0XqX:X9X:X:XoXZ.X.g o o ; 0X9X9X;X9X9X8X;X;X0X6X9X:X=X:X%X Xh.].",
"'. X%X=X>X>X-X:X;X;X8X<X-X;X;X-.P L P Z.-X;X%X&X:X:X9X9X:X0X0X0X<X0X6X:X6XA.X.L L f . - 5X6X6X<X<X8X8X9X6X6X9X;X0X;X&X,X&X X X{.",
"h. X%X&X>X-X>X,X;X<X9X8X;X<X-XF.P P P >.5X6X;X&X>X<X:X:X9X0X9X0X<X0X:X#X:.L P P P * ; $X7X7X7X6X8X8X;X<X6X6X0X0X9X:X6X9X,XOXOX(.",
"].OX&X=X-X<X<X,X9X<X<X<X,X>X>XA.%.P P *.!.:X:X>X>X&X<X9X9X9X0X6X<X0XE.*.L P P P %.T -X6X6X0X9X9X8X9X8X0X7X7XqXqX0X0X0X7X9X$X&X X",
"(.OX*X-X>X,X;X,X9X<X;X<X-X>X>XW.@.L P %.D.%X>X&X-X>X<X0X0X0X0X6X<XL.*.P P P P +.Z.6X9X9X6X<X:X9X8X7X0X7XqXqX5X6XqX7X4X1XL.Z.z.).",
"[. XOX-X>X,X9X9X9X6X<X9X,X-X8X;X) &.P P C.OXOXW.A.F.>.;.>.>.H.D.A.@.&.P P L { b.;X9X9X9X<X9X9X<X8X0X;X0X0X5X2XD.F.>.=.+.%.&.:..X",
"].}.OX&X,X;X0X9X7X9X;X,X9X<X8X8Xc.P P P ` Z.o.%.P P P P P &.&.G O.P P K #.) !.>X;X9X9X9X,X<X;X-X6X0X4XR.F.-.@.%.P P P P P %.A.-X",
"/.}.&X,X<X,X9X9X8X9X9X9X9X9X;X;X!./ &.D D &.&.&.P P P P P P P P P &.H [ l.4X;X>X-X6X9X8X>X0X6XXXD.N.@.$.P P P P P P P P P *.#X&X",
"/.}.-X;X<X,X6X,X-X6X0X0X9X7X0X9X>XE J P P P P P P P P P P P P P K S l M.;X;X8X-X;X9X<X9X$XE.F.o.%.P K L P P P P P P P P P G.$X-X",
"f.].OX,X<X,X9X,X;X0X0X7X0X0X8X;X;Xz.&.&.P P P P P P P P P P P P P P O.D.;X8X,X-X:X8XoXJ. .$.P P &.P P P P P P P P P P P &.D.>X%X",
"a.i.}.%X&X-X,X,X,X9X0X0X0X7X7X9X$XX.P P P P P P P P P P P P P P P P &.>.-X<X:X9XoXH.-.&.P P P P P P P P P P P P P P P P =.#X-X&X",
"e._.}.%X%X-X:X,X,X<X0X8X;X7X7X8XW.$.P P P P P P P P P P P P L L P P &.=.$X9X9X#Xo.&.P P K P P P P P P P P P P P P P P P G.&X-X&X",
"a.'.}.%X%X&X-X,X,X9X9X-X<X8X9X9XR.&.P P P P P P P P P P P P L D &.P &.$.E.;X;X#X=.G n Z S A C B C C C C A A H H K P L %.R.-XOX&X",
"9.g.}.%X%X>X-X,X:X,X&X,X6X6X;X;XE.L L P L P P P P P P P P P I : * G P L A.;X-X-XR n n j z c ] ] ] N ] ] ] ] ] N N B B ' .X+XOXOX",
"p.g. X X%X%X%X=X%X<X&X-X7X;X<X;XE.L P P L %.P P P P P P P M : j.  j P P F.-XXXz.@.P P L g ] ] ] ] ] ] ] ] ] ] ] N N ! l.=X}.}.}.",
"f.'.}.}. X%X}.=X&X%X-X,X;X7X6X,X!.G L 4 u I J P P P P P P G X   X n L P ;.A.o.L L P P K g ] ] ] ] ] N ] ] ] N N c N ^ T.+X+XOX X",
"s.f.'.].}.%X X*X>X&X-X&X.X:X7X6X-X@.D o u = b &.P L P P P P M d b P Z v b +.P P P P P v ! ] ] ] ] ] N ! ] ] ] N ! ! } -X-X-XOXOX",
"e.a.}.].}.OX X X&X%X%XS.R Z.!.$X9X' G #   X M &.L x P P K P J P P B 6 9 5 Z K P P P L l ] ] ! ] ] ] ! _ | ..B.n.D.D.!.:X-X-X%XOX",
"7.w.'.'. XOX]. X%X%X.X` J L @.;.J.` L n d b L P L l g l x j J P P k q q 6 m P P P P m z ] ] _ | V.D.!.3X$X;X;X6X;X,X,X=X X&X&X*X",
"9.9.i.'.}.OX].}. X%XY.G L P L P +.j k V P P Z v 1 @ @ @ @ 1 P P P e q w 6 F P P P K v ] ] [ 1X5X9X;X<X-X-X9X9X0X9X;X-X X X&X XOX",
"0.t.p.i.]. X}.].}.=XQ.o.P P P P J 7 q 8 F P O.$ @ > r r r 3 P P P V 6 6 3 K P P K ;.' ] ] / E.9X>X<X-X-X&X<X<X9X<X-X%X%X}. XOX}.",
"u.f.f.i.g.}.}.}. X-X-XR.@.&.P P P 6 w 9 x P L 5 % r i p p 5 L P P K F D b P P L +.1X..B c ^ D.8X,X<X;X-X>X,X<X;X,X+X X[.}.}.}._.",
"r.p.h./.'.OXOX*X*X,X;X;XA.$.P P P k 0 9 z P P L t a a a s Q P P P P P m D P P J B.7XL.[ ^ ^ D.<X9X,X;X>X+X>X,X,X,XOX X}.}.}. Xi.",
"a.a.f.'.].OX XOX&X6X;X8X8XJ.#.&.P L 5 k J P P P ( p a a a m P P P P F m P K K ) 3X7X3X_ ^ ^ n.<X9X<X;X>X-X>X-X8X>X*XOXOX}.}.}.r.",
"s.t.p.s._.=X&X-X*X-X9X8X0X7XJ.+.P P J b D P P P P n p a y J P P P K F K P K B D.$X!.M.! N ^ n.9X6X9X8X,X;X-X;X8X,X&X+X%X%X*X}.'.",
"s.i.g.].'. X-XOX&X-X;X6X9X8X5XA.{ L L P Z m J P P P F V K P P P P P P K L V I x..._ ! ] ^ ^ n.8X9X9X9X;X,X;X>X;X9X;X&XOX XOX}.'.",
"i.h.}.}./.{.%X+X-X-X;X;X0X9X8X8XR.) F K L P K P P P J A { Z A P P P P &.C Q Q ! ] ! ! ] ] ^ z.8X<X,X-X;X;X<X-X>X9X-X*XOX%XOX].f.",
"p.'.'.].}.OX&X-X-X;X9X9X0X0X7X8X,XXXl.z J K P P P P J C { A P P P P P #.^ x.} ! ^ ! } E c.M.oX-X-X>X>X-X&X+X-X;X:X;X-XOX%X{.g.t.",
"9.t.i.].OX=X-X,X-X-X:X6X0X9X0X0X5X9X:Xx.J P P P P P P P P P P P P P P S l n.n.] ^ } .X>X-X>X<X>X-X-X=X=X+XOX,X0X;X-XOXOX}.(.i.i.",
"0.6._.{.OX+X-X-X>X,X<X9X0X9X7XT.W 8X9XL.%.L P P P P P P P P P P P P P H A N.Q.Q 5 e W.>X>X>X>X>X>X;X-X&X-X-X+X;X8X&X-X X^.]._.i.",
"8.e.}.*X-X-X,X>X>X,X8X0X0X0X8XW ~ D.!.z.O.L P P P P P P P P P P P P P K L o.-XY , , j.-X,X,X,X-X,X;X>X&X>X;X,X>X,X+X*XOX].{.].u.",
"9.d.|.}.+XOX-X-X+X-X;X9XqX0X0X .n U *.J Z Z P P P P P &.P P P P P P P P P +.Q.m.> , 2 .X-X,X,X8X9X;X,X-X-X-X-X+XOXOX+X X[.g.f.t.",
"e.t.].}.OXOXOX-X-X+X-X6X0X0X7X;.J n K P P P P P P P P P P P P P P P P P P %.A.M.< , > m.;X,X8X8X9X;X-X,X-X-XOX+X+XOXOX X[.g.s.0.",
"_.i.~.`.}.|.+X+X+X-X;X;X7X0X0X>.P Z J P P P P P P P &.P P P P P &.P P &.P P I < , , < v.8X8X8X8X9X<X;X-X+X-X&X&X-XOX=X%X].g.u.w.",
"u.d.^.{.{.OX|.|.-X-X-X5X0X0X9XG.P J K P P P P P &.P P P P P P P P P P P P P n > < j.!.8X0XqXqX8X9X<X<X;X-X-X-X-X-X X}.}._.i.w.7.",
"`.`.{.|.+X|.OXOX-X-X;X8X0X7X7XH.P P P P P P P P P P P P P P P P &.P P P P P L 1 W.8X8X9X9XqX7X8X9X8X,X-X-XOX&X-X+XOXOX}.}.'.e.w.",
"_.g.`.OX{.{.OXOX-X;X8X9X5XqX0XE.$.L P P P P P P P P P P &.P P P P P P P P P L 4 k.0X0X8X8XqX8X,X;X<X<X-X;X*XOX&X-X+X%X X}.g.w.7.",
"~.{.}.{.{.{.OX-X;X5X8X9X0XqXqX5X) { #.K P P P P P P P P P P P P P P P P P P P g u 5X0X5X;X7X8X5X5X0X;X9X<X-X&X+X-X+X%X%X}./.s.w.",
"{.|.OX`.^.{.).-X;X;X8X0XqXqXqX7XR.I ! C S H H &.K P P P P P P P P P &.P P P P -.5X0X0X0X0X0X0X8X9X5X<X9X9X,X;X-X,X&X-X*X X].r.s.",
"{.(.|.`._.{.OXOX;X8X8X0X7XqXqXqX7X3Xl.! ] z ] ] B B A H P P P P P P P P P P P =.4XqXqX7X0X0X0X7X5X0X<X;X7X,X8X;X8X-X-X*X X].a.p.",
"`.].`.{.q.q.OXOX-X;X0X;X8X7XqX7X8X0X;XM..._ ] ] ] ] N N B K P K &.P P P P P &.' 4XqX0XqX7X0X7X8X0X9X;X8X9X-X;X-X;X,X-XOX}.].w.4.",
"{.~._.g.t._.}.}.-X-X,X;X8X0X7X8X0X8X7X;X7X4X2XK.V..._ ^ ^ ] { K P L P P P P K l.qXqXqXqX0X0X8X8X9X5X8X0X8X<X;X*X+X*X&X X X'.g.e.",
"g.y.0.t.t.g.i.].OXOXOX>X0X0X0X0X8X9X;X0X7X5X5X9X7XqXXX1XB._ ] ! A #.K K K H / R.qXqXqX7X7X8X;X5X8X9X0X8X8X;X;X-X&XOX&X&X}.u.e.e.",
"_._.i._.s.e.`._.^.{.+X<X8X0X<X-X-X9X<X+X8X;X,X-X;X8X8X;X8X3XD..._ ] ] B ^ Q x.,X8X5X5X5X9X<X;X-X8X0X8X0X8X8X&XOX-X+X*XOX].f.9.w.",
"_.i._._.q.f.].{.~.~. X-X;X<X,XOX&X>X-X+X-X-X-X,X;X;X,X,X-X;X8X5X!.K.B.I h Q b.+X>X-X;X7X;X;X,X>X;X9X9X7X0X<XOX+X&X+X+XOX].r.9.7.",
"~.u.i.y._._.].].{.{.OX-X=X>X=X>X;X&X+X%XOX&X-X-X-X,X,X<X>X;X8X8X,X8X5Xb.! A W =X-X>X:X,X<X-X-X-X-X;X;X6X9X:X-X=XOX}.%X}.i.h.7.4.",
"y.0.].~.f.t.`.].|.|.@X>X-X-X+X=X&XOXOX&X X XOX*XOX+X;X<X-X;X8X,X>X-X>XXX) { R  X}.-X;X9X6X-X-X>X&X-X&X,X,X-X&X XOX X X}.g.r.6.2.",
"d.e._.i.a.7._.'.{.{.@X@X}.=XOXOX+X+X+XOX X}.].}.OX+X,X<X-X-X,X;X-X|..X+XS.b U ).[. X>X-X,X9X>X%XOX%X&X=X-X>X X}. X X X&X[.u.4.2.",
"e.9.g.u.d.t._.g.`.`.'.`.].OX X}.OXOX*X}.(.i.'.[.}.@X@X-X+X-X;X;X+XOX+X+X Xv.Y ^.'. X%X%X=X-X>X=X=X>X&X%X%X%X X[.}.}. X Xr.h.7.5.",
"0.9.u.f.s.]._.g.{.q.0.i.].{.}.}.{.}.}.~.u.a._.g.}. XOX>X+X=X>X+X.X-X.X).(.{.(.i.].].[.}.%X X@XOXOX&XOX X X*X}.}.}./.[.}.p.u.6.2.",
"e.8.w.9.e.s._.`.^.~.~.y.t._.'._.`.g.t.a.a.e.g.s._.].{.{.].|.OXOX|.|.{.~.q.8.i.i.u.u.h.].h.].'.'.].{.].(.].^.].].'.i.7.w.9.7.4.4.",
"7.7.w.9.0.s.`.`.y.y.y.q.0.q.s.e.9.9.7.7.9.9.0.7.0.t.u.y.q.d.i.{.`.`.~.q.8.3.8.e.w.w.f.g.u.g.h.f.].'.i.'.'.h.g.g.p.p.w.e.9.4.2.2.",
"7.7.w.8.7.0.s.y.q.q.q.0.s.0.9.7.5.5.5.9.5.5.9.7.8.0.0.q.8.0.q.y._._.q.q.8.8.3.3.w.w.g.h.h.].g.u.'.g.i./.}.'.g.g.p.a.s.w.9.9.2.1."
};
