/* XPM */
static char *result[] = {
/* columns rows colors chars-per-pixel */
"64 64 216 2 ",
"   c #040303",
".  c #0D0C06",
"X  c #130F08",
"o  c #151406",
"O  c #141516",
"+  c #2A250D",
"@  c #3A3310",
"#  c #1C1F21",
"$  c #2C3133",
"%  c #6D1110",
"&  c #413D1D",
"*  c #6E2315",
"=  c #793712",
"-  c #574C14",
";  c #6C5418",
":  c #716422",
">  c #3F484C",
",  c #454444",
"<  c #505D63",
"1  c #84171B",
"2  c #A61F25",
"3  c #A82B2D",
"4  c #B1262C",
"5  c #DB3C16",
"6  c #F6320F",
"7  c #F8320F",
"8  c #E83412",
"9  c #8D5117",
"0  c #87771C",
"q  c #D64418",
"w  c #D4651C",
"e  c #C85328",
"r  c #CD7226",
"t  c #B87540",
"y  c #DD474F",
"u  c #D85254",
"i  c #EC515C",
"p  c #CD6548",
"a  c #9B881D",
"s  c #B6981F",
"d  c #B8A01F",
"f  c #9D8E2E",
"g  c #A28E22",
"h  c #BE8925",
"j  c #B49E23",
"k  c #D6891E",
"l  c #DE971E",
"z  c #DE9A1D",
"x  c #E0971F",
"c  c #E0991E",
"v  c #DFA21D",
"b  c #E2A51C",
"n  c #E5AC1C",
"m  c #EAB51E",
"M  c #EDBA1C",
"N  c #F0BE1F",
"B  c #C78B28",
"V  c #C8962A",
"C  c #D39624",
"Z  c #DB9621",
"A  c #D99B23",
"S  c #CA9536",
"D  c #D39A35",
"F  c #C9A925",
"G  c #D8A926",
"H  c #CDB325",
"J  c #D5B627",
"K  c #DBBC25",
"L  c #D9AE35",
"P  c #CBB533",
"I  c #DEBF3E",
"U  c #E1A920",
"Y  c #E4B323",
"T  c #E5BB24",
"R  c #F1C31D",
"E  c #F5CB1D",
"W  c #F8CF1C",
"Q  c #F5D31E",
"!  c #FED61E",
"~  c #FCD81E",
"^  c #DDC025",
"/  c #DDC73D",
"(  c #E6C625",
")  c #ECCB22",
"_  c #EBCE2C",
"`  c #F1CC21",
"'  c #F8CF20",
"]  c #EFD12C",
"[  c #F4D222",
"{  c #FAD620",
"}  c #F9D820",
"|  c #F2D229",
" . c #E8CE35",
".. c #EAD138",
"X. c #B08E4F",
"o. c #A59B4A",
"O. c #BA9D5C",
"+. c #B6A156",
"@. c #BDB559",
"#. c #91906F",
"$. c #A4A568",
"%. c #BAA266",
"&. c #BDB677",
"*. c #C49A49",
"=. c #CEB054",
"-. c #C7BA5A",
";. c #C5B46A",
":. c #D8C647",
">. c #DDC945",
",. c #D5C756",
"<. c #E0CA40",
"1. c #D3CB69",
"2. c #D1CB6C",
"3. c #C9C878",
"4. c #617983",
"5. c #6B8591",
"6. c #439EE2",
"7. c #4BAAE7",
"8. c #54ACE7",
"9. c #55B2E7",
"0. c #55B2E9",
"q. c #5AB5E9",
"w. c #5EBAEC",
"e. c #62B6EA",
"r. c #63BCED",
"t. c #6ABDEC",
"y. c #71BFEE",
"u. c #66C1EE",
"i. c #6CC3EE",
"p. c #6FC8EE",
"a. c #73C5ED",
"s. c #79C5ED",
"d. c #74C9EE",
"f. c #7CCBEE",
"g. c #6BC6F1",
"h. c #6CC4F1",
"j. c #73C6F1",
"k. c #78C6F0",
"l. c #75CAF1",
"z. c #7CCCF1",
"x. c #7FD0F1",
"c. c #848484",
"v. c #ABA889",
"b. c #BDB783",
"n. c #B2B388",
"m. c #BAB89A",
"M. c #859DA5",
"N. c #8DADB3",
"B. c #B5B8A7",
"V. c #A6BBB2",
"C. c #BDC386",
"Z. c #AEC193",
"A. c #BCC897",
"S. c #B7C7A8",
"D. c #B6C5B8",
"F. c #BCD1B7",
"G. c #C8CD86",
"H. c #CED38E",
"J. c #C4C994",
"K. c #C3CCA1",
"L. c #C6D3A9",
"P. c #C2D3B5",
"I. c #99BFC4",
"U. c #B6BFC5",
"Y. c #9BC8DA",
"T. c #ADCAC7",
"R. c #B7CDC8",
"E. c #B9D4C8",
"W. c #A7CBD5",
"Q. c #A9D4DA",
"!. c #B9D8DB",
"~. c #83CDEF",
"^. c #89CFEF",
"/. c #84D1EE",
"(. c #8CD2EE",
"). c #98D5EA",
"_. c #82CEF1",
"`. c #8DCFF0",
"'. c #84D1F2",
"]. c #8BD4F2",
"[. c #8FD8F3",
"{. c #93D6F3",
"}. c #95D9F4",
"|. c #9CDBF4",
" X c #9CDAF5",
".X c #A0CFE1",
"XX c #A6DAEC",
"oX c #B4DBE5",
"OX c #BCDCE4",
"+X c #A3DEF5",
"@X c #AADEF5",
"#X c #A3DFF9",
"$X c #BCE1ED",
"%X c #A5E0F5",
"&X c #ACE2F6",
"*X c #A5E1F9",
"=X c #ACE2F8",
"-X c #B3E4F6",
";X c #BBE6F6",
":X c #BDE8F7",
">X c #B4E5F8",
",X c #BBE6F8",
"<X c #BDE8F9",
"1X c #C3D4C8",
"2X c #C7DBD3",
"3X c #C1DDE3",
"4X c #C2E1E6",
"5X c #C2E6F5",
"6X c #C8E6F2",
"7X c #C4E9F7",
"8X c #CAEBF7",
"9X c #C1E7F8",
"0X c #C4EAF9",
"qX c #CBECF9",
"wX c #D1EDF9",
"eX c #D1F0FB",
/* pixels */
"p.l.l.g.u.u.g.u.g.l.x.x.z.x.l.x.x.x.l.l.l.l.x.x.d.x.f.d./.'.l.x.x.'.[.|.}.{.{.{.}.|.}.[.'.[.}.[.|.}.[.}.}./.(.~.'./._.'.{.].'.'.",
"j.j.h.h.p.z.x.l.'.].[.'.x.z.z.'.].'.x.x.[.%X[.[.}.[.[.'.}.[.'.'.}.}.}.%X|.%X%XXX%X%X%X%X|.&X%X%X=X=X+X%X%X%X+X}.].]._.].{.z.l.x.",
"p.g.l.a.'.].].'.[.[.|.|.}.|.}.|.*X}.|.x.|.&X%X}.}.|.|.+X%X=X}.%X%X&X&X%X&X=X&X&X:X<X>X>X>X>X>X>X-X-X%X%X%X%X%X}.}.}.}.}.z.r.i.l.",
"j.i.h.l.'.[.[.}.|.|.|.}.|.|.|.=X%X}.%X>X=X&X=X%X%X%X=X%X%X=X*X>X-X>X>X>X,X<X-X:X0X0X:X:XqX0X:X:X;X;X;X-X=X%X%X%X#X].|.}.l.p.i.t.",
"j.l.j.z.x.x.}.}.+X%X|.}.|.*X=X*X|.|.*X|.&X>X&X%X-X%X*X%X>X&X&X-X,X7X>X,XM.$ M.<X7X7X:X:X<XqX:XqX0X7X0X<X>X%X-X&X=X}.%X%X].a.g.r.",
"p.l.z.].'.].|.|.[.}.%X*X#X*X-X|.|.&X%X}.&X>X>X&X>X>X&X&X>X:X&X&X7X8XW.>     W.qX7XeX:X0X<X0XqXqX0X0XqX0X0X;X>X>X;X%X&X+X].p.i.h.",
"h.l.'.l.].|.%X=X&X%X|.%X|.=X-X%X%X%X|.|.%X>X>X-X>X>X>X:X:X>X>X>X8XN.#     O 6XqXeXeX0XeXqXeXeXqX8X8XqX0X<X<X0X0X:X-X=X=X|.'.z.a.",
"j.k.].x.[.}.|.%X&X&X+X*X-X%X|.%X&X|.%X%X%X-X>X>X:X>X:X0X-X:X:X:XM.O X o o < 0XqX0XeX:X<X0X0X0XqX7X0X0X0X0X;X<X0X:X>X=X%X*X].x.z.",
"x.].[.].].x.%X&X=X=X&X-X,X=X-X+X|.+X|.%X%X-X>X,X,X9XqX0X0XqXwXM.& 0 F ^ H T.,X0X>X,X0X<X0X0XqX0X:XqX0X,X0X9X-X;X7X:X&X&X%X].[.].",
"].}.}.}.|./.+X&X-X;X>X>X;X:X>X&X X|.|.+X&X>X>X;X,X<XqX0X0XwXR.f E ! ~ ~ :.$X,X0X:X7XqX<X:X0X<X<X,X0X0X:X0X,X9X;X0X0X-X;X%X}.'./.",
"].|.+X%X&X=X%X%X>X;X;X<X;X>X,X-X-X|.}.&X-X>X:X:X:X<X0X0XqX4X,.! ! ~ ~ Q S.:X>X:XqXqX<X<X0XqX0X<X,X9X9X7X,X,XqX;X0X:X>X>X=X}.].].",
"].#X&X&X>X;X-X>X:X7X0X:X>X;X;X-X-X@X|.=X>X;X>X>X0X:X0X0X0XH.{ { ! ~ ~ :.$X0X0X0X0XqX<X<XqXqXqX0X;X0X7X9X;X,XqX7XqX:X=X:X%X|./.'.",
"'.}.&X=X>X>X>X;X,X,X0X,X-X,X9X-X@X-X+X@X,X>X%X&X,X:X0X0X!.] { ! ! ! R S.qXqX0X0X<X0X<X0XqX0X0X:X,X9X9X9X7X7X7X5X0X,X-X<X%X+X|.{.",
"x.|.%X&X>X>X>X;X,X9X9X9X,X,X>X-X=X@X@X>X7X7X,X&X-X>X:X0XG.! ! ! ! Q ;.5X9X0X<X>X<X0X<X0XqX0X8X0X0X7X9X;X0X7XqXqX7X7X:X9X>X%XXX(.",
"/.%X=X&X>X<X,X,X9X9X,X9X;X-X>X>X&X@X@X=X>X:X,X-X&X-X<X$X .! ! ! Q L !.0XqXqX9X>X<X0X0X0X0X0XqX<X9X0X7X0X0XqXwXeXwX8XqXqX0X,X&X|.",
"].%X&X-X>X;X,X,X0X<X,X,X-X-X>X;X-X&X%X@X@X@X>X-X-X>X9XP.{ ! ! ! U S.,X5X0X0X0X<X0X0X0X0X0X0X<X0X9X8XqX8XwXqX7X7XeXqXqXqX7X,X&X|.",
"[.|.%X-X>X;X7X9X9X0X<X0X,X>X9X;X>X-X-X@X@X+X@X-X-X;X0X3.~ ~ [ G m.0X9X9X0X9X9X@X;X0X7X0X<X9X9X7X7XqX7XqXwX8X7X8XwX0XqXqX0X0X-X&X",
"/.}.|.-X,X,XqX0XqX7X,X;X0X:X9X7X;X-X-X-X-X&X&X-X&X<X9X:.E ! G J ,.3.P.!.;X0X;X>X;X9X0X0X,X:X,X-X7X0X7XqXwX7X8X0XqXqX8X8X8X0X7X=X",
"].}.&X,X<X<X0X0X7X9X7X0X0X7X<X>X,X,X;X-X;X;X;X5X,X;XE.P Q ! ~ ! } } ! _ 1.E.-X-X>X7X0X9X>XqX9X,X,X7XqXwXwXwX8XqX8X8XqX8X0XqX9X=X",
"/.}.&X;X<X;X0X<X-X7XqXqX0X8XqX7X,X;X-X,X;X,X5X5X<XOX>.! ~ ~ ! ! ! ! ! ! ! ` 3.oX:X0X;X0X7X7X0X;X,X9X7X8X8X8XqXwXwXqXqX8X0X7X;X-X",
"j.].+X>X<X,X0X;X;XqXeX8XqXqX9X<X<X;X,X,X0X6X0XqXwX3.{ ! ! ! ! ! ! ! ! ! ! ! ~ ,.!.7X:X7X,X9X,X;X;X;X9X7X0X8XqXqXwXwXqX8X8X:X-X@X",
"h.z.|.@X&X-X:X>X,X0X0XqXqX8XqX9X<X,X9X,X7X7X0X0X2X..! ! ~ ~ ! ! ! } ! ! ! ! ! ~ ,.$X7X7X9X0X7X,X;X,X;X7X9XqX8XwXqXqXqX7X:X,X>X@X",
"i.z.}.%X%X-X<X>X,X9X0X9X;XqXqX9X>X&X,X;X9XqXqXqXG.! J : =.) ! ! } ! } ! ! ! ! ! Q -.F.$X;XqX0X-X-X9X;X;X;XqX7XqXqXqX8X:X>X&X&X@X",
"h.'.}.%X%X-X>X:X<X0X0X-X,X0X0X0X<XQ.D.T.5X0X8X3X..{ & $ 1Xj ! ! ! ! ! ! ! ! ! ! ~ Q | 1.!.9X9X-X-X,X,X-X-X8XqX0X8X8X:X;X,X-X&X&X",
"u.z.}.+X%X>X-X>X:X>X-X:X7X0X:X,XS./ | _ G.;X5XL.} Q @   O j ! ! ! ! ! ! ! ! ! ! ! E ) ~  .D.$X-X,X>X&X&X,X7X0X0X7X,X;X>X&X%X%X%X",
"g.z.|.|.*X=X%X-X%X:X&X-X8X:X:XoX>.~ ! ! | J.U.e r [ H : a { ! ! ! ! ! ! ~ ~ E ! ! Q K ! ~ | A.-X:X7X;X-X,X0X0X:X:X,X-X&X=X|.}.{.",
"l.'.|.].|.|.}.=X&X%X>X>X;X0X7X;X:.! ! ! { _ e 7 6 w Q ~ ! ! ! { H E ! ! R $.B.a ~ ) G ~ ~ ! Q C.;X7X7X;X-X7X0X0X:X9X-X%X&X%X+X|.",
"g.j.'.}.|.|.|.=X>X&X&X-X-X7X0X7X:.! ! ! { { v 8 6 5 ) ~ [ ( ~ { ~ ~ ! ~ s , c.+ { :.*.W ! ! ! [ S.;X;X>X>X9X0XqXqX7X>X>X>X-X+XXX",
"p.p.}.].|.|.|.|.-X%X=X=X>X:X0X:X,.Q ! ! ! ! Q w 6 q E ! } ; 9 = s ~ ~ ~ H .   - [ J.1XL { ! { ! | E.:X,X0X:X<X0X0X>X;X:X-X-X%X%X",
"q.t.'.'.|.+X].|.&X|.%X&X-X7X0X7X1.! ! ! ! ! ! Y 5 l Q ! ' * % % % 9 F Q ~ H a ) _ 2X9XB.) ! ! } ~ <.$X:X:X:X:X0X:X<X;X&X|.&X%X@X",
"r.r.z.'.}.+X].}.|.%X|.&X>X7XqX8X2.{ ! ! ! ! ! Q F [ ~ ~ ` 3 4 2 1 = ) Q ~ J k v  .OXqX0Xb.( } } } [ G.-X>X<X<XqX0X<X-X|.|.&X|.+X",
"t.j.g.f.].|.}.].}.-X&X>X-X7X0X0XJ.Q ! ! ! ! ! ! K [ ~ ~ ) y i y 4 h ~ ~ A 8 6 8 t OX3XOXoX#.; a d H f Y.&X<X0X0X<X>X%X%X}.|.|.|.",
"d.z.l.d.z.|.}.}.|.-X>X,X;X7X7X;XD.` ! ! ! ! ! ~ ) ( ! ! ' u i i r _ ! [ q 7 7 7 q :.>.>.>.>.g +       4.-X-X,X,X;X=X|.[.}.}.}.'.",
"g.i.z.].'.+X|.&X&X;X;X<X0X7XqX:X3XG { ! ! ! ! ! Q K ! ! { p i p T { ~ Q q 7 7 7 r ~ ~ ! ! ! ! ( 0 +   $ XX>X;X;X>X@X+X}.].}.|.z.",
"i.g.l.'.].+X|.+X&X9X;X9X0XqXeX0X9X%.W ! ! ! ! ! ! ~ ! ! ! T D T { ! ! ! B 8 6 5 M ~ ! ! ! ! ! ! ~ ) o.5..X>X;X9X,X%X+X+X}.}.}.p.",
"d.d.h.j.'.*X&X&X&X-X9X0XqXqX8X0X6XD.b ! ~ ! ! ! ! ! ! W ! { ~ ~ ! ! ! ! E D h j B R ! ~ ! ! ! ! ~ [ 1X>X;X-X;X9X,X&X%X%X%X*X}.'.",
"j.f.z.]./.|.-X@X=X-X;X7X0X0X0X:X0X5X*.N ! ! ! ! ! ! ! n M E ! ~ ! Q K H J ) ~ Q ( V M ~ ! ! ! ! ~ 2.:X;X:X,X-X,X7X,X&X%X+X+X}.'.",
"d.'.}.}./.{.%X@X&X>X,X;X0XqX0X9X5X6XB.c ~ ! ! ! ! ! ! E z l z n E ! { ! ! ! ! ! ! ! H G Q ! ! ~ | !.-X;X;X;X-X-X0X>X&X|.%X X].l.",
"h.'.'.].{.|.&X-X>X,X7X7XqXqXqX7X;X5X$X*.n ! ! ! ! ! ! ! E M R ! ~ ~ ! ! ! ! ! ! ! ~ ~ J C Q ~ ~ G.>X=X-X&X@X-X9X;X,X&X+X%X{.f.s.",
"r.a.f.].+X&X;X,X>X>X:X7XqX0X0XqX7X7X;Xv.z R ! ! ! ! ! ! ! ! ! ! ! ! ! ! ! ! ! ! ~ ~ ~ ~ J l E ..oX=X-X=X@X+X;XqX;X&X@X|.|.(.f.z.",
"t.q.l.}.+X@X>X;X>X;X,X0XqXqX8X7X7XwX7X;.m Q ! ! ! ! } ! ! ! ! ! ~ ! ! ! ! ! ! ! ! ! ! ! ! F S S.-X,X-X&X-X-X@X5X9X&X-X|./.].'.f.",
"e.p.}.+X-X-X>X>X;X,X9XqXqXqXqX8X7XqX$X,.~ ~ ! { ! } ! } ! ! } ! ! ! ! ! ~ ) Q ! ! ! ! ! ! { n.-X,X;X-X&X>X,X>X-X;X&X&X X{.].].d.",
"e.k.}.|.@X@X-X-X-X@X;X0XqXqXqXqX0X7X$X_ { ! ! ! } ! } ! } ! ! } ! ! ! ! ! F m Q ! ~ ! ! ! ! 3.,X7X;X,X-X>X-X&X@X+X@X@X|.[.z.l.a.",
"h.a.{.}.+X+X+X-X-X@X>X;XqXqXwX0X7X0XF.Q ! ! ! ! ! } ! } ! } } ! ! ! ! ! ! F l v N W ! ! { _ R.9X0X;X>X,X-X-X@X@X@X+X+X X[.z.j.t.",
"_._.~.].{. X@X@X-X&X;X;X8XqX8X7X7X9X3.{ ! ! ! ! ! } ! ! ! } ! } ! } ! ! ! F B h h =.=.-.,.K.6X,X0X<X;X>X&X-X&X&X-X+X*X+X].z.d.u.",
"a.k.~.{.{.+X X X&X-X-X6XwXqXqXqXqX6X .! { ! ! { } ! } ! } ! } ! } ! ! ! ~ F l l %.$X5X5X6XwXqX0X9X9X<X;X-X-X-X-X-X|.}.}._.f.u.w.",
"^.`.{. X+X X X+X-X;X;X0XqX7X8XwXqXP.~ { ! ! ! } ! } } ! ! ! } ! ! } ! ! ! T C l v.9X6X0X8XqX8X0X7X7X,X>X-X+X@X-X&X@X+X|.}.'.i.u.",
"_.z.`.+X).{.+X@X&X9X;X7X7XwXqX7X7X1.! ! ! ! } ! ! } ! } ! } ! } } ! ! ! ~ ` B m.5X0X0X0X5XwX0X$X;X:X:X>X-X&X%X&X-X+X%X|.}.z.u.w.",
"~.`. X{.{.].+X-X$X9X,X0XwXqXwX0X3X| { ! ! { ! ! } ! ! } } ! } ! ! ! ! ! ! Q D.9X7X7XqX0X;X8X7X9X9X0X,X7X9X-X=X&X-X@X%X%X}./.j.u.",
"{.+X+X`.^.{.+X@X,X5X6XqXwXwXwXwXL.{ ! ! ! ! { ! ! } } ! ! ! ! } ! ! ! ! ! ! K.0X8XqXqX8XqX8X7X0X7X7X,X0X7X,X,X>X;X&X&X%X|.].d.g.",
"{.`.|.^.^.{.+X+X;X9X0X0XwXwXwXwX2.{ ! ! ! ! { ! } ! ! ! ! ! ! ! } ! ! ! ! ~ 3.5XwXwXqX8X8XwX8X8X9XqX9X,X7X;X;X,X;X;X&X&X|.].h.g.",
"{.].`.{.t.y.+X+X@X9XqX,X9X8XqX8X2.! ! ! ! ! ! ! ! ! ! ! ! ! ! ! ! ! ! ! ! ! :.0XwX8XqXwXqXqX8X7X0X7X7X;X9X,X;X>X,X,X;X+X}.].i.9.",
"].~.z.z.y._.{.}.-X;X;X,X0XqX8X0XJ.` ! { ! ! ! ~ ! ! { { ! ! ! ! ! ! ! ! ! ! _ $XwXwXwXwXqXqX9X9X7X8X8X0X0X;X,X&X&X&X&X+X|.'.l.i.",
"f.s.a.a.a.z.f.]. X+X+X>X0XqX0X8XOXD n M M M M M M M M M N R R E ~ { ! ! { [ I 5XwXwXwX8X8X9X,X9X0X0X0X0X0X5X,X@X%X+X&X%X}.d.a.i.",
"_._.k._.j.t.].^.^.{.@X,X9XqX9X-X-XD.B l x x x x l Z x Z x Z x x c b b n b b m.,X7X9X5X7X7X;X,X-X9X0X0XqX0X9X@X@X-X@X%X+X].j.r.u.",
"_.f._._.a.d.].}._.~. X-X;X,X;X@XQ.&.B l l l B S S S S D C Z Z Z x x x x Z b.XX&X-X-X;X9X;X;X,X,X;X9X7X0X0X9X+X@X&X@X&X+X].d.w.w.",
"_.s.z.d._.].].`.{. X+X=X-X>X&XV.@.Q m z A C X.T.Q.!.oX!.W.V.B.m.X.B C Z B B.+X@X&X>X:X:X<X>X=X-X>X:X;X0X0X:X=X&X@X}.%X}.f.z.u.9.",
"s.t.]./.l.h.`.]. X X@X>X=X-XQ.o.P _ / +.v.I.).%X@X@X;X,X;X;X;X;XT.O.Z x x G &.).|.-X;X<X:X>X-X-X=X=X&X;X>X>X&X+X|.}.|.}.z.p.0.7.",
"j.i.'.d.y.0._.'.].{.@X+X}.%XXXI.D.Q.XXXX|.{.].}.+X@X,X,X-X>X;X,XOX).V.O.G Q ) $./.|.>X-X:X<X>X&X%X%X&X=X>X>X|.[.|.}.%X%X[.l.9.7.",
"i.r.z.s.z.a._.z.].^._.].].XX|.|.+X+X&X}.].z.].[. X@X@X>X@X-X;X,X@X@X@XXXW.Z.@.o.N.}.%X%X-X>X>X=X-X=X&XXX&X&X|.[.|.}.|.|.d.z.w.0.",
"t.r.a.l.a.]._.~.`.y.y.f.].{.}.}.}. X}.~.j.h._.z.{.|.#X>X@X>X>X@X@X>XXX).^.{./.f.}.[.].}.%X|.|.+X+X&X|.|.%X#X}.}.}./.[.}.g.d.q.7.",
"i.r.i.r.i.j.f.].^.~.~.a.a./.'.x.'.z.a.g.j.i.z.j._.].{.].`. X X+X X). X~.t.t.~.f.j.d.x.].'.].'.'.(.}.].(.].~.].].'.f.w.u.w.w.9.9.",
"w.q.r.r.t.j._.^.~.y.f.y.t.a.j.i.r.r.q.q.r.w.t.w.t.a.j.s.y.k.~.{.`.`.~.y.e.8.e.t.u.w.l.z.g.x.x.z.].'.z.'.'.x.z.z.g.g.u.i.r.9.8.7.",
"w.w.u.w.e.t.k.~.y.y.y.y.t.t.r.w.0.0.q.u.q.0.r.q.e.t.t.a.e.t.y.y._._.y.e.t.e.8.8.u.u.z.x.'.].z.d.'.f.f./.{.].z.z.g.h.g.i.u.q.7.6."
};
