/* XPM */
static char *result[] = {
/* columns rows colors chars-per-pixel */
"64 64 217 2 ",
"   c #020302",
".  c #0A0907",
"X  c #13120D",
"o  c #16191A",
"O  c #28230F",
"+  c #171D21",
"@  c #2E3432",
"#  c #670C0D",
"$  c #7A2C12",
"%  c #534714",
"&  c #685A17",
"*  c #2F3D43",
"=  c #6B7476",
"-  c #821D09",
";  c #941524",
":  c #A02C2A",
">  c #D83817",
",  c #E92D15",
"<  c #F52C13",
"1  c #E33216",
"2  c #D93B25",
"3  c #925A18",
"4  c #A54F1B",
"5  c #AF6C1B",
"6  c #A44029",
"7  c #B77923",
"8  c #BD7F24",
"9  c #CB501B",
"0  c #C7601D",
"q  c #CD7B21",
"w  c #C6773B",
"e  c #C93443",
"r  c #8B655E",
"t  c #A87264",
"y  c #CA5F4C",
"u  c #E7555E",
"i  c #ED5561",
"p  c #B1911E",
"a  c #9B8720",
"s  c #BB8623",
"d  c #B89827",
"f  c #AC8F34",
"g  c #BEA22D",
"h  c #BAA334",
"j  c #DD971F",
"k  c #E1961F",
"l  c #E19C1E",
"z  c #C9AE1F",
"x  c #DDA81F",
"c  c #E6A81E",
"v  c #EBB31F",
"b  c #EDBB1F",
"n  c #F0BE1E",
"m  c #C88622",
"M  c #D38E23",
"N  c #DC9623",
"B  c #D69628",
"V  c #C68B34",
"C  c #D0853B",
"Z  c #C9933A",
"A  c #D29933",
"S  c #E19620",
"D  c #E29923",
"F  c #C2A523",
"G  c #CBAB29",
"H  c #DAA824",
"J  c #CDB225",
"K  c #D6B726",
"L  c #DBBC24",
"P  c #D1AA36",
"I  c #D6B938",
"U  c #E2AB23",
"Y  c #E2A827",
"T  c #E6BA24",
"R  c #F0BD20",
"E  c #F2C41E",
"W  c #F5CB1E",
"Q  c #F6D41E",
"!  c #F9D51D",
"~  c #FAD91F",
"^  c #DFC124",
"/  c #DCC434",
"(  c #DAC43D",
")  c #DBC63C",
"_  c #E3C323",
"`  c #E9C527",
"'  c #ECCC23",
"]  c #EBCD2A",
"[  c #F3C521",
"{  c #F2CD21",
"}  c #F5D322",
"|  c #F9D520",
" . c #FAD921",
".. c #E2C834",
"X. c #B28743",
"o. c #BA9858",
"O. c #B6AA57",
"+. c #B09A63",
"@. c #B39E70",
"#. c #B9AC6E",
"$. c #C79746",
"%. c #C49E58",
"&. c #CDB74F",
"*. c #C9BE59",
"=. c #C8BF65",
"-. c #C0B77A",
";. c #DDC844",
":. c #C7C25A",
">. c #D6C957",
",. c #E0CA46",
"<. c #CBC468",
"1. c #D3C96B",
"2. c #C8C575",
"3. c #C5C47B",
"4. c #6E888D",
"5. c #6A92A4",
"6. c #71B8D8",
"7. c #439EE2",
"8. c #4BAAE7",
"9. c #54ACE7",
"0. c #55B2E7",
"q. c #55B2E9",
"w. c #5AB5E9",
"e. c #5EBAEC",
"r. c #62B6EA",
"t. c #63BCED",
"y. c #6ABEED",
"u. c #71BEED",
"i. c #7FC0D6",
"p. c #66C1EE",
"a. c #6CC3EE",
"s. c #6FC8EE",
"d. c #73C5ED",
"f. c #7AC5EB",
"g. c #74C9EE",
"h. c #7CCBEE",
"j. c #6BC6F1",
"k. c #6DC4F1",
"l. c #73C6F1",
"z. c #78C6F0",
"x. c #75CAF1",
"c. c #7CCDF1",
"v. c #7FD0F1",
"b. c #938382",
"n. c #97B290",
"m. c #B6AB8C",
"M. c #B9B78E",
"N. c #B4B998",
"B. c #989DA4",
"V. c #94B8B4",
"C. c #ADB7AD",
"Z. c #BBC38E",
"A. c #B9C69C",
"S. c #9AC5BF",
"D. c #A1C0A6",
"F. c #B7C7A8",
"G. c #BCCCAC",
"H. c #ADC6B7",
"J. c #B8CABC",
"K. c #C2CB88",
"L. c #C1C792",
"P. c #C4C5B6",
"I. c #96B9C3",
"U. c #BEBFC0",
"Y. c #8FC5D0",
"T. c #96CBD6",
"R. c #ABC8C6",
"E. c #B5CBC4",
"W. c #BCD4C8",
"Q. c #A8CFD5",
"!. c #B1C8D3",
"~. c #B8D6D9",
"^. c #83CDEE",
"/. c #89CFED",
"(. c #96CDE4",
"). c #84D1EE",
"_. c #8CD2EC",
"`. c #94D4ED",
"'. c #9DD6E9",
"]. c #82CEF1",
"[. c #84D1F2",
"{. c #8BD4F2",
"}. c #8FD8F3",
"|. c #93D6F3",
" X c #95D9F4",
".X c #9CDBF4",
"XX c #A2D5E9",
"oX c #AAD7E8",
"OX c #B6DDE8",
"+X c #A3DEF5",
"@X c #AADEF5",
"#X c #A3DFF9",
"$X c #BCE1ED",
"%X c #A5E0F5",
"&X c #ACE2F6",
"*X c #A6E1F8",
"=X c #ACE2F8",
"-X c #B4E4F6",
";X c #BBE6F6",
":X c #BDE8F7",
">X c #B4E5F8",
",X c #BBE6F8",
"<X c #BDE8F9",
"1X c #C7D4D0",
"2X c #C2DFE9",
"3X c #C3E3ED",
"4X c #C8E3EA",
"5X c #C2E6F5",
"6X c #CAE7F5",
"7X c #C4E9F7",
"8X c #CAEBF6",
"9X c #C1E7F8",
"0X c #C4EAF9",
"qX c #CBECF9",
"wX c #D0ECF7",
"eX c #D1EDFA",
"rX c #D1F0FB",
/* pixels */
"s.x.x.j.p.p.j.p.j.x.v.v.x.v.c.v.v.x.v.x.v.s.v.v.x.v.g.g.{.v.v.v.v.[.}..X`.}.|.|. X X X}.[. X.X|..X|.|. X.X/.)./.[.).].[.}.}.].[.",
"l.l.k.k.x.x.c.x.[.{.}.[.v.c.c.[.).}.v.v.}.%X}.}. X X}.). X Xv.v.}..X.X*X+X%X+X+X&X*X@X%X.X=X&X*X%X%X+X%X%X%X#X|.}.[.].}.|.c.z.c.",
"s.j.x.d.[.}.{.[.}.}..X.X.X.X X.X.X.X.X)..X=X.X X.X.X+X.X=X*X.X.X*X&X&X%X@X&X%X-X>X>XQ.&X>X>X-X>X-X-X&X+X%X%X&X X X|. X|.c.t.k.x.",
"l.a.k.x.[.}.}.|..X.X.X X X.X.X=X*X X%X>X&X*X>X%X*X&X%X%X%X*X&X>X&X>X,X&X;X0X-X;XI.@ 4.:X0X0X:X,X:X:X-X-X*X+X%X%X#X{..X Xz.s.a.y.",
"g.l.g.v.v.v.}..X%X%X.X X.X*X*X%X.X.X*X.X&X-X%X&X&X%X%X&X-X&X&X&X,X0X>X<X0X7X;X= X   T.<X<XqX:XqX0X0X0X,X,X%X%X-X%X.X%X%X[.g.j.y.",
"k.x.x.{.[.{..X.X}. X%X%X.X=X>X.X X&X%X X&X>X>X&X,X>X=X%X>X,X&X&X0XqX:XqX8X$X=.&   @ 5XqX<X0XqXqX0X8XqX0X0X-X>X,X,X%X&X.X}.s.a.k.",
"k.z.[.x.[..X#X&X&X%X.X%X%X%X=X%X%X%X.X.X%X>X>X&X>X-X>X:X,X-X>X>XrXqXqX0X3X:.' d   4.0XrXqXrXrXqX0X8XqX0X0X0X0X<X<X&X&X=X.X].x.d.",
"x.z.}.v.}..X.X%X&X@X%X%X&X%X%X*X*X%X%X%X%X>X>X,X,X-X<X0X,X:X<X<XqXqX:X$X2.~ ~ z o $X:X<X0X0X0XqX0X0X0X0X<X,X:X0X0X>X=X%X*X}.v.c.",
"v.{. X[.[.].+X&X-X&X@X-X,X=X=X+X.X+X.X+X%X-X>X>X:X<X0X0X<XrXqXqXqXqX7XZ.} ~ Q K = ;X0X:X0XqXqX0X<XqX0X:X9X7X-X;XqX:X%X&X%X}.}.[.",
"{. X X.X.X).#X=X>X-X>X>X:X:X>X=X+X X.X+X&X-X,X>X:X:XqX0X0XqXqXqXqX8XJ.} ~ ! ! ( oX0XqX<X:X<X<X<X,X0X0X0X9X;X;X:XqX0X-X,X%X X{.).",
"[..X.X&X&X>X%X+X>X;X,X:X;X>X;X;X-X.X X&X-X,X,X<X:X:X0XqXqXqXqX0XqX4X;.~ ! ! Q A.qXqX<X<X0XqX7X<X>X9X9X9X;X<X0X5X:X,X-X>X=X|.).{.",
"{.*X&X&X>X-X-X-X<X7X0X:X-X;X;X&X-X&X.X&X-X,X>X-X<X<X0X0X0XqXqX0XqX3.Q ~ ! ~ :.5X0XqX<X<XqXqXqX7X>XqX9X9X:X;XqX7XqX:X&X:X%X.X[.}.",
"}..X%X*X>X-X>X,X7X>X9X;X-X,X9X=X@X-X+X@X;X;X%X+X:X:X0X0X0XqX0X8XW.] ! Q ~ ] ~.0X<X0X<X0XqX0X7X<X7X<X<X9X7X7X7X:X0X;X&X,X%X.X+X`.",
"c..X%X&X>X>X>X,X;X7X9X9X9X;X>X-X&X@X+X,X0X0X;X-X-X,X<X<X0X8XqX7X:.~ | | { F.<X-X<X0X<X0XqXqXqX7X9X6X9X<X0X0X8XqX7X0X5X7X>X@X.X{.",
"[.+X&X&X,X:X<X,X<X7X,X9X,X>X>X-X-X+X@X&X>X,X;X-X-X&X<X0X7X3X6XJ.} Q ~ } -.7X0X-X<X0X0X0X0XqX0X<X9XqX7X9X8XqXeXrXwXqXqXqX0X-X@X.X",
"{.+X&X-X>X>X,X,X9X<X,X9X-X>X-X,X-X&X&X+X%X@X-X&X-XQ.Z.<.>.;.,.I } Q Q O.6X7X0X,X0X0X0X0X<X0X<X0X5XqXqX0XrX8X0X7XrX8XqXqX8X:X&X+X",
"}..X#X-X-X,X0X0X0X0X:X0X,X>X:X:X>X&X-X@X@X+X@XF.&.{  . .Q Q ! ! ~ Q P ~.0X0X:X&X,X<X0X0X,X0X0X7X7XqX7XqXqX8X0X7XeXqXqXqX7X0X-X&X",
"{. X+X-X;X;X0X0XqX0X;X;X0X:X7X5X;X;X-X-X-XQ.*.} ! !  .| ! ! ! ! Q Q } 3.,X7X:X>X;X0X0X0X,X7X>X>X:XqX6XqXeX8X8XqXqX0X8XqXqX0X0X&X",
"). X&X>X:X,X0XqX0X0X0X7X0X0X:X;X;X-X-X-XE.( } Q ! ! ! ! ! ! ! ! ~ !  .} G.7X,X>X>X0X6X<X>XqX0X>X,X7XqXeXeXqX8XqX8X8XqX8X7X0X0X&X",
"). X-X;X<X,X0X,X-X7XqXqX0X8X6X$XOX~.!.H./ ! ! ! ! ! ! | ! ! ! ! ! _ O.J ) $X0X-X:X0X,X0X<X6X6X>X-X7X5X0X8XeXqXqXeX8X8XqX7X0X;X-X",
"l.{.+X,X<X,X0X,X;X8XwX~.G.3.>.;...' { {  .~ ! ! ! ! ! ! ! ! ! ! ! h C.O ^ A.>X>X:X0X5X0X7X<X<X:X,X;X7X9X0X0XqXeXeXeX8X7XqX<X&X@X",
"k.h..X%X&X-X:X>XOXG.*.'  .| Q ! ! ! ! ! Q Q ! ! ! ! ! ! ! ! ! ! ~ ' O . z / ~.0X0X0X0X0X9X0X7X>X:X:X>X6X6XqXqXqX8X8XrX7X5X,X;X@X",
"a.c. X%X*X*XQ.M...} ! ! Q Q ! ! ! ! ! ! ~ ~ { f >.} ! ! ! ! { F ~ ! L d Q Q t 6X7XOXH.~.,X9X6X-X-X9X;X9X:X0XqXqXqX8X0X0X-X-X&X@X",
"a.[. X%X'.4.X % { ! ! ! ! Q !  .Q | K H ~ ~ & = 1Xa ! ! ! ! W L ! ~ Q Q ~ c < t 4X<.' ( J.<X<X-X-X>X;X-X-X6XqX0X0XqX0X,X>X-X@X&X",
"p.x..X(.* .     % ' ~ ~  . .| / 3.E.#.W !  .O . o & ! !  .| | p p p  .} Q H , 2 &.Q ! ! ..~.:X-X-X;X&X&X-X0X0X0X7X<X-X,X&X%X%X%X",
"j.v..X5.* + + o o @ O.>.1.A.W.OX;X:X3.! ! ! a . X F ! ! _ L 3 # # $  . .Q ' 1 1 R ! ! ! ;.3X:X-X0X5X;X-X<X7X0X<X:X;X>X&X&X.X|. X",
"c.[. X}..X'._.XXoX'.oX-X:X7X0X;X0X:XL.| ~ ! Q ^ _ ! ! ! s # ; ; ; $ ]  .! ! q 9 ' Q ! ! <.7X:X0X;X0X0X,X-X7X0X0X0X0X-X%X&X+X+X.X",
"s.g.].}. X%X.X=X-X&X&X&X-X0X7X0X0X0XJ.| Q ! T x Q ! ! ! { : e e 2 6  .} Q ! ! G  .Q !  .L.0X:X:X,X;X;X-X>X0X0XqX0X0X-X-X-X-X+X+X",
"a.k. X}. X#X.X.X&X&X&X&X-X5X0X<X0X;XoX' Q q , , 9 W ! ! ! V u i i y ~ ! ! Q Q J ! ! ! } W.0X0X<X-X,X,X;X0X:X:X0X0X-X>X:X-X-X%X+X",
"w.y.[.{.#X.X{. X%X%X%X@X-X0X6X:XF.*.3.P _ 1 < < < q ! ! ! T u u i w ~ ! ! ! L { ! ! ! ..5X0X0X<X;X,X:X<X:X<X:X0X0X:X,X-X+X%X%X%X",
"y.t.c.[.|..X}. X.X+X%X&X-X0X8XA.] ~ ~ ' F > < < < 0 ! ! ! ! w u i C ! ! ! Q K Q ! ! | 1.0X0X0X<X0X:X,X-X>X0X<XqX7X:X-X.X.X+X+X@X",
"t.l.a.g.[.+X|.}. X&X%X-XR.Z.<.h ~ Q ! ! Q R 0 , , j Q ! ! ! ' y u H ! ! ! L ' Q }  .} G.qXqX0X0X-X:X-X&X%X<X0X0X<X-X%X%X X.X+X X",
"g.g.x.h.v..X|.`.Y.F.2./ } ! Q F ! ! ! ! ! ! Q m m ! ! ! ! ! ! T V W ! ! ! _ ! ! ! ! ..2X7XqX:X:X>X7X>X&X-X-X7X;X,X@X.X}. X|. X[.",
"s.s.v.).^.D.#.( } Q Q ! Q ! Q T E ! ! ! ! ! ! ! L _ ! ! ! ! ! ! ! ! E Q ! ! ! ! ! ! L.6X0XqX0X,X7X:X5X>X=X;X>X;X,X@X%X|.}. X.Xh.",
"a.6.n.:.` Q ! ! ! ! ! ! ! ! ! Q J ! ! ! ! ! ! ! ~ L _ ! ! ! E n b c c ! ! ! ! W | &.OX6XeX0X0X,X0X:X:X>X=X-X-X9X,X*X+X#X X X Xs.",
"s.n.Q ! ! ! ! ! ! ! ! ! ! ! ! ! K ' ! ! ! ! ! ! Q Q ` ! ! ! W l k l W ! ! ! ! L Y N.0X0X8X0X0X0X7X0X6X>X,X>X;X9X,X=X+X+X*X*X|.[.",
"l.V.' Q ! ! ! ! ! ! ! ~ ! ! ! ! ! J ! ! ! ! ! ! ! ! ! ! ! ! ! W E W ! ! ! ! ! T +.;X5X6X7X0X9X7X6X0X<X,X:X>X>X;X0X;X@X#X%X+X X[.",
"g.i.' ~ ! ! ! ! ~ ~ ! ! ! ! ! ! ! ' L ! ! ! ! ! ! ! ! ! ! ! ! ! ! ! ! ! ! ! ~ ' R.>X:X7X7X0X<X7X<X>X;X;X;X7X-X-X0X-X&X+X%X.X}.g.",
"s.v.( Q ! ! ! ~ ! ! ! ! ! ! ~ ~ E c m x ! ! ! ! ! ! ! ! ! ! ! ~ ! ! ! ! ! ! Q Q G.>X-X;X,X,X0X>X>X>X=X=X@X@X>X;X:X-X-X+X%X|.h.d.",
"r.p.:.Q ! ! ! ! ! ! ! ! ! ! W c S l l G P E ! ! ! ! ! ! ~ ! ! ~ ! ! ~ ! ! ~ ! ! 3.-X-X>X=X-X:X>X>X>X-X=X@X+X;XqX;X-X@X.X X_.h.c.",
"p.w.M.~ Q ~ ~ Q ! ! ! ! W v k D S k v <.W.f Y b ! Q ! ! ! ! ! ~ ! ! ! ~ ! ! ! ! ) -X,X-X>X>X>X>X>X-X-X-X-X-X@X5X7X&X=X.X/.{.].c.",
"r.d.n.Q Q ~ ! Q ~ ~ ! R k S %.@.S j E P.~.U m R } K Q Q ! ! ! ! ! ! ! ! ! ! ! ! | R.&X>X,X,X,X-X,X,X-X&X>X;X>X>X>X@X@X+X|.}.{.l.",
"r.h.Y.Q ! ! ! Q ! E Y B %.J.4X#.S k ..OXG.} n ! ' f g  .! Q ! ! ~ ! ! ~ ! ~ ! ! ~ K.>X,X>X,X<X:X0X:X-X-X-X-X-X+X+X@X@X.X|.c.x.s.",
"s.d.(./ ! ! ! Q T B %.C.6X6X6XV S Y 3.7XL.! ! ! ^ g d ^ ! ! ! ! ! ! ! ! ! ! ! ! ~ ,.$X,X:X>X:X0X0X:X;X,X-X-X+X@X@X+X+X.X}.c.l.y.",
"v.v.v.O.! Q W N o.C.>X<X6XwXE.N D U J.E.t Q ! _ G m N d L ! ! ! ! ! ! ~ ! ! ~ ! ! } W.:X:X7X0X:X0X:X>X>X@X-X&X&X&X+X%X#X{.[.g.p.",
"g.v.).N.! T +.S.@X-X-X0XeXqXM.S S U A N 4 F ! L | s D B K _ ! ! ~ ! ! ! ! ! ! ! ! ~ 1.7XqX8XqX0X0X:X:X:X-X-X-X-X-X+X X X].g.p.e.",
")._.`.S.#.I..X+X-X;X-X7XqX7X%.N S B $.D 3 5 ~ ! c 7 k N G W ! ! ! ! ! ! ~ ! ! ! Q ! ..$XqXqX8X6X6X7X;X>X-X+X@X-X@X@X+X.X X[.p.p.",
"].h._.+X`.`.+X+X@X:X7XqX6X2XV Z m.1Xm.4 3 ! ! E k 8 j S m W Q ! ! ! ! ~ ! ! ! ! ! ! } W.:XeX0X;X>X:X:X-X;X%X%X&X-X@X%X.X}.[.t.e.",
"/.|.|.|.|.{.+X-X;X5X,XqXqX~.C.6X6XqXb.- $ D [ l k M m k m B W Q ! ! ! ! ! ! ! ~ ! ~  .G.:X6X7X5X9X0X,X9X:X-X&X@X-X@X%X%X X[.l.p.",
"|..X+X{.{.|.'.=X;X5X9XqXeXqXeXeXqX6Xr $ r o.S S S k m S M m c [ ! ! ! ~ ! ! ~ W { [ } 1XqXqX6X0X6X7X<X0X0X,X;X>X>X&X=X@X.X{.g.j.",
"{.`..X{./.|.+X+X;X9X6XqXqXeXeXeXqXqXB.!.6X1XA S k S m M S q k k c v v v v c l k j k Y 1XqXqX6XqX9XqX:X:X0X,X:X,X7X-X-X&X.X{.k.j.",
"|.{./.`.y.u.+X+X-X;XqX>X9XqXeXqX6XqX;X-X7XqXP.M S k N 7 S 8 S N k l k k k k S k S S Z 6XqXqXqX0XqX0X9X;X6X>X;X>X;X,X-X+X X{.y.0.",
"{.^.c.c.u.]. X|.-X-X;X;X9XqXqX0X0X6X9X:X8XeX8XJ.$.k S M 7 m S S k k k k k k k k S N N.wXeXqX9X9X6X7X6X0X0X,X,X&X%X&X&X+X.X[.c.k.",
"].u.u.l.d.c.h.{.+X+X+X>XqXqXqX0X7X7X,XqX0X5X0X5X2Xm.$.N S S S S k S S k k k k k k $.4XeX0X5X;X;X9X9XqX0X9X:X:X&X&X+X&X%X Xg.a.a.",
"/.{.z.].l.y.{.]./.|.@X;X7XqX9X-X-X0X>X-X7X>X,X-X9X7XOXE.C.#.$.B D D k k k k S S A E.6X6X0X:X;X-X9X0X9XqX6X9X=X+X-X@X&X+X{.x.t.p.",
"].z.].].u.c.{.|.].].+X&X>X9X;X+X-X-X-X@X-X>X-X,X;X>X>X9X-X5X9X!.m.$.B S N S N Z R.&X,X<X:X;X;X>X,X7XqX9X0X<X.X&X&X@X%X.X{.g.e.e.",
"].f.h.g.].].{./.|.|.#X=X@X>X@X-X;X&X@X%X+X&X&X,X>X;X>X9X>X,X9X9X-X3XU.V M V V.oX&X>X,X,X:X>X>X-X-X:X;X0X0X0X-X&X+X.X%X|.v.v.e.0.",
"z.y.{.^.z.l.{.{..X+X@X>X>X-X@X>X@X&X+X&X.X.X.X%X@X@X;X;X&X;X9X,X>X>X-X+.S Z (..X.X-X:X<X0X-X-X-X&X-X&X<X>X-X%X.X+X X.X Xv.s.w.8.",
"f.a.[.h.k.w.].{.{.|.@X#X X#X@X.X@X+X&X+X.X|.{..X#X@X;X:X-X;X,X;X-X.X@XC.S P T. X}..X>X-X,X0X>X%X.X&X&X&X-X>X.X}..X.X+X*X Xx.0.8.",
"a.t.c.x.z.d.].c.{./.].{.{.#X.X.X+X+X*X|.{.h.[.}. X#X@X>X&X&X-X,X@X@X@XXXX.h Y.{.[..X%X%X&X-X>X=X>X=X&X+X&X%X.X}. X|..X.Xs.v.e.8.",
"y.t.g.x.l.{.].h.{.u.d.z.{.`.|. X X X X^.f.k.].c.|..X+X>X@X>X>X@X@X>XXX(.n.X.Y.c.}.{.}..X+X%X#X#X+X&X.X+X#X+X X.X.X).{. Xj.g.w.8.",
"a.e.p.y.u.l.c.{./.^.^.f.d.{.{.c.[.c.f.j.k.a.c.l.].{.|.|.]..X+X+X.X.X.X^.6.4.f.c.l.g.v.[.v.[.).[.{.|.{.).{.).{.{.[.g.p.p.t.e.0.0.",
"e.w.p.e.y.l./.{.z.z.z.u.u.u.l.y.t.t.e.e.t.t.y.e.t.l.z.f.u.z.^..X/./.^.u.r.9.r.a.p.p.x.c.g.v.v.c.{.[.c.[.[.v.c.v.j.j.p.a.t.0.8.8.",
"e.e.y.e.r.y.z.z.u.u.u.y.k.y.t.e.q.q.q.t.q.q.r.e.r.y.y.d.r.y.u.u.].].u.u.r.r.9.9.t.p.c.v.v.{.z.g.[.c.h.).|.[.v.x.j.a.l.p.p.r.8.7."
};
