/* XPM */
static char *result[] = {
/* columns rows colors chars-per-pixel */
"64 64 204 2 ",
"   c #030707",
".  c #030708",
"X  c #050908",
"o  c #070A08",
"O  c #12140C",
"+  c #15190D",
"@  c #1E1E0E",
"#  c #29250D",
"$  c #302B0E",
"%  c #2B2D1A",
"&  c #2D3317",
"*  c #353A18",
"=  c #2C2F2E",
"-  c #551C11",
";  c #6D1A1A",
":  c #761E19",
">  c #582713",
",  c #413B14",
"<  c #6D2C1A",
"1  c #732717",
"2  c #7A221A",
"3  c #693A18",
"4  c #39411A",
"5  c #72651A",
"6  c #4F492C",
"7  c #4B5322",
"8  c #6C5325",
"9  c #78572B",
"0  c #5B6626",
"q  c #73742D",
"w  c #605E53",
"e  c #852617",
"r  c #812118",
"t  c #871A24",
"y  c #921B25",
"u  c #AD3822",
"i  c #B1302B",
"p  c #DB2D23",
"a  c #CD3324",
"s  c #E42F23",
"d  c #EC2F24",
"f  c #EE3022",
"g  c #85651B",
"h  c #916B1E",
"j  c #887618",
"k  c #81592B",
"l  c #B1502A",
"z  c #8E642A",
"x  c #956925",
"c  c #96792A",
"v  c #847930",
"b  c #B66A22",
"n  c #A77727",
"m  c #A47C2B",
"M  c #B47825",
"N  c #B16C35",
"B  c #CF3B47",
"V  c #D44D55",
"C  c #D94954",
"Z  c #EB525E",
"A  c #ED5360",
"S  c #78862C",
"D  c #768331",
"F  c #A28D1F",
"G  c #B69A1F",
"H  c #BEA41F",
"J  c #88812B",
"K  c #9A8727",
"L  c #898A36",
"P  c #9A8531",
"I  c #958833",
"U  c #8B9236",
"Y  c #9A9D34",
"T  c #959638",
"R  c #9D9B3C",
"E  c #A5842E",
"W  c #AA852E",
"Q  c #BA8421",
"!  c #B4832B",
"~  c #B8872A",
"^  c #BC8C2A",
"/  c #A89927",
"(  c #B59C24",
")  c #B89829",
"_  c #A58D36",
"`  c #B98C30",
"'  c #A39D35",
"]  c #A79A38",
"[  c #B39632",
"{  c #99A537",
"}  c #9DAA36",
"|  c #9EA63D",
" . c #9FB03F",
".. c #ACA22C",
"X. c #AAA52C",
"o. c #B4A326",
"O. c #BCA422",
"+. c #BEAA26",
"@. c #B6AA2B",
"#. c #BBAD29",
"$. c #ABA434",
"%. c #A6AB36",
"&. c #A4AA3C",
"*. c #ABAC3B",
"=. c #B1A532",
"-. c #B6AB36",
";. c #A5B536",
":. c #ACB43C",
">. c #ABBA3E",
",. c #B5B535",
"<. c #C9991F",
"1. c #C5AA1E",
"2. c #D7B81F",
"3. c #E7AC1F",
"4. c #E8B81F",
"5. c #EDBB1E",
"6. c #C48628",
"7. c #C38C2C",
"8. c #CD8D29",
"9. c #D08F29",
"0. c #D49126",
"q. c #DC9626",
"w. c #DC9B27",
"e. c #D29129",
"r. c #DC9629",
"t. c #E19724",
"y. c #E19925",
"u. c #E29A29",
"i. c #C5AE24",
"p. c #CCAA22",
"a. c #C8A827",
"s. c #D5AA24",
"d. c #CDB522",
"f. c #C9B628",
"g. c #D5B222",
"h. c #D4BC23",
"j. c #D4B927",
"k. c #D9BD22",
"l. c #E4A322",
"z. c #E5AB23",
"x. c #E9AD21",
"c. c #EAB320",
"v. c #E6B821",
"b. c #AFC436",
"n. c #AEC23D",
"m. c #B6CA39",
"M. c #BBD435",
"N. c #BDD63B",
"B. c #BFD83D",
"V. c #DDC11E",
"C. c #E4C61E",
"Z. c #ECC41E",
"A. c #EDCD1E",
"S. c #F1C41E",
"D. c #F4CC1D",
"F. c #EED01F",
"G. c #F7D51B",
"H. c #F8D61C",
"J. c #F9D91C",
"K. c #DEC322",
"L. c #C0D93F",
"P. c #E1C522",
"I. c #EDC120",
"U. c #E4C921",
"Y. c #EACC21",
"T. c #EED021",
"R. c #F4D421",
"E. c #F9D921",
"W. c #949541",
"Q. c #928855",
"!. c #9CAD41",
"~. c #A5AA41",
"^. c #AAAC42",
"/. c #A5B241",
"(. c #ABB343",
"). c #ADBB45",
"_. c #B4B645",
"`. c #B1BE46",
"'. c #B3C343",
"]. c #B4C34A",
"[. c #B5C64D",
"{. c #B7C948",
"}. c #BBCD4C",
"|. c #BDD442",
" X c #BFD840",
".X c #BED24B",
"XX c #C2D747",
"oX c #C3DB44",
"OX c #C1D54C",
"+X c #C6DD4B",
"@X c #C8DE4E",
"#X c #C3D551",
"$X c #C6DA52",
"%X c #CADF51",
"&X c #CCDE58",
"*X c #CAE04F",
"=X c #CCE154",
"-X c #CEE259",
";X c #D0E257",
":X c #D1E35B",
">X c #D5E662",
",X c #D9E867",
"<X c #BFC0C0",
"1X c #D8D8D9",
/* pixels */
"+X+X+X=X+X+X+X+X*X%X%X=X=X-X$X=X=X=X=X=X=X-X$X*X*X*X$X*X*X+XoXoX*XoX+X*X+X+X+X-X=X;X:X;X;X:X;X;X=X=X=X*X=X=X=X*X*X%X*X+X+X+X+X+X",
"+X+X*X+X+X*X+X%X%X%X%X%X=X=X=X=X=X=X-X=X=X-X=X=X*X+XoX XoX*XoXoXoX+X+X+X+X+X+X=X=X=X=X=X=X&X=X;X&X=X*X=X=X*X*X=X%X+X+X+X+X+X+X+X",
"+X=X=X%X=X%X=X+X%X%X%X=X=X*X*X*X=X=X&X%X%X=X=X+X X+X X*XoXB. XoX+X+X*X*X+X+X+XoX+XoXoX+XoX+X+X+XoX+X+X+X+X+X+X%X*X+X+X+X+X+X+X+X",
"=X=X+X+X=X+X+X+X%X%X=X=X=X*X*X.X+X+X+X%X=X=X*X+X+X*XoX X XB.*X*X*X+X*X*X+X+X+X+XoXoX+XoX+X@X+X@X*XoXXXoXoX+XXX%X+X+X+X+X*X+X+X+X",
"=X+X*X+X+X+X*X*X=X*X=X=X*X.X*X*X+X%X%X%X-X;X;X%X%X*XXXoXoXoX*X X*X'.{ *X+X+X+X+X*XoXoX*X%X*X+X+X+XoX+XoXB.oX%X=X%X=X=X=X=X=X+X+X",
"-X=X+X+X+X+X+X+X.X*X$X*X*X=X*X=X-X-X-X-X>X>X,X:X*X%X+X+XoX X X XN.* * +X+X+XoXL.oX XoX*X+X%X%X+XoXoXoXB.oXoX+X=X;X=X=X+X%X+X%X+X",
":X-X+X+X+X+X*X=X*X*X*X=X-X=X=X=X=X=X;X&X>X:X>X-X=X*X+X+X*XoXoX XS   * +X+X+X*X+X+X+X+X+X$X*X+X+XoXoX+XoXoX+X=X=X=X%X=X+X=X+X+X+X",
"-X=X+X%X+X+XoXoX+X*X*X=X=X=X=X=X-X=X-X,X:X:X,X;X$X*X+X+X+XoXoXm.+   4 +X+X*X+X+X+X+X+X+X+X*X%X=X+X+X+X+XoX+X*X%X%X%X@X+X+X*X+X+X",
"=X=X+X=X$X*X+X+X+X*X.X=X-X=X-X=X%X-X:X>X-X;X:X&X+X+X+X+XoXoX*Xq     7 oX+X*XoX*X+X*XoX+X=X*X+X-X+X+XoXoXoX X%X%X=X%X&X%X+X%X+XoX",
"-X=X+X*X=X=X=X=X.X*X=X=X=X-X=X=X-X;X:X>X;X%X=X%X+X+X+X+X*X+X X%     0  XB.*X+XoXoX+X XoX+X+X+X*X=X=X+X+X+X+X*X%X%X+X+X+X+X=X%XoX",
"=X=X*X=X=X*X*X%X*X*X*X=X=X=X*X=X=X;X;X;X;X=X=X%X+X+X*X+X+XoX ..   X S oXB.*X*XL.+XoXoXoXoX+X+X%X+X*X+X+X+X+X%X*X%X+X%X%X+X+X+X+X",
"=X=X*X*X=X+X%X+X*X*X*X*X*X=X*X*X*X=X&X%X=X-X-X%X+X+X=X+X+X+X0 X o , } L.M.*XL.*XL.oXB.B. X X+X=X%X=X+X+X+X+X*X=X=X=X=X=X*X+X+XB.",
"=X=X.X*X%X+X+X%X+X*X*X-X%X*X$X*X+X+X%X=X=X:X-X=X=X%X=X+X+XOX@ # d.K.'.oX*XB.B.B.oXL.B.B.*X*X+X*X*X+X+X+X+X%X+X=X+X+X=X+X+XoXXXoX",
"*X*X+X*X*X+X*X+X+X+XXX+X$X*X*XoX+X+X+X+X%X:X=X=X=X%X-X+X+X!., P.G.d.|. X*XL.*XL.B.*XB.B.B.oX*X*X%X%X+X%X+X%X+X-X=X=X%X+X+XoX+XoX",
"*X*X*X X+X+X=X%X+X+X+X+X+X%X*X+X+X+X+X=X;X:X-X-X=X+X=X+X+XY U.G.G.#. XoXB.L.*X*X*X*XB.*XoXoXoXoX=X%X=X*X%X%X%X=X=X%X*XoXoXL.oXoX",
"=X=X=X*X%X*X=X=X=X+X+X+X+X%X*X%X%X+X%X=X:X:X-X-X=X*X=X+X+X#.G.G.G.#. XoXB.B.B.L.oXoXB.B.oX*X*XoX=X-X-X%X%X=X%X%X=X+X+X+X+X+X+XoX",
"=X=X%X+X%X%X-X;X;X+X=X%X+X*X=X%X%X%X=X:X;X;X-X&X-X=X=X XOX+.H.G.H.,.L.L.N.N.L.L.oXoXoX+X=X=X=X+X-X>X:X=X&X=X=X=X=X+X*X$X*X+X%X+X",
"-X-X=X%X=X-X-X;X=X=X+X=X=X=X-X=X;X-X=X=X;X:X=X%X-X>X-X*XOXp.G.G.G.b.L.L.L.L.oXoX+X+X+X+X=X;X=X+X:X>X:X=X%X&X=X=X=X=X=X=X*X*X+X+X",
"-X-X=X+X=X=X=X&X;X+X=X@X*X=X=X=X%X=X%X%X:X;X;X=X-X-X-X+X).s.G.G.T.m.B.oXoXL.L.oXoXoX+X+X=X:X=X*X:X:X:X;X%X=X%X%X=X=X=X*X%X+X+X+X",
"-X-X=X=X=X=X&X=X&X;X%X+X+X=X%X%X%X=X+X=X:X;X=X=X-X=X*X X:.k.G.G.K.N.L.L.L.L.L.oXoXoXoXoX=X;X=X+X%X=X;X-X%X%X%X@X*X*X=X=X+X%X+X+X",
"=X=X=X=X=X=X=X=X=X%X+X+X+X%X%X=X-X=X=X-X:X:X=X=X*X*X*X+X%.v.G.G.#.m.b.b.m.M.N.L.L.oXoXoX*X=X+X+X+X=X=X-X+X%X%X@X*X=X=X*X%X*X+X+X",
"-X&X-X=X-X=X=X=X%X=X%X+X+X%X%X=X-X=X=X-X-X&X+XoX*XB.N.B.} v.G.G.K f.2.k.d.i.#.%.;.N.B.oX+XXX+X*X.X).).(.&.&.*.&.D U !.[.%X$X=X+X",
"=X=X%X=X=X=X%X=X+X*X+XoXL.+X%X%X*X+X+X+X=X+X+XL.*XM.M.M.;.s.G.G.C.G.H.G.G.G.G.G.A.@.} oXXX&.Y / i.K.Y.F.G.G.G.o.o X X O * D .X*X",
"&X=X%X=X+X*X+X+X+X+XoXoXoX+X+X%X+X+XoXoXoXoXoXB.L.B.M.M.;.G G.G.H.G.G.H.G.G.G.G.G.G.A.../ U.J.J.G.G.G.G.G.G.d.@ X X X X X & !.*X",
"=X=X=X%X=X%X+X+X+X+X+X+X+X+X=X+X+XoX>.{ U N.oXB. X XN.N.X.C.G.G.H.G.J.G.G.H.H.G.H.G.G.G.K.G.H.H.H.H.G.G.G.1.@ . X X O 7 !..X=X*X",
"=X=X=X*X%X*X%X%X+X%X+X+X+X+X).} X.+.2.F.@.L.oX XoX XB.b.2.G.G.G.G.H.H.H.H.H.H.H.H.G.G.G.H.g.v.5.x.z.s.w.5 @ % 7 q !..X=X.X=X*X*X",
"=X=X%X+X$X%X%X%X%X+X+X).T / h.F.G.G.J.A.n.oX+X XL.L. X;.A.G.G.G.G.H.G.H.H.H.H.H.H.H.G.G.G.a.K ] =.-.%.~.'.}.$X&X-X=X-X=X*X*XoX+X",
"%X*X%X*X%X+X%X%X].%.X.d.G.H.G.G.G.G.G.h.|.+X*X XoXoXoXX.G.G.a.] +.G.G.H.H.H.H.H.H.H.J.G.H.Y.). XoX+XoX%X%X=X=X%X=X=X-X=X*X*XoX+X",
"%X-X=X=X=XOX| ..h.F.G.G.G.G.G.G.G.G.J.X.T { | +XoXL.N.O.G.V.@ 1Xw K.G.G.H.H.H.G.G.G.G.G.G.E.:.+X+X+XoX+X%X=X=X=X=X;X;X=X*X=X*X*X",
"-X-X=X[.&.@.A.G.G.G.H.G.G.G.G.G.G.D.2.q ( d.o.'.oXoXY A.G.1.o = + V.G.G.G.H.H.G.G.G.G.G.G.R.(.-X=X&X=X=X=X=X;X-X;X;X;X&X=X=X=X=X",
"=X}.T d.G.G.G.G.G.G.G.H.G.G.H.5.w.z.c T.F.G.G.i.Y N.$.H F.G.5 # F G.G.G.G.G.G.H.R.( Q.O.G.U.`.:X;X&X=X%X+X=X&X=X;X;X;X&X-X;X-X=X",
"(.#.R.G.G.G.G.G.G.J.G.G.G.S.l.y.y.4.J V.G.G.G.G.K.J u p u 2.J.J.G.G.G.G.G.G J.G.Y.6 <X% R.+.&X>X:X;X;X%X=X*X=X&X-X;X=X=X=X-X-X-X",
":.F.G.G.G.H.H.H.H.G.H.G.5.y.y.y.y.v.:.O.G.G.G.G.G.Q s f f M G.G.G.2.J.J.J.R.H.H.A.$ o # G.$.;X;X;X;X=X&X*X*X%X=X-X=X=X=X=X=X=X=X",
"].C.G.G.G.H.H.G.G.H.D.3.t.t.y.y.y.g.'...H.H.G.H.G.<.p f f b H.G.G.F 3 3 > 3 2.H.G.2.j 2.G.*.%X=X-X&X=X;X*X*X+X*X=X+X+X=X=X=X%X%X",
"#Xf.G.G.G.H.G.G.G.D.l.y.q.y.y.y.t.a.OX*.H.G.H.H.G.4.a f p <.G.G.G.K t y y ; - g 1.D.H.H.Y.(.%X&X&X-X=X+X*XoXB.*X+XoX+X+X+X=X+X+X",
"&X,.J.G.G.G.G.G.D.l.y.q.7.n y.y.u.] %X_.Z.G.H.H.G.G.h l Q G.G.G.G.M B B B i t g G.H.H.2.u I %XOX}.}.`.+XoXoXB.B. X XoXoX%X+X+X%X",
"%X).U.H.H.H.H.D.y.y.8.P '.m y.y.u.T =XOXa.H.H.G.G.G.V.i.G.G.G.G.G.` A A Z A i k.G.G.A.u d z #.f.h.f./ L  XoXoXoXoXL.L.+X+X+XoX+X",
"+X%Xo.H.H.H.D.y.q.! &.*X{.! y.y.7.].%X#XK 5.H.G.G.G.G.o.D.G.G.G.G.) A A Z C ` E.G.G.p.p a g.G.G.G.G.A...{.oXB.oX+XL.oX+X+X+X+X+X",
"+X*XY G.H.D.l.e.P .X=X+X>.e.y.y.m +X~.W n q.G.G.G.G.G.C.H G.G.G.G.d.V A Z N E.H.G.G.s.i Q G.G.H.G.G.G.K  XoXN. XL.L.oXoXoXoX+X+X",
"%X*X).h.D.l.7.R %X*X=X+X*.r.y.y.n W 8.y.y.h 3.G.G.G.G.G.A.G.G.G.G.F.l V N A.G.G.G.D.1.( E.H.G.G.G.G.d.U +XoXB.B.L.L.L.oXoXoX+X+X",
"=X=X%X$.x.! ).@X%X+X+X+X$.u.t.r.y.u.t.y.e.v q.S.G.G.G.H.G.H.G.D.H.G.C.g.G.G.G.G.C.( K.H.G.G.G.H.G.d.;.+X+X*XoXoXL.L.oXoX*X*XL.oX",
"-X=X=X/.E `.+X+X+XoX+X+X[ u.y.t.y.q.u.t.m XX[ l.G.G.G.G.H.G.G.5.l.x.5.S.S.D.G.A.2.H.G.G.G.G.G.G.f.).+X=X-X=XoXoXL.L.L.L.L.oXoXoX",
"=X-X=X+X}.@X+X%X+X+X+X|.` t.y.r.W c r.r.'  X;.M D.H.H.H.H.G.H.G.3.t.t.t.3.S.G.G.G.G.G.G.J.G.Y...].+X+X-X=X*XoXL.M.M.L.L.*XL.oX*X",
"=X=X=XXX+XoX+X+X+X+XoX|.^ r.~ Y  Xx 6.M ].{.J s.G.G.H.H.H.H.G.G.H.D.S.D.G.G.G.G.G.G.D.S.x.7.Y %X%X+X+X*X+X+XoXB.M.L.L.L.B.L.L.L.",
"=X@X+X+X+XoX+X+X%XoX+X'.n R }.%X.X< e 3 9 3 c H.G.H.H.H.H.H.H.H.H.G.H.G.G.G.G.G.G.H r.! ] '.+X%X=X+X+X%X+X*XoXoXN.L.L.oXL.B.L.L.",
"@X+XoXoX+X+X@X+X%X+XXX{.).%X+X%X(.: r r 2 1 2.G.H.H.H.H.H.H.H.H.G.G.H.H.G.G.G.G.F.K ^.#X+X=X+X*X=X=X+X%X+XoX*XB.L.oXoXoX*XL.*XL.",
"@X+XoXoX+X@X+X@X%X+X+X+X%X+X*X+XT 2 r : ; h H.H.H.H.H.H.H.H.H.H.H.H.H.H.G.H.H.J.K.].:X;X&X+X+X+X%X+X+X=X+XoX*XoX+XoX*XoX*XL.B.L.",
"@X@X+X+X+X+X@X;X=X+X=X+X%X%X*X*Xv 2 8 Y 8 C.G.H.H.H.H.H.H.H.H.H.H.H.H.H.H.H.H.G.K.}.-X-X=X=X+X+X+X+XoX+XoXoX+X*XoXoXoXoX*XL.B.*X",
"=X%X@X@X%X=X=X-X-X%X=X+X+X*X+X+XU ^.%X{.o.G.G.G.H.H.H.H.H.H.H.H.H.H.H.H.H.H.H.G.K.{.=X=X&X=X+X+X%X%X+X+X+X$X*X+X+X+X%X*X+X+XoXoX",
"=X%X@X@X=X=X=X=X=X&X%X+X+X+X%X+X+X%X%X&.F.G.G.G.H.H.H.H.H.H.H.H.H.H.H.H.H.H.H.G.A.:.=X+X+X=X+X+X+X%X+X=X=X*X*X=X+X+X*X+X+X XoXoX",
"%X;X@X+X+X=X=X=X-X=X%X+X+X+X+X%X=X*X).K.G.G.H.H.H.H.H.H.H.H.H.H.H.H.H.H.H.H.H.G.G.K.(.*X+X%X%X+X+X+X+X=X-X=X%X%XoXoX+X+X+XoX+XoX",
"&X=X=X@X%X-X&X=X=X=X+X%X=X+X+X%X*X*X-.J.G.G.G.G.H.H.H.H.H.H.H.G.H.H.H.H.H.H.G.G.G.G.j.}.%X=X%X+X+X+X=X:X>X-X*X%X+XoX+X+X+X*X*X*X",
"=X;X=X+X=X-X-X-X=X=X%X+X+X*X%X%X%XOXj.G.G.G.H.H.J.G.G.H.G.G.G.G.H.G.G.G.G.G.G.G.G.G.G.%.%X%X+X+X=X+X-X>X,X-X-X&X+XoX+X+X+X+X*X*X",
"=X=X=X+X*X=X=X=X%X=X=X%X=X=X=X=X%XXXK.D.D.G.H.H.G.G.G.G.G.G.G.G.H.H.G.H.H.H.G.G.G.G.G.( &X%X%X%X=X=X-X-X,X-X=X%X+XoX+X+X+X+X+X+X",
"=X=X%X+X+X*X%X=X-X-X=X%X=X-X-X%X+XOXj.y.y.l.z.c.D.G.H.G.G.H.G.D.S.3.4.4.5.5.S.H.H.H.G.f.%X%X@X=X=X=X-X>X,X-X-X%X+XoX+X+XoXoX+XoX",
"%X=X=X+X+X+X=X+X%X=X%X%X=X=X=X-X=X%X] t.y.t.t.t.t.q.l.l.l.l.t.t.y.t.t.t.y.y.y.y.c.D.G.o.=X=X@X=X=X>X:X>X,X>X-X=X+X+X+X%X%X=X+X+X",
"*X*X*XoXoX+X+X+X%X=X%X%X=X-X:X-X&X&X#Xx r.y.t.t.y.q.t.y.u.u.u.t.u.y.t.t.t.t.t.t.t.y.I.*.=X*X+X=X-X:X:X:X,X:X=X=X=X=X%X*X%X+X*X+X",
"+X+X*X XoXoX*X*X+X=X%X*X=X-X:X:X&X`.m 8.0.8.6.6.e.8.~ W E I I 0 9 z 9.t.u.t.t.u.t.u.! ].=X+X@X=X=X=X-X:X>X-X+X%X*X*X+X%XXX+XoX+X",
"*X%X*X+XoX*XoXoX+X+X+X+X+X=X=X&XW.z 6.y.y.9.x L `.`.].$X&X%X=X=X}.'._.-.W n M t.u.r.M m U XX+X@X=X=X;X:X:X:X=X&X=X*X*X*X+X XoXoX",
"%X*X=XoXB. X*XB.oX+X XoXoX+X=XW.9 x 7.` P !.$X=X+X=X&X=X%X$X+X+X*X=X%X=X&XW._ ` 7.8.e.6.k 6 }.+X=X=X=X:X:X:X;X-X-X*X%X+X+X+XoXoX",
"%X%X%XoXL.*XoX*XoX XoXoXL.oX*X].T ~.].#X+X*X%X%X+X%X*X=X=X=X+X%X=X-X=X=X%X%X&X%X.X].).*.] L }.+X*X=X-X-X:X:X%X=X=X=X=X=X=X=X+X*X",
"+X%X=X+XB.*XB.B.*X*XL.oXoXoX+X+X=X*X%X%X*X$X+X%X%X%X%X=X=X%X+X=X-X=X=X=X=X%X%X+X+X*X%X+XXX+X+X%X+X+X;X=X;X;X%X=X:X=X%X=X=X=X=X=X",
"+X*X=X%XoXB.M.B.B.B. XoXoX+X+X*X*X=X=X*X=X=X*X*X+X*X+X=X=X%X+X+X+X&X=X*X+X+X+X%X+X=X+X+X+X+X+X+X+X+X=X=X=X;X+X=X:X=X+X+X+X*X=X=X",
"+XXX+X+XoXB.*XB.*X X+XoX+XoXoX+X*X*X$X$X%X%X$X+X*X$X+X=X=X+X+X+X+X*X=X=X=X=X%X+X*X=X+XoXoXoXoXoXoX+X;X;X=X-X=X=X:X%X+X=X+X=X*X+X"
};
