/* XPM */
static char *result[] = {
/* columns rows colors chars-per-pixel */
"64 64 176 2 ",
"   c #151318",
".  c #1A161A",
"X  c #1D1B19",
"o  c #26241E",
"O  c #353723",
"+  c #343028",
"@  c #3C3B3E",
"#  c #7B1A1C",
"$  c #463D1D",
"%  c #50461E",
"&  c #444023",
"*  c #575E2C",
"=  c #675824",
"-  c #7E6E29",
";  c #69732F",
":  c #7E7027",
">  c #7F762E",
",  c #706647",
"<  c #863A20",
"1  c #872A30",
"2  c #9F353B",
"3  c #AB373E",
"4  c #8E4F25",
"5  c #945122",
"6  c #9A5B2B",
"7  c #877727",
"8  c #A87124",
"9  c #D74D2C",
"0  c #CF5A2C",
"q  c #E04A2A",
"w  c #E84A2A",
"e  c #CD622A",
"r  c #C9762E",
"t  c #B74147",
"y  c #BC464C",
"u  c #CC685F",
"i  c #CC7B5E",
"p  c #D8726A",
"a  c #E47273",
"s  c #99862B",
"d  c #948730",
"f  c #899837",
"g  c #B6882B",
"h  c #AC962E",
"j  c #BD8332",
"k  c #A09733",
"l  c #A4983B",
"z  c #9DAD3C",
"x  c #9FB23A",
"c  c #B7A12C",
"v  c #BEA52D",
"b  c #B2A53C",
"n  c #B6BA3A",
"m  c #D2932E",
"M  c #C59634",
"N  c #CB9935",
"B  c #CC9838",
"V  c #D39130",
"C  c #CFA72F",
"Z  c #DCA62E",
"A  c #D1A92E",
"S  c #CDB22E",
"D  c #D6BA2D",
"F  c #DABF2F",
"G  c #C4A735",
"H  c #CDA533",
"J  c #D3A236",
"K  c #D2A637",
"L  c #DBA336",
"P  c #DDAB35",
"I  c #DBA539",
"U  c #D3AA3B",
"Y  c #DBAB3B",
"T  c #CBB43A",
"R  c #D4B534",
"E  c #DAB433",
"W  c #D5BB34",
"Q  c #DCBD32",
"!  c #E2A735",
"~  c #E3A935",
"^  c #E1A739",
"/  c #E0A938",
"(  c #E3B334",
")  c #EAB634",
"_  c #E3BB32",
"`  c #EDBB32",
"'  c #E3BC39",
"]  c #B7CA3E",
"[  c #BBCD3D",
"{  c #BCD536",
"}  c #BDD53B",
"|  c #BFD83D",
" . c #C6C63A",
".. c #C6C838",
"X. c #CBC939",
"o. c #DEC033",
"O. c #D4C63D",
"+. c #DBC638",
"@. c #D4CB3C",
"#. c #DCCB3A",
"$. c #CAD23D",
"%. c #C0D93F",
"&. c #E2C32F",
"*. c #EAC42E",
"=. c #ECCA2F",
"-. c #F3CD2E",
";. c #FACF2D",
":. c #F6D22F",
">. c #FDD42D",
",. c #FDD82E",
"<. c #E3C432",
"1. c #EAC432",
"2. c #E5CC35",
"3. c #EBCC32",
"4. c #E4C139",
"5. c #E3CC3A",
"6. c #F3C432",
"7. c #F4CD31",
"8. c #F9CD30",
"9. c #EED035",
"0. c #F4D131",
"q. c #FAD330",
"w. c #B4A641",
"e. c #A0B241",
"r. c #B6B946",
"t. c #BAB848",
"y. c #B6A85C",
"u. c #CD914B",
"i. c #C8AD42",
"p. c #D4AD43",
"a. c #C7B545",
"s. c #CDB342",
"d. c #C4BC44",
"f. c #C9BB45",
"g. c #C5B249",
"h. c #C6BE4A",
"j. c #D2B843",
"k. c #D8B840",
"l. c #ADC241",
"z. c #BFCE45",
"x. c #BDC44B",
"c. c #BED442",
"v. c #BFD840",
"b. c #B9C650",
"n. c #C1C444",
"m. c #CCC342",
"M. c #C3CD45",
"N. c #CBCB43",
"B. c #C2C34A",
"V. c #CCC24D",
"C. c #C5CB4B",
"Z. c #CBCD4B",
"A. c #D5C542",
"S. c #D2CB42",
"D. c #C2D645",
"F. c #C3DB44",
"G. c #C4D44B",
"H. c #CCD14D",
"J. c #C6DC4B",
"K. c #C8DE4E",
"L. c #C9D353",
"P. c #C7D952",
"I. c #CADF51",
"U. c #CDDD58",
"Y. c #CAE04F",
"T. c #CCE054",
"R. c #CEE259",
"E. c #D0E257",
"W. c #D1E35B",
"Q. c #D6E662",
"!. c #D9E763",
"~. c #D9E867",
"^. c #DBEA6A",
"/. c #8A8A8C",
"(. c #949187",
"). c #C3BB98",
/* pixels */
"J.J.J.T.J.K.J.J.I.I.P.Y.T.R.T.T.R.T.T.T.R.R.P.Y.T.J.Y.v.K.K.J.F.F.F.K.K.J.K.K.R.R.R.W.R.E.W.W.R.T.T.T.I.R.R.T.Y.I.Y.K.K.J.J.J.J.",
"J.J.J.K.K.I.J.K.I.I.T.T.T.T.T.T.T.T.R.I.T.R.T.T.Y.Y.v.J.F.F.%.F.J.Y.K.K.F.J.K.T.T.T.T.T.T.I.T.R.T.T.Y.T.I.I.I.I.K.K.K.F.J.J.J.J.",
"K.Y.T.T.Y.I.I.K.J.P.Y.T.R.T.K.Y.I.I.T.I.I.T.T.F.P.v.v.Y.v.F.F.K.J.J.T.K.J.J.F.F.F.J.J.F.D.J.J.J.J.F.F.K.J.J.K.I.K.K.J.K.J.K.J.J.",
"I.T.Y.J.I.K.K.K.I.T.T.T.T.v.T.v.J.K.J.I.T.T.Y.J.Y.Y.F.v.F.F.c.c.F.Y.K.Y.J.Y.F.D.F.F.J.F.Y.J.Y.J.J.F.J.F.v.F.F.I.I.F.J.K.K.J.J.J.",
"I.I.Y.J.J.K.K.Y.P.T.T.T.T.v.v.T.K.K.J.T.R.E.R.I.P.Y.J.v.v.l.* f F.J.J.Y.Y.J.J.J.J.F.F.Y.Y.T.J.v.F.F.F.F.F.F.I.T.I.T.T.R.T.I.I.J.",
"R.T.Y.J.F.F.J.K.K.K.K.Y.T.T.T.R.R.R.R.R.W.!.Q.W.T.Y.Y.F.z + o x F.F.F.J.J.F.F.F.F.v.F.Y.J.Y.Y.Y.J.F.F.v.| F.I.T.R.T.T.J.J.J.J.J.",
"R.R.J.J.J.J.T.Y.K.J.P.T.T.R.R.T.R.R.E.W.Q.Q.!.R.T.T.T.z.> X O } F.F.F.J.J.J.J.J.J.J.J.J.P.Y.Y.P.F.F.J.v.F.J.I.T.R.J.T.J.T.J.J.J.",
"R.U.J.K.K.F.F.F.J.J.K.T.T.T.T.R.T.U.R.Q.E.W.~.R.Y.v.z.5.+.o ; F.F.F.J.J.J.T.J.J.Y.Y.v.J.J.Y.J.T.J.J.J.J.F.K.I.Y.I.T.J.J.J.T.J.J.",
"T.T.J.T.K.I.K.F.K.K.I.I.T.T.R.T.I.R.W.Q.R.E.W.R.J.D.+.>.;.* e.F.F.F.F.F.Y.J.J.Y.J.Y.F.J.T.I.P.R.I.J.F.F.F.v.Y.Y.T.I.I.I.I.U.K.F.",
"R.T.K.I.T.T.T.T.J.T.T.T.T.R.T.T.R.E.W.Q.E.I.R.J.K.O.>.>.>.k J.F.F.F.F.F.F.F.F.F.F.J.F.F.J.I.F.T.P.T.J.J.Y.v.T.Y.I.J.I.J.J.J.K.F.",
"T.I.K.T.T.I.I.I.K.K.I.I.T.T.T.P.T.E.E.E.R.T.T.T.M.q.>.>.-.M.J.F.F.%.%.%.%.Y.%.Y.F.F.| F.F.F.F.Y.J.Y.J.J.P.Y.Y.Y.I.J.J.J.K.K.K.F.",
"T.T.I.I.I.K.K.K.J.J.I.T.T.T.I.K.T.T.I.Y.R.R.U.J.#.>.>.>.#.J.T.J.F.F.F.%.| %.Y.%.F.| F.| v.F.J.Y.Y.Y.J.F.Y.F.Y.T.T.T.E.R.K.K.F.| ",
"T.I.J.J.K.J.K.J.K.K.T.T.T.I.K.J.J.J.I.R.T.W.E.Z.>.>.>.q.M.J.R.F.J.J.F.F.Y.%.Y.%.F.F.| v.Y.F.J.T.T.Y.J.J.F.Y.Y.T.K.J.K.K.F.J.J.v.",
"Y.I.J.J.K.K.Y.J.J.F.F.J.J.K.K.J.J.J.J.J.I.E.U.5.>.>.7.m.J.K.T.J.J.Y.F.F.Y.%.%.%.F.F.F.| | Y.Y.Y.T.J.Y.P.P.Y.P.R.T.I.I.K.J.F.F.F.",
"I.K.Y.J.K.J.T.K.K.J.J.J.K.I.K.K.J.J.J.U.E.W.Z.q.>.7.j.J.J.Y.J.K.J.F.F.%.%.%.Y.Y.Y.F.F.F.v.F.Y.F.Y.T.Y.Y.P.Y.K.U.T.I.I.F.F.F.F.v.",
"T.T.I.K.K.P.T.T.T.K.J.K.J.K.I.K.I.J.J.R.W.W.O.>.:.E +.#.S.N.D.F.F.F.F.F.%.%.%.%.F.F.| F.F.Y.F.F.T.R.R.Y.I.T.Y.I.I.K.I.J.F.J.F.J.",
"T.T.Y.J.K.T.R.R.T.J.T.J.Y.T.T.I.I.T.T.R.R.C.2.q.>.>.>.>.>.,.0.#.M.c.F.v.} } %.%.F.F.D.J.I.T.I.J.R.Q.W.T.T.T.T.T.T.v.K.K.K.v.T.K.",
"R.R.R.Y.T.T.R.R.R.T.Y.Y.T.T.T.T.R.R.T.R.H.0.>.>.>.>.>.>.>.>.q.>.:.X.] } c.} v.F.Y.J.D.K.R.E.R.J.R.Q.Q.T.T.T.T.T.T.R.T.T.T.Y.T.v.",
"R.R.T.Y.T.T.T.R.R.J.I.K.K.T.T.T.I.T.K.P.5.>.>.>.>.>.>.>.>.>.>.>.>.:.2.3.2.2.+.@.@.M.D.J.T.E.E.J.L.L.R.R.P.T.I.Y.T.T.T.T.T.v.v.T.",
"R.R.T.T.T.T.T.T.U.R.I.J.J.T.I.I.I.T.K.N.q.>.>.>.>.>.>.>.>.>.>.>.>.>.>.>.>.>.>.>.,.:.3.+.N.L.L.@.0.S.R.R.I.Y.T.J.T.T.T.T.T.T.T.v.",
"T.T.T.T.T.T.T.T.T.I.I.J.J.I.Y.T.R.U.T.#.h y.>.,.>.>.>.>.>.>.>.>.>.>.>.>.>.>.>.>.>.>.>.>.,.d & h 0.#.U.R.K.J.T.I.Y.T.P.Y.T.T.T.v.",
"R.R.T.T.T.T.T.R.T.T.K.J.J.I.I.T.R.R.G.W + (.3.>.>.>.>.>.>.:.,.>.>.>.6.E 2.q.>.>.>.>.>.,.s X . . & W P.E.K.Y.Y.I.T.T.Y.T.Y.v.T.T.",
"R.P.T.T.T.Y.T.Y.K.K.F.F.v.J.I.Y.J.J.O.S X = >.>.>.>.>.>.Q )., S >.>.>.7. .} $.@.@.#.R : $ % = 7 c =.G.Y.J.J.T.T.K.T.Y.T.T.v.T.v.",
"T.T.Y.P.Y.J.Y.Y.J.J.F.F.F.J.G.n. .r.<.>.S 3.>.D >.>.>.>.- /.@ = ,.>.>.>...{ { { } X.:.:.:.:.>.>.>.,.N.D.J.K.I.T.Y.T.P.T.v.T.T.T.",
"R.T.T.P.T.I.K.K.J.K.J.J.D.G.A.:.q.r Z ,.,.>.>.F >.>.>.>.s     s >.>.>.>...{ { [ 2.>.>.>.>.>.;.>.>.>.@.J.K.J.T.I.K.T.Y.Y.J.T.Y.v.",
"T.T.Y.T.I.I.K.K.K.K.J.K.J.M.:.>.0.e Z >.2.H C g ,.>.>.>.>.v v ,.>.>.&.T n {  .7.>.>.>.>.>.>.>.>.>.,.#.K.J.K.T.I.K.T.T.T.J.K.K.T.",
"T.T.P.K.K.K.I.I.K.K.J.K.K.G.3.>.-.e _ >.q.< # # 4 D =.3.>.>.*.V Z 9.W ,.0.v =.>.>.>.>.>.>.>.>.>.>.>.2.J.K.T.R.T.T.T.R.T.Y.Y.J.v.",
"K.T.K.Y.I.K.I.T.K.K.J.K.I.J.5.>.,.M -.>.q.6 2 3 2 1 6 ,.>.6.0 w 9 H ,.>.,.0.R q.>.>.>.>.>.>.>.>.>.>.2.G.T.I.R.J.P.T.R.T.Y.T.v.Y.",
"T.T.T.T.T.I.I.T.T.K.K.K.K.K.#.,.>.F :.>.>.j y y t 3 N >.>.Z q q m >.>.>.,.>.W >.>.q.>.>.>.>.8.6.` Q m.P.J.T.R.R.R.E.E.T.T.T.T.Y.",
"R.R.T.I.T.Y.I.I.I.I.F.J.v.J.G.0.>.-.o.>.>.E a a a u 3.>.>.Z q r q.>.>.>.q.q.o.,.8.6.` ( ~ ~ ^ p.V.I.T.T.T.T.E.R.E.E.R.U.T.T.T.T.",
"T.R.R.T.I.K.K.I.I.K.K.J.K.J.F.5.>.>.Q =.>.-.p a a u.>.>.>.*.0 <.>.>.>.>.>.*.P ~ ~ ~ ! ! Y j.L.E.R.U.T.I.J.R.T.I.R.E.R.I.R.R.R.T.",
"R.T.I.T.T.I.I.K.I.K.K.K.J.J.J.D.>.>.>.W ,.>.K p i -.>.>.>.>.R ,.>.>.>.>.>.E L ! ~ / / V.P.J.E.W.W.R.R.I.T.I.T.T.R.E.T.T.R.R.R.R.",
"E.E.I.R.R.I.R.T.T.T.K.K.J.F.D.G.2.>.>.:.W >.>._ -.>.>.>.>.1.=.>.>.>.>.>.:.H ~ P k.Z.K.I.U.K.T.E.E.E.U.R.T.Y.K.T.R.T.I.T.T.R.R.U.",
"T.E.I.T.I.J.I.I.K.T.I.J.F.F.F.J.S.>.>.>.:.>.>.-.8.;.>.>.>.Q ,.>.>.>.>.>._ L ~ s.J.J.I.U.R.E.I.E.E.U.T.R.Y.Y.K.Y.Y.K.J.T.I.T.R.J.",
"U.U.I.I.T.J.T.J.J.J.J.J.J.J.J.K.U.#.>.>.>.>.>.6.~ ` >.>.,.-.>.>.>.>.>.:.d.Y ! I n.J.R.R.E.E.I.I.I.R.I.J.J.F.F.F.F.F.J.J.J.T.J.J.",
"T.T.K.I.R.E.R.J.J.T.E.K.F.J.K.I.U.L.4.>.>.>.>.>.>.>.>.>.,.>.>.>.>.>.>.U B.Z.Y ~ U G.U.U.!.E.I.I.R.R.J.J.F.F.| F.v.v.F.J.J.Y.J.J.",
"J.I.J.I.R.R.I.I.T.R.I.J.J.J.J.J.T.I.Z.E -.>.>.>.>.>.>.>.>.>.>.>.>.>.P ( T h.i.! ~ s.U.E.~.W.T.R.R.I.J.F.F.F.F.%.F.%.F.J.J.J.F.J.",
"J.T.J.I.R.T.K.I.J.T.I.T.F.J.Y.Y.I.T.U.B.o.>.>.>.>.>.>.>.>.-.&.>.>.8.-.>.3.J I L ! ^ h.R.Q.E.J.T.I.I.K.F.F.F.| F.F.F.F.F.F.J.J.J.",
"J.Y.J.J.Y.Y.I.J.J.J.T.J.J.F.J.J.J.I.I.K.5.>.>.>.>.>.>.>.>.<.l 3.>.>.>.>.>.K J f.f.a.g.I.W.R.J.J.K.K.F.F.F.F.| F.%.%.F.F.J.F.J.J.",
"I.T.I.J.T.Y.T.T.T.T.T.J.F.F.J.F.F.F.J.J.+.>.>.>.>.>.>.>.>._ b W >.>.>.>.>.<.j w.J.K.K.T.R.R.Y.J.J.F.F.F.F.F.v.| | %.%.F.F.F.J.J.",
"U.T.I.K.Y.K.K.I.K.J.K.K.F.F.J.F.F.F.F.F.S.>.>.>.>.>.>.>.>.-.G ' Q =.-.,.>.q.8 5 x.J.T.K.K.Y.F.F.J.F.F.J.Y.Y.F.v.| %.F.F.F.F.F.Y.",
"R.R.I.I.I.I.J.I.K.J.F.K.J.J.D.J.F.J.I.F.O.>.>.>.>.>.>.>.>.>.K ~ R =.&.Q q.>.A 5 l J.J.J.F.F.F.F.K.J.K.T.T.T.F.F.| | %.F.F.F.F.F.",
"T.R.T.K.I.I.J.K.K.F.K.F.J.J.J.F.F.F.K.F.O.>.>.,.>.>.>.>.>.:.v ~ ) >.>.,.>.>.0.B.G.J.J.F.F.F.F.K.T.J.I.T.T.Y.Y.| { { | %.F.F.| Y.",
"T.T.Y.F.J.F.J.F.J.J.F.F.F.K.K.J.J.Y.I.Y.O.>.>.>.>.>.>.>.>.*.R V ~ 6.>.>.>.>.>.S.K.J.Y.Y.J.F.F.I.I.J.F.T.K.F.v.F.| | | | %.%.| %.",
"Y.T.K.F.J.F.J.K.I.F.F.J.J.K.I.I.K.T.T.J.S.>.>.>.>.>.>.>.>.&.( N L L 6.>.>.>.q.A.K.I.I.I.J.F.K.T.T.K.K.K.K.J.F.v.| | | %.Y.| | %.",
"J.J.D.F.J.K.J.J.J.K.J.I.K.K.I.K.J.K.T.T.O.,.,.q.>.>.>.>.>.&.~ N L N ! ` 6.6.` s.I.T.R.R.K.I.J.K.T.I.K.I.F.J.Y.v.F.F.F.F.F.| | Y.",
"J.K.F.F.F.J.J.K.Y.J.J.K.J.I.K.K.J.K.T.T.S.>.>.>.>.>.>.>.>.1.! L N B ~ ! ~ ! ! a.I.T.R.R.I.J.F.K.K.J.J.K.F.F.Y.F.F.F.F.Y.Y.| | Y.",
"T.J.J.J.K.K.T.T.T.J.Y.P.J.I.K.J.K.I.T.J.S.>.>.>.>.>.>.>.>.1.! ! L L ! ! ~ ~ ! Z.I.U.R.R.E.T.J.J.K.J.J.J.J.F.F.Y.F.F.F.Y.v.Y.| | ",
"T.T.J.K.P.T.T.R.R.Y.T.J.Y.Y.P.Y.K.Y.Y.I.N.,.>.>.>.>.>.>.>.` ! ! ! ! ! ! ~ L a.P.I.Y.T.I.Y.U.K.K.J.K.J.K.P.J.Y.P.Y.F.P.Y.Y.Y.v.Y.",
"T.T.K.K.T.T.R.T.R.T.T.v.v.T.Y.J.K.I.K.I.M.:.>.>.>.>.>.>.8.~ ! ! ! ! ! ! L a.G.Y.J.J.K.I.I.I.K.F.I.K.K.I.I.T.T.Y.J.F.Y.J.v.v.v.v.",
"T.T.K.J.Y.T.T.T.T.T.P.J.Y.Y.J.P.J.T.K.K.M.7.>.>.>.>.>.>.` ! ! ! ! ! ! U d.F.K.Y.P.Y.I.I.F.I.K.K.Y.K.J.I.R.I.I.I.v.F.Y.J.Y.v.Y.Y.",
"T.T.T.K.Y.R.R.T.T.T.Y.Y.P.v.Y.Y.K.T.J.Y.J.O.>.>.>.>.>.6.~ ! ! ! I p.C.J.J.F.F.P.Y.Y.I.T.I.T.I.J.J.J.U.R.~.R.T.I.Y.F.J.J.J.Y.Y.F.",
"T.R.T.P.Y.T.T.T.T.T.T.v.Y.Y.Y.T.T.T.Y.T.J.z.2.:.8.6.) ! ! ! ^ s.G.J.J.J.J.F.I.J.Y.T.T.T.I.I.K.J.K.K.R.Q.Q.R.R.I.F.F.K.K.J.J.Y.Y.",
"T.R.T.J.Y.T.T.T.T.T.R.Y.Y.T.T.T.J.J.K.I.J.D.r.U ~ ~ ! ! ~ I h.J.D.J.J.J.F.I.K.I.T.T.R.T.T.T.T.K.Y.K.R.W.~.W.T.I.F.F.F.J.F.Y.J.J.",
"I.T.T.J.J.T.T.T.R.T.T.T.T.T.T.T.J.T.J.T.J.J.K.b.i.I L L J t.I.J.J.J.J.F.F.T.Y.I.R.U.R.R.R.I.J.T.T.Y.R.W.~.W.R.I.K.F.F.J.F.v.v.J.",
"I.T.I.J.F.Y.Y.P.P.T.T.P.T.R.T.T.T.R.R.R.R.J.K.I.U.P.x.I ! h.K.D.F.D.J.F.F.J.I.I.T.T.T.I.T.T.I.T.R.Q.Q.Q.^.Q.R.I.K.I.I.I.T.I.K.K.",
"P.T.Y.Y.F.F.Y.F.T.T.Y.T.T.R.R.R.T.T.T.T.T.P.I.I.K.T.U.j.~ a.I.J.J.J.J.F.J.J.T.T.R.R.R.T.I.I.K.I.R.W.W.W.^.W.T.R.I.T.Y.Y.P.Y.F.J.",
"Y.Y.v.v.F.F.Y.Y.v.T.T.T.T.R.W.W.R.R.T.T.T.T.T.T.T.T.T.C.2.d.I.T.K.Y.J.J.Y.T.T.T.T.R.I.J.I.I.K.T.R.T.R.E.Q.E.J.J.Y.Y.Y.P.v.Y.F.J.",
"Y.Y.T.F.F.J.F.F.T.Y.v.v.J.T.R.R.R.T.T.R.T.T.T.T.I.T.T.P.w.h.I.Y.J.I.J.J.J.I.T.J.T.I.T.K.J.J.J.K.T.T.R.E.W.W.T.T.Y.I.I.Y.Y.v.F.F.",
"Y.Y.T.F.v.F.Y.%.v.Y.v.Y.v.J.I.R.T.T.T.R.I.P.I.I.K.K.I.T.b.r.K.J.T.T.R.T.I.T.R.T.I.I.K.K.J.J.J.T.T.T.R.R.Q.E.T.R.R.T.I.J.F.Y.F.v.",
"J.P.Y.v.F.Y.| Y.v.Y.v.F.v.F.Y.T.T.T.T.R.J.Y.Y.Y.K.I.I.Y.T.T.J.K.R.R.T.T.T.T.T.T.T.I.I.K.J.T.J.J.K.T.R.R.W.E.I.R.R.I.T.T.R.T.J.I.",
"J.T.T.Y.F.v.| v.F.F.F.F.F.F.F.K.T.v.T.v.Y.P.Y.P.K.K.I.T.T.I.Y.T.R.T.T.T.T.J.I.J.K.T.I.J.D.J.J.Y.J.K.I.R.R.R.J.R.R.T.I.I.T.T.T.T.",
"P.T.T.Y.F.| | | v.F.F.F.F.F.K.K.T.T.T.P.T.T.J.Y.Y.J.I.T.U.K.K.J.K.I.T.T.K.K.K.K.K.J.Y.F.F.J.J.Y.J.J.T.T.R.R.I.T.W.Y.J.J.K.I.T.T.",
"Y.F.J.J.F.Y.v.| Y.v.F.F.J.F.K.F.Y.Y.Y.Y.Y.P.Y.P.Y.J.P.Y.T.K.F.J.I.J.J.T.T.K.I.K.Y.T.K.F.F.F.F.D.F.J.E.E.T.R.I.T.W.T.I.Y.J.Y.Y.K."
};
