/* XPM */
static char *result[] = {
/* columns rows colors chars-per-pixel */
"64 64 175 2 ",
"   c #221E1F",
".  c #28211C",
"X  c #352E1F",
"o  c #1F2426",
"O  c #202526",
"+  c #262A26",
"@  c #2D2F26",
"#  c #242928",
"$  c #3B3926",
"%  c #363A2A",
"&  c #3C3835",
"*  c #3E442E",
"=  c #524D29",
"-  c #5E562B",
";  c #4C5333",
":  c #685829",
">  c #7A6D30",
",  c #6C7539",
"<  c #737E39",
"1  c #5D5B5C",
"2  c #756F67",
"3  c #801D1F",
"4  c #87311D",
"5  c #96431C",
"6  c #994F2E",
"7  c #A05635",
"8  c #976B2B",
"9  c #8D7D37",
"0  c #927D31",
"q  c #A76C2C",
"w  c #B76D31",
"e  c #B57738",
"r  c #DB5D2D",
"t  c #F24E2B",
"y  c #ED512C",
"u  c #E4582C",
"i  c #F5512B",
"p  c #F9512C",
"a  c #D5642C",
"s  c #CA6D33",
"d  c #D36432",
"f  c #D77431",
"g  c #B55244",
"h  c #CC5258",
"j  c #C26050",
"k  c #D57B5C",
"l  c #DD7765",
"z  c #E46E6E",
"x  c #F06F76",
"c  c #EB7073",
"v  c #F37176",
"b  c #9F8F36",
"n  c #A68337",
"m  c #BD9235",
"M  c #BA953E",
"N  c #B49E39",
"B  c #97A73F",
"V  c #BBA23C",
"C  c #B6AC3F",
"Z  c #B8BA3E",
"A  c #CD8738",
"S  c #D68534",
"D  c #C89537",
"F  c #C3923B",
"G  c #CC933A",
"H  c #D79138",
"J  c #D49E3D",
"K  c #DC9D3B",
"L  c #C3AE3F",
"P  c #CCAC3D",
"I  c #DEA53C",
"U  c #CEB23E",
"Y  c #D3B53E",
"T  c #D6B83E",
"R  c #DBBC3F",
"E  c #E4A53D",
"W  c #E6AA3E",
"Q  c #ECAB3D",
"!  c #ECB23E",
"~  c #F0B43E",
"^  c #BAC53F",
"/  c #BBCE3E",
"(  c #BCD536",
")  c #BDD63B",
"_  c #BFD83D",
"`  c #DFC33F",
"'  c #C0D93F",
"]  c #E7C63F",
"[  c #F4C43F",
"{  c #8C9747",
"}  c #B29941",
"|  c #95A344",
" . c #9AA748",
".. c #A6AB43",
"X. c #B2A343",
"o. c #BCAB44",
"O. c #A0B046",
"+. c #ACBD47",
"@. c #A6B54E",
"#. c #CC9B44",
"$. c #D7974F",
"%. c #D68856",
"&. c #CEA541",
"*. c #C8AA45",
"=. c #D7A646",
"-. c #D3AB41",
";. c #CCB344",
":. c #C1BE42",
">. c #CCBE43",
",. c #C0B24D",
"<. c #CCBE49",
"1. c #D4B644",
"2. c #D4BB41",
"3. c #DDBD41",
"4. c #E9B743",
"5. c #E6BA43",
"6. c #F2BE41",
"7. c #BCC543",
"8. c #BECD45",
"9. c #B3C64A",
"0. c #BEC34B",
"q. c #BECB4C",
"w. c #BED241",
"e. c #BDD14F",
"r. c #C3C244",
"t. c #CDC445",
"y. c #C4CC44",
"u. c #CDCC47",
"i. c #C3C64B",
"p. c #CBC448",
"a. c #C3CC4B",
"s. c #CBCA4B",
"d. c #D4C443",
"f. c #DBC544",
"g. c #D5C845",
"h. c #DCC946",
"j. c #D7C748",
"k. c #D4CB4A",
"l. c #DCCC49",
"z. c #C2D545",
"x. c #C3DB44",
"c. c #C3D44B",
"v. c #C9D34C",
"b. c #C6DC4B",
"n. c #C8DE4E",
"m. c #D9D04A",
"M. c #C3CA53",
"N. c #CBCC52",
"B. c #C4D450",
"V. c #C8D357",
"C. c #C7DA52",
"Z. c #CADF51",
"A. c #CCDE58",
"S. c #D2D050",
"D. c #E3C542",
"F. c #EAC542",
"G. c #E4CB44",
"H. c #ECCC43",
"J. c #E3CA48",
"K. c #F4C342",
"L. c #F2CE42",
"P. c #F8CE43",
"I. c #EDD044",
"U. c #F4D343",
"Y. c #FBD643",
"T. c #FDD842",
"R. c #CAE04F",
"E. c #CCE154",
"W. c #CEE258",
"Q. c #D0E257",
"!. c #D1E35B",
"~. c #D5E662",
"^. c #D9E868",
"/. c #ABA69F",
"(. c #C2BFBF",
/* pixels */
"b.b.b.E.b.b.b.b.R.Z.Z.E.E.W.C.E.W.E.E.Z.W.W.R.R.E.R.C.R.R.b.b.b.x.x.b.R.b.b.b.!.E.W.!.Q.Q.!.!.!.E.E.E.Z.E.E.E.R.Z.Z.b.b.b.b.b.b.",
"b.b.R.b.R.b.b.Z.Z.Z.Z.E.E.E.E.W.E.E.E.E.E.W.R.R.R.b.R.w.b.x.' x.b.R.Z.b.b.b.b.E.R.R.E.E.R.E.E.E.Z.E.E.E.Z.E.Z.E.Z.b.b.b.b.b.b.b.",
"b.E.E.Z.E.Z.E.b.Z.Z.Z.E.R.R.R.C.Z.Z.E.Z.E.E.E.R.R.w._ w.' ' ' x.b.x.R.b.R.x.x.b._ R.' R.b.b.b.b.x.b.b.x.b.b.b.b.R.b.b.b.b.b.b.b.",
"E.E.b.b.E.b.b.b.Z.Z.R.E.R.R.R.e.Z.b.b.Z.E.E.R.e.x.R.R.x.' x.b.b.x.R.R.E.n.n.x.x.R._ R.w.b.b.b.R.b.x.b.x.x.x.b.Z.b.b.b.R.R.b.b.b.",
"E.b.R.b.b.b.R.R.R.E.E.E.R.R.b.b.Z.Z.b.Z.W.!.A.Z.R.R.b.x.x.x.x.x.' b.n.n.n.n.n.b.R._ R.R.R.R.R.w.b.x.x.x.w.b.b.W.E.E.Z.Z.E.E.R.b.",
"W.E.b.b.b.b.b.b.R.e.R.R.R.E.E.E.W.W.W.W.~.~.~.~.R.R.b.b.z.x.x.x.' x.x.b.b.x.b.' R.w._ R.R.R.R.R.x.x.x.x._ x.Z.E.A.E.E.Z.Z.b.b.b.",
"!.W.b.b.b.b.R.E.R.R.R.E.W.E.E.E.W.E.C.{ { {  .@.e.B.C.b.b.x.x.' x.b.x.b.n.b.n.b.b.b.R.b.b.b.R.R.x.x.x.x.x.b.R.E.Q.b.R.b.E.b.b.b.",
"W.E.b.Z.b.b.x.x.b.b.C.E.E.E.E.E.W.Z.A.; o o O o b >.r.7.8.x.x.' ' b.x.b.n.n.b.b.R.R.w.b.R.C.R.E.b.b.b.b.x.R.R.R.E.E.Z.b.b.R.b.b.",
"W.E.b.E.b.R.b.b.R.R.C.R.E.W.W.E.Z.W.!.V.; O o o - T.T.Y.G.d.r.w.' w.R.x.b.R.b.b.b.R.x.x.R.R.R.E.R.b.x.x.R.w.Z.Z.E.b.Z.Z.Z.Z.b.b.",
"E.E.b.R.E.W.E.E.e.R.E.E.E.W.Z.Z.E.!.!.~.V., O o + f.T.T.T.T.Y.f.` w.x.w.b.x.x.x.b.b.x.x.x.R.e.R.b.E.b.b.x.b.R.Z.Z.Z.b.b.b.Z.b.x.",
"E.E.R.E.E.C.R.Z.R.x.R.E.E.E.E.E.E.Q.!.Q.W.E.| * o > Y.Y.T.T.T.T.Y.d./ ) w.R.x.x.R.R.w.R.w.R.w.R.b.R.b.b.R.x.R.R.b.Z.b.Z.b.R.b.b.",
"E.E.R.R.E.R.b.Z.R.R.R.E.R.E.Z.b.R.E.Z.E.W.W.E.e.< % U T.T.T.T.T.T.T.Y.:.( x.x.R.) _ _ ) ) R.R.R.E.R.b.b.b.b.R.R.E.E.Q.E.b.b.b._ ",
"E.R.R.e.b.b.R.b.b.Z.R.E.Z.Z.b.b.b.b.Z.E.Z.!.W.E.R.9.| J.U.Y.U.D.R 3.R D.2.7.x.w.) ' _ ' ' R.R.R.E.Z.b.b.x.R.C.E.b.b.R.b.x.b.b.w.",
"R.C.R.R.Z.b.R.b.b.x.x.b.Z.Z.b.b.b.b.b.b.Z.!.W.E.E.b.A.v.8.U 3.H.Y.T.Y.U.[ G.y.w.' R.' R._ R.x.R.Z.b.b.b.C.R.R.W.E.Z.E.b.b.x.R.x.",
"R.R.R.w.b.b.W.Z.Z.b.b.Z.b.Z.R.Z.b.b.b.A.!.!.W.E.E.Z.b.:.G.T.T.T.Y.Y.T.T.T.T.Y.g.x.R.w.' x._ w.R.E.Z.E.R.C.E.Z.E.E.Z.R.x.R._ w.R.",
"W.E.R.R.Z.Z.E.E.Z.b.b.b.b.b.Z.Z.Z.b.b.E.!.!.!.!.Z.a.h.Y.T.T.T.T.T.T.T.T.T.T.T.Y.d.w.' x.R.R.R.x.E.W.W.E.Z.E.Z.Z.R.Z.R.x.x.' R.' ",
"E.E.E.b.b.E.E.!.Q.b.Z.b.b.E.E.Z.Z.E.A.!.Q.Q.E.A.b.I.T.T.T.T.T.T.T.T.T.T.T.T.U.f.I.r.x.b.E.E.E.b.W.~.!.E.C.E.W.E.R.n.R.n.n.b.n.e.",
"W.W.Q.b.E.W.E.!.E.R.E.E.E.E.W.E.E.W.E.Q.Q.A.Z.i.] T.T.T.T.T.T.T.T.T.T.T.T.T.;./.9 G.7.b.E.!.Z.b.!.~.!.E.E.E.W.E.E.E.E.C.E.R.R.R.",
"W.!.E.R.A.E.E.Q.E.A.E.b.b.E.E.Z.C.B.a.N.k.j.f.3.T.T.T.T.T.T.T.T.T.T.T.T.T.T.Y 2 & N g.c.Z.!.!.b.!.!.!.W.E.E.E.R.E.E.E.E.R.R.x.R.",
"E.W.E.E.E.E.Z.A.E.E.E.b.b.C.a.p.h.H.U.T.Y.T.T.T.T.T.T.T.T.T.T.T.T.T.T.T.T.[ I.b . 0 T.1.i.!.E.b.b.E.!.W.C.R.R.R.R.R.E.E.R.R.R.w.",
"Z.W.E.E.E.E.E.E.A.Z.Z.a.r.g.U.T.T.Y.T.T.Y.T.T.T.T.T.T.[ T.[ Y.Y.T.T.T.T.T.[ U T.Y H.Y.K d i.Z.b.b.E.E.W.R.R.E.C.E.R.R.E.b.e.R.R.",
"W.E.W.E.W.E.E.E.Z.B.r.J.Y.T.Y.Y.T.T.T.T.T.T.Y.T.T.T.T.` { /.C Y.T.T.T.T.Y.Y.[ T.Y.Y.T.K t F b.b.E.b.W.W.b.b.R.R.E.E.C.R.R.R.R.R.",
"W.Z.Z.E.Z.Z.E.c...J.Y.Y.Y.T.T.T.T.T.T.T.T.T.U.P.T.T.[ : 1 (.= ] T.T.T.T.Y.Y.] q m U.T.5.u A x.x.x.x.b.R.b.b.E.W.R.E.C.R.b.b.R.R.",
"Z.E.Z.Z.Z.b.9.; @ b U.T.T.T.T.T.T.T.T.T.U.1.K P.T.T.T.:     $ ] T.T.T.T.Y.F.7 3 4 ] Y.Y.f A ) Z Z ^ w.R.b.b.R.E.R.R.b.R.b.b.E.b.",
"W.E.C.R.E. .% o o o = C H.Y.Y.T.Y.Y.I.d.' o.~ T.T.T.[ R = X b T.T.T.T.] m g h h 6 H.Y.Y.F.N t.Y.U.f.w.x.Z.b.E.Z.E.R.R.C.R.R.E.R.",
"E.W.E.R.e.* # o # # + + = b h.J.k.v.z.x.' ^ T.T.T.T.T.T.Y.[ [ T.T.T.T.I.j c v v l L.Y.Y.L.3.T.T.Y.U.7.b.b.b.E.Z.C.E.E.E.w.E.R.b.",
"E.E.R.C.C.9.O.| | | B O.+.9.b.E.b.b.x.8.r.L T.T.T.T.T.H.S f I [ T.T.T.T.%.v v v %.Y.T.Y.F.H.Y.T.T.G.w.b.E.E.E.E.E.E.W.E.R.R.w.R.",
"R.E.R.R.R.b.Z.E.R.E.b.b.Z.b.Z.c.a.t.D.U.T.F.H.Y.T.T.] r p p y H T.T.T.T.$.v v v %.T.T.Y.3.Y.Y.T.T.g.x.R.E.Z.E.Z.E.E.W.R.R.R.w.R.",
"C.E.R.E.E.R.E.E.E.b.b.b.b.q.t.G.U.T.Y.T.T.Y.3.Y.T.T.I t p p p u H.T.T.T.5.z x c =.T.T.U.f.T.Y.T.Y.i.b.b.Z.E.E.E.E.Q.Q.E.R.E.R.R.",
"W.!.E.E.E.n.R.R.E.Z.x.y.d.U.T.T.T.T.T.T.T.Y.T Y.T.T.E i p p p r U.T.T.T.U.k v l F.T.T.D.L.T.T.T.H.B.E.E.E.E.!.W.!.!.Q.A.W.W.E.R.",
"W.W.E.E.Z.n.n.Z.q.p.G.[ Y.Y.T.Y.T.T.T.T.T.T.H.D.T.T.U.a i p y K T.T.T.T.Y.5.l $.T.T.Y.R Y.T.T.T.j.A.E.E.b.E.E.E.Q.Q.Q.E.E.!.E.E.",
"W.E.E.E.E.C.e.i.I.T.Y.T.Y.T.T.T.T.T.T.T.Y.T.T.T T.T.T.] H S I [ Y.T.T.Y.Y.T.H.Y.T.T.] L.Y.Y.T.I.N.E.Q.n.E.Z.E.Z.W.W.E.E.Q.!.W.W.",
"W.W.Z.E.E.p.H.T.T.T.T.T.T.T.T.T.Y.H.F.F.3.3.R P 2.] I.T.T.T.T.Y.T.T.T.T.T.T.T.T.T.T.T.T.T.T.T.g.A.W.E.E.R.R.b.E.W.E.R.E.E.W.E.E.",
"A.W.Z.R.Z.j.Y.T.T.T.T.T.T.T.T.T.I.Y D.L.Y.T.T.Y.U.H.] ` T F.Y.T.T.T.T.T.T.T.T.T.T.T.[ T.T.T.I.N.E.W.W.E.R.R.b.E.R.R.x.R.E.E.E.Z.",
"A.E.E.Z.E.a.I.T.T.T.T.T.T.T.T.[ Y U.Y.Y.Y.T.T.T.T.Y.[ T.T.H.] Y.T.T.T.[ T.T.[ T.[ T.T.T.T.T.k.Z.A.E.E.Z.R.x._ R.b.R.R.R.b.R.b.b.",
"E.E.E.E.E.E.a.U.T.T.T.T.T.T.T.T.P Y.T.T.T.T.T.T.T.T.T.T.T.T.T.T.Y.T.T.T.Y.[ ~ ~ Y.T.T.U.I.I.b.R.E.E.b.b.x.x._ x.w.w.) x.b.E.b.b.",
"b.E.b.Z.W.W.E.p.T.T.T.T.T.T.T.Y.R ] T.T.T.T.T.T.T.T.T.T.T.T.T.T.T.T.T.T.U.[ [ Y.T.T.T.U.-.N.E.E.E.E.b.x.R.) x.' ' ' ' b.b.b.b.b.",
"b.E.b.Z.W.E.R.c.m.[ T.T.T.T.T.Y.J.P I.T.T.T.T.T.T.T.T.T.T.T.T.T.[ T.T.T.[ T.T.T.T.T.[ T.,.W.R.E.E.Z.b.x.R.' _ x.R.x.x.x.b.b.b.b.",
"b.E.b.b.E.R.R.R.e.G.T.T.T.U.g.u.0.T.R ] Y.Y.T.T.T.T.T.T.T.T.T.T.T.T.T.T.T.T.T.T.T.T.T.T.S.A.b.b.b.R.b.R.' x._ _ _ ' x.b.x.b.x.b.",
"Z.E.b.b.E.R.R.R.R.b.U.] t.y.b.x.d.Y.T.] T U.T.T.T.T.T.T.T.T.T.T.T.T.T.Y.T.T.T.T.T.T.T.T.l.A.R.x.b.x.x.w.x.x._ _ _ _ ' ' x.x.b.b.",
"Z.E.R.Z.Z.Z.Z.Z.R.b.c.c.x.x.b.y.U.T.T.T.f.r.D.T.Y.T.T.T.T.T.T.T.T.T.T.T.T.T.T.T.T.T.T.T.G.b.b.x.b.x.x.b.x.R.' ) _ ' x.R._ _ x.R.",
"W.E.Z.Z.Z.b.R.b.b.b.b.b.x.b.b.g.T.T.T.T.Z x.w.V H.Y.Y.T.T.Y.T.T.T.T.T.T.T.T.T.T.T.T.T.T.I.z.x.x.b.b.R.E.W.R.R.R.' ) _ x.x.R.x._ ",
"W.W.E.b.Z.b.b.b.b.b.b.b.b.b.c.H.Y.T.T.T.Y.G.d.w w P 5.L.T.T.T.T.T.T.T.T.T.T.T.T.T.T.T.T.U.' w.b.E.b.b.W.E.R.R.) ( ( _ _ ' x.x.R.",
"E.E.E.x.b.b.b.b.b.x.x.x.b.b.u.Y.T.T.Y.T.T.Y.` M D.Y.P.T.T.T.T.T.T.T.T.T.T.T.T.T.T.T.T.T.U.` b.E.Z.x.x.R.R.x._ ) _ ( _ x.R._ _ _ ",
"Z.Z.b.x.b.x.b.b.Z.x.b.b.b.Z.q.s.k.k.k.J.T.Y.C U.T.T.T.T.T.T.T.T.T.T.T.T.T.T.T.T.T.T.T.T.T.^.c.E.W.b.Z.Z.b.b.x.R.) _ _ ' ) ) ' ' ",
"b.b.b.x.b.b.R.b.b.b.b.b.Z.b.Z.Z.b.b.C.#.W &.X.D T.T.T.T.T.T.T.T.T.T.T.T.T.T.T.T.T.T.T.T.T.T.z.R.W.b.b.E.b.x.R.w.x._ R.x.R._ R.' ",
"b.b.x.x.b.R.b.b.Z.b.b.Z.b.Z.R.b.b.Z.o.s s X.M w Y.T.T.T.T.T.T.T.T.T.T.T.T.T.T.T.T.T.T.T.T.T.m.R.Z.b.b.b.b.x.R.x.x.x.R.x.R._ ) ' ",
"Z.E.x.b.b.b.E.E.E.b.E.b.b.Z.Z.b.b.Z.e s 5 8 n R T.T.T.T.T.T.T.T.T.T.T.T.T.T.T.T.T.T.T.T.T.T.I.R.b.b.b.b.x.x.b.R.x.x.x.R.' R.) R.",
"E.E.b.b.R.E.Z.W.W.Z.R.x.Z.Z.Z.b.b.Z.} 8 6 5 P T.T.T.T.T.T.T.T.T.T.T.T.T.T.T.T.T.T.T.T.T.T.T.Y.i.Z.b.b.Z.b.C.R.C.R.b.R.R.w.R._ x.",
"E.E.b.b.R.E.W.W.W.Z.Z.b.b.b.b.b.b.b.Z.C.w.7.D.T.T.T.T.T.T.T.T.T.T.T.T.T.T.T.T.T.T.T.T.T.T.T.T.u.b.Z.b.R.E.Z.E.R.R.w.R.R.R._ x.x.",
"E.E.E.b.R.E.W.E.W.E.Z.b.b.Z.Z.b.R.E.b.b.R.x.G.T.T.T.T.T.T.T.T.T.T.T.T.T.T.T.T.T.T.T.T.T.T.T.T.m.E.b.b.E.W.E.Z.Z.w.' R.R.R.w.R.x.",
"E.E.E.b.C.W.W.E.W.Z.b.Z.R.b.b.Z.E.E.b.E.x.b.h.T.T.T.T.T.T.T.T.T.T.T.T.T.T.T.T.Y.T.T.T.T.T.T.T.k.b.b.E.!.~.W.E.Z.R.R.R.w.R.R.R.R.",
"W.W.W.b.R.W.W.E.E.E.Z.b.b.R.Z.Z.E.b.E.E.b.b.>.T.T.[ T.T.T.[ [ T.T.T.T.T.Y.Y.Y.Y.T.T.T.T.T.Y.U.a.b.b.W.~.~.W.E.E.R.' w.R.R.R.R.R.",
"E.W.E.b.R.E.E.E.Z.E.E.E.E.E.E.E.b.Z.b.E.b.b.r.6.T.T.Y.T.T.T.T.T.T.T.T.Y.P.P.P.Y.Y.Y.Y.Y.P.6.;.B.E.E.A.~.~.W.E.Z.x.' R.R.w.R.R.w.",
"R.W.Z.b.e.R.R.E.W.W.E.R.E.E.E.Z.Z.Z.Z.E.b.b.b.&.~ K.U.Y.T.T.Y.P.6.4.4.4.Q E Q Q Q 4.4.Q Q J a.E.E.Z.W.W.^.~.W.Z.R._ w.R.R.w.x.x.",
"R.E.Z.b.R.R.R.b.Z.E.C.Z.E.W.W.W.E.E.E.E.Z.Z.Z.c.-.! Q Q ~ ! Q E E &.P &.;.&.I E E E E K G J j.s.Z.~.~.~.^.~.W.E.R.R.R.R.R.R.R.R.",
"R.R.R.x.) R.w.R.C.E.R.R.R.W.W.W.E.E.E.E.E.E.E.b.0.A G G &.;.<.a.8.b.b.x.b.b.C.a.X.M F J W K.T.H.o.M.!.!.^.!.E.E.R.R.R.R.R.R.b.R.",
"w.R.R.x.' R.R.R.R.E.R.R.W.W.W.!.W.E.E.E.E.E.E.c.f.~ 4.*.C.Z.Z.Z.b.Z.Z.b.b.Z.E.W.A.Z.B.q.i.p.h.J.1.} B.!.~.W.Z.Z.R.R.C.b.w.R.R.w.",
"R.E.R.w.R.' ' R.b.R.w.x.b.E.E.!.W.E.E.E.E.E.C.,.D.H.<.C.E.Z.E.R.Z.Z.Z.b.b.Z.E.Z.E.Z.Z.E.b.b.b.c.v.N.A.!.!.!.E.E.R.Z.R.R.x.x.w.R.",
"R.R.R.R._ x.R._ w.R.x.R.' b.E.W.E.E.E.E.E.C.9.o.;.i.C.W.Z.Z.b.b.Z.Z.Z.Z.Z.E.E.Z.E.Z.Z.b.b.b.b.b.E.E.E.W.!.!.E.!.W.E.C.R.R.x.x.x.",
"R.R.E.w._ R._ R.R._ ) R.x.x.b.E.E.R.E.Z.b.Z.b.q.c.Z.Z.Z.E.E.b.Z.Z.W.W.E.E.R.E.E.E.Z.Z.Z.b.E.b.b.Z.E.Z.W.!.!.Z.E.W.R.E.E.W.E.R.R.",
"b.R.W.R.R.' _ ' _ R.' _ x.x.x.R.R.C.Z.Z.Z.b.Z.Z.Z.Z.Z.Z.Z.Z.Z.R.W.W.E.E.E.Z.Z.Z.b.E.b.b.x.b.b.R.b.Z.E.W.!.W.b.E.W.E.Z.Z.R.R.R.E.",
"R.E.E.R._ ) ) _ _ w.w.R.x.x.b.R.Z.E.Z.Z.Z.Z.Z.Z.b.Z.Z.E.E.Z.b.b.Z.Z.Z.R.Z.b.b.Z.b.Z.b.b.b.x.b.b.b.b.E.A.E.W.Z.Z.!.E.b.b.Z.R.E.R.",
"R.w.b.b.R.R.' ' ' R.x.b.b.x.b.b.Z.R.Z.Z.Z.Z.b.Z.Z.b.b.Z.E.b.b.x.Z.Z.R.E.E.b.Z.b.R.E.b.x.x.x.x.b.x.b.!.E.E.W.Z.W.!.R.Z.R.b.R.R.C."
};
