/* XPM */
static char *result[] = {
/* columns rows colors chars-per-pixel */
"64 64 161 2 ",
"   c #050703",
".  c #070904",
"X  c #0A0A04",
"o  c #161508",
"O  c #1C1E0D",
"+  c #21220F",
"@  c #3F3703",
"#  c #252811",
"$  c #2B2F12",
"%  c #313515",
"&  c #413803",
"*  c #71380F",
"=  c #602610",
"-  c #6C2B12",
";  c #742F13",
":  c #792F15",
">  c #6C3211",
",  c #743411",
"<  c #7B3213",
"1  c #7B3C13",
"2  c #574B04",
"3  c #40461C",
"4  c #7B450C",
"5  c #7F5912",
"6  c #6B600C",
"7  c #535B23",
"8  c #5A6228",
"9  c #747C32",
"0  c #BD390E",
"q  c #854C0F",
"w  c #86500F",
"e  c #8E540E",
"r  c #82580E",
"t  c #8D590D",
"y  c #92530A",
"u  c #814510",
"i  c #945D11",
"p  c #BA561D",
"a  c #97630D",
"s  c #9A6B0B",
"d  c #8F7904",
"f  c #9D720A",
"g  c #A9780B",
"h  c #836924",
"j  c #DB5906",
"k  c #C0591E",
"l  c #CE6108",
"z  c #978A15",
"x  c #AB8406",
"c  c #AD810A",
"v  c #B38E05",
"b  c #B48B08",
"n  c #A79003",
"m  c #BC9706",
"M  c #B9A518",
"N  c #BFB31B",
"B  c #938833",
"V  c #97A53E",
"C  c #9FB03A",
"Z  c #B2AE20",
"A  c #BAB424",
"S  c #BBB92D",
"D  c #ACAB32",
"F  c #B5B432",
"G  c #BDBF35",
"H  c #B0B438",
"J  c #B4BD3C",
"K  c #B8BB3D",
"L  c #C79406",
"P  c #CE9005",
"I  c #C29E06",
"U  c #C6A305",
"Y  c #C9A704",
"T  c #CCAD04",
"R  c #C7A80D",
"E  c #D2AD03",
"W  c #CEB207",
"Q  c #CBB30D",
"!  c #D3B304",
"~  c #DBB603",
"^  c #DCBC03",
"/  c #D1B709",
"(  c #D3BC0C",
")  c #DBBF09",
"_  c #C7B311",
"`  c #C9BA14",
"'  c #C5B51A",
"]  c #C4BC1C",
"[  c #CCBC1A",
"{  c #D1BB13",
"}  c #E2BF02",
"|  c #C09935",
" . c #C5BC21",
".. c #C9BE23",
"X. c #C4BC29",
"o. c #BDC12B",
"O. c #B4C136",
"+. c #BAC134",
"@. c #B7C63F",
"#. c #BDC43C",
"$. c #BBCA3D",
"%. c #BCD536",
"&. c #BDD53C",
"*. c #BFD83D",
"=. c #DDC30B",
"-. c #DAC711",
";. c #DACA14",
":. c #D7C719",
">. c #D6C71D",
",. c #D6C81E",
"<. c #E3C202",
"1. c #E8C702",
"2. c #E7C903",
"3. c #ECCB02",
"4. c #E3C60A",
"5. c #E4C809",
"6. c #F2CF01",
"7. c #F5D302",
"8. c #FAD600",
"9. c #FEDB00",
"0. c #FEE000",
"q. c #CBC125",
"w. c #C5C428",
"e. c #CCC42A",
"r. c #C3C433",
"t. c #C8C631",
"y. c #C6CB37",
"u. c #CBCA33",
"i. c #C2C639",
"p. c #C3CC3B",
"a. c #C0D73F",
"s. c #C8D03A",
"d. c #C0D93F",
"f. c #B5BF45",
"g. c #AEC043",
"h. c #B7C444",
"j. c #BBCB43",
"k. c #B1C348",
"l. c #BBCA49",
"z. c #BFD545",
"x. c #BFD24B",
"c. c #C0C740",
"v. c #C2CC49",
"b. c #C6D445",
"n. c #C3DB44",
"m. c #C2D34C",
"M. c #C6DC4B",
"N. c #C8DE4E",
"B. c #C5D753",
"V. c #C8D551",
"C. c #C6DA53",
"Z. c #CADF51",
"A. c #CAE04F",
"S. c #CCE154",
"D. c #CEE259",
"F. c #D0E357",
"G. c #D1E35B",
"H. c #D5E662",
"J. c #D9E763",
"K. c #D9E867",
"L. c #DBEA6A",
/* pixels */
"M.M.M.S.M.N.M.N.N.N.Z.S.S.D.Z.S.D.Z.S.S.S.D.Z.A.Z.N.Z.M.n.A.n.n.n.A.N.N.M.N.N.D.G.F.G.G.F.G.G.G.Z.S.S.Z.S.D.S.S.Z.Z.N.M.M.M.M.M.",
"M.M.M.N.N.N.M.N.Z.Z.Z.S.S.S.S.S.Z.D.D.Z.S.D.S.A.Z.M.M.z.A.A.*.n.n.n.N.M.M.n.N.S.S.S.Z.S.F.Z.Z.F.Z.S.S.S.Z.Z.Z.Z.N.M.N.M.M.M.n.M.",
"N.S.S.S.S.Z.Z.N.N.Z.Z.S.S.A.C.A.Z.Z.Z.Z.S.S.S.M.z.A.z.A.d.d.%.A.M.M.A.N.M.n.n.n.n.M.M.n.n.M.M.M.n.M.M.M.M.M.N.Z.A.M.n.M.M.N.N.M.",
"M.Z.A.M.N.N.N.N.Z.Z.S.Z.S.A.A.z.M.N.Z.Z.S.S.S.M.A.A.z.*.*.*.A.A.A.M.A.S.Z.M.M.n.n.n.n.n.M.N.M.N.N.n.n.n.n.n.n.Z.N.M.N.N.M.N.M.M.",
"S.Z.M.M.M.S.A.N.A.S.S.S.C.A.z.A.N.Z.Z.Z.S.G.Z.Z.A.A.M.z.n.n.d.d.n.M.N.N.M.M.M.M.n.n.A.A.N.Z.M.M.M.n.n.n.n.n.N.S.Z.S.Z.Z.S.Z.Z.M.",
"D.S.N.M.n.n.M.M.C.M.A.A.A.S.S.S.G.Z.Z.G.H.K.K.H.A.n.M.n.n.z.A.z.d.n.n.N.M.M.n.n.n.z.n.M.N.N.N.M.n.n.n.a.*.n.Z.S.G.Z.F.M.N.M.M.M.",
"G.D.M.M.M.M.S.S.A.M.C.A.S.S.S.S.Z.G.G.G.G.H.J.Z.S.A.Z.M.A.n.n.*.n.n.n.M.N.N.M.M.M.M.M.N.N.N.N.N.n.n.M.n.n.M.Z.Z.F.Z.Z.N.A.N.M.N.",
"D.Z.N.N.M.M.n.n.A.z.A.S.D.S.S.D.D.Z.D.H.G.G.K.D.A.M.M.M.A.*.A.%.n.M.n.M.M.N.M.N.M.M.M.M.N.N.N.S.M.M.M.M.M.M.Z.Z.Z.M.N.M.N.S.M.n.",
"S.S.z.S.A.A.M.M.A.A.A.A.S.Z.D.S.S.D.G.H.D.G.G.G.M.M.M.M.n.n.M.n.n.A.n.n.M.S.M.M.M.A.n.M.S.A.N.S.M.M.n.n.n.n.N.Z.S.Z.Z.Z.Z.Z.M.M.",
"D.S.A.A.S.S.S.A.C.A.S.S.S.D.Z.Z.S.D.G.H.S.S.S.Z.M.M.M.M.M.M.N.n.d.n.d.d.n.A.n.n.M.M.n.n.M.A.M.Z.N.S.N.M.M.n.Z.Z.Z.Z.M.M.M.Z.M.n.",
"D.S.A.S.S.C.S.Z.A.A.A.C.S.S.D.Z.S.S.D.S.F.S.S.Z.M.M.M.M.M.n.M.n.n.n.n.d.d.n.n.n.n.n.d.n.n.n.n.A.N.Z.M.M.N.M.Z.Z.Z.Z.Z.Z.M.M.Z.n.",
"A.S.A.S.S.M.M.A.M.M.A.S.S.Z.Z.Z.S.S.S.A.S.F.S.Z.M.M.S.Z.M.M.S.N.n.n.d.d.n.n.M.n.n.n.d.d.z.n.M.S.S.M.M.M.M.M.S.S.Z.Z.S.Z.M.M.n.n.",
"S.A.x.A.C.A.M.M.M.A.S.S.Z.Z.Z.M.N.M.A.S.Z.G.D.S.S.Z.F.M.M.N.S.n.N.N.n.n.n.n.n.n.d.n.*.z.d.A.M.S.S.N.M.M.n.Z.M.Z.Z.M.Z.M.M.M.M.n.",
"A.A.A.A.A.M.A.M.M.C $ # 3 8 G @.m.M.N.N.Z.G.D.S.S.Z.F.M.M.N.M.N.N.M.n.n.A.n.n.n.n.n.n.n.*.A.M.A.Z.N.M.N.Z.Z.Z.S.Z.Z.Z.M.M.n.M.n.",
"S.M.A.z.M.M.S.M.C.g.o       ^ 7.Q X.l.Z.G.G.F.S.S.M.Z.M.M.A.M.N.n.n.n.d.d.d.n.n.M.z.O.o.w.N z + O + 7 Z.Z.Z.Z.Z.S.Z.N.n.M.n.n.n.",
"S.D.A.A.A.S.S.S.A.A.C O     n 9.9.9.3.X.v.G.G.G.S.S.Z.M.m.j.@.$.n.n.n.n.d.d.d.+. .( 8.9.9.8.d   .   9 Z.Z.D.Z.Z.Z.N.Z.n.M.n.n.n.",
"S.S.Z.N.N.Z.D.G.F.M.Z.k.% . 2 9.9.9.9.9.1.X.m.Z.Z.C.#. .Q 1.7.3.W ] +.&.%.O._ 9.9.9.9.9.9.9.&     8 G.Z.Z.S.S.S.S.C.C.A.A.C.M.M.",
"D.D.D.Z.S.S.S.G.S.S.Z.Z.C.8 o 5.9.9.9.9.9.9.) c.v.` 9.9.9.9.9.9.9.9.8.` Z 7.9.9.9.9.9.9.9.! X . 9 H.H.Z.Z.S.D.S.A.S.S.S.A.A.M.A.",
"D.G.S.M.Z.D.S.Z.S.Z.Z.S.M.S.V 6 9.9.9.9.9.9.9.R 7.9.9.9.9.9.9.9.9.9.9.9.8.9.9.9.9.9.9.9.8.@ # V G.G.G.G.Z.S.Z.Z.S.S.S.A.A.M.z.A.",
"S.D.S.S.Z.Z.Z.G.S.S.S.M.M.Z.Z.x.A 3.9.9.9.9.6.9.9.9.9.9.9.9.9.9.9.9.9.9.9.9.8.9.9.9.9.7.z 9 Z.M.Z.Z.G.D.Z.Z.A.N.A.A.S.S.C.M.A.M.",
"Z.D.S.S.D.S.S.S.S.Z.Z.M.M.Z.S.S.S.l.q.-.5.^ 3.9.9.9.9.9.9.9.9.0.9.9.9.9.9.8.^ / ;.[ A O.A.M.A.M.M.S.S.S.S.M.A.Z.S.A.S.Z.A.A.A.M.",
"D.S.S.D.D.S.S.G.Z.S.M.M.M.Z.N.S.G.F.Z.D.C.M 9.9.9.9.9.9.9.9.9.9.9.0.9.9.9.9.0.=.&.&.z.z.A.d.n.A.Z.M.D.G.M.A.S.Z.S.A.Z.Z.A.C.A.M.",
"D.Z.S.S.S.Z.Z.Z.N.N.n.n.d.M.A.N.M.M.M.A.j.7.9.9.9.9.9.9.9.0.9.9.9.0.9.9.9.9.8.0.o.d.n.A.*.A.*.A.n.n.M.M.M.N.S.S.C.A.Z.Z.M.M.A.C.",
"Z.S.M.Z.Z.Z.M.M.M.M.n.n.n.M.N.N.M.M.n.n.e.9.9.9.0.9.9.9.9.9.9.9.9.9.9.9.9.9.0.0.] *.z.n.A.A.d.d.n.n.n.n.M.N.Z.S.A.S.M.A.M.M.A.A.",
"D.Z.Z.Z.A.C.A.A.z.A.M.M.n.M.S.Z.M.M.n.d.] 9.9.9.9.9.9.0.9.9.9.9.9.9.9.9.9.9.9.9.:.&.&.A.*.*.*.z.d.n.n.M.M.M.Z.Z.A.S.A.Z.C.A.A.M.",
"D.D.S.Z.S.A.C.A.C.+.r.+.#.l.S.Z.M.M.n.n.( 9.9.9.9.9.9.9.9.9.0.9.9.9.0.9.9.9.9.9._ *.*.z.*.*.*.%.n.d.d.M.M.Z.S.Z.Z.S.S.S.M.A.N.M.",
"S.S.Z.N.C.A.A.A.x.5.0.0.9.2._ q.i.m.M.n.=.9.9.9.9.9.9.9.9.9.9.9.9.9.9.9.9.9.9.9._ z.n.M.*.z.A.*.d.n.n.M.Z.S.G.Z.S.S.S.S.M.N.M.M.",
"N.S.Z.N.A.A.C.A.m.4.9.9.9.9.9.9.9.1.] i.( 9.9.9.9.9.9.9.0.9.9.9.0.9.9.9.0.9.9.9.Q n.n.Z.A.*.A.*.n.n.n.S.S.Z.Z.Z.Z.S.S.S.N.M.M.M.",
"Z.S.S.S.A.A.A.D.Z.=.9.9.9.9.9.9.9.9.9.9.~ ~ 3.9.9.9.9.9.9.9.9.9.9.9.9.0.9.9.9.9.1.H n.M.M.n.M.M.M.M.n.M.Z.Z.G.Z.F.G.D.Z.S.S.S.S.",
"S.D.S.A.S.A.S.C.S.{ 9.9.9.9.9.9.9.9.9.9.9.9.<.! 7.9.9.9.9.9.9.9.9.9.9.9.9.9.9.9.P p M.M.M.M.Z.Z.S.S.S.S.Z.D.G.F.D.G.D.D.S.S.S.S.",
"S.H.S.S.C.C.A.A.S. .9.9.9.9.9.9.9.9.9.9.9.9.9.9.~ =.9.9.9.9.9.9.0.9.9.9.9.9.9.9.l 0 Z.S.Z.Z.G.G.G.Z.D.Z.Z.Z.Z.F.F.F.F.Z.F.F.S.S.",
"D.S.S.S.S.A.A.A.A.S 9.9.9.9.9.9.9.9.9.9.9.9.9.9.9.7.T 8.9.9.9.9.9.9.9.9.9.9.9.9.j k M.Z.F.Z.G.H.G.F.S.Z.Z.Z.Z.Z.D.D.Z.F.Z.G.F.F.",
"F.D.Z.F.S.Z.S.Z.Z.i.8.9.9.9.9.9.9.9.9.9.9.9.9.9.9.9.^ 7.9.9.9.9.9.9.9.9.9.9.9.9.l | Z.Z.D.Z.S.G.G.F.Z.S.S.M.Z.S.D.S.Z.S.S.G.S.D.",
"F.D.Z.Z.S.M.S.Z.Z.m.7.9.9.9.9.9.9.9.9.9.9.9.9.9.9.9.^ 9.9.9.9.9.9.9.9.0.9.9.9.9.Q l.Z.Z.Z.F.S.D.F.F.S.S.S.A.M.S.A.A.M.S.S.S.Z.Z.",
"Z.Z.Z.Z.S.Z.S.Z.Z.x.=.9.9.9.9.9.9.9.9.9.9.9.9.9.9.6.^ 9.9.9.9.9.0.9.9.9.9.9.9.7.i.M.Z.G.G.D.Z.Z.Z.F.Z.Z.n.n.n.n.M.n.n.M.M.Z.M.N.",
"Z.F.Z.Z.F.S.S.M.N.Z.A =.4.3.3.6.9.9.9.9.9.9.9.9.9.~ 0.9.9.9.9.9.9.9.9.9.9.9.9.N Z.C.G.Z.J.G.Z.Z.Z.Z.N.V.n.n.n.d.n.&.n.n.N.M.M.N.",
"Z.Z.N.Z.S.D.S.Z.Z.Z.Z.Z.M.M.h.h.h.F X.,.^ 7.9.9.9.! 9.9.9.9.9.9.9.9.9.9.9.9.9.7.i.Z.H.G.J.G.S.S.G.Z.M.n.M.n.d.n.n.d.n.M.M.M.n.M.",
"N.Z.N.Z.S.S.Z.Z.N.Z.Z.Z.n.n.M.S.Z.Z.Z.N._ ! 9.9.=.7.9.9.9.9.9.9.9.9.9.9.9.9.9.9.-.Z.Z.G.H.G.Z.S.Z.Z.M.n.n.n.d.n.n.n.n.n.M.M.M.M.",
"M.M.M.V.S.A.N.N.N.Z.S.M.n.n.M.M.M.M.Z.j.=.7.9.9.m I I U E <.7.9.9.9.9.9.9.9.9.9.9.t.S.S.G.G.M.M.Z.M.M.n.n.n.d.d.d.d.n.n.n.M.M.n.",
"Z.S.M.M.S.N.S.S.N.Z.S.M.M.M.M.n.n.n.M.D f 9.9.3., < < < : - > q g U 1.9.9.9.9.7.9.=.N.S.S.S.A.M.M.n.n.n.M.n.*.*.d.d.d.d.n.M.M.M.",
"S.S.Z.N.Z.N.N.Z.M.M.Z.N.n.n.M.n.n.M.M.h i 9.9.7.x q , ; ; ; , ; < < > t U 8.9.} 9.9.b.N.N.A.n.n.M.n.n.M.A.A.n.n.d.d.n.n.n.n.n.n.",
"D.S.Z.N.Z.Z.N.Z.M.n.M.N.n.M.M.n.n.M.N.5 x 9.8.9.8.9.T R ~ ~ W U v x c f a U 9.^ 9.9.y.M.n.n.n.n.M.M.A.S.S.S.n.n.d.d.d.n.n.n.n.n.",
"D.D.S.N.N.N.M.N.N.M.M.M.M.M.M.M.n.M.j.8.<.<.1.8.9.9.9.^ 8.9.9.9.9.9.9.9.9.9.9.T 9.9.s.n.d.n.n.N.S.M.M.S.S.M.n.d.%.%.*.d.n.d.n.A.",
"S.S.S.n.M.M.n.M.M.n.n.n.M.M.M.M.M.M.p.9.9.9.3.! ! 8.8.^ 9.9.9.9.9.9.9.9.9.9.9.6.<.7.n.A.M.n.M.Z.Z.M.M.S.A.n.n.d.%.*.d.d.n.d.d.n.",
"Z.Z.M.n.M.n.M.N.N.n.n.M.N.Z.Z.Z.Z.Z.y.9.9.9.8.3.m L ~ ~ 8.9.9.9.9.9.9.9.9.9.9.9.! [ Z.Z.N.M.N.Z.S.M.M.S.M.M.n.z.d.d.d.n.n.%.d.d.",
"Z.M.n.n.M.M.M.M.N.M.M.N.N.M.Z.Z.M.M.r.I g 4 * - = < * - , 4 s b Y 1.8.9.9.9.9.9.8.f.G.Z.Z.M.M.Z.S.Z.M.Z.M.M.A.n.d.n.n.n.n.A.n.d.",
"M.M.n.n.n.N.M.M.Z.N.N.N.N.N.Z.M.M.Z.B < < , < - - < - - < < < < < - q b } 9.9.9.9...G.G.Z.M.n.N.M.M.M.Z.n.n.A.n.n.n.M.A.A.d.n.d.",
"Z.Z.M.M.N.N.S.S.Z.N.Z.M.N.Z.Z.M.M.Z.B 1 u e i i r w ; , > e q u u 1 , ; - s 7.9.9.6.V.D.G.Z.M.M.Z.M.M.M.M.n.M.M.n.n.n.n.n.n.d.A.",
"Z.S.M.M.Z.S.Z.D.D.Z.Z.M.N.N.Z.M.M.A.u.0.0.0.9.9.9.9.E , g 0.0.0.9.9.7.<.T E 9.9.9.9.i.Z.Z.Z.N.M.Z.Z.N.M.Z.M.Z.Z.M.M.M.A.N.n.n.A.",
"S.S.M.Z.Z.S.D.D.D.Z.N.M.M.M.N.N.N.N.+.9.9.9.9.9.9.9.8.1 E 9.9.9.9.9.9.9.9.9.9.9.9.9.e.Z.Z.Z.M.M.M.M.M.S.S.Z.Z.A.M.M.A.N.n.z.z.n.",
"S.S.Z.M.Z.S.D.S.D.S.Z.N.A.m.N.N.S.S.j.7.9.9.9.9.9.9.8.y 8.9.9.9.9.9.9.9.9.9.9.9.9.9. .Z.N.Z.N.N.M.M.M.S.D.Z.Z.Z.z.n.N.M.n.n.A.A.",
"S.S.S.M.Z.D.S.S.S.Z.Z.N.A.M.N.N.Z.S.M.{ 9.9.9.9.9.9.9.6.9.9.9.9.9.9.9.9.9.9.9.9.9.8.e.Z.N.Z.Z.M.M.M.S.G.K.D.S.Z.M.n.M.M.M.A.A.n.",
"D.D.S.N.Z.D.S.S.S.S.Z.Z.M.A.N.Z.Z.Z.A.+.8.9.9.9.9.9.9.9.9.9.9.9.9.9.9.9.9.9.9.9.9.9.c.S.Z.Z.M.N.S.M.D.H.H.G.S.S.n.n.M.M.M.A.A.N.",
"S.D.S.M.A.A.S.Z.Z.S.Z.Z.S.S.S.S.N.N.N.C.' 9.9.9.9.9.9.9.9.9.9.9.0.9.9.9.9.9.9.9.9.[ Z.D.S.S.S.A.S.S.D.D.H.G.S.Z.n.n.M.M.M.M.n.M.",
"S.S.A.M.M.Z.Z.S.S.D.S.Z.S.S.S.S.Z.A.S.S.m.` 7.9.9.9.9.9.9.9.9.9.9.9.9.9.9.9.9.9./ f.D.D.S.S.M.S.S.S.G.H.K.H.S.Z.A.n.M.M.n.n.n.M.",
"Z.S.Z.N.M.Z.Z.N.Z.S.Z.Z.S.S.D.S.S.S.S.S.S.A ! <.1.8.9.9.9.9.9.9.9.9.9.9.9.9.1.! 7.} M m.S.S.Z.S.D.G.G.H.L.H.S.S.Z.M.M.Z.Z.S.M.M.",
"Z.A.A.n.n.M.N.N.Z.S.N.Z.S.D.G.D.S.S.S.S.S.' 3.0.3.! ! / ^ :.;.-.-.-.;.W ! <.8.9.9.5...m.Z.Z.S.Z.G.G.G.G.K.G.S.Z.S.S.N.A.N.M.N.M.",
"M.M.M.n.n.M.M.A.Z.S.A.S.S.D.G.G.D.S.S.S.S.Z.l.H e.>.,.,. .m.Z.Z.N.S.N.J q.:.>.e.K B.Z.Z.Z.Z.M.S.S.S.S.G.H.G.Z.Z.M.A.N.N.M.n.M.M.",
"A.Z.A.n.n.n.n.M.M.N.n.M.M.S.S.G.D.D.S.S.S.S.S.S.Z.Z.S.S.Z.Z.Z.Z.N.Z.Z.N.M.S.S.Z.S.Z.Z.Z.M.M.M.Z.S.S.F.G.G.G.S.S.S.M.S.N.M.n.n.n.",
"Z.A.A.A.z.n.n.n.n.M.z.n.n.M.Z.S.Z.S.S.S.Z.Z.Z.C.Z.Z.Z.Z.Z.Z.N.N.A.Z.Z.S.Z.S.S.Z.Z.Z.Z.M.M.M.Z.M.S.S.S.G.G.G.S.G.G.S.S.N.M.n.n.z.",
"N.Z.Z.n.n.n.n.n.n.n.n.n.d.n.M.S.S.Z.S.Z.N.Z.Z.Z.N.Z.Z.Z.S.S.N.Z.S.D.S.S.S.Z.S.S.Z.Z.Z.Z.M.Z.Z.Z.Z.S.S.D.G.G.M.F.S.S.S.S.S.S.M.A.",
"M.Z.S.N.n.n.n.n.n.n.d.n.n.n.M.M.Z.Z.Z.Z.Z.M.N.Z.N.N.Z.Z.Z.Z.Z.Z.D.S.S.S.S.N.Z.N.Z.M.Z.M.n.M.M.M.N.N.S.S.G.G.M.S.G.S.S.M.S.S.S.S.",
"N.Z.S.N.n.*.*.*.n.n.n.n.n.n.M.A.Z.S.C.Z.Z.Z.Z.N.Z.M.Z.Z.Z.Z.M.N.Z.Z.A.A.N.N.M.Z.Z.Z.M.M.n.M.M.M.n.N.S.F.S.F.M.S.G.S.M.M.M.M.S.S.",
"n.n.N.M.n.n.n.d.n.n.n.M.M.n.M.M.M.Z.Z.Z.Z.Z.N.N.Z.M.Z.Z.Z.M.M.M.Z.Z.Z.S.Z.N.N.N.Z.Z.M.n.n.n.n.n.n.N.F.F.S.D.S.S.G.S.M.S.S.S.A.M."
};
