/* XPM */
static char *_25864579f73423cfba5a1179439884aZehRWvScSmJHpthS[] = {
/* columns rows colors chars-per-pixel */
"64 64 189 2 ",
"   c #1E1A1C",
".  c #211E1E",
"X  c #21201F",
"o  c #32291D",
"O  c #3E341E",
"+  c #1E2426",
"@  c #212525",
"#  c #252A27",
"$  c #372E24",
"%  c #373929",
"&  c #7E1E17",
"*  c #423B30",
"=  c #3D412E",
"-  c #424229",
";  c #494F2F",
":  c #55552E",
">  c #4D5332",
",  c #565F32",
"<  c #655729",
"1  c #596235",
"2  c #676F36",
"3  c #6C7535",
"4  c #757E36",
"5  c #4B4849",
"6  c #8D282E",
"7  c #AB373F",
"8  c #A2461E",
"9  c #864221",
"0  c #924C21",
"q  c #935828",
"w  c #996129",
"e  c #8E7E34",
"r  c #997C38",
"t  c #B36C3E",
"y  c #AB7231",
"u  c #AB7835",
"i  c #DF4F29",
"p  c #D4562B",
"a  c #E84D29",
"s  c #E15029",
"d  c #F4512C",
"f  c #F9512C",
"g  c #D6602C",
"h  c #C36934",
"j  c #CB6B33",
"k  c #D56A32",
"l  c #C07134",
"z  c #D37331",
"x  c #D37832",
"c  c #B04344",
"v  c #B26B47",
"b  c #CF755A",
"n  c #DC5F64",
"m  c #DF6D6B",
"M  c #D87063",
"N  c #E06C6C",
"B  c #EB6D72",
"V  c #F27176",
"C  c #76823C",
"Z  c #9B8633",
"A  c #988638",
"S  c #AA8F39",
"D  c #BC8E3A",
"F  c #AC9639",
"G  c #BA973A",
"H  c #B39A3A",
"J  c #97A63D",
"K  c #BAA73D",
"L  c #B6B23E",
"P  c #BBBD3E",
"I  c #CE8D37",
"U  c #C58E39",
"Y  c #D18335",
"T  c #C99638",
"R  c #CD953B",
"E  c #CB9D3C",
"W  c #D4993C",
"Q  c #C8A53A",
"!  c #D5A73E",
"~  c #CEB13C",
"^  c #D3B43D",
"/  c #DAB63E",
"(  c #DCBD3E",
")  c #E1A43E",
"_  c #E8A73E",
"`  c #E4A83E",
"'  c #EBAB3D",
"]  c #EDB33E",
"[  c #E2BE3E",
"{  c #E8B93D",
"}  c #F1BC3F",
"|  c #AFC23E",
" . c #B7C33D",
".. c #BCD536",
"X. c #BDD63D",
"o. c #BFD83D",
"O. c #C0D93F",
"+. c #E3C23F",
"@. c #ECC83F",
"#. c #F4C63F",
"$. c #B99F42",
"%. c #BCA444",
"&. c #B7AA44",
"*. c #A9BA47",
"=. c #B7B442",
"-. c #BCBC44",
";. c #BBBE4A",
":. c #9C8D66",
">. c #C69540",
",. c #CD8152",
"<. c #D59251",
"1. c #CAA641",
"2. c #C5AB44",
"3. c #CDAA43",
"4. c #D7A841",
"5. c #DBAD45",
"6. c #CEB141",
"7. c #C3BB44",
"8. c #CBBD46",
"9. c #C5BC4A",
"0. c #D3B541",
"q. c #D5BC42",
"w. c #DCBD42",
"e. c #E2AA45",
"r. c #E3BE41",
"t. c #F2BE42",
"y. c #AFC242",
"u. c #B0C443",
"i. c #BCC443",
"p. c #BCCC44",
"a. c #BDC44A",
"s. c #BDCB4B",
"d. c #BED243",
"f. c #BED14A",
"g. c #C3C243",
"h. c #CCC444",
"j. c #C5CC45",
"k. c #CECB47",
"l. c #C4C44C",
"z. c #CAC649",
"x. c #C2CB4B",
"c. c #CBCB4B",
"v. c #D4C344",
"b. c #DCC443",
"n. c #D5CB45",
"m. c #D2C449",
"M. c #D2CD4A",
"N. c #C0D545",
"B. c #C3DB44",
"V. c #C3D44D",
"C. c #C8D14E",
"Z. c #C6DD4B",
"A. c #C8DE4E",
"S. c #D4D04A",
"D. c #C6C952",
"F. c #C4D452",
"G. c #CBD253",
"H. c #C7DA51",
"J. c #CADF51",
"K. c #CEDD5A",
"L. c #E3C442",
"P. c #EAC543",
"I. c #E5C944",
"U. c #ECCC44",
"Y. c #F4C242",
"T. c #F2CE43",
"R. c #F8CE43",
"E. c #EAD147",
"W. c #F4D344",
"Q. c #FCD643",
"!. c #FDD842",
"~. c #FDD843",
"^. c #F5D548",
"/. c #CAE04F",
"(. c #CAE051",
"). c #CCE053",
"_. c #CBE057",
"`. c #CCE156",
"'. c #CEE258",
"]. c #D0E257",
"[. c #D1E35B",
"{. c #D2E35D",
"}. c #D2E45E",
"|. c #D5E662",
" X c #D6E662",
".X c #DAE868",
"XX c #A6A3A0",
"oX c #CFCECE",
"OX c LightGray",
/* pixels */
"Z.Z.A.A.Z.Z.Z.Z.J.J.J.(.`._.J._.`.`.`._.`.'.J.(.(.A.A.Z.A.Z.Z.B.B.B.A.A.Z.Z.A.'.'.[.}.[.[.{.{.'._.`._.J.`.`.`.(.J.J.A.Z.Z.Z.Z.Z.",
"Z.Z.A.Z.A.A.Z.A.J.J.J._.`.`.(.`._.`.`.(.`.`._._.J.Z.B.B.Z.B.B.B.Z.Z.A.Z.Z.Z.A.).`.J.J.).).J._.).J.(.(.(.J.(.J.J.A.A.Z.Z.Z.Z.Z.Z.",
"A.(.(.J.(.J.J.A.A.J.J.`.`.J.A.J.J.(._.J.J.`.(.Z.Z.Z.B.B.B.B.B.Z.Z.Z.J.J.A.Z.B.B.B.Z.Z.B.B.Z.Z.Z.B.B.Z.Z.Z.Z.Z.A.A.Z.Z.Z.Z.A.Z.Z.",
"J.J.A.A.J.A.A.Z.J.(._._.(.Z.Z.Z.Z.Z.Z.J._.(.(.Z.Z.Z.B.B.B.B.B.Z.Z.Z.J.J.Z.Z.B.B.B.B.Z.Z.Z.A.A.A.Z.B.B.B.B.B.Z.J.A.Z.Z.A.A.Z.Z.Z.",
"J.J.A.Z.Z.A.A.A.(._.`.(.J.Z.Z.Z.Z.J.A.J.'.[.`.J.Z.A.Z.B.B.B.B.B.B.Z.Z.J.A.Z.Z.Z.Z.f.u.*.*.f.Z.Z.Z.B.B.B.B.B.A.`.`.(.J.J.`.J.A.Z.",
"`.`.A.Z.B.B.Z.Z.A.Z.A.J.(.).J.`.`.'.`.'.}.|.|.}._.J.Z.B.B.B.B.B.B.B.B.Z.p.=.h.v.- @ + + + 2 A.Z.Z.B.B.B.O.B.A.`.`.`.(.Z.A.A.Z.Z.",
"[.`.Z.Z.Z.A.J.J.A.Z.J.).`.`.`.`.`.`.].[.}.|.|.'._.J.A.Z.Z.B.B.O.B.d.-.v.I.Q.!.L.+ + + + 1 Z.A.A.B.B.Z.B.B.Z.J.`.`.J.A.A.J.A.Z.A.",
"'.`.Z.A.Z.B.B.B.Z.Z.A.(.`.`._.`.`.J.'.|.[.{..X'.A.Z.Z.Z.Z.B.B. .g.b.Q.!.!.!.!.A + + @ 4 H.A.A._.Z.Z.Z.Z.B.Z.J.J.(.(.A.Z.A.(.Z.B.",
"`.).Z.(.A.A.Z.Z.Z.J.J.(.`.`.`.`.(.'.}.|.].[.{.`.Z.Z.Z.Z.B.N.g.L.!.!.!.!.!.!.W.% @ % J Z.(.J.Z.`.Z.Z.B.B.B.B.J.J.(.J.J.J.A.J.A.B.",
"'.(.A.J._.`.`.(.Z.(.(.J.`.`.J.(.`.[.}.}.`.).`.J.Z.Z.Z.Z.i.v.Q.!.!.!.!.!.!.!.e # 3 f.B.B.Z.Z.Z.J.J.(.Z.Z.Z.B.(.J.J.A.Z.A.Z.A.A.B.",
"_.(.J.)._.J.J.J.J.Z.(.J._.`.(.(.`.'.[.`.`.`.`.J.Z.Z.Z.-.I.+.L.P.W.!.!.!.!.w.3 y.B.B.B.B.B.B.Z.A.Z.J.Z.Z.Z.Z.A.J.J.A.A.A.Z.Z.Z.B.",
"_.(.J.(._.A.A.A.Z.Z.J.`.).(.J.A.(.(.J.J.`.`.`.J.Z.p.8.P.[ P.T.P./ ^ q.v.P d.B.B.B.B.B.O.B.B.Z.(.J./.Z.Z.Z.Z.(.`.`.(.`._.A.Z.Z.O.",
"(.(.Z.Z.A.Z.A.Z.Z.A.J.`.J.J.A.Z.Z.Z.J.(._.[.`.J.x.U.!.!.!.!.!.!.!.!.!.b.i.d.B.B.B.B.B.B.B.Z.Z.(.(.A.Z.Z.B.J.Z.`.A.Z.A.Z.Z.Z.Z.B.",
"(.J.Z.Z.A.A.A.Z.Z.B.B.Z.A.J.A.Z.Z.Z.A.A.J.[.`.x.^.!.!.!.!.!.!.!.!.!.!.!.!.q. .B.B.B.B.B.B.Z.Z.A.J.A.Z.A.Z.J.A.`.`.J.J.Z.Z.B.Z.B.",
"J.A.A.Z.Z.Z.`.A.A.Z.Z.A.Z.J.J.A.Z.Z.Z.J.[.}.F.I.!.!.!.!.!.!.!.!.!.!.!.!.!.!.U.i.Z.B.B.B.B.B.B.Z.(.).).J.Z.(.J._.`.J.A.B.Z.B.B.B.",
"`.`.J.Z.A.J.`.`.J.Z.Z.Z.Z.A.J.J.J.Z.A.`.[.K.8.w.:.%.!.!.!.!.!.!.!.!.!.!.!.!.!.W.-.B.B.B.Z.Z.Z.B.`.'.`.J.J.`._.J.(.Z.A.Z.Z.B.B.B.",
").J.J.Z.Z.J.`.[.`.A.J.J.A.A.(.J.J._._.[.[.l.U.* oXA !.!.!.!.!.!.!.!.!.!.!.!.!.!.P.L i.p.V.H.Z.Z.[.}.}.J.J._.`.`.(.Z.A.A.A.Z.Z.Z.",
"[.[.`.J.`.`.'.[.`.(.J.(.(.`.`.`.].`.`.`.l.W.K . $ P.!.!.!.!.!.!.!.!.!.!.!.!.!.!.!.!.!.Q.W.U.v.g.D.K.}.J.J._.`.(.(._.)._.(.(.Z.Z.",
"'.[.`.A.J._.`.`.`.J.J.A.A._._._.(._.J.>.I Q./ < ^ W.Q.!.!.!.!.!.!.!.!.!.!.!.!.!.!.!.!.!.!.!.!.!.Q.U.m.a.V.(.J.J.(.`.`.(.A.Z.Z.Z.",
"`.`.(.(.(.`.J.`.`.`.J.Z.A.J.J.J.(.J.=.d Y Q.!.!.!.+.L.!.!.!.!.!.!.!.q.%.U.!.!.!.!.Q.!.!.!.!.!.!.!.Q.!.Q.I.;.V.A.(.(.J.(.A.A.A.Z.",
"`.`._.`.`.`.).`.`.J.J.Z.Z.J.(.(.`.`.>.d R Q.W.Q.U.Q.!.!.!.!.!.!.!.F XXOXO T.!.!.!.Q.!.!.!.!.!.!.!.!.!.!.!.!.I.-.Z.(.J.J.A.A.A.Z.",
"`.`.`.`.'.(.`.`.J.(.A.Z.Z.J.J.F.'.`.R s U.!.!.q & w Q.!.!.!.!.!.!.< * 5   Q !.!.!.{ P.!.!.!.!.!.!.!.!.!.!.!.Q.U.: *.J.J.J.J.(.Z.",
"`.`.J.`._.J.J.J.A.A.B.B.B.Z.7.b.b.i.G Y !.!.!.9 6 7 t T.!.!.!.!.!.Z . X o U.!.!.!.Y.R 7.I.!.!.!.!.!.!.!.!.!.S % + # C J.Z.Z.J.A.",
"J.`.J.J.J.A.A.A.Z.Z.B.B.B.i.W.!.!.W.K !.!.!.!.v B B n c ! !.!.!.!.Q.H Z ( !.!.!.!.!.P.p.N.j.n.I.^.!.!.W.Z - + + + + + 2 Z.A.(.A.",
"_._.J.J.(.J.Z.Z.Z.Z.Z.Z.B.a.W.!.!.!.+.U.!.!.!.,.V V V N P.!.!.!.!.!.U.P.!.!.!.!.!.!.+.| B.B.O.o.d.j.P 4 , ; = % % = > 3 V.J.(.Z.",
"`.`.(.(.J.(.A.J.A.A.Z.A.Z.Z.b.!.!.!.Q.^ !.!.!.<.V V V M W.!.!.!.Q.Y i s k @.!.!.!.!.( U.b.h. .X.B.B.B.Z.Z.A._.J.J.J._.J.Z.J.A.Z.",
"(.`.J.A.A.J.J.J.J.A.Z.A.Z.Z.M.!.!.!.!.w.!.!.!.e.V V V ,.!.!.!.!.R d f f f x !.!.!.!.w.!.!.!.Q.b.h. .o.A.J.(.'._.(._.`.`.Z.A.Z.Z.",
"J.(.J.A.J.A.A.(.J.A.Z.Z.J.Z.a.Q.!.!.!.P.P.!.!.P.m V B 5.!.!.!.!.x f f f f p !.!.!.W.^ !.!.!.!.!.!.Q.v.z.s.J.(.J.J.`.'.J.A.Z.Z.Z.",
"J.`.(.(._.(.(.`._.A.A.Z.A.Z.Z.b.!.!.!.!.^ !.!.!.,.V b W.!.!.!.!.I d f f f z !.!.!.( Q.!.!.!.!.!.!.!.!.!.T.v.x.H.`.[.].`.).`.J.(.",
"`.}.`.(.J.A.(.J._.J.Z.Z.Z.Z.Z.z.!.!.!.!.+.W.!.!.P.<.P.!.!.!.!.!.^.z a a g { !.!.Q.^ !.!.!.!.!.!.!.!.!.!.!.!.!.q.l.K.`.`.`.`.`.(.",
"`.}.`.(.J.Z.A.J.J.A.Z.Z.Z.Z.A.f.I.!.!.!.Q.[ Q.!.!.!.!.!.!.!.!.!.!.!.r./ Q.!.!.!.( ^.!.!.!.!.!.!.!.!.!.!.!.!.!.!.!.b.l.H.`.[.`.`.",
"`.`.J.`._.A.(.J.J.A.A.Z.Z.Z.Z.A.z.!.!.!.!.!.!.!.!.!.!.!.!.!.!.!.!.!.!.!.U.+.L.w.2.^ ^ ^ q.L.6.^.!.!.!.!.!.!.!.!.!.Q.!.8.J.[.[.`.",
"`.`.J.`.`.J.`.J.(.(.A.Z.B.B.B.Z.f.U.!.!.!.!.!.!.!.!.!.!.!.!.!.!.!.Q.L.^ +.Q.!.!.!.!.!.!.!.!.W.Q !.!.!.!.!.!.!.!.!.!.!.z.`.'.`.`.",
"`.`.J.(._.A.J.J.J.(.J.Z.B.B.B.Z.A.c.!.Q.Q.!.!.Q.} R.!.!.!.!.!.!.!.@.Q.!.!.!.!.!.!.!.!.!.!.!.!.P.w.!.!.!.!.!.!.!.!.!.b.Z.J.`.J.J.",
"J.`.(.J.).A.(.J.A.Z.J.Z.Z.Z.Z.A.`.J.v.P.P.!.!.!.} ' ' t.!.!.!.!.!.!.!.!.!.!.!.!.!.!.!.!.!.!.!.P.I.!.!.!.!.!.!.!.!.U.p.Z.A.J.A.Z.",
")._.J.J.`.`.`.J.A.J.(.A.Z.Z.A.A.`.[.C.E W.!.!.!.!.R.R.Q.!.!.!.!.!.!.!.!.!.!.!.!.!.!.!.!.!.!.!.0.W.!.!.!.!.!.!.!.Q. .B.B.A.A.A.Z.",
"J.J.A.J.`.'.`.(.(._.J.A.Z.Z.A.A.).`.(.-.!.!.!.!.!.!.!.!.!.!.!.!.!.!.!.!.!.!.!.!.!.!.!.!.!.Q.^ 6.E.Q.!.!.!.!.!.Q.g.o.B.Z.Z.Z.B.Z.",
"A.A.Z.J.`.`.J.J.A.J.J.A.Z.B.Z.J.J._.J.c.!.!.!.!.!.!.!.!.!.!.!.!.!.!.!.!.!.!.!.!.!.!.!.!.W.~ W.U.V.C.m.W.!.!.!.h.B.B.B.Z.B.Z.Z.Z.",
"Z.A.Z.Z.(.(.A.J.A.J.(.A.B.B.Z.Z.Z.A.J.M.!.!.!.!.!.!.!.!.!.!.!.!.!.!.!.!.!.!.!.!.!.!.!.w.( !.!.!.h.A.Z.N.j.b.v.d.B.B.B.B.B.B.B.Z.",
"J.(.A.Z.(.A.(.J.A.J.J.Z.B.B.Z.B.B.Z.Z.b.!.!.!.!.!.!.!.!.!.!.!.!.!.!.!.!.!.!.!.!.Q.W.z.a.^.!.!.!.U.N.B.B.B.N.X.o.o.O.B.B.B.B.Z.Z.",
"J._.J.A.J.A.A.J.A.Z.Z.Z.B.B.Z.B.B.B.N.U.!.!.!.!.!.!.!.!.!.!.!.!.!.!.!.!.!.!.!.^.T =.Z.a.q.!.!.!.Q.g.B.Z.A.Z.B.B.o.O.B.B.B.B.B.B.",
"`.`.J.A.J.Z.A.J.A.Z.Z.Z.Z.B.Z.Z.B.Z.x.!.!.!.!.!.!.!.!.!.!.!.!.!.!.!.!.!.^.] / D h D I.W.!.!.!.!.!.I.Z.J.[.(.B.B.o.o.B.B.B.B.B.B.",
"`.`.(.Z.J.A.Z.A.Z.Z.Z.Z.Z.Z.Z.Z.B.Z.h.!.!.!.!.!.!.!.!.!.!.!.!.!.!.!.!.!.!.^.!.!.+.H !.!.!.Q.!.!.!.Q.x.`.`.A.B.B.....o.B.B.B.B.Z.",
"`._.(.Z.Z.B.Z.Z.Z.B.B.B.Z.A.Z.Z.Z.V.I.!.!.!.!.!.!.!.!.!.!.!.!.!.!.!.!.!.!.!.!.!.!.v.v.!.Q.h.S.M.c.j.s.(.A.Z.B.B.o.o.o.B.B.O.O.B.",
"(.J.A.B.Z.B.Z.A.A.B.B.Z.Z.A.J.J.J.c.!.!.!.!.!.!.!.!.!.!.!.!.!.!.!.!.!.!.!.!.!.!.[ y ;.W e.$.Z.J.'.Z.Z.J.Z.Z.Z.B.o.O.O.B.B.O.O.O.",
"J.Z.B.B.Z.A.Z.Z.Z.Z.Z.A.Z.A.J.A.Z.n.!.!.!.!.!.!.!.!.!.!.!.!.!.!.!.!.!.!.!.!.!.!.E h a.u j l f.J.`.A.Z.J.Z.B.Z.B.B.B.B.B.Z.B.B.B.",
"A.Z.B.B.Z.A.Z.J.J.Z.Z.A.Z.A.A.A.N.U.!.!.!.!.!.!.!.!.!.!.!.!.!.!.!.!.!.!.!.!.!.!.Q.Q r 0 8 j H A.J.Z.Z.A.B.B.Z.Z.B.B.B.Z.Z.B.B.B.",
"J.A.Z.Z.Z.A.J.`._.Z.(.Z.Z.J.A.Z.x.!.!.!.!.!.!.!.!.!.!.!.!.!.!.!.!.!.!.!.!.!.!.!.!.!.w 0 w u &.Z.A.Z.Z.Z.Z.B.A.Z.B.B.B.Z.Z.B.B.B.",
"(.(.Z.A.J.`.J.'.`.J.(.Z.A.A.J.Z.k.!.!.!.!.!.!.!.!.!.!.!.!.!.!.!.!.!.!.!.!.!.!.!.!.!.l.J.J.J.A.Z.J.A.Z.A.Z.Z.J.A.Z.Z.A.J.Z.B.B.B.",
"_.(.A.A.J.`.`.`.'.J.A.Z.Z.Z.A.Z.S.!.!.!.!.!.!.!.!.!.!.!.!.!.!.!.!.!.!.!.!.!.!.!.!.!.c.A.A.(.Z.Z.A.A.A.(.(.(.J.(.Z.Z.A.Z.Z.B.B.B.",
"`.`.A.Z.A.`.`.`.`._.J.Z.Z.Z.A.A.S.!.!.!.!.!.!.!.!.!.!.!.!.!.!.!.!.!.!.!.!.!.!.!.!.!.c.J.Z.J.A.Z.A.A.Z.(.'.`.J.J.B.B.Z.Z.Z.B.B.Z.",
"_.`.(.A.A.`.J.`.`.J.A.A.A.Z.A.J.x.^.!.!.!.!.!.!.!.!.!.!.!.!.!.!.!.!.!.!.!.!.!.!.!.W.a.(.A.J.J.Z.Z.Z.J.}.|.'._.J.Z.B.Z.Z.Z./.A.Z.",
"`.`.`.Z.A.'.'.`._.(.J.A.A.J.J.J.J.3.Y.W.Q.Q.!.!.Q.W.W.W.Q.!.!.!.!.!.!.!.!.!.!.!.W.5.J._.J.J.A.Z.A.Z.[.}.|.[._.).B.B.Z.Z.Z.Z.J.J.",
"_.'._.Z.A.J.`.J.J._._.J.(._.`.`.A.x.! ' ' ' ' ' ' ' ' ' ' ' ] Y.R.Q.!.!.!.!.R.t.' 9.`.`._.(.(.J.(.J.'.{.|.[._.J.Z.B.Z.Z.Z.Z.Z.Z.",
"J.`.J.Z.Z.J.J.`.`.`._.J.`.`.`.J.C.m.W U ) ' ' ' ` ` 4.3.1.1.4.` ' ' ' ] ' ' ' _ 2.J.[.`.`.J.J.(.`.(.[.}..X}.`.J.Z.B.Z.Z.B.B.B.Z.",
"J.`.J.Z.Z.A.(.A.J.(.J.J.(.`.F.&.U.!.#.' W R D S ;.H.J.`.J.J.V.N.i.7.6.4.W R U $.H.`.`.J.`.(.J.(.'.}.}.|..X|.`.(.Z.A.A.J.A.J.Z.Z.",
"J.J.A.B.B.Z.Z.Z.J.`.J.J.`.F.F 0.U.I.v.9.a.x.V.J.J.J.).`.(.J.J.Z.Z.Z.Z.B.=.` ' ] l.`.].J.J.J.A.J.`.}.[.}..X}.(.(.J.(.J.(.A.Z.Z.Z.",
"Z.Z.Z.B.B.Z.A.A.Z.`.A.J.).H.D.G.G.H.`.`._.J.).`.(.`.(.`.(.(.J.(.A.J.A.Z.A.9.U.+.b.l.(.J.J.J.A.(.`._.`.[.}.'.J.J.J.(.Z.A.Z.B.Z.Z.",
"J.J.(.Z.B.Z.Z.Z.Z.A.B.Z.Z.J.).[.'.`.`.`._.(.(.J.J.(._._.J.J.J.(.A.J.J.Z.Z.J.x.q.0.&.J.A.Z.Z.Z.A.(.`.].[.}.[.`._.(.J.J.A.Z.B.B.B.",
"J.(.(.B.B.B.B.B.B.Z.B.B.B.Z.J.`.(.(._._._.J.J.J.A.J.J.`.J.Z.Z.Z.J.J.(.`.J.(.`.H.a.s.J.A.Z.Z.A.A.(._.`.`.}.[.`.`.[.J.J.A.Z.Z.B.B.",
"A.J.J.B.B.B.B.B.B.B.B.B.B.B.Z.J.J.J.(.J.A.A.J.J.Z.J.J.(.(.(.Z.J.`.'.`._.(.J.(.(.J.J.J.A.Z.(.A.Z.J._.`.[.}.[.J.`.'.J.`.).'.`.Z.A.",
"Z.J._.Z.B.B.B.B.B.B.B.B.B.Z.Z.A.J.J.J.J.J.Z.A.J.Z.A.J._._.J.J.(.`.`.`.`.(.J.J.J.A.J.J.Z.B.Z.Z.A.Z.A.`.`.[.'.A.`.}.`.J.A.(._.).`.",
"Z.J._.A.B.o.o.o.B.B.B.B.B.B.Z.A.J.(.J.J.J.J.J.A.A.Z.J._._.A.Z.A.A.J.J.(.A.A.Z.A.A.J.A.Z.B.B.Z.A.B.A.`.`.`.].A._.[.J.Z.Z.A.J.).).",
"B.B.Z.Z.Z.B.B.B.B.B.B.Z.Z.B.Z.Z.A.(.A.J.J.J.Z.Z.J.Z.A.(.(.Z.B.Z.J.J.J.).(.A.A.A.J.(.Z.B.B.B.B.B.B.A.`.`.`.[.J.`.}.J.A.J.A.(.(.A."
};
