/* XPM */
static char *result[] = {
/* columns rows colors chars-per-pixel */
"64 64 165 2 ",
"   c #3A381C",
".  c #272528",
"X  c #392729",
"o  c #353336",
"O  c #373738",
"+  c #3C3C3D",
"@  c #7F231F",
"#  c #63391E",
"$  c #4A2C2C",
"%  c #5A2A29",
"&  c #4A3334",
"*  c #423739",
"=  c #483538",
"-  c #433B3B",
";  c #533635",
":  c #682420",
">  c #642B2A",
",  c #772E21",
"<  c #792A27",
"1  c #773722",
"2  c #5A431C",
"3  c #60421D",
"4  c #4F5622",
"5  c #595A28",
"6  c #4F5237",
"7  c #5A5F3C",
"8  c #754C22",
"9  c #605722",
"0  c #675A27",
"q  c #735624",
"w  c #5E643B",
"e  c #6B6324",
"r  c #636B2E",
"t  c #70652D",
"y  c #6A732B",
"u  c #717A25",
"i  c #737B2C",
"p  c #636C32",
"a  c #62673C",
"s  c #63693B",
"d  c #677030",
"f  c #757D31",
"g  c #434344",
"h  c #474749",
"j  c #494749",
"k  c #474A4C",
"l  c #4B4B4D",
"z  c #525347",
"x  c #575947",
"c  c #57594E",
"v  c #4E4E51",
"b  c #535355",
"n  c #565658",
"m  c #585759",
"M  c #59595A",
"N  c #64694B",
"B  c #656464",
"V  c #676769",
"C  c #686868",
"Z  c #7A6964",
"A  c #747666",
"S  c #757474",
"D  c #7C7B7C",
"F  c #8A2922",
"G  c #942924",
"H  c #9B2D26",
"J  c #9A2B28",
"K  c #813124",
"L  c #A62F28",
"P  c #AD312B",
"I  c #B3342B",
"U  c #B9332B",
"Y  c #C1362D",
"T  c #CC3931",
"R  c #D43C32",
"E  c #DA3D33",
"W  c #E23E34",
"Q  c #ED3F34",
"!  c #ED4035",
"~  c #EB443A",
"^  c #E9463A",
"/  c #F14136",
"(  c #807F7F",
")  c #EA5C53",
"_  c #EC6C62",
"`  c #EC7D75",
"'  c #78822D",
"]  c #778232",
"[  c #7D8B33",
"{  c #84932C",
"}  c #838A33",
"|  c #849136",
" . c #8A9738",
".. c #909E33",
"X. c #94A336",
"o. c #99AC35",
"O. c #95A23F",
"+. c #9BAB3C",
"@. c #A4B63D",
"#. c #B1C73D",
"$. c #BCD536",
"%. c #BDD63C",
"&. c #BFD83D",
"*. c #C0D93F",
"=. c #A7B744",
"-. c #AFBF4A",
";. c #AEC141",
":. c #B3C644",
">. c #B5C74C",
",. c #BDD345",
"<. c #BCD149",
"1. c #C3DB44",
"2. c #C0D54D",
"3. c #C6DC4B",
"4. c #C8DE4E",
"5. c #C5D951",
"6. c #CADF51",
"7. c #CAE04F",
"8. c #CCE054",
"9. c #CEE259",
"0. c #D0E257",
"q. c #D1E35B",
"w. c #D5E662",
"e. c #D8E663",
"r. c #D9E867",
"t. c #DBEA6A",
"y. c #848383",
"u. c #888787",
"i. c #898789",
"p. c #8C8B8B",
"a. c #949494",
"s. c #999797",
"d. c #999798",
"f. c #9F9D9E",
"g. c #A09E9F",
"h. c #B99693",
"j. c #A29FA0",
"k. c #A4A2A3",
"l. c #A8A7A7",
"z. c #AAA9A9",
"x. c #B0B0AF",
"c. c #B1AFB0",
"v. c #B3B3B3",
"b. c #B7B7B8",
"n. c #BCBBBB",
"m. c #EF938E",
"M. c #EC9F9A",
"N. c #EFADA8",
"B. c #F0ABA6",
"V. c #F1BAB7",
"C. c #C3C2C3",
"Z. c #CCCBCB",
"A. c #D4D4D4",
"S. c #D7D8D6",
"D. c #DCDCDC",
"F. c #F1C7C3",
"G. c #F5CDC9",
"H. c #F6D6D5",
"J. c #DFE0DF",
"K. c #E2E1E2",
"L. c #EEEEEE",
"P. c #FAF0EE",
"I. c #F2F1F2",
"U. c #FBF5F4",
"Y. c #FDFDFD",
/* pixels */
"3.3.3.8.3.4.3.4.4.4.6.8.8.9.6.8.9.9.8.8.9.9.4.7.8.4.4.3.7.3.1.1.1.1.4.4.3.4.3.q.q.0.0.q.0.0.q.q.6.9.8.6.9.9.9.8.8.6.3.3.3.3.3.4.",
"3.3.3.4.4.4.3.4.6.6.6.8.8.8.8.8.6.9.8.6.8.9.8.8.7.4.1.1.1.7.1.1.1.7.4.3.3.1.3.9.8.6.6.0.6.6.6.0.6.6.8.8.6.8.4.3.4.3.3.3.3.3.3.3.",
"3.8.8.8.8.6.8.6.4.6.6.8.8.7.5.7.5.6.6.6.3.8.8.1.1.3.,.1.*.*.*.1.3.3.7.7.3.3.1.1.1.3.3.1.3.3.4.3.3.1.1.4.1.3.3.6.7.3.3.3.3.3.3.3.",
"6.6.7.3.4.4.4.4.6.6.6.8.8.7.5.3.4.4.4.6.9.8.8.3.3.7.1.1.*.*.7.7.3.7.3.8.3.3.3.1.1.1.3.3.3.4.3.4.3.1.1.1.1.1.3.3.3.3.3.7.3.3.3.3.",
"8.6.3.4.3.3.7.3.8.8.8.8.5.3.3.3.4.5.4.6.0.q.9.5.4.4.3.,.1.1.*.*.1.3.4.4.3.3.3.3.1.3.3.3.6.6.3.1.4.1.1.1.1.1.6.9.8.8.6.9.0.8.7.3.",
"9.8.4.3.1.3.3.3.5.3.7.7.7.8.8.8.9.9.0.q.q.e.e.w.8.6.3.1.7.,.7.*.*.1.1.4.3.3.1.1.1.1.1.3.4.6.6.3.1.1.1.1.,.1.3.6.0.6.8.3.6.3.3.3.",
"q.9.3.3.3.7.6.8.7.7.5.8.9.8.8.8.9.0.q.9.w.w.e.6.8.8.6.3.7.7.&.&.1.1.1.3.4.3.3.4.1.3.4.4.4.4.4.4.1.1.1.1.1.3.6.9.6.6.8.3.8.3.3.3.",
"9.6.4.4.3.1.1.1.7.,.7.8.8.8.8.8.6.6.q.w.9.q.r.9.3.3.3.3.1.*.1.&.1.3.1.3.4.7.3.3.3.3.3.1.4.4.4.8.1.4.4.3.1.3.6.6.8.6.6.3.3.7.3.3.",
"8.8.3.7.3.7.3.3.7.7.7.8.8.8.9.6.6.9.q.w.0.9.q.9.3.3.3.3.1.1.3.1.*.1.7.1.7.4.3.4.4.4.1.1.8.6.4.9.3.4.1.1.1.1.6.6.8.6.6.6.6.6.3.1.",
"8.8.4.6.8.8.8.6.3.7.8.8.8.8.6.8.0.9.q.w.0.6.0.6.3.4.3.3.3.3.4.1.1.1.*.*.1.1.1.1.1.4.1.1.4.3.1.6.6.6.4.3.3.1.6.6.6.3.6.3.4.3.6.1.",
"8.8.7.8.8.5.6.6.7.7.8.8.8.9.8.6.0.0.0.0.0.0.6.6.3.3.4.3.3.3.3.1.1.*.*.*.*.1.1.1.1.1.1.1.1.1.1.7.3.6.3.3.4.1.6.6.6.3.6.3.3.4.6.1.",
"8.8.7.7.8.7.4.4.3.,.7.8.6.6.6.6.6.8.6.4.6.9.9.6.3.3.8.3.3.4.6.4.1.1.1.*.*.7.1.1.1.1.*.*.1.1.3.8.8.3.3.3.3.4.6.8.6.9.9.6.3.3.1.1.",
"8.7.7.3.4.4.4.4.4.4.6.8.6.6.6.3.3.3.4.8.6.0.9.6.6.6.0.3.3.4.6.1.4.4.1.1.1.1.7.*.*.1.*.*.1.1.3.8.8.4.4.3.1.6.4.8.5.3.6.3.1.1.3.1.",
"8.5.3.3.4.3.4.3.3.3.1.3.6.6.3.3.3.3.4.3.6.9.0.0.6.6.8.4.4.4.6.4.4.4.1.1.7.1.1.*.1.1.1.*.1.7.3.8.6.4.3.4.4.6.4.8.9.6.6.3.3.1.3.1.",
"7.5.7.3.4.4.8.6.4.3.3.4.3.6.6.4.4.3.4.6.q.w.0.0.8.4.6.3.3.3.3.3.1.1.1.1.*.*.*.1.7.1.1.1.1.1.1.3.8.6.8.3.6.6.6.6.8.3.4.1.3.3.1.1.",
"8.8.8.3.6.7.8.6.6.3.3.3.3.6.4.6.4.5.4.0.q.9.0.0.8.6.8.3.3.3.1.1.1.1.1.*.*.*.7.*.1.1.*.1.1.3.3.1.8.9.9.8.6.8.8.6.9.3.6.1.3.1.1.1.",
"8.8.6.4.4.6.9.0.0.3.3.6.3.8.6.3.6.9.8.q.0.6.q.6.5.6.5.X.y 0 q 8 8 q e u o.%.&.*.1.1.1.3.6.8.6.3.q.q.q.9.6.8.9.8.8.5.7.5.7.3.5.7.",
"q.9.0.6.8.9.6.0.9.6.6.8.7.9.9.9.9.9.9.0.q.9.0.6.=.t , L E / / / / / ~ T F 8 u #.3.3.1.3.8.q.8.3.q.w.q.8.6.8.8.8.8.8.8.8.7.7.3.3.",
"9.q.8.3.6.6.q.6.q.6.6.6.3.9.8.8.6.8.3.6.q.q.-.0 G ^ ! Q ! ! ! ! ! ! Q Q Q ! R @ i 1.1.3.8.q.9.3.q.q.q.q.6.8.6.6.8.8.8.8.5.3.3.3.",
"9.9.8.7.q.6.6.9.6.0.6.3.3.8.3.8.6.8.7.6.q.| Z M.m.) Q Q ! ! ! ! ! ! Q / Q Q Q / T # o.1.8.q.9.3.3.8.0.9.6.7.7.4.7.8.8.7.7.7.3.3.",
"6.9.8.8.9.9.9.6.9.6.6.3.3.6.8.8.9.0.8.5.N C.U.Y.U.U.) Q Q Q ! ! ! ! ! ! Q Q Q Q Q Q K { 6.6.4.3.3.8.8.9.3.8.8.4.7.7.6.6.7.7.4.3.",
"9.6.9.8.9.6.9.0.6.8.3.3.3.8.3.8.q.6.4.a S.Y.Y.Y.Y.Y.N.Q Q / ! ! ! ! ! ! ~ Q Q Q Q Q Q H { 1.3.4.8.3.9.q.3.3.7.4.8.8.6.6.7.5.7.3.",
"9.6.6.8.8.8.3.6.3.7.1.1.*.3.8.7.3.3.r S.Y.Y.Y.Y.Y.Y.F.Q Q ! ! ! ! ! ! ! Q / Q / Q Q Q Q H ..1.,.1.1.3.7.3.3.9.9.6.8.6.6.3.3.7.6.",
"6.9.6.6.6.6.3.3.3.3.1.1.1.3.3.3.3.' h.Y.Y.Y.Y.Y.Y.Y.B.Q Q ! ! Q Q ! / ! Q Q / Q Q Q Q Q ! , #.1.*.1.1.1.3.3.8.8.7.8.3.4.3.3.7.6.",
"6.8.6.6.8.7.7.<.7.3.7.,.3.3.9.8.:.< G.Y.Y.Y.Y.Y.Y.Y._ Q Q ! Q Q Q Q ! ! Q Q Q Q Q Q ! Q Q W 2 &.&.1.1.1.3.3.6.6.6.6.6.6.3.6.7.3.",
"9.9.6.8.8.9.7.7.7.7.7.7.3.3.8.3.9 W G.Y.Y.Y.Y.Y.Y.N.Q Q ! ! Q Q Q Q T I I R Q Q Q Q Q ! Q ! I { 1.&.1.3.3.3.8.6.6.8.8.8.3.6.4.3.",
"8.8.6.4.7.<.7.8.5.7.3.7.3.3.7.=.H Q m.Y.Y.Y.Y.Y.V.^ Q Q Q Q Q Q L $ h l l - % T Q Q Q Q Q Q ! # %.1.1.3.8.9.9.9.8.8.8.8.3.4.3.3.",
"6.8.7.4.7.7.5.8.7.7.3.3.8.3.8.0 W Q Q M.P.U.H.` ! Q Q ! Q Q ! < h b l + g b b * P Q Q Q ! ! Q P X.1.1.7.8.6.6.6.6.8.9.8.4.4.1.3.",
"6.8.7.8.8.7.7.8.8.7.7.3.4.3.2.1 Q Q Q Q ~ ^ ! Q ! ! Q Q Q Q J h b h x.A.A.a.O n = E Q Q Q / Q W 5 1.1.6.6.6.q.6.6.q.q.6.8.9.3.8.",
"8.9.8.7.5.7.7.8.8.7.3.1.3.3.+.I Q Q Q Q ! ! Q Q ! ! ~ E Y U & m v D.( l.g.a.C.O n : Q Q Q Q Q Q 1 5.6.6.6.q.q.0.q.0.0.0.8.9.8.8.",
"8.w.8.8.8.<.8.7.6.7.3.3.3.3.i R Q Q Q Q ! / Y @ > ; - - g g b g x.p.L.Y.Y.A.f.D m = ~ Q Q Q Q Q L >.9.6.6.6.6.0.9.q.0.6.0.0.9.8.",
"9.8.8.8.9.7.8.7.5.7.7.3.3.1.5 Q Q Q W J > & g b n n n n n n n o D.d.Y.Y.Y.Y.d.l.n v * > F W ~ Q Y ..9.6.6.6.6.6.9.9.6.8.9.0.0.9.",
"0.9.6.0.6.6.9.6.8.8.4.3.3.1.3 ~ H > * k n n n n n n n n n n n O D.a.Y.Y.Y.Y.a.k.n n n n v O > P R } 6.9.8.3.6.8.9.9.6.9.9.9.9.6.",
"0.9.6.6.9.3.6.6.4.8.4.4.1.1.  X k m n n n n n b n n n M M M n h z.p.L.Y.Y.C.l.S m n n n n n m g $ f 9.6.7.8.3.8.8.3.3.6.6.8.6.6.",
"6.6.6.6.6.4.8.6.4.3.6.3.1.3.  O b m n n n m b g O v B S D y.l M k S.a.a.d.k.b.+ n m m m n n n n b f 6.6.1.1.1.1.1.1.1.4.4.6.3.3.",
"6.0.6.6.0.0.6.6.4.6.6.5.1.4.  o + b b g h V y.n.L.Y.Y.Y.Y.Y.z.h n h d.Z.C.( + n g S B + k m n n l [ 4.4.1.1.1.*.1.&.1.1.4.4.4.3.",
"6.6.4.6.0.0.6.6.8.9.6.3.4.1.4 o . + b S Z.Y.Y.Y.Y.Y.Y.Y.Y.Y.Y.p.h n v + + n b g n.Y.Y.L.d.B g v j O.3.3.1.1.*.1.1.*.1.3.3.1.3.3.",
"4.5.4.6.9.8.6.6.3.6.6.8.3.1.i g i.j.f.j.k.Y.Y.Y.Y.Y.Y.Y.Y.Y.Y.Y.b.n g g g h V J.Y.Y.Y.Y.Y.Y.L.i.6 >.1.1.1.1.*.*.1.1.1.1.1.3.3.3.",
"4.4.3.3.7.7.6.3.3.6.8.3.1.1.@.S f.f.f.g.g.K.Y.Y.Y.Y.Y.Y.Y.Y.Y.Y.Y.Y.L.C.Z.I.Y.Y.Y.Y.Y.Y.Y.Y.Y.Y.A 2.1.1.1.1.*.1.*.*.1.1.3.1.1.4.",
"6.6.4.4.8.7.8.8.6.6.8.3.1.1.,.x j.f.j.f.f.c.Y.Y.Y.Y.Y.Y.Y.Y.Y.Y.Y.Y.Y.Y.Y.Y.Y.Y.Y.Y.Y.Y.Y.Y.Y.L.w 1.1.1.3.1.&.&.*.*.*.1.1.1.3.3.",
"6.6.6.6.6.6.6.6.3.3.6.3.3.3.3.r a.f.f.g.f.f.S.Y.Y.Y.Y.Y.Y.Y.Y.Y.Y.Y.Y.Y.Y.Y.Y.Y.Y.Y.Y.Y.Y.Y.Y.v.+.1.1.3.7.7.7.*.*.*.1.1.1.1.1.1.",
"9.9.6.6.6.3.4.6.6.1.4.1.1.1.1.-.B f.g.g.g.g.f.L.Y.Y.Y.Y.Y.Y.Y.Y.Y.Y.Y.Y.Y.Y.Y.Y.Y.Y.Y.Y.Y.Y.Y.N 4.3.3.8.9.7.&.1.*.*.*.1.1.1.1.1.",
"0.q.6.3.6.3.3.4.4.1.3.1.3.3.3.1.5 s.g.g.g.f.f.l.I.Y.Y.Y.Y.Y.Y.Y.Y.Y.Y.Y.Y.Y.Y.Y.Y.Y.Y.Y.Y.Y.n...6.3.3.9.8.3.7.$.$.$.*.*.*.1.1.3.",
"6.6.6.3.4.1.1.3.4.1.1.1.1.6.3.3.:.c f.f.g.f.f.f.z.L.Y.Y.Y.Y.Y.Y.Y.Y.Y.Y.Y.Y.Y.Y.Y.Y.Y.Y.Y.L.w 6.6.1.3.7.7.1.1.*.$.$.*.1.1.*.*.1.",
"6.6.4.1.1.1.3.3.4.1.3.3.4.4.6.4.6.| S g.g.g.g.g.g.k.J.Y.Y.Y.Y.Y.Y.Y.Y.Y.Y.Y.Y.Y.Y.Y.Y.Y.I.A :.6.9.4.4.4.3.3.3.,.&.&.1.1.7.&.*.*.",
"6.3.1.1.3.6.3.3.4.3.3.4.3.4.6.4.1.6.r i.f.f.f.g.f.g.g.n.L.Y.Y.Y.Y.Y.Y.Y.Y.Y.Y.Y.Y.Y.U.Z.C +.4.3.9.6.4.6.3.1.7.1.*.1.1.1.*.1.1.*.",
"4.3.1.1.3.3.3.6.6.4.3.4.6.4.4.4.6.5.5.5 y.f.f.g.g.g.g.f.k.n.D.Y.Y.Y.Y.Y.Y.Y.Y.Y.K.n.l.B  .3.1.7.6.3.1.6.1.1.7.1.1.1.1.7.7.1.1.*.",
"6.4.3.3.3.3.6.9.6.4.7.5.3.6.4.4.4.6.6.3.d S g.g.f.g.g.f.f.f.f.k.v.n.C.C.C.b.c.k.f.f.c O.9.8.3.3.6.1.3.4.3.1.3.3.1.1.1.1.1.1.&.7.",
"6.6.3.3.6.8.6.9.9.6.6.3.4.4.4.3.3.7.7.6.6.[ z a.f.g.f.g.g.g.f.g.g.g.g.g.f.g.g.g.y.6 =.6.8.6.6.3.5.6.4.4.5.4.7.5.3.7.4.7.4.7.1.1.",
"0.8.6.3.6.8.9.9.9.6.4.3.3.3.4.4.5.6.7.7.7.7.;.p M s.f.g.f.f.g.f.g.g.g.l.f.j.u.z ] 3.6.6.6.6.4.1.3.3.4.6.6.8.8.7.3.1.4.3.1.,.,.1.",
"8.8.3.3.6.8.8.8.9.6.6.4.4.1.4.4.7.8.7.5.3.3.1.1.=.d x B p.f.k.k.g.k.s. .M 7 ] <.3.6.6.6.4.6.4.3.7.3.3.8.9.6.6.6.1.1.4.3.1.&.7.7.",
"8.9.8.8.6.8.9.9.9.6.6.6.6.3.4.6.7.7.3.7.3.1.3.3.1.3.3.@.i r s w N c r [ :.1.1.6.6.6.6.6.4.6.6.4.3.3.6.q.r.9.8.6.3.1.3.3.7.7.7.7.",
"9.9.8.4.4.9.8.8.8.8.6.6.4.6.6.6.7.5.7.8.7.1.<.3.6.6.6.6.6.9.6.4.5.4.4.4.3.3.3.3.6.6.9.8.6.6.3.3.6.4.9.w.e.9.8.8.1.1.3.3.1.3.7.6.",
"8.9.6.4.7.8.8.6.6.8.6.6.6.6.8.8.7.7.7.7.7.7.7.7.6.6.8.9.6.6.7.3.2.1.1.1.3.3.3.6.6.8.9.8.8.8.8.8.8.3.9.9.e.q.8.6.1.1.3.3.1.7.1.3.",
"3.8.8.4.3.4.6.8.9.9.8.6.8.8.8.6.5.8.7.8.3.7.5.8.8.8.8.8.6.8.6.3.3.3.4.3.1.7.6.6.9.6.9.9.9.3.6.8.9.8.q.w.r.w.8.6.7.1.3.3.1.3.1.3.",
"8.8.4.3.3.4.7.6.6.6.6.6.8.8.9.9.8.8.8.7.7.3.7.8.6.6.8.8.6.6.5.3.3.1.1.1.3.6.6.6.6.9.6.6.9.8.3.8.9.q.q.w.t.w.8.8.6.3.3.6.6.3.3.4.",
"7.7.7.1.1.3.4.3.6.8.6.6.6.q.q.9.8.9.8.8.8.6.8.7.6.6.8.9.8.4.4.3.3.3.3.1.3.4.4.6.9.9.0.6.8.6.3.8.9.q.q.q.r.q.8.9.8.8.6.8.4.6.3.4.",
"3.3.3.1.1.3.3.7.6.8.4.6.9.9.9.q.9.8.8.8.8.8.8.8.8.8.8.8.8.8.6.8.4.4.4.3.4.6.6.0.9.6.3.6.3.6.7.8.8.8.9.q.q.q.3.6.3.7.4.4.1.1.1.3.",
"8.4.7.1.1.1.1.3.4.3.1.3.3.6.6.q.9.8.8.8.8.8.8.5.6.8.8.6.6.6.9.8.4.5.4.3.3.6.6.6.9.6.6.8.3.3.3.6.8.9.0.0.w.q.0.6.9.8.7.4.1.,.1.1.",
"4.8.7.7.,.1.1.1.1.3.1.1.1.3.6.9.8.8.8.8.8.5.7.7.4.6.6.8.6.4.3.3.6.6.8.0.6.6.0.6.6.6.6.3.3.3.8.3.8.8.9.9.q.q.0.6.q.3.6.4.3.3.1.1.",
"4.4.6.1.1.1.1.1.1.1.1.1.*.1.3.8.6.6.8.6.4.6.7.7.4.6.6.6.6.8.3.3.9.9.8.8.0.6.9.6.8.6.6.6.3.8.3.6.4.8.9.9.q.0.3.8.9.8.8.8.9.8.3.7.",
"3.6.8.4.1.1.1.1.1.1.*.1.1.1.3.3.6.6.6.6.6.3.6.5.4.6.6.8.9.6.3.9.9.9.8.8.6.6.6.6.3.6.6.3.1.3.3.3.3.4.6.9.0.9.8.9.q.9.3.8.8.8.8.8.",
"4.6.8.4.1.*.&.&.1.1.1.1.1.3.3.7.6.7.6.6.6.6.7.6.6.3.4.8.9.3.3.3.3.6.8.8.6.3.3.6.3.6.6.3.1.1.3.3.1.3.6.0.9.0.3.8.q.7.3.3.3.8.8.7.",
"1.1.4.3.1.1.1.*.1.1.1.3.1.1.3.3.6.7.6.6.6.6.5.3.6.3.6.7.8.3.3.3.6.3.3.8.9.3.6.3.6.8.3.1.1.1.3.1.1.3.0.0.8.q.6.9.q.6.3.8.3.7.8.3."
};
