/* XPM */
static char *result[] = {
/* columns rows colors chars-per-pixel */
"64 64 214 2 ",
"   c #17191B",
".  c #181D21",
"X  c #1E2428",
"o  c #1B2731",
"O  c #2A2B2C",
"+  c #242D34",
"@  c #2D3034",
"#  c #123551",
"$  c #363E44",
"%  c #113E64",
"&  c #3E464B",
"*  c #2C4354",
"=  c #374956",
"-  c #094575",
";  c #044779",
":  c #05497B",
">  c #0A4C7C",
",  c #1A517B",
"<  c #34546E",
"1  c #3D5A70",
"2  c #454749",
"3  c #455058",
"4  c #535659",
"5  c #475A67",
"6  c #5C5E63",
"7  c #475F72",
"8  c #43627A",
"9  c #616366",
"0  c #74767A",
"q  c #034D83",
"w  c #124F80",
"e  c #0D5182",
"r  c #035189",
"t  c #0A548C",
"y  c #165787",
"u  c #065A96",
"i  c #055C9C",
"p  c #145D94",
"a  c #255E88",
"s  c #0E609B",
"d  c #14639C",
"f  c #1A6398",
"g  c #356589",
"h  c #276A9A",
"j  c #316B95",
"k  c #336D97",
"l  c #055DA1",
"z  c #0D63A3",
"x  c #1869A3",
"c  c #226DA4",
"v  c #2875AA",
"b  c #3679AA",
"n  c #357DB1",
"m  c #466B87",
"M  c #48708E",
"N  c #487496",
"B  c #4D7A9B",
"V  c #567B96",
"C  c #627D8D",
"Z  c #4E7FA2",
"A  c #547FA1",
"S  c #3F82B3",
"D  c #678398",
"F  c #798A9C",
"G  c #4E80A3",
"H  c #5181A6",
"J  c #5385AB",
"K  c #4787B4",
"L  c #578CB2",
"P  c #5D93BC",
"I  c #7491A9",
"U  c #6C99BB",
"Y  c #5E97C3",
"T  c #6197C2",
"R  c #6A9DC7",
"E  c #659ECA",
"W  c #69A2CA",
"Q  c #6AA3CD",
"!  c #78AACB",
"~  c #7DB0CE",
"^  c #67A4D2",
"/  c #6BA6D3",
"(  c #6DAAD6",
")  c #6DABDC",
"_  c #76AAD3",
"`  c #72ACD7",
"'  c #73AEDC",
"]  c #76B1DE",
"[  c #7AB3DE",
"{  c #439EE2",
"}  c #4BAAE7",
"|  c #54ACE7",
" . c #56B2E7",
".. c #55B2E9",
"X. c #5AB5E9",
"o. c #5EBAEC",
"O. c #62B6EA",
"+. c #63BCEC",
"@. c #6ABDEC",
"#. c #7BB4E0",
"$. c #72BAE9",
"%. c #66C1EE",
"&. c #6CC3EE",
"*. c #6FC8EE",
"=. c #73C5ED",
"-. c #79C5ED",
";. c #74C9EE",
":. c #7CCBEE",
">. c #6CC4F1",
",. c #6FC9F1",
"<. c #73C6F0",
"1. c #78C6F0",
"2. c #75CAF1",
"3. c #7CCCF1",
"4. c #7FD0F1",
"5. c #83868A",
"6. c #8F9296",
"7. c #94959B",
"8. c #8B98A6",
"9. c #95A2AB",
"0. c #95A7B7",
"q. c #A9ACB6",
"w. c #ADB0B9",
"e. c #B1B5BD",
"r. c #9AB4C9",
"t. c #86B7DB",
"y. c #8BBCDD",
"u. c #98BCD7",
"i. c #B4BAC3",
"p. c #BABDC6",
"a. c #A6BDD3",
"s. c #81B7E1",
"d. c #87BAE1",
"f. c #95C0DB",
"g. c #BEC1CC",
"h. c #A8C3D9",
"j. c #B6C6D8",
"k. c #BBCDDD",
"l. c #83CDEF",
"z. c #89CFEF",
"x. c #94C3E4",
"c. c #99C6E5",
"v. c #9CC8E5",
"b. c #9ECBE8",
"n. c #84D1EE",
"m. c #8CD2EE",
"M. c #93D7EF",
"N. c #82CEF1",
"B. c #8DCFF0",
"V. c #84D1F2",
"C. c #8BD4F2",
"Z. c #8FD8F3",
"A. c #93D6F3",
"S. c #95D9F4",
"D. c #9CDBF4",
"F. c #9CDAF5",
"G. c #A5CCE8",
"H. c #B2CCE2",
"J. c #A9D4E8",
"K. c #ACDCEE",
"L. c #BDD5E4",
"P. c #B6D8EA",
"I. c #B4DDED",
"U. c #A3DDF5",
"Y. c #AADEF4",
"T. c #A3DFF9",
"R. c #B2DEF1",
"E. c #B7E0EF",
"W. c #A5E0F5",
"Q. c #ACE2F5",
"!. c #A6E1F8",
"~. c #ACE2F8",
"^. c #B4E3F6",
"/. c #BBE6F6",
"(. c #BEE8F7",
"). c #B4E5F8",
"_. c #BBE6F8",
"`. c #BDE8F9",
"'. c #C6CAD4",
"]. c #C6CBD6",
"[. c #CAD1DD",
"{. c #D0D4DE",
"}. c #C6D6E4",
"|. c #D3D6E1",
" X c #D4DCE6",
".X c #C8E4EF",
"XX c #D1E2EB",
"oX c #DDE2ED",
"OX c #C3E6F4",
"+X c #CAE6F2",
"@X c #C4E9F7",
"#X c #CBEAF6",
"$X c #C1E7F8",
"%X c #C4EAF9",
"&X c #CBECF9",
"*X c #D2EBF5",
"=X c #DAEAF3",
"-X c #D2EEF9",
";X c #D4F0FA",
":X c #DBF1FA",
">X c #E0E4EF",
",X c #E3E7F3",
"<X c #E6EAF6",
"1X c #EAEDF7",
"2X c #EAEEF8",
"3X c #E4F0F7",
"4X c #EDF2F7",
"5X c #E3F4FA",
"6X c #ECF3F9",
"7X c #EEF8FC",
"8X c #F1F3F7",
"9X c #F2F5F9",
"0X c #F5F9FB",
"qX c #F9FBFC",
/* pixels */
"*.2.3.>.%.%.>.%.>.2.4.4.4.3.4.3.4.2.4.2.4.*.4.4.:.4.;.:.n.4.4.4.4.V.Z.D.M.M.A.A.S.D.Z.Z.n.S.S.Z.D.S.S.S.S.n.m.V.V.l.3.V.A.Z.N.V.",
"<.,.>.>.,.3.4.2.V.C.V.Z.4.3.3.4.n.C.V.4.Z.W.Z.Z.S.Z.C.n.S.S.4.V.Z.D.D.W.D.U.U.U.Q.!.W.W.D.!.Q.W.W.W.U.W.W.W.U.A.Z.C.N.Z.A.3.1.3.",
"<.%.2.=.V.C.C.V.Z.Z.D.S.D.D.S.!.D.D.W.4.D.!.W.D.D.U.D.D.Q.~.S.D.W.~.Q.W.Q.Q.Y.^.(.(.).Q.).).).).^.^.W.W.W.Q.Q.S.A.A.S.Z.3.%.&.2.",
",.&.>.2.V.Z.Z.Z.D.D.D.S.S.D.D.!.W.S.W.).).W.).W.W.~.Q.!.W.Q.!.).~.).).).).$X^.(.`.&X`.(.&X%X(.(./.(.).^.~.D.W.W.T.C.D.D.:.&.&.&.",
"<.2.2.4.4.4.Z.D.D.W.D.S.D.!.~.W.U.U.W.D.Q.).Q.).Q.Q.!.Q.).Q.Q.).`.`.`.`.%X%X$X%X%X(.(.`.(.%X%X&X#X%X%X`.(.W.~.Q.Q.S.W.W.V.;.&.+.",
"=.2.2.C.V.C.D.D.Z.S.!.U.T.!.).D.S.).W.D.Q.).(.).`.).~.Q.(.(.~.~.%X&X(.&X&X%X&X&X&X&X`.&X`.%X&X&X%X%X%X#X%X).).(.(.W.~.U.C.,.>.>.",
">.1.V.2.C.D.W.Q.Q.Q.U.W.W.Q.).W.W.W.U.W.Q.(.`.).(.(.(.(.(.).)._.&X&X&X%X&X&X&X&X&X;X&X&X&X;X&X&X%X&X&X%X%X(.%X`.`.Q.Q.~.S.V.3.=.",
"2.2.C.4.C.D.D.W.Q.Q.W.Q.Q.W.W.W.~.W.W.!.~.(.`.`.%X).`.%X(.`.(.(.&X;X%X(.%X&X%X&X&X&X`.`.%X%X%X&X%X%X%X(.(.(.`.%X%X).Q.!.W.Z.4.3.",
"4.V.S.C.V.3.W.Q.Q.^.^.^._.^.^.Y.U.Q.U.Q.).(.`.%X%X%X;X%X%X&X&X&X&X&X%X&X%X%X%X%X).`.%X`.%X&X%X&X(.%X$X(.&X(.^._.%X(.Q.Q.!.Z.C.n.",
"C.D.S.S.D.n.U.Q.^.^.).).(.$X_.).U.U.W.Q.).@X&X&X&X%X&X&X&X;X;X-X;X&X&X%X%X%X%X&X`.%X&X`.(.%X`.`.(.&X%X`.$X/._.(.%X%XQ.(.U.S.C.C.",
"C.D.D.!.^.~.W.W.).(.(.(.`._._.(.(.Q.W.).(.#X&X&X&X&X%X&X&X;X-X&X;X&X&X(.%X%X_.(.%X&X`.`.%X&X%X(./.$X%X$X_.).%X@X%X(.).).~.S.n.C.",
"C.T.Q.Q.)._.).).$X%X&X(._.$X$X_.(.(.Q.(.#X&X&X;X;X&X;X&X%X;X-X&X&X;X%X%X`.%X$X%X%X&X`.`.&X&X%X%X_.%X%X$X/./.&X@X&X(.Q.(.W.D.4.C.",
"V.D.!.~.~.)././.(.(.%X%X/.%X%X`./.%X(.@X&X;X#X&X;X&X-X;X&X;X-X#X@X&X%X`.&X%X%X$X`.&X`.%X%X#X%X(.(.(.$X$X%X%X%X/.%X(.Q._.Q.D.D.S.",
"4.D.W.Q.).(.)./.(.%X%X%X$X$X%X$X%X%X@X-X:X5X:X:X&X;X-X:X5XXXJ.v.v.b.[.=X*X&X$X).`.%X(.%X&X%X%X%X%X%X_._.%X#X#X&X#X$X$X$X^.K.U.m.",
"n.U.Q.Q.).`.`.).`.%X$X$X`.`.%X%X#X#X&X;X:X5X5X5X3X4X9X0X9X}.b.c.f.m.j.6X2X2X=X+X`.%X%X%X%X&X%X%X%X%X%X%X#X#X-X;X&X&X&X&X&X^.Q.S.",
"C.W.Q.^.)./.(.(.%X%X$X$X(.`.%X%X#X&X;X;X5X5X7X0XqXqXqX0X9X}.b.b.c.x.f.4X6X2X2X2X5X*X%X%X%X(.(.%X$X&X#X+X&X&X/.%X;X&X&X#X@X(.Q.U.",
"Z.D.U.^.(.(.@X$X#X@X$X&X@XOX#X#X&X*X:X:X7X0XqXqXqXqXqXqXqXL.G.x.d.d.u.2X2X2X2X<X<X1X,X@X`.$X$X@X$X&X(.#X-X&X%X@X;X%X%X&X#X`.).Q.",
"C.S.D.).)./.&X%X&X@X(./.+XOX#X+X+X*X:X6X0XqXqXqXqXqXqXqX2X}.b.x.d.#.a.<X<X<X<X<X<X<X1X<X@X(./.).@X&X%X&X&X#X@X#X&X%X#X#X#X&X(.Q.",
"n.S.Q.)._._.%X&X@X@X.X.X+X+X+X+X*X*X3X9XqXqXqXqXqXqXqX0X8X Xu.s.s.' ].<X<X<X<X<X<X<X<X<X<X*X$X).(.$X#X-X&X-X#X&X&X#X&X&X#X&X%XQ.",
"n.S.)./.`._.@X(.E.I.@X+X.X+X*X+X*X=X4X9XqXqXqXqXqXqX0X9X8X6Xa.#.' r.<X<X<X2X<X<X<X<X<X<X<X<X#X_./.(.@X&X#X&X&X-X-X#X&X&X@X$X(.^.",
"<.C.U.(.`.(.@X/.I..X+X+X+X*X+X*XoX8X8XqXqXqXqXqXqXqX0X8X8X1X<Xj.a.,X<X<X<X<X<X<X<X<X<X<X<X<X<XOX/./.(.%X#X%X#X&X-X&X-X@X%X`.Q.Q.",
">.:.F.U.~.).(.E.I..X@XXX*X*X*X*X<X8X8X9XqXqXqXqX0XqX0X8X2X1X<X<X2X2X<X2X1X<X<X<X<X<X<X<X,X<X<XoX/.(._.$X$X&X&X#X&X&X&X@X`././.Q.",
">.3.S.Y.~.Q.).E.E./.+X+X.X+X*XXX4X9XqXqXqXqX0XqX0X0X9X9X8X2X<Xa.a.<X<X<X1XoX{.[.].[.|.>X<X<X<X<XL.$X/.$X(.&X#X&X&X#X&X(.).Q.Q.Y.",
"&.V.S.U.W.~.E.E.I./.OXI.OX#X+Xk.9X9XqXqX0X0X0X0X0X9X9X8X2X2Xh.#.' r.<X,X|.'.e.w.w.q.i.p.[.>X<X<Xu././.R.^.%X%X&X%X#X`.(._.).Y.Y.",
"%.2.S.U.W.).K.E.E.^.E./.@X+XP.k.4X9X9X9X9X9X0X0X9X9X6X2X2X|._ ] ' / p. X[.i.i.q.w.w.w.w.w.'.oX<Xh.x.Q.Q.).`.%X$X@X`.^./.^.W.W.U.",
",.3.D.D.W.Q.U.K.K./.Q.E.+X/.x.[.8X8X8X8X XoX9X9X8X2X2X2X<Xu.s.] ' ) R ].g.i.q.q.w.q.7.F q.w.'.=Xk.~ /.^.(.#X%X`.(./.^.Q.~.D.S.M.",
"3.V.D.Z.D.U.M.Y.Q.K.E.^./..Xt.[.2X6XoXj.H.H.1X9X6X2X2X2Xa.s.] ' / Q T 8.p.q.i.q.w.q.N G V 8.e.{.j.( E.(.).@X%X%X$X%X).W.Y.Q.D.U.",
">.<.V.Z.S.W.D.Y.^.K.^.^./.K.s.t.L.j.c.b.G.G.oX2X2X3X2X[.s.s.] ` / R T L 8.i.w.q.w.9.G G G B F 0.W ) v.^.).$X%X&X%X@X).).^.).U.D.",
"&.>.S.C.S.D.D.U.K.K.^.^./.f.#.#.[ [ d.d.d.d.H.8X2X1XL.t.s.#.' / E T T Z A C i.i.w.F G G G G G J E ) [ (.%X(.(.%X%X).).@X^.).K.W.",
"X.&.C.C.D.U.C.D.W.W.Q.Q._.y.#.] #.#.#.#.#.d.t.u.u.y.d.s.[ ] ( Q E T T Y A Z A V D G G G G G G H P ( [ `.(.(.(.%X(.`.(.Q.D.Q.W.W.",
"+.@.3.V.D.D.Z.S.D.W.W.^.`.r.` ] #.#.#.#.s.#.s.d.t.#.#.#.] ` / E T Y T Z Z Z A A G G G G G G G G P ^ D E.).(.`.&X%X(.).D.D.W.D.W.",
"@.&.>.;.V.D.S.Z.S.).^.).).g.w.` ] ] #.#.#.#.s.#.[ ] ] ] ` Q V 8 7 m L Z Z Z A Z G G G G G G G G J 5 5 K.~._.%X%X(.).W.W.S.D.U.S.",
";.3.2.;.3.F.S.S.F.^.).(./._ 0.i.8.' ] ' ] ] ] s.#.] ' ' R 2 O 2 $ X + m A Z Z Z G G G G G Z G 1 $ 5 Q R.)._._._._.~.D.C.D.Z.S.V.",
">.>.4.n.V.U.D.Q.Q._.).(.%X#.' ! 0.8.8.R ] #.] s.#.' ' R 2 9 '.{.|.].4 X N A Z Z G G G G m = + $ M / ' ).R.)._._.).W.W.A.C.D.D.4.",
"&.>.2.V.Z.U.U.D.Q.OX_.$X%Xs.) ) ) R 0.5.C C I T ( ` ) V 2 {.p.p.p.i.{.O < Z Z Z m 1 * X o = m J P ^ [ ).Y.).).$X/.Q.D.W.S.D.Z.*.",
";.;.>.<.V.T.Q.Q.~.^.%X$X#Xc.) ) ) ' s.' 8.C C 9 6 3 3 2 0 '.{.{.{.{.g.0   o       + * m G G Z G Y ( t./.)./._.$X/.Q.W.W.W.!.S.4.",
"<.:.4.V.N.F.).U.Y.^./.$X%XJ.) ' ) ) ) ' ' ] ' ( U D V & 5.p.>X>X>X>Xg.5.. < m M B G G G H Z Z J Y ) b./._./.).(.@X).Q.U.D.U.S.V.",
";.V.S.D.V.M.Q.Y.~._./.(.%XP.f b ) ) ) ' ' ' ' ' ( / E 7 4 '.'.,X<X].g.2 $ Z Z Z G G G G G H Z L b d b./.(.(.).R.%X^.Q.U.W.D.A.2.",
">.N.V.C.M.U.Q.).)./.`.@X&X&Xn l Z O.) ) ) ' ' ` / E Y A $ 7.w.e.w.w.6.  m Z Z Z G G G G G G H j u v Y.^.Q.Y.).$X(./.).U.W.A.1.;.",
"+.=.3.C.U.Q.)./.).).(.@X%X$X~ i l Z ) ) ) ) ` / Q T P J # @ 6 7.7.6   # Z Z Z Z H G G G B H j r i W ^.~.Y.U._.#X(.Q.U.D.F.m.:.3.",
"@.X.3.A.U.Q.^.).)._._.%X&X%X@Xc l l c Z ^ E E T J k a > : % + X . o % % % y g b N Z N N g , q u x K.^.~./.^.Y.OX$XQ.^.F.l.C.V.3.",
"+.&.A.W.^.^._.^.)._.%X&X&X&X%X~ l l l l l i t t q q q : ; ; : ; % q % q ; ; ; % % ; % ; ; r u i _ `._.^.).(.).)._.Y.Q.U.A.C.C.;.",
"O.1.F.D.~.Y.^.^.^.~.R.#X&X&X&X#Xn l l l l i u q : ; ; ; ; ; ; ; ; ; q q ; ; ; q ; ; q ; > r i n @X@X(._.).^.^.Y.U.Y.U.S.A.:.1.&.",
"&.=.C.S.U.F.U.^.^.Y.).(.-X&X&X&XG.z l l i i r ; ; ; ; ; ; ; ; ; ; ; q % ; ; ; % ; ; ; q t i x J.&X%XOX(.(.).U.U.Y.U.U.U.Z.3.<.&.",
"N.3.l.m.A.F.Y.U.Y.^./.(.#X&X#X%XOXy.z l i u : ; ; ; ; ; : ; ; : ; ; % q ; ; : q ; ; w t x x f.%X&X&X(.(.R.^.Q.Q.Q.W.~.U.Z.V.;.%.",
"-.3.l.B.F.D.F.U.^./.^.#X-X&X&X&X#X-Xt.l l i r ; ; ; ; ; ; ; ; ; ; ; q ; ; ; % q w w t x n u.;X-X;X&X$X/.^.^.^.).).D.A.S.N.;.%.o.",
"z.B.A.F.U.U.F.U.^././.%X&X&X&X&X&X&X&Xy.s l i : ; ; ; ; ; ; ; ; ; % q ; ; q q w p c v Y G.:X:X5X-X%X`.).^.U.Q.^.Q.Y.U.F.D.V.%.%.",
"N.3.B.Y.A.M.U.Y.^.$XOX&X@X-X#X%X#X&X&X-XH.v l i r : ; : : - : e q w q w w w y p x Z _ XX3X6X6X-X#X%X(.(.).Q.Q.^.^.Y.W.D.Z.4.+.o.",
"N.B.F.M.A.C.U.R./.@X%X&X&X-X#X#X#X&X#X-X-X+Xt.x u u w q e e w y y y a j k b K K Y h.5X0X0X0X5X;X-X;X#X&X&X(./.).).Q.W.Q.S.C.,.%.",
"A.U.U.B.C.A.F.R.(.OX$X#X-X&X-X-X-X$X$X-X-X-X-X.X! v z s p p f f h v S K P ! u.}.7X7X0XqX0X0X0X6X5X5X:X:X;X&X$X$X@X).).Q.W.Z.;.=.",
"A.B.F.z.N.A.U.U./.$X%X%X&X-X-X&X&X&X#X$X$X*X-X-X-X#XH.t.K n c c v b K Y y.P.#X*X:X5X7X0X0X7X5X:X*X:X&X#X-X%X@X$X@X/.).^.W.C.<.%.",
"A.C.B.A.&.$.U.U.R._.&X_.$X#X&X#X&X-XR.R.$X-X-X-X:X&XR.OX$X_.R.K.K./.(.#X@X@X%X&X:X5X7X7X5X:X:X#X&X&X%X$X%X/.(.)./.(./.U.S.C.&...",
"C.l.3.3.$.N.A.F.R./.).(.%X&X&X%X%X#X%X(.&X-X&X#X-X&X$X#X$X_._./.E./.R.(./.).OX&X:X5X5X:X:X-X&X#X%X%X%X@X%X/./.Q.Y.Q.Q.U.D.V.3.>.",
"1.-.=.=.;.3.:.C.F.U.U.).&X&X&X%X%X%X/.#X$X@X(.@X#X&X$X&X%X%X%X$X(././.^./.^.(.#X5X:X;X;X&XOX/.$X%X%X&X%X%X/._.^.Q.U.Q.W.S.;.&.&.",
"N.C.1.l.<.@.C.N.B.A.~.(.$X&X_.R.^.%X(.Q.$X).).(._.%X$X_.$X%X&X_.R.$X(.R.^.^.(.%X&X%X#X&X@X@X/.^.$X%X&X&X%X$XY.Y.Q.Y.W.U.C.2.+.+.",
"N.:.N.3.=.2.C.A.N.N.F.Q.`.$X_.T.Q.).^.Y.^.).^.(.R.$X_._.R._.$X_.).$X_._.).^.^.).(.).(.%X(././.)./.@X%X%X#X_.U.U.Q.Q.Q.U.C.*.+.o.",
"l.;.1.:.N.z.C.C.A.F.U.~.^.).^.^./.Q.W.U.U.^.).^.).)._.(.).$X%X_.).%X_._.R.).U.Y.Q.).(.(.`._.Q.).)././.(.%X(.).Q.U.S.W.A.4.4.o...",
"1.@.C.l.2.<.z.C.F.F.W.^.~.).Q.~.Y.Q.U.Q.D.D.D.W.Y.Q._._.R.).OX/.).R._._.Y.).F.F.D.).(.`.(.).).).Q.^.Q.(.).).~.D.U.S.D.S.4.*.X.} ",
"1.&.N.:.@.o.N.V.C.A.~.T.S.!.U.F.Y.U.Y.U.S.S.C.D.U.Q._.`.^.^./.$XR.U.Y.R.U.U.T.A.C.D.).).(.$X_.W.D.Q.Q.).).).D.Z.U.D.D.!.Z.:...} ",
"&.@.3.;.1.<.N.3.C.z.N.B.C.U.D.D.U.U.Q.A.C.:.C.C.S.U.U.).~.^.).(.R.T.R.U.U.U.A.C.C.D.D.W.Q.).).~.~.).Q.U.Q.W.D.Z.S.S.D.D.;.4.o.} ",
"@.+.=.2.<.Z.N.N.B.-.$.:.C.m.A.S.A.F.S.l.;.>.N.3.A.D.U.).Y.~.^.Y.Y.R.U.B.B.A.N.3.Z.C.Z.D.D.D.W.D.U.Q.D.U.U.W.S.S.S.4.C.S.>.:.X.} ",
"&.o.%.@.@.<.:.z.N.N.N.1.=.C.C.N.N.3.;.>.<.&.3.=.N.C.A.A.C.D.T.U.F.U.F.N.$.@.N.3.<.;.4.C.V.C.V.V.C.A.C.m.C.l.C.C.V.:.%.%.o.o.....",
"o.X.%.o.@.<.N.z.l.$.1.@.@.=.<.%.+.+.o.o.+.o.@.o.+.=.<.1.$.1.l.A.B.B.N.$.O.| O.@.%.o.2.4.2.4.3.3.C.V.:.V.V.4.3.4.*.>.%.%.%. .} { ",
"o.o.%.+.+.@.1.3.<.$.<.@.$.@.+.o.......+.X...+.o.O.@.@.=.O.@.@.-.N.N.$.O.$.O.| | %.%.3.4.V.V.3.;.V.3.:.n.S.V.4.2.>.&.;.%.%.+.} { "
};
