/* XPM */
static char *result[] = {
/* columns rows colors chars-per-pixel */
"64 64 216 2 ",
"   c #254F6E",
".  c #235F67",
"X  c #25546E",
"o  c #29566F",
"O  c #255A6C",
"+  c #29596E",
"@  c #265473",
"#  c #285672",
"$  c #265B73",
"%  c #2A5B74",
"&  c #27567B",
"*  c #28577B",
"=  c #275B7C",
"-  c #2B5D7B",
";  c #315F77",
":  c #25646C",
">  c #29666E",
",  c #266473",
"<  c #2B6376",
"1  c #276974",
"2  c #27617A",
"3  c #2B637C",
"4  c #26697D",
"5  c #2B6A7C",
"6  c #31647E",
"7  c #316C7D",
"8  c #3A6979",
"9  c #2F7177",
"0  c #2D727C",
"q  c #37717D",
"w  c #3A707F",
"e  c #426E7B",
"r  c #47757C",
"t  c #265D81",
"y  c #2B5E82",
"u  c #266484",
"i  c #2C6383",
"p  c #2D6A84",
"a  c #2D658A",
"s  c #276D8E",
"d  c #2E6A8B",
"f  c #326584",
"g  c #336B84",
"h  c #386A83",
"j  c #31668A",
"k  c #326B8C",
"l  c #3A6F8C",
"z  c #2B7585",
"x  c #2D7B84",
"c  c #2D728B",
"v  c #2D7B8C",
"b  c #367287",
"n  c #3C7285",
"m  c #33738D",
"M  c #3B738C",
"N  c #337A8D",
"B  c #3F7989",
"V  c #2B6694",
"C  c #2E6C93",
"Z  c #2F6D9A",
"A  c #326D93",
"S  c #386D90",
"D  c #316E99",
"F  c #2E7292",
"G  c #2E7B93",
"H  c #2F7F9B",
"J  c #337394",
"K  c #3A7593",
"L  c #337A95",
"P  c #3B7A93",
"I  c #34749B",
"U  c #39769C",
"Y  c #347B9C",
"T  c #3A7A9D",
"R  c #3476A1",
"E  c #367CA3",
"W  c #397CA4",
"Q  c #377DAA",
"!  c #3A7EAA",
"~  c #427484",
"^  c #4C7683",
"/  c #41728A",
"(  c #4B798D",
")  c #517D8E",
"_  c #447692",
"`  c #437B93",
"'  c #427C9D",
"]  c #4A7E9B",
"[  c #407FA6",
"{  c #2D8394",
"}  c #2F849B",
"|  c #2F899D",
" . c #338495",
".. c #3A8996",
"X. c #34839C",
"o. c #3A839D",
"O. c #348A9C",
"+. c #37919E",
"@. c #3683A3",
"#. c #3A84A5",
"$. c #368BA3",
"%. c #398BA5",
"&. c #3681AA",
"*. c #3B83AC",
"=. c #3789AA",
"-. c #3B8BAC",
";. c #3693A4",
":. c #3A92A6",
">. c #3693AA",
",. c #3A93AC",
"<. c #369AAB",
"1. c #3A9BAD",
"2. c #3D85B2",
"3. c #3D8BB4",
"4. c #3E86B9",
"5. c #3E8CBA",
"6. c #3D92B5",
"7. c #379AB2",
"8. c #3C9CB5",
"9. c #3E93BA",
"0. c #3E9ABA",
"q. c #37A0AE",
"w. c #3CA2B6",
"e. c #3AA5B4",
"r. c #3DA4B9",
"t. c #3CA9BA",
"y. c #4B808B",
"u. c #53868E",
"i. c #448494",
"p. c #4B8596",
"a. c #458A93",
"s. c #47809F",
"d. c #4B839C",
"f. c #478C98",
"g. c #4F8D9E",
"h. c #53879E",
"j. c #578899",
"k. c #4C939E",
"l. c #59939C",
"z. c #658D95",
"x. c #679595",
"c. c #709499",
"v. c #4382A4",
"b. c #4B85A5",
"n. c #448AA5",
"m. c #4B8BA3",
"M. c #4285AC",
"N. c #4886AA",
"B. c #4589AD",
"V. c #4B8BAD",
"C. c #578BA6",
"Z. c #528DA5",
"A. c #548DA9",
"S. c #4791A6",
"D. c #4B93A4",
"F. c #4294AC",
"G. c #4C91AC",
"H. c #439CAF",
"J. c #4D99AC",
"K. c #5593A4",
"L. c #5A95A7",
"P. c #5493AB",
"I. c #569AAB",
"U. c #5C99AA",
"Y. c #4186B3",
"T. c #418BB5",
"R. c #4B8DB2",
"E. c #418DBB",
"W. c #518DB0",
"Q. c #4192B5",
"!. c #4B94B3",
"~. c #439CB5",
"^. c #4A9DB3",
"/. c #4193BB",
"(. c #4A94BA",
"). c #409ABB",
"_. c #4D99B9",
"`. c #5295B4",
"'. c #5A96B3",
"]. c #549DB5",
"[. c #5F9AB7",
"{. c #5197B9",
"}. c #599CBB",
"|. c #6696A6",
" X c #659FAC",
".X c #6C9BAD",
"XX c #4FA4AB",
"oX c #5AA3AB",
"OX c #47A4B5",
"+X c #46A5B7",
"@X c #4CA3B2",
"#X c #44AABA",
"$X c #53A3B3",
"%X c #58A1B0",
"&X c #52ABB6",
"*X c #5CABB2",
"=X c #54ABBA",
"-X c #5EB6BA",
";X c #6BA7AB",
":X c #66A2B5",
">X c #6DA5B5",
",X c #66A2B9",
"<X c #69ACB9",
"1X c #76A8B5",
"2X c #74AABB",
"3X c #61B5B5",
"4X c #6DB2B5",
"5X c #73B5B1",
"6X c #3F8FC1",
"7X c #3F92C1",
"8X c #428FC1",
"9X c #4290C1",
"0X c #8EB5AC",
"qX c #86B6B5",
"wX c #B0C9BC",
"eX c #8CC4C0",
/* pixels */
"/ / h R.T.5.4.*.! i l ! 8X! W Y.T.E # Y.E.! E./.&.j E T.5.T.8XM.f *.*.Y.M.U W k a M.2.2.5.E.Q t # I f i j f U I I k 3 f k A A A ",
"N.T 6 Y.E.T.4.T.W # S E.E.A.T.4.T.R.; V././.(.Q.T f `.T.3.E.E.l i A.3.E.E.{.N.y ~ s.Y.T.8X5.2.A X j j - J J k a k 3 - I I C U E ",
"(.v.- ' T.E.T.T.! y K Y./.`.*.! *.M.6 !././.F.).P.7 `.E.Y.E.N._ 3 W.W.2.E.T.}.C.C.R.B.v.4.E.E j i 3.5.4.2.3.T.4.5.A a T.E.T.T.E.",
"E.] y K R.5.4.4.T.a |.E.Y.2.U J E T + 7 h w , b w $ g I I I J - y a f y S U ] ) A.8XE.E.R.*.E D - E.E.E.5.5.5.5.E.W a *.3.2.2.5.",
"E.Y.i Y.T.E.5.5.5.D ^ / i f - # 3 < f d c c G l.K.L $ d D J - g ! D A f R ! ! A V.E.E.E.E.E.T.R & 2.T.4.E.3.E.2.T.*.I E.4.T.I E ",
"- y j T.T.E.5.E.E.! l C.D D d A u d o.].o.s p D.6.@.Y *.3.W s.2.2.4.4.N.T.E.4.I *.T.E.E.E.E.T.3.y I u C A a A u k I j f i - # o ",
"V.y y U 4.E.E.5.W.A p.2X2XR.*.Q &.&.6.0.).T 4 L 0.9.,.3.2.2.3.4.3.4.5.3.4.(.*.J #.(.E.E.E.8XE.3.- a = t & = a y Z R 2.2.2.2.*.A ",
"[ j - A ! E.E.5.{.U ] (.9XE.9.3.6.6.8.0.8.6.p L 0.9.9.6.5.3.3.2.3.3.T.Y.T.A.b.A - d.T.E.E.E.E.-.# #.3.F a I R *.E.E.5.E.E.4.! T.",
"Y..Xf [ 4.E.E.T.E.D k R.9.5.9.9./.).0.0.1.%.p L 6./.9.6.6.3.3.3.3.2.3.2.T.I f d a A 3././.3.6.6.- ,.9.3.3.3./.5.5.5.5.E.! 2.T.! ",
"8X'./ (.E.(.5.4.T.b.i k P.6./.6.6.9.0.6.Y L g #.6.6.6.6.6.-.3.-.R.-.-.3.3.I J A Z.].~.0.0.6.7.0.1 6.0.0.9.9.9.9.E.E.T.! 3.5.4.E.",
"E.R.f u.l f l j.z.z.p 5 ^ (.6./.6.9.9.6.@.d % T 3.9.9.6.6.3.3.6.I.n.3.6.T.#.C c P.8.0.6.,.8.8.0.5 0.0.0.0.0.9.5.T.*.! 4.! ! T.5.",
"E.v.y i ] l y a d T p m 7 >XQ.6.6.9.9./.Q I i ' 3.3.9.3.6.3.6.-.m.-.-.,.6.~.H c f.=X0.^.$.$.>.1.1 $.w.8.0.9.9.B.`.R.[ 4.E.8X5.E.",
"(.l j [ ,X(.2.3./.2.$ p a U.6.6.6.9.9.2XM.s - s.2.-.T.s.3.3.L 5 1 Y ,.6.8.D.} c 0 0XeXk.L  .v  .1 >.r.0.8.0. .|.Z.R.E.E.6XE.E.E.",
"J & f U 4.T.5.9./.-.2 d E Q./.6.6.E.9./.(.2.a p.p.6 m 7 m 5 < % O < b ..B < 1 s < , q , , , . , 5 0.8.w.8.1.M P./.E.5.E.5.5.E.E.",
"% & y i ! E.E.5.9.Y - d -.9.6.6.6.6.9.3./.*.i k i - n ~ y.- 4 p D.,.:.} G z p G >.$.} } ;.} } c 4 8.0.8.F.K.%XQ./.5.9.5.E.E.E.2.",
"t V i 4.E.5.5.9.E.c = Y 3.Q.3.-.3.6.3.9.5.k $ Y 6.6.3.6.~.i.m F.+X0.0.0.6.>.>.7.r.r.w.w.t.w.7.>.4 1.:.F.OX~.8.0.5./.E.5.E.E.E.a ",
"C |.S ! E.8X4.5.6.F p 6.9.9.3.Y 3.6.3.T.&.u i L 6.6.6.7.^.P N -.8.w.0.w.r.w.t.e.t.t.t.t.t.e.q.| 5 p.XX0.w.8.0.6.9.3.5.E.5.T.N.a ",
",XwXh W ! Y.&.9.Q.3.3 @.3.9.9.*.T.E.6.*.#.J 3 J Q.6.6.Q.D.2 N v >.0.w.OXXX3Xt.t.t.t.t.t.t.t.q.{ 9 *X0.8.8.8.0.9.9.3.E.5.T.v.*.E.",
"E.1Xf I T.3.3.-.9.-.< 5 L 6.6.Q./.(.3.3.Y < O Y %.6.6.).X.2 G L >.r.#X<.1.XXt.t.t.t.t.t.t.t.q.z 7 3Xw.0.8.r.0.9.6.3.5.E.5.T.E.5.",
"E.[.j % f i 6 5 L L g < p N J N ` K f J m p 3 -.8.8.6.0.L g c v ~.r.t.1.<.@Xt.e.e.t.t.t.t.t.| v 9 4X8.w.0.r.0.9.6.5./.E.5.E.E.E.",
"T.A.y A A Y I 2 ~ g.n.b p @ e 7 d - + p c J p -.7.6.6.Q.F.f.G J.=Xr.r.r.e.t.#X<.<.e.t.r.r.#X$.v 5 4X8.r.r.0.0.0./.5.5.E.5.*.E.E.",
"5.*.A 5.5./.5.m U.9.6.3.6.Y ;X].3.I 6 Q.6.6.c L 6.0.1.F.7.f. .=Xr.w.r.r.t.#X*X+.O.;.r.t.r.#X$Xv 5 4X8.w.w.0.8.-.T.5.E.T.&.E 5.E.",
"5.I f [ (.*.].j.I.6.9.6.6.-.F.3.6.*.u %.6.-.p L 1.6.1.6.8.a.;.#X8.8.1.1.q.XX..x { x +.e.r.r.-XoX9 5XOXw.$.O.d 3 d E.5.E.A ! /.5.",
"i i y f f - l g K.6.6.6.6.3.6.6.6.3.E 3.9.L - =.0.6.6.8.OXz ;.1.O.O.O.L +.+.{ { 0 0 0 O.w.8.&XoX4 x.x.u.1 7 < + % d k k - k k a ",
"J I ! ! *.*.5.I k &.6.3.6.6.6.6.6.3.6.9.6.@.$ #.9.9.6.8.+Xc 0 7 1 $ . : 4 , > : : . . : 1 : 0 x p G v v L 3 Y T I J U I j J U A ",
"E.3.5.8X5.5.2.d k Q 3.3.-.6.6.9.3.3.3.9.6.2.$ L Q.-.6.6.0...k.;X4XI.H.;.1.{ x N G G G $.<.4 { 8.1.+X).0.,.p 3.E.E.T.T.&.i W 5.E.",
"5.5.T.4.3.T.R = b.3.6.3.6.3.3.-.3.5.9.9.6.6.i J %.3.6.6./...D.0.w.@X~.w.1. . .k.w.1.>.w.r.X.X.8.$X0.8.).=.s I D U j R I a &.E.8X",
"T.3.! ! 4.E.Y.a d.`.6.6./.6.Y @.3.5.*.5.6.9.p n.T.6.6.6.(. ...1.8.1.$.;.<.<. .D.8.r.7.8.r.O.G S.~.0.-.-./.J W ! R W 2.! a ! T.4.",
"i y # # 3 f = y @ ~ B.-.-.J 6 f k E d I J #.M ].Q.6.6.T.T.N p O.0.~.r.w.8.,. .k.8.8.w.8.$.5 + 5 c p @ p d 3 T.5.5.E.T.5.A i - - ",
"! W I ! ! Q Q ! ! - + o i 2 2 = #   % i + - K P.-.*.o.i g k m @.0.7.0.8.8.7. .i.8.0.8.0.=.p 5 ,.%.&.=.6.*.i *.T.5.5.5.5.A W ! *.",
"9XE.E.6X8XE.6X8X8XW I d T.9.5.2.4.I C ! E Y @.g 5 @ e r 8 c d -.6.Q.Q.6.,.v L i.0.9.0.9.9.@.J 6.0.6.9.9.! i D W *.4.5.5.a *.E.9X",
"/.E.8X5.5.8X8XE.6X! W B.9.E.E./.5.5.4.R Q j E Q.T.Y Q./.;Xm Y Q./.6.9.Q.E p F ` 6.9./.0.0.-.c #.X.3.9.9.2.i D ! Q 3.E.E.- d 8X9X",
"5.5.E.8XE.8X6X7X/.W T  XA./.9.6X7X5.9.4.3.i M R.5.9.6.5.!.m Y Q.Q.Q.Q.9.9.%.Y M G -.Q.9.0.=.3 3 i.!.6./.2.k 2.T.5.5.5.3.= W E.T.",
"k ! 2.Y.*.5.E.5.! 3 T L.{.7X7X9.7X7X7X9XE.a E.E.9.6.5.5.(.P Y 6.Q.~.!.]._.o.Y ~ L I.].F.3.%.J R.Q.3.3.5.2.a Y.E.5.4.2.T.A R I y ",
"% # % % - u i - # 3 T P.9X).9.7X5.7X9.7X5.a R.T.5.5.5.E.,XP Q 6.@.Y L K.>XY J K &./.).!.m.d P ~.5.3.9.3.W i k A A i i k f - # # ",
"! D V D W ! Q E &.W g !.7X9X7X6X6X9.7X/.5.i /.5.6XT.3.V.m._ j i - O % + 3 , Y 7 m ,.Q.-.#.p k B.3.5.5.5.I # y ) c.y y & = b.|.N.",
"T.5.4.5.5.5.4.5./.I 6 n.6.9.9.7X7X7X0.7X9.p 3./.3.W v.R.1XS ! j C d u T %.-.J < < < 3 3 3 - f J 2.6.3.3.2.= ! 2X}.! R R a .XT.5.",
"5.4.4.5.4.4.5.6X/.k $ - d *.9.9.0.7X7X0.9.f p I d % k K _ *.(.`.R.U h.>XT.#.i Y &.F J *.#.J a &.Q.6.6.6.6.m (.T.8X! 6X! ! C.Y.4.",
"4.5.4.5.5.6X5.5.3.T % Q 5.9.9.9.0.9.9X0./.v p f u % i i J T.2.R.(.R.4.T.3.Y - G.]./././.`.4.I 2.6.9.5.3.3.m {.5.8X6X5.E.T.T.R.*.",
"5.4.5.5.4.5.5.E./.G.i g.Z.S.S.N %.$.@.m J m *.3.E.W T.E I 4.W !.4.4.T.3./.R = M 2.E.5.E.R.E.J 2.9./.3.6.Q.M }.E.6X4.4.6X4.5.T.4.",
"5.4.5.5.4.5.5.5.E.{.u i 5 5 , 8 r h O 5 p d T.3.5.9.5.! I T.T.2.Y.Y.T.2.E.R y J T.E.E.R.K &.i -.9.9.Y -.#.< qX3.! 8X5.E.4.E.4.5.",
"4.6X4.5.4.2.5.5.5./.k -.3.Q.6.:XJ.6.s -.9.J &.6.3./.E.I u T.2.4.3.4.2.T.5.5.a - - - = = o % o 5 5 2 + $ = < Z.,X6X6X5.4.5.5.5.4.",
"5.5.4.5.T.v.4.5.5.Q.s -.6.9.8.6.7.6.&.6.2.5 J /.-.5.5.W j ! W 4.T.*.E E 3.M.i W W &.#.*.L E 2.%.I *.&.-.J % L Q.4.4.E.E.5.4.4.5.",
"2.4.5.5.E.E 2.5.5./.m L 6.6.6.9.6.6.9.9.6.u L 6.3.2.T.2.; k f I *.k f S W A % *././.Q././.&.6.0.0.).9.6.M % Q 5.E.E.'.b.4.6X5.5.",
"j ! T.! D i U ! T.<XP -.6.9.9.9.6.6.Q.9.9.L J d u = u A i #   X - # X X $ 3 k Y /.0.0.9.6.-.3.6.0.).9.@.$ 2 9.9.3.v.( P.E.5.T.I ",
"- 3 i - f - i f h ( f d @.@. .5 p L L J P J 3.9.Q I 2.T.4.D ! *.&.3.Q %.-.6.X.c 6.).0.9.0.9.$.9.9.).0.3.s = k d k p - - j a y & ",
"E W W A a & g I T W #.X.Y J Y P Y d - d f = *.9.5.3.5.5.Y.2.6.6./.0.Q./.6.0. .5 ,.0.0.0.0.0.-.J 6.9.0.0.F i Y -.-.-.C # j E A y ",
"E.E.T.Q *.j R U J -.5.6.3.6.6.3.Q.A d E.E.D ! 8XE.E.5.E.3.3.3.6.Q.6.0.6.Q.X.p $ @.0.0.0.0.6.0.@.#.9.0.9.Y i Y Q././.2.A E.E.3.4.",
"E.8X2.T.4.C *.Q Q -.3.6.6.3.6.3.9.E A 8X9.A 3.E.E.E.9.E.3.5.6.3.-.6.6.9.6.H 1 F 6.0.0.0.0.0.0.9.=.6.9.6.3.p @.9.9./.5.f I *.E.E.",
"E.E.*.T.2.f j A 2.3.9.3.6.6.3.6.9.%.C /.E.A 2.6.5.9.3.9.6.3.6.6.&.6.6.9.9.Y u o.8.0.0.6.9.0.).9.-.,.0.9.9.d %./.6.E.*.= I Y.T.E.",
"E.*.A I J - a ! 3.3.6.6.6.6.6.6.6.Y J )./.i 3.9./.9.3.9.Q.3.*.Y %.6.9.0.0.,.d @.0.8.0.0.).0.9.0.7.$.=.9.0.Y -./.6.9.E f E 5.8X5.",
"6 3 - - i y D E.3.T.6.6.6.6.6.6.6.-.J *.&.f Y Y J o.d #.L c g < p F @.@.X.c p v $.6.0.,.0.0.0.0.).-.-.-.0.J %.6./.6.E f - f j - ",
"E j J T.T.C D Y.5.3.3.6.6.6.6.6.6.X.$ g J J u J k $ g 5 p 3 5 3 O p c F F p O @.-.6.0.,.$.0.0.0.).6.6.-.6.v ,./.Q.3.I = A a E R ",
"Y.D R 8X2.j ! *.3.3.6.6.3.6.6.6.6.#.5 - -./.).).6.c -.2.6.3.&.Y 3 =.6.0.0.6.s X.0.0.8.0.X.L 6.0.0.6.6.6.$.k 6.9.9.2.f A E.4.5.E.",
"5.R U 8X5.I Q 3.2.T.3.6.3.6.3.-.6.3.i 2 E )./.7X3.J -.6.6.6.6.#.c E @.6.9.#.1 Y 9.0.9.0.E $ 5 %././.0.=.-.p 6.0./.&.@ d 4.T./.E.",
"! A I E.E.A *.T.2.2.5.6.6./.-.Y 3.2.5 F /.E./.9.3.L 3.6.3.6.3.@.J 9.9.-.-.@.a 5 %.$.-.3.%.d O < L %.%.o.< $ ,.T.&.5.a - A &.W a ",
"f j D 8X9XI 2.! 2.E *./.6.9.#.u 3.-.i X./.9.9.9.*.m 2.T.T.3.T.W J 9.9.9./.3.C , d 5 2 3 c m % O i p d 2 @ 2 C A i j t @ * i a i ",
"2.*.I W J i ; i ! *.D ! *.*.J + L &.i &./.5.6X9.*.- I 2.3.5.5.*.J 6X6X/.6X/.Q Y 9.3.Q W 9.6.I J 3.3.3.-.d A 3.4.! I C D Y.4.2.Y.",
"*.j a ! ! D @ @ & @ @ = A u y i @ a i ! E.E.5.8X2.A ! W Y E I A - ! 3.5.E.9.I J E.3.! 2.5.5.k J 2.3.*.3.2.2.T.5.4.! R ! T.4.2.Y.",
"I = j 6XT.! Z C ! a i R 5.5.2.2.y 2.d 9X9.6X8X5.Q a a a y j a y y J T.8XE.3.Q k 5.5.2.3.5.T.C k *.T.4.&.4.5.4.T.4.3.4.5.3.2.2.! ",
"D a y 4.5.5.! 4.T.I A *.5.E.E.5.I 3.j E.8X5.8XE.I I 3.! Q 4.5.D d 3.E.E.E.5.! u 4.5.5.5.T.E.U I 2.5.4.d Y.5.4.3.5.T.4.2.*.E W I ",
"2.D % *.T.5.8XE.E.E i *.T.E.E.E R E.i W 5.9X5.E.I A 5.E.9.7X3.R k 5.E.! 2.T.! A E.T.E.E.5.5.I W T.5.5.R E 4.2.3.4.2.*.4.! 2.*.4.",
"5.*.% I 4.3.T.Y.5.E i W T.E.! ! E.E.- % k T U U f y I /.5.E.*.j - Y.E.I T R I A W I U *.! E & U 5.5.T.! I T.4.T.3.4.5.T.5.5.4.5.",
"4.4.y 2.5.5.4.2.5.A k W E.4.I 3.T.U o k i & i i a f C T.T.E.4.a X = j # % o 3 % ; % - = k d j @ 2.T.*.R A ! 4.T.3.2.*.4.T.T.4.5."
};
