/* XPM */
static char *_c0d921555584613a23d52d33454c8340eNCibq8T6iD2dq6[] = {
/* columns rows colors chars-per-pixel */
"64 64 208 2 ",
"   c #56431E",
".  c #5B441C",
"X  c #5D5F13",
"o  c #64481D",
"O  c #625F1C",
"+  c #755F1D",
"@  c #676817",
"#  c #6A6D14",
"$  c #64631B",
"%  c #6B6B1B",
"&  c #6C7115",
"*  c #6F7319",
"=  c #717516",
"-  c #74751B",
";  c #75791A",
":  c #78791A",
">  c #7A7D1C",
",  c #594721",
"<  c #5D4C24",
"1  c #5E532C",
"2  c #684D23",
"3  c #6A5627",
"4  c #62542C",
"5  c #65592F",
"6  c #6A5C2E",
"7  c #785C2C",
"8  c #645730",
"9  c #665B33",
"0  c #6A5D34",
"q  c #695F38",
"w  c #686526",
"e  c #6C6A2B",
"r  c #797C23",
"t  c #757428",
"y  c #7B7D2B",
"u  c #6B6235",
"i  c #6D6832",
"p  c #6D643A",
"a  c #6F693C",
"s  c #746336",
"d  c #7D6535",
"f  c #716F37",
"g  c #73663B",
"h  c #786739",
"j  c #736A3D",
"k  c #7B6B3D",
"l  c #75723D",
"z  c #7B793A",
"x  c #6F6940",
"c  c #746D43",
"v  c #796E42",
"b  c #767146",
"n  c #7B7245",
"m  c #7C7944",
"M  c #777248",
"N  c #7A754B",
"B  c #7D794E",
"V  c #7E7A51",
"C  c #86662C",
"Z  c #91672F",
"A  c #8C732C",
"S  c #886934",
"D  c #856D3B",
"F  c #896E3A",
"G  c #956D33",
"H  c #87713E",
"J  c #8D733E",
"K  c #9B7135",
"L  c #947A37",
"P  c #92733A",
"I  c #9B793D",
"U  c #A27739",
"Y  c #A47A3C",
"T  c #AB7D3D",
"R  c #B07E3B",
"E  c #827444",
"W  c #8C7643",
"Q  c #817749",
"!  c #837B4D",
"~  c #8C7C4A",
"^  c #947741",
"/  c #957B44",
"(  c #9B7D44",
")  c #927E49",
"_  c #997F48",
"`  c #817E53",
"'  c #887F51",
"]  c #A57D41",
"[  c #7E8221",
"{  c #7D8029",
"}  c #7F8034",
"|  c #83851F",
" . c #838620",
".. c #868A23",
"X. c #8C8D25",
"o. c #84842B",
"O. c #868A2A",
"+. c #8F9125",
"@. c #8D9129",
"#. c #939629",
"$. c #95992A",
"%. c #858731",
"&. c #898C36",
"*. c #83833A",
"=. c #9B833A",
"-. c #8D9131",
";. c #959B32",
":. c #999833",
">. c #AE803F",
",. c #AE893F",
"<. c #B3833F",
"1. c #9BA335",
"2. c #89824C",
"3. c #94814D",
"4. c #9C834B",
"5. c #9B8449",
"6. c #848256",
"7. c #8A8555",
"8. c #868458",
"9. c #89865A",
"0. c #8C8B5C",
"q. c #978753",
"w. c #9B8750",
"e. c #928A57",
"r. c #9D8952",
"t. c #918E5D",
"y. c #8F905E",
"u. c #93915E",
"i. c #9C935D",
"p. c #A48246",
"a. c #AC8343",
"s. c #A38549",
"d. c #A8874B",
"f. c #A48A4F",
"g. c #AC8A4B",
"h. c #B38542",
"j. c #B88641",
"k. c #B48946",
"l. c #BB8B45",
"z. c #B48B4A",
"x. c #BA8E4A",
"c. c #BC924C",
"v. c #A48C52",
"b. c #AB8E50",
"n. c #B18F50",
"m. c #AC9559",
"M. c #B59352",
"N. c #BB9553",
"B. c #BF9954",
"V. c #8F8F60",
"C. c #908F60",
"Z. c #939362",
"A. c #999662",
"S. c #9B9A65",
"D. c #9C9B68",
"F. c #A49C64",
"G. c #A19E6A",
"H. c #A3A167",
"J. c #A8A167",
"K. c #A4A26A",
"L. c #AAA66C",
"P. c #ADAA6D",
"I. c #B2AB6F",
"U. c #B9B174",
"Y. c #C18F46",
"T. c #C08F49",
"R. c #C4944B",
"E. c #C7994F",
"W. c #C9994E",
"Q. c #C09751",
"!. c #C59B54",
"~. c #CB9D53",
"^. c #CC9E53",
"/. c #CD9F54",
"(. c #C49E58",
"). c #CEA156",
"_. c #CFA156",
"`. c #CDA35A",
"'. c #CBA65C",
"]. c #D0A256",
"[. c #D2A55A",
"{. c #D4A85D",
"}. c #D6AA5E",
"|. c #D9AD5E",
" X c #CDA760",
".X c #CDAA60",
"XX c #D6AB60",
"oX c #D9AE61",
"OX c #DDB364",
"+X c #D9B769",
"@X c #DCB668",
"#X c #E0B666",
"$X c #E1B867",
"%X c #E0B768",
"&X c #E3BB6A",
"*X c #E8BF6D",
"=X c #E5BF71",
"-X c #E7C16E",
";X c #E9C16F",
":X c #E6C271",
">X c #EBC471",
",X c #EDC974",
"<X c #EFCE7D",
"1X c #F1CE76",
"2X c #F2CE7A",
"3X c #F4D27D",
"4X c #F9D078",
"5X c #F8D783",
/* pixels */
"` g.[.[.{.{.{.{._.s.N N B B c b p 6.` ` V N N N c b a.^._._.l.h.R R./.]._.a.! 8.6.` ` ` n 8.` V N N N N b N N n N 6.9.0.0.9.6.` ",
"` g.[.{.{.|.oX{./.P z.z.N.M.M.b.d p j c f O.&.b c c Y R./.^.E.R.E.l.R.W.^.T ! 6.` V V B n 0.0.0.9.N c N B 8.8.Z.Z.Z.0.0.0.9.6.` ",
"` d.{.{.{.{.{.{.{.N.oX{.{.{.{.oXP 6 i t X.X.$.} j c I E.l.<.j.^.~.~./.^.E.h.c ` ` V V B Q 0.0.0.0.0.0.Z.0.u.Z.Z.0.9.0.0.0.9.6.` ",
"b ( {.{.{.{.{.{.{.!.|.{.[.oXoXoXP ..;.@.#.X.X.#.@.y =.k./.^.R.W.~.~.~.W.W.l.c V B N N N E 9.0.0.0.0.Z.Z.u.u.0.6.` 6.6.8.6.` ` B ",
"c S [.[.[._./.~.{.N.{.~.{.{.{.{.L X.#.# r @.+.+.; X.;.;.:.,.R.l.T.l.x.T.R.h.q b c c p p k 8.6.8.7.A.S.Z.Z.0.6.6.` ` ` ` B N N c ",
"H . Y c.E.k.k.k.x.] {.~.{.{.{.{.A ..#.* & # [ #.= | X.X.#.1.=.d.( ( d.d.s.F g n n n E k g 6.` i.J.S.Z.Z.Z.0.c E 4.w.~ E h g k D ",
"{.z.$XOXOXoX[.oX~.c.{.[.[.{.{.^.A = |  .& & & - > & ..X.X.+.;.7.0.9.0.t.t.t.0.9.9.9.9.A.E 6.7.K.Z.Z.Z.Z.Z.` g oX].{.|.{.OX#XOXoX",
"[.x.{.[.{.{.{.~._.z.{.[.{.{.{.E.C & & ; & & # # # ; = X...; $.*.7.9.9.9.8.8.` 8.8.8.6.6.E V B Z.Z.Z.Z.Z.8.` E [._./._.[.[.XX{.[.",
"[.x._._.{.{.{.~.{.a.{.{._.{._.l.+ = # & & # @ @ i O - #  .; : ;.y 7.9.8.` N V B ` ` ` B s 6.B Z.Z.Z.Z.0.V V D ~._.~.~.{.XXXXXX{.",
"].c.{.[.~.[.[.{.[.Y Y a.T a.Y G o $ @ # # @ $ i n b w : X # O % r 2.6.c c V V V M B V N 0 6.V 9.Z.Z.Z.9.` B W `.~.~._.{.XXXXXX{.",
"^.k.[.[.~._.[._.~.[.~.~.~.].[.[.S j l m b f N B 9.9.` j i i z B M B 9.6.` 6.V V B V V N 9 ` V ` 0.t.t.8.` V W {.{.~.~.{.{.XXXX{.",
"].a._._._.~._._.[.{.{._.[.^.^.].F 6.9.6.9.9.9.9.9.8.6.V V V ! 8.8.8.8.` B V V V V V V B 0 V V V ` 8.0.6.` N F [.[.~.~.~.~.{.{.{.",
"_.a.~._._._._._._.].[.[.[._._._.^ ` 8.9.8.6.6.` 6.6.` V V V B 6.8.8.6.N N B B B B B B N 0 V V V V B B N N c F [.]./.~.~.~.].].].",
"~.a._.~._././././././._._._./._.^ ` 8.8.6.` ` ` ` V N B N N N N V V N N M b N N B N N c 0 B N N N N N M M c D [._._.E.R._._._.~.",
"E.K E.~.~./.~.~.~.~.~.~.~.!.~.~.P M N B V B B V B N N N N N N N N N M M c j c c b c c c 0 N N M N M b b c 0 d ]._./.E._.!././.~.",
"K o Y l.l.<.T T >.h.h.h.a.T h.k.7 8 p a a a p 0 9 8 9 9 9 9 9 9 9 0 0 9 1 1 1 4 8 q p q   E k 0 0 0 s 9 < < o k.k.k.a.Y T Y Y Y ",
"u.7.0.7.~ e.F.t.7.6.7.7.e.e.e.e.0 7.0.0.u.S.S.7.i.A.Z.i.A.A.0.t.e.e.7.E .X+X+X+X.X.X@X@Xp.&X-X>X=X<X2X,X:X@X( e.7.! 7.u.u.t.0.t.",
"A.Z.t.0.t.9.Z.Z.Z.0.Z.Z.0.0.6.9.g Z.0.Z.Z.Z.0.Z.t.Z.Z.t.0.0.0.9.0.9.8.3.&X&X&X&X*X*X*X&X!.@X*X*X:X,X,X,X>X$Xb.0.0.0.Z.Z.Z.u.Z.Z.",
"S.Z.7.8.6.6.9.9.0.u.A.A.Z.0.7.9.g Z.0.0.Z.Z.7.V.V.V.0.` t.V.0.B ` 8.6.3.*X{.@X&X*X*X&X#X(.OX*X*X,X,X,X-X&X*Xb.9.9.0.Z.Z.Z.A.A.S.",
"Z.8.` Z.A.t.u.A.G.Z.Z.Z.Z.0.6.8.g C.0.V.t.0.0.0.0.` N ` 0.0.9.` ! ` 6.~ #X$X&X@X&X&X&XOXR.&X&X*X>X,X;X$X*X&Xf.0.0.9.t.Z.Z.Z.Z.Z.",
"6.6.6.A.Z.Z.0.Z.Z.Z.Z.Z.0.0.6.8.s 0.8.0.0.0.0.0.8.N 8.0.0.9.9.0.9.9.6.k @X&X&X&X&X&X$XOXR.*X&X&X&X*X&X&X*X@Xp.9.0.9.9.7.7.9.0.0.",
"` ` 6.! 6.0.0.9.9.9.9.9.9.8.8.6.u 0.` B 7.9.8.6.6.` 0.9.9.0.0.9.8.8.` s XX&X&X&X&XOX^._.c.XX&X&X&X&X&X&X&X@Xb.` 9.9.9.6.6.N V V ",
"V B 6.N N N B B V 6.8.8.6.6.6.6.9 9.` B M b N V 8.9.0.8.0.9.8.6.6.6.` g OXOX^.E.W.R.l.^.x.&XOX@X&X&X&X&X&X@Xf.` V ` ` B B V V V ",
"V N 6.` c u p g j p g M N ` 6.B 5 8.` B N N p b ` 8.9.8.6.6.6.6.6.6.V 6 @XOX^.W.R.E.~.^.x.@X&X&X&X&X&X&X&X%Xb.` V N V V V V V V ",
"N j 6.6.` B c j j c V 6.6.` V N 8 B N N N N N a 0 u u p N N B V V B p 6 @XOX@X&X&X].W.R.x.@X%X&X&X&X%X%X@X].d.` V B B N N B B B ",
"9 p ` V ` 6.6.6.` B B B N g p j 4 M b M N N N N c 4 4 9 p a c b a p u 3 OX@X&X&X[.l.l.Y.a.%XOX|._.~.^.~.W.W.S c V B c c x a c a ",
"5 5 ` ` 6.6.V N N s r.4./ ( f.s.. W 4.) w.5.5.v.b.d 5 v n n g g g v v g ^ ( 4.5.4.4.4.W 2 Y Y G _ 4.4.) ) ~ v v c Q E E h u 0 u ",
"` v B V V N M M N 4.>X3X3X>X&X@Xp.:X@X&X2X5X3X*X&X`.! Z.A.Z.Z.Z.0.Z.Z.t.Z.Z.A.D.D.D.S.9./ E.E.h.D.Z.Z.Z.u.Z.Z.Z.Z.Z.Z.Z.Z.Z.Z.0.",
"N j N N N M M b N f.;X5X3X*X&X@XM.OX@X@X2X5X2X#X&X`.7.0.Z.C.t.0.Z.Z.Z.0.0.0.Z.t.0.9.9.6.^ E.R.T A.t.t.0.Z.Z.Z.u.S.A.u.A.Z.Z.t.6.",
"B v M c c b b b c 5.OX|.@X#X-XOXN.&X{.oXOX@XOXOX&X_.7.0.0.9.0.9.9.0.9.9.9.9.0.0.0.0.6.` J R.l.U A.9.0.0.0.0.V.H.D.Z.D.Z.Z.Z.8.V ",
"B 0 c c c c c c u / {.{.&X&X@X{.a.oXoXoXoX|.@XOXOXc.6.7.6.9.8.` 6.6.` N B ` 6.9.0.8.V N F T.h.K t.` 6.8.9.9.0.0.0.u.Z.Z.Z.6.V V ",
"N < p c c c a 9 4 P {.oX@XoXoXoXY OX_.oXoXoXOXOXoXk.N ` 6.8.6.B B B B c c B V V V B N N S l.l.K B N B N N ` ` 8.9.8.u.9.` N N B ",
"9   4 4 4 < < <   C T Y a.a.a.a.2 z.a.a.z.z.a.x.k.K 4 c M c c j a p 0 5 4 9 p p c Q ! ! 3 I I F N M v v p p s g g g g j p p p p ",
"I.L.L.G.J.P.I.U.m.&X1X@X3X2X2X>X( 5X3X,X3X,X&X>X;X{.D.S.D.S.S.S.S.K.L.L.S.G.A.A.Z.Z.0.9.~ A.A.H.H.Z.Z.Z.K.K.G.D.D.S.A.A.S.K.P.I.",
"Z.Z.0.0.Z.0.0.Z.m.$X*X*XOX*X*X*XN.&X&X*X&XXX&X&X@X`.0.A.D.K.S.Z.Z.0.0.0.0.0.0.9.9.9.8.` 3.C.L.P.P.K.0.0.0.0.Z.Z.0.0.0.0.6.V ` 0.",
"9.9.0.0.0.V.9.t.m.*X&X*XOX*X&X*Xz.&X&X&XOX&X&X&X&X[.9.Z.D.D.S.Z.Z.0.9.9.8.8.8.6.6.6.6.` 2.0.K.S.A.Z.C.0.0.0.0.0.6.8.6.V N V B 0.",
"0.0.0.u.0.9.8.0.r.$XOX&X&X$X&X&Xp.&X$X&X&X&X&X&X$X!.7.u.Z.Z.Z.Z.0.0.8.8.8.9.0.0.9.V ` 6.! 0.u.A.Z.Z.V.8.0.9.0.9.8.V N B ` V ` 0.",
"0.0.t.0.0.` 6.0.q.|.|.&X&X$X$X$Xp.$X&XOX$X&X&X@X|.c.e.0.0.0.0.0.0.0.9.6.8.9.9.9.9.` B ` N 0.0.9.0.9.` ` 6.8.9.9.8.6.8.9.9.9.` 9.",
"9.9.0.0.9.V ` 8.q.{.|.#X#X#X@X@Xa.#X$X$XOXOX{.oX@XW.6.8.9.9.9.0.0.9.9.6.6.6.` ` N N ` 6.N 0.7.z z y *.` V V 6.` 6.0.0.0.0.0.9.9.",
"6.` 9.9.` ` ` ` ~ |.^.|.|.{.{.].Y @X@XOX@X|.@XOXOX~.6.8.6.8.8.9.9.8.8.8.N c u a c ` ` 6.M 0.0.l [ X.#.&.y y y %.2.9.9.0.0.9.9.9.",
"` V B ` ` ` ` ` k oXW.R.W.W.R.Y.K OXOX@X@XOX{.|.|.~.! 9.8.6.` ` 6.` V N c p j N ` ` ` N j 0.9.B w % e w % w i a m 6.6.8.9.8.9.8.",
"` ` ` ` ` V V b k oX{./.E.E./.~.Z _.OXoXoXoXW.|.{.R.Q 8.8.8.6.N c c N B B B V V ` V c p p ` 8.8.N c N N N B ` ` ` ` V M N V ` ` ",
"N b b N c j 9 p s ~.[.{.[.[.!.j.Z l.W._.[.W.].].R.l.v 6.6.` N c c c N N N N N N c p u 0 0 ` ` ` N b N N N N B V V V V N a u p c ",
"u < 0 g k s g g h / ( 5.5._ ^ ^ h 4.4.4.5.f.f.4._ F < g g g M n n v c 4 H / _ _ 4.s.5./ 2 w.r._ 5.4.5.4.4.5.7 v n n n n k g g k ",
"9.~ U.K.A.Z.P.I.L.S.Z.Z.Z.0.9.0.t.u.0.t.S.S.Z.9.9.7.` Z.u.Z.Z.u.t.t.0.~ %X%XOX@X&X#X|.|.M.>X#XOX&X#X#XOX|.|.( K.A.A.Z.Z.D.S.A.0.",
"9.i.S.u.Z.P.P.L.K.S.S.Z.t.0.6.0.Z.C.0.Z.C.V.9.0.9.N Q 0.0.Z.Z.Z.0.8.8.) @X>X4X&X#X#XoX{.Q.#X%X&X&XOXoX{.{.XXs.S.0.S.Z.V.Z.Z.Z.0.",
"9.i.Z.Z.K.K.K.K.S.A.Z.Z.0.6.6.0.V.V.V.C.V.8.0.0.0.N 6.0.0.0.Z.Z.Z.9.` 3.OXOX&X@X@X#XOXoXQ.&XOX&X@XOXoX[.[.XXI Z.u.u.9.9.A.Z.Z.0.",
"8.q.Z.S.A.A.A.Z.Z.Z.Z.0.9.` 6.V.0.0.0.9.6.6.9.0.9.M ' 9.0.t.Z.Z.0.9.9.J oXOX@XOX@XOXoX{.x.@X@XOXOX@X|.&XoX{.I L.Z.9.6.0.Z.Z.Z.6.",
"` 7.0.Z.Z.Z.Z.Z.Z.Z.8.9.9.` 6.0.0.0.0.9.6.8.9.9.8.c ! 9.A.S.Z.C.0.9.6.J {.{.oXOXOXOXoX[.h.XXXX|.@X@X@XOXoX{.p.D.Z.u.S.Z.Z.Z.0.` ",
"6.E 0.8.0.0.0.0.0.0.9.8.8.V 6.8.9.0.9.8.6.6.8.8.V c ! 8.A.C.t.0.0.9.6.H XXXXXX{.{.XXXX_.h.{.{.{.OXOXOXOXXXXXd.A.S.A.A.Z.Z.0.` ` ",
"6.g 0.9.6.6.9.9.8.8.8.6.6.` B 6.6.6.6.6.6.6.6.V N a Q 6.8.9.9.9.8.8.6.F {.XXXX{.{.{.XX_.k.XX{.{.OXOXoXXXXXXXd.S.Z.Z.0.8.6.V V ` ",
"` 9 9.8.8.6.8.8.8.8.6.V ` ` N N V 6.6.6.` ` B M N p M 6.V B ` 6.6.6.N D {.{.{.[.{.{.{.!.z.XX[.XXoXXXXXXXXX~.p.Z.0.` V B V N b 8.",
"N 5 8.8.6.` 6.6.` V N B ` ` V b N N V ` V N N N M 0 b ` ` ` 6.` 6.N a s {.{.{.XX{.{.~.l.k.XXXXXXXXXXXX{.~.h.d.Z.6.V N b c c 6.8.",
"M , x c b c u 5 4 p p c b M N b j c c c a x x x a 4 p M c a u p 0 9 9 2 h.k.x.x.z.T Y Y C a.a.z.k.z.a.U U Y f.0.0.9.9.9.9.8.8.6.",
"N D (.(.B.(.N.'.'.h i.F.F.F.A.u.k i.e.u.i.i.e.e.e.! d.XX`._.`.{.{.XX`.B.(.`.{.(.'.{.{.~.D A.i.i.F.S.i.A.A.A.u.0.0.0.0.9.9.6.6.6.",
"M M.@XOX{.{.{.oXOXw.0.u.V.9.0.0.! K.Z.y.t.e.t.0.9.9. X@XOXXXOXOXOXoXXX@XOXOXOXXXOXOX{._.v.0.Z.A.A.t.0.t.V.0.0.9.0.9.9.9.6.6.6.8.",
"N M.oXXXoXOX@XOXOXv.9.0.0.0.0.0.Q Z.0.K.K.A.Z.Z.9.9.'.@XoXoX{.OXOXoXOXOXOXOXOXOXOXOX{._.4.0.0.0.0.0.0.V.V.0.0.0.0.9.6.B N B 8.6.",
"M n.XXOX@X@X@XoXOXv.0.9.9.0.0.0.E t.L.Z.Z.Z.Z.C.8.6.B.OXoXoXoX{.OXoXoXoXoX[.{.XXoXXX[._.s.0.0.0.8.0.0.0.0.0.9.9.9.8.` ` 8.9.8.B ",
"M d.XX%X@X@XOXoXoXv.9.9.0.0.9.9.n 0.S.Z.Z.0.0.9.8.B M.XXXX{._.{.XXXXXX{.~.{.{.{.[.]._.W.s.0.0.0.9.` ` 6.` 8.9.9.9.6.6.9.9.6.B N ",
"b ( XXOXOXOXoXoXoXv.0.0.0.0.8.` j 9.9.9.6.6.8.6.6.N S z.k.T T T k.x.h.l.R.h.l.R.~.].R.<./ 9.0.9.6.N M N l M V 6.` ` ` b i ..O.*.",
"z / XXoXoXoXXX{.[.v.9.0.9.9.9.8.g 8.8.8.8.6.6.6.6.M z.{.{.{.[.~.(.x.c.c.c.k.k ) ~ 3.2.E u V B B b N N j o.-.l b N B b e [ X.| t ",
"m L XXXXXXXXXX[.{.v.6.6.6.8.8.8.g 8.6.6.6.6.6.6.` N g./.[.{.{.{.{.[._.[.[.!.0.0.7.9.9.8.M 8.z y ..O.{ r @.X.+.@.%.o.r ....; w B ",
"` J {.{.{.{._./.[.f.` ` V ` 6.6.p 6.6.6.6.B ` ` B N x._._.[.[.{.{._.[.[.[.!.7.8.8.6.6.8.m 0.0.B a 3 & > - % % > | .. .- % i ` ` ",
"` ( {.{._.R.l.{.].s.B B V V V V p 6.6.6.` V V B N c z._.].].E._.~.W.[.[.[.c.7.9.9.8.6.6.m 0.9.8.` b p p c c p $ @ % i j N 6.6.` "
};
